<svg width="27" height="19" viewBox="0 0 27 19" fill="none" xmlns="http://www.w3.org/2000/svg">
<path d="M0 1.65967C0 0.926341 0.594666 0.333008 1.32667 0.333008H12.0067C12.3585 0.333008 12.696 0.472781 12.9448 0.721579C13.1936 0.970378 13.3333 1.30782 13.3333 1.65967C13.3333 2.01153 13.1936 2.34897 12.9448 2.59777C12.696 2.84657 12.3585 2.98634 12.0067 2.98634H1.32667C0.974813 2.98634 0.63737 2.84657 0.388572 2.59777C0.139773 2.34897 0 2.01153 0 1.65967ZM0 9.66634C0 8.93301 0.594666 8.33967 1.32667 8.33967H25.34C25.6919 8.33967 26.0293 8.47945 26.2781 8.72825C26.5269 8.97704 26.6667 9.31449 26.6667 9.66634C26.6667 10.0182 26.5269 10.3556 26.2781 10.6044C26.0293 10.8532 25.6919 10.993 25.34 10.993H1.32667C0.974813 10.993 0.63737 10.8532 0.388572 10.6044C0.139773 10.3556 0 10.0182 0 9.66634ZM1.32667 16.3463C0.974813 16.3463 0.63737 16.4861 0.388572 16.7349C0.139773 16.9837 0 17.3212 0 17.673C0 18.0249 0.139773 18.3623 0.388572 18.6111C0.63737 18.8599 0.974813 18.9997 1.32667 18.9997H17.34C17.6919 18.9997 18.0293 18.8599 18.2781 18.6111C18.5269 18.3623 18.6667 18.0249 18.6667 17.673C18.6667 17.3212 18.5269 16.9837 18.2781 16.7349C18.0293 16.4861 17.6919 16.3463 17.34 16.3463H1.32667Z" fill="#419EAC"/>
</svg>
