<svg width="60" height="60" viewBox="0 0 60 60" fill="none" xmlns="http://www.w3.org/2000/svg">
<rect width="60" height="60" rx="30" fill="#41AC8F" fill-opacity="0.1"/>
<path d="M33.75 17.5C36.1875 17.5 38.255 18.3488 39.9525 20.0463C41.6508 21.7446 42.5 23.8125 42.5 26.25H40C40 25.4167 39.8492 24.6404 39.5475 23.9213C39.245 23.2029 38.8333 22.5625 38.3125 22L36.5937 24.9063C36.3854 25.2396 36.1617 25.6042 35.9225 26C35.6825 26.3958 35.4271 26.7396 35.1562 27.0312C34.8646 27.3438 34.5 27.5 34.0625 27.5C33.625 27.5 33.25 27.3542 32.9375 27.0625C32.625 26.7708 32.4688 26.4062 32.4688 25.9687C32.4688 25.5312 32.625 25.1562 32.9375 24.8438C33.2292 24.5521 33.5783 24.2917 33.985 24.0625C34.3908 23.8333 34.7604 23.6146 35.0938 23.4062L38 21.6875C37.4375 21.1667 36.7971 20.755 36.0788 20.4525C35.3596 20.1508 34.5833 20 33.75 20V17.5ZM30.0937 42.5C28.3437 42.5 26.7033 42.1667 25.1725 41.5C23.6408 40.8333 22.3075 39.9325 21.1725 38.7975C20.0367 37.6617 19.1354 36.3283 18.4688 34.7975C17.8021 33.2658 17.4688 31.625 17.4688 29.875C17.4688 26.8333 18.4375 24.1508 20.375 21.8275C22.3125 19.505 24.7812 18.0625 27.7812 17.5C27.4062 19.5625 27.5208 21.5779 28.125 23.5462C28.7292 25.5154 29.7708 27.2396 31.25 28.7188C32.7292 30.1979 34.4529 31.2396 36.4212 31.8438C38.3904 32.4479 40.4063 32.5625 42.4688 32.1875C41.9271 35.1875 40.4896 37.6562 38.1562 39.5937C35.8229 41.5312 33.1354 42.5 30.0937 42.5Z" fill="#41AC8F"/>
</svg>
