<svg width="18" height="3" viewBox="0 0 18 3" fill="none" xmlns="http://www.w3.org/2000/svg">
<path d="M16 3C15.1716 3 14.5 2.32843 14.5 1.5C14.5 0.671573 15.1716 -1.01779e-07 16 -6.55671e-08C16.8284 -2.93554e-08 17.5 0.671573 17.5 1.5C17.5 2.32843 16.8284 3 16 3Z" fill="#FAFAFA"/>
<path d="M9 3C8.17157 3 7.5 2.32843 7.5 1.5C7.5 0.671572 8.17157 -4.07759e-07 9 -3.71547e-07C9.82843 -3.35335e-07 10.5 0.671573 10.5 1.5C10.5 2.32843 9.82843 3 9 3Z" fill="#FAFAFA"/>
<path d="M2 3C1.17157 3 0.5 2.32843 0.5 1.5C0.5 0.671572 1.17157 -7.13738e-07 2 -6.77527e-07C2.82843 -6.41315e-07 3.5 0.671572 3.5 1.5C3.5 2.32843 2.82843 3 2 3Z" fill="#FAFAFA"/>
</svg>
