<svg width="140" height="70" viewBox="0 0 140 70" fill="none" xmlns="http://www.w3.org/2000/svg">
<path d="M34.2517 27.364C34.2517 22.5728 31.7011 18.4586 27.3823 16.3754C24.6766 15.0735 20.8258 14.9172 17.9119 14.9172H8.13022V53.4553H10.0548H11.981V18.4065H18.6931C21.3989 18.4065 23.7915 18.5627 26.185 19.8647C28.7867 21.2708 30.401 24.3434 30.401 27.2598C30.401 31.2699 27.7988 34.2904 24.0524 35.4362C21.7109 36.1653 18.1728 36.009 15.7793 36.009L28.84 53.4553H33.6785L22.8043 39.0816C29.2564 38.665 34.2517 33.9259 34.2517 27.364Z" fill="#419EAC"/>
<path d="M60.8099 53.4553V49.9661H43.5872V35.7486H60.2382V32.2594H43.5872V18.4065H60.8099V14.9172H39.7364V53.4553H60.8099Z" fill="#419EAC"/>
<path d="M88.6035 42.8313C88.6035 36.8423 84.6994 33.353 79.1839 31.6865C75.2814 30.4887 70.0263 29.6034 70.0263 24.4476C70.0263 20.5417 73.1484 17.7295 76.9989 17.7295C80.7973 17.7295 83.8159 20.9583 83.8159 24.708H87.6666C87.6666 18.719 82.9307 14.2402 76.9989 14.2402C71.0671 14.2402 66.1755 18.5106 66.1755 24.6038C66.1755 31.2699 70.7033 33.1447 76.1668 34.7591C80.3815 36.009 84.7527 37.7797 84.7527 42.9875C84.7527 47.3101 81.2656 50.6431 76.9989 50.6431C72.1598 50.6431 69.1943 47.4142 68.9862 42.6751H65.1354C65.2395 49.6015 70.1825 54.1323 76.9989 54.1323C83.3469 54.1323 88.6035 49.237 88.6035 42.8313Z" fill="#454238"/>
<path d="M114.622 53.4553V49.9661H97.399V35.7486H114.05V32.2594H97.399V18.4065H114.622V14.9172H93.5483V53.4553H114.622Z" fill="#454238"/>
<path d="M139.605 18.4065V14.9172H118.115V18.4065H126.96V53.4553H130.811V18.4065H139.605Z" fill="#454238"/>
<path d="M128.861 13.0196H118.115L128.861 0L139.606 13.0196H128.861Z" fill="#454238"/>
<path d="M9.75626 54.9461H0L10.0548 70L19.5125 54.9461H9.75626Z" fill="#419EAC"/>
</svg>
