<svg width="60" height="60" viewBox="0 0 60 60" fill="none" xmlns="http://www.w3.org/2000/svg">
<rect width="60" height="60" rx="30" fill="#FA4985" fill-opacity="0.1"/>
<path d="M35.128 37.432C36.068 36.406 37 35.388 38.316 34.948C38.9365 34.7274 39.6018 34.6631 40.2531 34.7608C40.9043 34.8584 41.5215 35.1151 42.05 35.508C43.498 36.572 44.83 35.068 43.232 33.896C42.4445 33.317 41.5284 32.9376 40.5621 32.7903C39.5958 32.6429 38.6083 32.7321 37.684 33.05C36.244 33.53 35.258 34.584 34.274 35.638C33.474 36.492 32.674 37.348 31.63 37.896C30.39 38.544 29.5 37.842 29.5 36.624V36.6C29.5 35.004 28.684 34 27 34C26.02 34 25.016 34.516 24 35C21.6248 36.1332 19.3969 37.5523 17.366 39.226C17.162 39.3966 17.0336 39.6407 17.0085 39.9055C16.9834 40.1702 17.0637 40.4341 17.232 40.64C17.732 41.24 18.392 40.964 18.892 40.564C19.718 39.898 22.452 37.782 24.758 36.684C25.712 36.23 26.482 36 27 36C27.5 36 27.5 36.204 27.5 36.68C27.496 39.332 30.08 40.964 32.558 39.668C33.566 39.138 34.35 38.284 35.128 37.432ZM20 33C23 31 26.51 29 30 29C31.5 29 31.5 29.75 31.5 30.5C31.5 31.25 31.5 32 33 32C38.054 32 43.726 25.572 44 21L39 23L34.316 21.052C33.092 20.644 32.46 22.54 33.684 22.948L36 24L33 25L25 22.5C24.528 22.342 24.222 22.554 24 23L21 29L17 31L20 33ZM25 19C25 18.4696 25.2107 17.9609 25.5858 17.5858C25.9609 17.2107 26.4696 17 27 17C27.5304 17 28.0391 17.2107 28.4142 17.5858C28.7893 17.9609 29 18.4696 29 19C29 19.5304 28.7893 20.0391 28.4142 20.4142C28.0391 20.7893 27.5304 21 27 21C26.4696 21 25.9609 20.7893 25.5858 20.4142C25.2107 20.0391 25 19.5304 25 19Z" fill="#FA4985"/>
</svg>
