<svg width="60" height="60" viewBox="0 0 60 60" fill="none" xmlns="http://www.w3.org/2000/svg">
<rect width="60" height="60" rx="30" fill="#1AC6D5" fill-opacity="0.1"/>
<path fill-rule="evenodd" clip-rule="evenodd" d="M30 41.25C36.2131 41.25 41.25 36.2131 41.25 30C41.25 23.7869 36.2131 18.75 30 18.75C23.7869 18.75 18.75 23.7869 18.75 30C18.75 36.2131 23.7869 41.25 30 41.25ZM30 42.5C36.9037 42.5 42.5 36.9037 42.5 30C42.5 23.0963 36.9037 17.5 30 17.5C23.0963 17.5 17.5 23.0963 17.5 30C17.5 36.9037 23.0963 42.5 30 42.5Z" fill="#1AC6D4"/>
<path d="M22.5 37.2687C22.5 36.6231 22.9825 36.0775 23.625 36.0062C28.4469 35.4725 31.575 35.5206 36.3862 36.0181C36.6265 36.0433 36.8542 36.138 37.0416 36.2905C37.2289 36.443 37.3678 36.6468 37.4412 36.8769C37.5147 37.1071 37.5195 37.3536 37.4551 37.5865C37.3908 37.8193 37.26 38.0284 37.0788 38.1881C31.4006 43.1375 28.1556 43.0694 22.9 38.1931C22.6438 37.9556 22.5 37.6175 22.5 37.2687Z" fill="#1AC6D4"/>
<path fill-rule="evenodd" clip-rule="evenodd" d="M36.3219 36.6394C31.5488 36.1457 28.4656 36.0994 23.6931 36.6275C23.536 36.6459 23.3912 36.7215 23.2864 36.8399C23.1816 36.9583 23.1241 37.1113 23.125 37.2694C23.125 37.4482 23.1994 37.6175 23.325 37.735C25.93 40.1513 27.9038 41.2432 29.8331 41.25C31.7694 41.2569 33.8494 40.1738 36.6681 37.7175C36.7577 37.6378 36.8221 37.5338 36.8537 37.4182C36.8852 37.3025 36.8825 37.1802 36.8458 37.0661C36.8092 36.9519 36.7401 36.8509 36.6471 36.7753C36.5541 36.6996 36.4411 36.652 36.3219 36.6394ZM23.5563 35.385C28.4288 34.8457 31.6025 34.8944 36.4513 35.3963C36.8127 35.434 37.1553 35.5763 37.4371 35.8058C37.7189 36.0352 37.9277 36.3418 38.038 36.6881C38.1482 37.0344 38.1551 37.4053 38.0577 37.7554C37.9604 38.1055 37.7631 38.4197 37.49 38.6594C34.6306 41.1519 32.2494 42.5094 29.8294 42.5C27.4025 42.4913 25.1263 41.1107 22.4756 38.6513C22.2858 38.4745 22.1346 38.2605 22.0312 38.0226C21.9279 37.7848 21.8747 37.5281 21.875 37.2688C21.8741 36.8028 22.0451 36.3529 22.3554 36.0052C22.6656 35.6575 23.0932 35.4371 23.5563 35.385Z" fill="#1AC6D4"/>
<path d="M35 27.5C35 28.8261 34.4732 30.0979 33.5355 31.0355C32.5979 31.9732 31.3261 32.5 30 32.5C28.6739 32.5 27.4021 31.9732 26.4645 31.0355C25.5268 30.0979 25 28.8261 25 27.5C25 26.1739 25.5268 24.9021 26.4645 23.9645C27.4021 23.0268 28.6739 22.5 30 22.5C31.3261 22.5 32.5979 23.0268 33.5355 23.9645C34.4732 24.9021 35 26.1739 35 27.5Z" fill="#1AC6D4"/>
<path fill-rule="evenodd" clip-rule="evenodd" d="M30 31.25C30.9946 31.25 31.9484 30.8549 32.6517 30.1517C33.3549 29.4484 33.75 28.4946 33.75 27.5C33.75 26.5054 33.3549 25.5516 32.6517 24.8483C31.9484 24.1451 30.9946 23.75 30 23.75C29.0054 23.75 28.0516 24.1451 27.3483 24.8483C26.6451 25.5516 26.25 26.5054 26.25 27.5C26.25 28.4946 26.6451 29.4484 27.3483 30.1517C28.0516 30.8549 29.0054 31.25 30 31.25ZM30 32.5C31.3261 32.5 32.5979 31.9732 33.5355 31.0355C34.4732 30.0979 35 28.8261 35 27.5C35 26.1739 34.4732 24.9021 33.5355 23.9645C32.5979 23.0268 31.3261 22.5 30 22.5C28.6739 22.5 27.4021 23.0268 26.4645 23.9645C25.5268 24.9021 25 26.1739 25 27.5C25 28.8261 25.5268 30.0979 26.4645 31.0355C27.4021 31.9732 28.6739 32.5 30 32.5Z" fill="#1AC6D4"/>
</svg>
