<svg width="26" height="23" viewBox="0 0 26 23" fill="none" xmlns="http://www.w3.org/2000/svg">
<mask id="path-1-inside-1_1485_13" fill="white">
<path fill-rule="evenodd" clip-rule="evenodd" d="M7.288 1.944L5.727 7.66475L5.7025 7.76625C2.69775 8.244 0.75 9.0105 0.75 9.875C0.75 11.324 6.2345 12.5 13 12.5C19.7655 12.5 25.25 11.324 25.25 9.875C25.25 9.0105 23.3022 8.244 20.2975 7.76625C20.2903 7.73218 20.2821 7.69834 20.273 7.66475L18.712 1.94225C18.4565 1.0095 17.4905 0.456497 16.5437 0.657747C15.4692 0.885247 14.085 1.125 13 1.125C11.915 1.125 10.5308 0.886997 9.45625 0.657747C8.5095 0.456497 7.5435 1.00775 7.288 1.944ZM7.31425 8.71125C7.31994 8.654 7.33686 8.59844 7.36405 8.54774C7.39124 8.49704 7.42816 8.45221 7.4727 8.4158C7.51724 8.37939 7.56852 8.35212 7.62361 8.33555C7.6787 8.31898 7.73652 8.31344 7.79375 8.31925C9.36875 8.48025 11.1362 8.5695 13 8.5695C14.7385 8.57356 16.4761 8.49004 18.2063 8.31925C18.3218 8.30764 18.4373 8.34242 18.5272 8.41594C18.6171 8.48945 18.6741 8.59568 18.6857 8.71125C18.6974 8.82681 18.6626 8.94226 18.5891 9.03218C18.5155 9.12211 18.4093 9.17914 18.2937 9.19075C16.6872 9.3535 14.8918 9.4445 13 9.4445C11.1082 9.4445 9.31275 9.3535 7.70625 9.19075C7.649 9.18506 7.59344 9.16813 7.54275 9.14094C7.49205 9.11376 7.44721 9.07684 7.4108 9.0323C7.37439 8.98776 7.34712 8.93648 7.33055 8.88139C7.31399 8.8263 7.30844 8.76848 7.31425 8.71125ZM5.125 16H8.625C8.85706 16 9.07962 16.0922 9.24372 16.2563C9.40781 16.4204 9.5 16.6429 9.5 16.875V18.625C9.5 19.3212 9.22344 19.9889 8.73116 20.4812C8.23887 20.9734 7.57119 21.25 6.875 21.25C6.17881 21.25 5.51113 20.9734 5.01884 20.4812C4.52656 19.9889 4.25 19.3212 4.25 18.625V16.875C4.25 16.6429 4.34219 16.4204 4.50628 16.2563C4.67038 16.0922 4.89294 16 5.125 16ZM2.5 16.875C2.5 16.5687 2.5525 16.273 2.64875 16H2.5C2.26794 16 2.04538 15.9078 1.88128 15.7437C1.71719 15.5796 1.625 15.3571 1.625 15.125C1.625 14.8929 1.71719 14.6704 1.88128 14.5063C2.04538 14.3422 2.26794 14.25 2.5 14.25H8.625C9.26416 14.2501 9.88134 14.4833 10.3608 14.9061C10.8402 15.3288 11.1489 15.9119 11.229 16.546C12.3839 16.1972 13.6161 16.1972 14.771 16.546C14.8511 15.9119 15.1598 15.3288 15.6392 14.9061C16.1187 14.4833 16.7358 14.2501 17.375 14.25H23.5C23.7321 14.25 23.9546 14.3422 24.1187 14.5063C24.2828 14.6704 24.375 14.8929 24.375 15.125C24.375 15.3571 24.2828 15.5796 24.1187 15.7437C23.9546 15.9078 23.7321 16 23.5 16H23.3512C23.4475 16.273 23.5 16.5687 23.5 16.875V18.625C23.5 19.7853 23.0391 20.8981 22.2186 21.7186C21.3981 22.5391 20.2853 23 19.125 23C17.9647 23 16.8519 22.5391 16.0314 21.7186C15.2109 20.8981 14.75 19.7853 14.75 18.625V18.38L14.3825 18.2575C13.4851 17.9586 12.5149 17.9586 11.6175 18.2575L11.25 18.38V18.625C11.25 19.7853 10.7891 20.8981 9.96859 21.7186C9.14812 22.5391 8.03532 23 6.875 23C5.71468 23 4.60188 22.5391 3.78141 21.7186C2.96094 20.8981 2.5 19.7853 2.5 18.625V16.875ZM17.375 16H20.875C21.1071 16 21.3296 16.0922 21.4937 16.2563C21.6578 16.4204 21.75 16.6429 21.75 16.875V18.625C21.75 19.3212 21.4734 19.9889 20.9812 20.4812C20.4889 20.9734 19.8212 21.25 19.125 21.25C18.4288 21.25 17.7611 20.9734 17.2688 20.4812C16.7766 19.9889 16.5 19.3212 16.5 18.625V16.875C16.5 16.6429 16.5922 16.4204 16.7563 16.2563C16.9204 16.0922 17.1429 16 17.375 16Z"/>
</mask>
<path fill-rule="evenodd" clip-rule="evenodd" d="M7.288 1.944L5.727 7.66475L5.7025 7.76625C2.69775 8.244 0.75 9.0105 0.75 9.875C0.75 11.324 6.2345 12.5 13 12.5C19.7655 12.5 25.25 11.324 25.25 9.875C25.25 9.0105 23.3022 8.244 20.2975 7.76625C20.2903 7.73218 20.2821 7.69834 20.273 7.66475L18.712 1.94225C18.4565 1.0095 17.4905 0.456497 16.5437 0.657747C15.4692 0.885247 14.085 1.125 13 1.125C11.915 1.125 10.5308 0.886997 9.45625 0.657747C8.5095 0.456497 7.5435 1.00775 7.288 1.944ZM7.31425 8.71125C7.31994 8.654 7.33686 8.59844 7.36405 8.54774C7.39124 8.49704 7.42816 8.45221 7.4727 8.4158C7.51724 8.37939 7.56852 8.35212 7.62361 8.33555C7.6787 8.31898 7.73652 8.31344 7.79375 8.31925C9.36875 8.48025 11.1362 8.5695 13 8.5695C14.7385 8.57356 16.4761 8.49004 18.2063 8.31925C18.3218 8.30764 18.4373 8.34242 18.5272 8.41594C18.6171 8.48945 18.6741 8.59568 18.6857 8.71125C18.6974 8.82681 18.6626 8.94226 18.5891 9.03218C18.5155 9.12211 18.4093 9.17914 18.2937 9.19075C16.6872 9.3535 14.8918 9.4445 13 9.4445C11.1082 9.4445 9.31275 9.3535 7.70625 9.19075C7.649 9.18506 7.59344 9.16813 7.54275 9.14094C7.49205 9.11376 7.44721 9.07684 7.4108 9.0323C7.37439 8.98776 7.34712 8.93648 7.33055 8.88139C7.31399 8.8263 7.30844 8.76848 7.31425 8.71125ZM5.125 16H8.625C8.85706 16 9.07962 16.0922 9.24372 16.2563C9.40781 16.4204 9.5 16.6429 9.5 16.875V18.625C9.5 19.3212 9.22344 19.9889 8.73116 20.4812C8.23887 20.9734 7.57119 21.25 6.875 21.25C6.17881 21.25 5.51113 20.9734 5.01884 20.4812C4.52656 19.9889 4.25 19.3212 4.25 18.625V16.875C4.25 16.6429 4.34219 16.4204 4.50628 16.2563C4.67038 16.0922 4.89294 16 5.125 16ZM2.5 16.875C2.5 16.5687 2.5525 16.273 2.64875 16H2.5C2.26794 16 2.04538 15.9078 1.88128 15.7437C1.71719 15.5796 1.625 15.3571 1.625 15.125C1.625 14.8929 1.71719 14.6704 1.88128 14.5063C2.04538 14.3422 2.26794 14.25 2.5 14.25H8.625C9.26416 14.2501 9.88134 14.4833 10.3608 14.9061C10.8402 15.3288 11.1489 15.9119 11.229 16.546C12.3839 16.1972 13.6161 16.1972 14.771 16.546C14.8511 15.9119 15.1598 15.3288 15.6392 14.9061C16.1187 14.4833 16.7358 14.2501 17.375 14.25H23.5C23.7321 14.25 23.9546 14.3422 24.1187 14.5063C24.2828 14.6704 24.375 14.8929 24.375 15.125C24.375 15.3571 24.2828 15.5796 24.1187 15.7437C23.9546 15.9078 23.7321 16 23.5 16H23.3512C23.4475 16.273 23.5 16.5687 23.5 16.875V18.625C23.5 19.7853 23.0391 20.8981 22.2186 21.7186C21.3981 22.5391 20.2853 23 19.125 23C17.9647 23 16.8519 22.5391 16.0314 21.7186C15.2109 20.8981 14.75 19.7853 14.75 18.625V18.38L14.3825 18.2575C13.4851 17.9586 12.5149 17.9586 11.6175 18.2575L11.25 18.38V18.625C11.25 19.7853 10.7891 20.8981 9.96859 21.7186C9.14812 22.5391 8.03532 23 6.875 23C5.71468 23 4.60188 22.5391 3.78141 21.7186C2.96094 20.8981 2.5 19.7853 2.5 18.625V16.875ZM17.375 16H20.875C21.1071 16 21.3296 16.0922 21.4937 16.2563C21.6578 16.4204 21.75 16.6429 21.75 16.875V18.625C21.75 19.3212 21.4734 19.9889 20.9812 20.4812C20.4889 20.9734 19.8212 21.25 19.125 21.25C18.4288 21.25 17.7611 20.9734 17.2688 20.4812C16.7766 19.9889 16.5 19.3212 16.5 18.625V16.875C16.5 16.6429 16.5922 16.4204 16.7563 16.2563C16.9204 16.0922 17.1429 16 17.375 16Z" fill="white"/>
<path d="M7.288 1.944L6.32328 1.68073L6.32327 1.68075L7.288 1.944ZM5.727 7.66475L4.76227 7.4015L4.75838 7.41575L4.75492 7.4301L5.727 7.66475ZM5.7025 7.76625L5.85953 8.75384L6.51811 8.64913L6.67458 8.00089L5.7025 7.76625ZM20.2975 7.76625L19.319 7.97269L19.4611 8.64581L20.1405 8.75384L20.2975 7.76625ZM20.273 7.66475L21.2379 7.4021L21.2378 7.40158L20.273 7.66475ZM18.712 1.94225L19.6768 1.67908L19.6765 1.67806L18.712 1.94225ZM16.5437 0.657747L16.7509 1.63606L16.7517 1.63589L16.5437 0.657747ZM9.45625 0.657747L9.66491 -0.320242L9.66417 -0.320398L9.45625 0.657747ZM7.31425 8.71125L8.30915 8.81215L8.30935 8.81014L7.31425 8.71125ZM7.79375 8.31925L7.89544 7.32443L7.89465 7.32435L7.79375 8.31925ZM13 8.5695L13.0023 7.5695H13V8.5695ZM18.2063 8.31925L18.3045 9.31441L18.3062 9.31424L18.2063 8.31925ZM18.2937 9.19075L18.1938 8.19575L18.193 8.19584L18.2937 9.19075ZM7.70625 9.19075L7.80704 8.19584L7.80515 8.19565L7.70625 9.19075ZM6.875 21.25V22.25V21.25ZM2.64875 16L3.59185 16.3325L4.06165 15H2.64875V16ZM1.625 15.125H0.625H1.625ZM8.625 14.25L8.62511 13.25H8.625V14.25ZM11.229 16.546L10.2369 16.6713L10.3852 17.8455L11.5181 17.5033L11.229 16.546ZM14.771 16.546L14.4819 17.5033L15.6148 17.8455L15.7631 16.6713L14.771 16.546ZM17.375 14.25V13.25H17.3749L17.375 14.25ZM23.3512 16V15H21.9384L22.4081 16.3325L23.3512 16ZM23.5 18.625H22.5H23.5ZM14.75 18.38H15.75V17.6592L15.0662 17.4313L14.75 18.38ZM14.3825 18.2575L14.6987 17.3088L14.6985 17.3087L14.3825 18.2575ZM11.6175 18.2575L11.3015 17.3087L11.3013 17.3088L11.6175 18.2575ZM11.25 18.38L10.9338 17.4313L10.25 17.6592V18.38H11.25ZM21.75 18.625H22.75H21.75ZM19.125 21.25V22.25V21.25ZM16.5 18.625H15.5H16.5ZM6.32327 1.68075L4.76227 7.4015L6.69173 7.92799L8.25273 2.20724L6.32327 1.68075ZM4.75492 7.4301L4.73042 7.5316L6.67458 8.00089L6.69908 7.89939L4.75492 7.4301ZM5.54547 6.77865C4.00857 7.02302 2.68226 7.34941 1.71484 7.75252C1.23521 7.95237 0.787213 8.19396 0.442711 8.49546C0.102998 8.79276 -0.25 9.25383 -0.25 9.875H1.75C1.75 10.0639 1.64047 10.105 1.75986 10.0005C1.87446 9.9002 2.10119 9.75821 2.4841 9.59866C3.24174 9.28296 4.39168 8.98723 5.85953 8.75384L5.54547 6.77865ZM-0.25 9.875C-0.25 10.3949 0.000500858 10.8064 0.275765 11.0945C0.546946 11.3784 0.896804 11.6041 1.26077 11.7885C1.9918 12.1588 2.98449 12.4635 4.12837 12.7087C6.43249 13.2025 9.56855 13.5 13 13.5V11.5C9.66595 11.5 6.67701 11.2095 4.54751 10.7531C3.47458 10.5231 2.67329 10.2621 2.16456 10.0044C1.90864 9.87474 1.77717 9.77085 1.72199 9.71308C1.67089 9.65959 1.75 9.71735 1.75 9.875H-0.25ZM13 13.5C16.4314 13.5 19.5675 13.2025 21.8716 12.7087C23.0155 12.4635 24.0082 12.1588 24.7392 11.7885C25.1032 11.6041 25.4531 11.3784 25.7242 11.0945C25.9995 10.8064 26.25 10.3949 26.25 9.875H24.25C24.25 9.71735 24.3291 9.65959 24.278 9.71308C24.2228 9.77085 24.0914 9.87474 23.8354 10.0044C23.3267 10.2621 22.5254 10.5231 21.4525 10.7531C19.323 11.2095 16.3341 11.5 13 11.5V13.5ZM26.25 9.875C26.25 9.25383 25.897 8.79276 25.5573 8.49546C25.2128 8.19396 24.7648 7.95237 24.2852 7.75252C23.3177 7.34941 21.9914 7.02302 20.4545 6.77865L20.1405 8.75384C21.6083 8.98723 22.7583 9.28296 23.5159 9.59866C23.8988 9.75821 24.1255 9.9002 24.2401 10.0005C24.3595 10.105 24.25 10.0639 24.25 9.875H26.25ZM21.276 7.5598C21.2648 7.50688 21.2521 7.45429 21.2379 7.4021L19.3081 7.92739C19.3122 7.94238 19.3158 7.95748 19.319 7.97269L21.276 7.5598ZM21.2378 7.40158L19.6768 1.67908L17.7472 2.20541L19.3083 7.92791L21.2378 7.40158ZM19.6765 1.67806C19.273 0.205007 17.7705 -0.625372 16.3358 -0.320398L16.7517 1.63589C17.2105 1.53837 17.64 1.81399 17.7475 2.20644L19.6765 1.67806ZM16.3366 -0.320566C15.271 -0.0949555 13.9736 0.124997 13 0.124997V2.125C14.1964 2.125 15.6675 1.86545 16.7509 1.63606L16.3366 -0.320566ZM13 0.124997C12.0261 0.124997 10.7279 -0.0934451 9.66491 -0.320242L9.24759 1.63574C10.3336 1.86744 11.8039 2.125 13 2.125V0.124997ZM9.66417 -0.320398C8.22999 -0.625261 6.72659 0.20284 6.32328 1.68073L8.25272 2.20727C8.36041 1.81265 8.78901 1.53825 9.24833 1.63589L9.66417 -0.320398ZM8.30935 8.81014C8.30203 8.88375 8.28027 8.95518 8.24532 9.02036L6.48279 8.07512C6.39345 8.24169 6.33785 8.42425 6.31915 8.61235L8.30935 8.81014ZM8.24532 9.02036C8.21036 9.08554 8.16289 9.14319 8.10563 9.19001L6.83977 7.64159C6.69343 7.76123 6.57212 7.90855 6.48279 8.07512L8.24532 9.02036ZM8.10563 9.19001C8.04837 9.23682 7.98243 9.27188 7.9116 9.29318L7.33562 7.37792C7.15461 7.43235 6.98611 7.52195 6.83977 7.64159L8.10563 9.19001ZM7.9116 9.29318C7.84077 9.31448 7.76644 9.32161 7.69285 9.31414L7.89465 7.32435C7.7066 7.30528 7.51663 7.32348 7.33562 7.37792L7.9116 9.29318ZM7.69206 9.31406C9.30382 9.47882 11.1054 9.5695 13 9.5695V7.5695C11.1671 7.5695 9.43368 7.48167 7.89544 7.32443L7.69206 9.31406ZM12.9977 9.56949C14.7698 9.57363 16.541 9.4885 18.3045 9.31441L18.108 7.32408C16.4113 7.49157 14.7073 7.57348 13.0023 7.5695L12.9977 9.56949ZM18.3062 9.31424C18.1578 9.32913 18.0097 9.2845 17.8943 9.19015L19.1601 7.64173C18.8649 7.40035 18.4858 7.28615 18.1064 7.32425L18.3062 9.31424ZM17.8943 9.19015C17.7788 9.09579 17.7056 8.95946 17.6908 8.81114L19.6807 8.61135C19.6426 8.23189 19.4554 7.88311 19.1601 7.64173L17.8943 9.19015ZM17.6908 8.81114C17.6759 8.66283 17.7205 8.51467 17.8148 8.39925L19.3633 9.66511C19.6047 9.36985 19.7188 8.9908 19.6807 8.61135L17.6908 8.81114ZM17.8148 8.39925C17.9092 8.28384 18.0455 8.21064 18.1938 8.19575L18.3936 10.1857C18.7731 10.1476 19.1219 9.96037 19.3633 9.66511L17.8148 8.39925ZM18.193 8.19584C16.6224 8.35495 14.8607 8.4445 13 8.4445V10.4445C14.9228 10.4445 16.7521 10.352 18.3945 10.1857L18.193 8.19584ZM13 8.4445C11.1393 8.4445 9.37759 8.35495 7.80704 8.19584L7.60546 10.1857C9.24791 10.352 11.0772 10.4445 13 10.4445V8.4445ZM7.80515 8.19565C7.87875 8.20296 7.95019 8.22472 8.01537 8.25968L7.07013 10.0222C7.2367 10.1115 7.41926 10.1672 7.60735 10.1858L7.80515 8.19565ZM8.01537 8.25968C8.08055 8.29464 8.1382 8.34211 8.18501 8.39937L6.63659 9.66523C6.75622 9.81156 6.90354 9.93287 7.07013 10.0222L8.01537 8.25968ZM8.18501 8.39937C8.23182 8.45663 8.26688 8.52256 8.28819 8.5934L6.37292 9.16938C6.42736 9.35039 6.51696 9.51889 6.63659 9.66523L8.18501 8.39937ZM8.28819 8.5934C8.30949 8.66422 8.31661 8.73856 8.30915 8.81215L6.31935 8.61034C6.30028 8.7984 6.31848 8.98837 6.37292 9.16938L8.28819 8.5934ZM5.125 17H8.625V15H5.125V17ZM8.625 17C8.59185 17 8.56005 16.9868 8.53661 16.9634L9.95082 15.5492C9.59919 15.1975 9.12228 15 8.625 15V17ZM8.53661 16.9634C8.51317 16.9399 8.5 16.9081 8.5 16.875H10.5C10.5 16.3777 10.3025 15.9008 9.95082 15.5492L8.53661 16.9634ZM8.5 16.875V18.625H10.5V16.875H8.5ZM8.5 18.625C8.5 19.056 8.32879 19.4693 8.02405 19.774L9.43826 21.1883C10.1181 20.5084 10.5 19.5864 10.5 18.625H8.5ZM8.02405 19.774C7.7193 20.0788 7.30598 20.25 6.875 20.25V22.25C7.83641 22.25 8.75844 21.8681 9.43826 21.1883L8.02405 19.774ZM6.875 20.25C6.44402 20.25 6.0307 20.0788 5.72595 19.774L4.31174 21.1883C4.99156 21.8681 5.91359 22.25 6.875 22.25V20.25ZM5.72595 19.774C5.42121 19.4693 5.25 19.056 5.25 18.625H3.25C3.25 19.5864 3.63192 20.5084 4.31174 21.1883L5.72595 19.774ZM5.25 18.625V16.875H3.25V18.625H5.25ZM5.25 16.875C5.25 16.9081 5.23683 16.9399 5.21339 16.9634L3.79918 15.5492C3.44754 15.9008 3.25 16.3777 3.25 16.875H5.25ZM5.21339 16.9634C5.18995 16.9868 5.15815 17 5.125 17V15C4.62772 15 4.15081 15.1975 3.79918 15.5492L5.21339 16.9634ZM3.5 16.875C3.5 16.683 3.53292 16.4997 3.59185 16.3325L1.70565 15.6675C1.57208 16.0463 1.5 16.4545 1.5 16.875H3.5ZM2.64875 15H2.5V17H2.64875V15ZM2.5 15C2.53315 15 2.56494 15.0132 2.58839 15.0366L1.17417 16.4508C1.52581 16.8025 2.00272 17 2.5 17V15ZM2.58839 15.0366C2.61183 15.0601 2.625 15.0918 2.625 15.125H0.625C0.625 15.6223 0.822543 16.0992 1.17417 16.4508L2.58839 15.0366ZM2.625 15.125C2.625 15.1581 2.61183 15.1899 2.58839 15.2134L1.17417 13.7992C0.822543 14.1508 0.625 14.6277 0.625 15.125H2.625ZM2.58839 15.2134C2.56494 15.2368 2.53315 15.25 2.5 15.25V13.25C2.00272 13.25 1.52581 13.4475 1.17417 13.7992L2.58839 15.2134ZM2.5 15.25H8.625V13.25H2.5V15.25ZM8.62489 15.25C9.02056 15.25 9.40262 15.3944 9.6994 15.6561L11.0221 14.156C10.3601 13.5722 9.50777 13.2501 8.62511 13.25L8.62489 15.25ZM9.6994 15.6561C9.99618 15.9178 10.1873 16.2788 10.2369 16.6713L12.2211 16.4207C12.1105 15.545 11.6842 14.7397 11.0221 14.156L9.6994 15.6561ZM11.5181 17.5033C12.4845 17.2114 13.5155 17.2114 14.4819 17.5033L15.0601 15.5887C13.7167 15.1829 12.2833 15.1829 10.9399 15.5887L11.5181 17.5033ZM15.7631 16.6713C15.8127 16.2788 16.0038 15.9178 16.3006 15.6561L14.9779 14.156C14.3158 14.7397 13.8895 15.545 13.7789 16.4207L15.7631 16.6713ZM16.3006 15.6561C16.5974 15.3944 16.9794 15.25 17.3751 15.25L17.3749 13.25C16.4922 13.2501 15.6399 13.5722 14.9779 14.156L16.3006 15.6561ZM17.375 15.25H23.5V13.25H17.375V15.25ZM23.5 15.25C23.4669 15.25 23.4351 15.2368 23.4116 15.2134L24.8258 13.7992C24.4742 13.4475 23.9973 13.25 23.5 13.25V15.25ZM23.4116 15.2134C23.3882 15.1899 23.375 15.1581 23.375 15.125H25.375C25.375 14.6277 25.1775 14.1508 24.8258 13.7992L23.4116 15.2134ZM23.375 15.125C23.375 15.0918 23.3882 15.0601 23.4116 15.0366L24.8258 16.4508C25.1775 16.0992 25.375 15.6223 25.375 15.125H23.375ZM23.4116 15.0366C23.4351 15.0132 23.4669 15 23.5 15V17C23.9973 17 24.4742 16.8025 24.8258 16.4508L23.4116 15.0366ZM23.5 15H23.3512V17H23.5V15ZM22.4081 16.3325C22.4671 16.4997 22.5 16.683 22.5 16.875H24.5C24.5 16.4545 24.4279 16.0463 24.2944 15.6675L22.4081 16.3325ZM22.5 16.875V18.625H24.5V16.875H22.5ZM22.5 18.625C22.5 19.5201 22.1444 20.3785 21.5115 21.0115L22.9257 22.4257C23.9337 21.4177 24.5 20.0505 24.5 18.625H22.5ZM21.5115 21.0115C20.8785 21.6444 20.0201 22 19.125 22V24C20.5505 24 21.9177 23.4337 22.9257 22.4257L21.5115 21.0115ZM19.125 22C18.2299 22 17.3715 21.6444 16.7385 21.0115L15.3243 22.4257C16.3323 23.4337 17.6995 24 19.125 24V22ZM16.7385 21.0115C16.1056 20.3785 15.75 19.5201 15.75 18.625H13.75C13.75 20.0505 14.3163 21.4177 15.3243 22.4257L16.7385 21.0115ZM15.75 18.625V18.38H13.75V18.625H15.75ZM15.0662 17.4313L14.6987 17.3088L14.0663 19.2062L14.4338 19.3287L15.0662 17.4313ZM14.6985 17.3087C13.5959 16.9415 12.4041 16.9415 11.3015 17.3087L11.9335 19.2063C12.6258 18.9757 13.3742 18.9757 14.0665 19.2063L14.6985 17.3087ZM11.3013 17.3088L10.9338 17.4313L11.5662 19.3287L11.9337 19.2062L11.3013 17.3088ZM10.25 18.38V18.625H12.25V18.38H10.25ZM10.25 18.625C10.25 19.5201 9.89442 20.3785 9.26149 21.0115L10.6757 22.4257C11.6837 21.4177 12.25 20.0505 12.25 18.625H10.25ZM9.26149 21.0115C8.62855 21.6444 7.77011 22 6.875 22V24C8.30054 24 9.66769 23.4337 10.6757 22.4257L9.26149 21.0115ZM6.875 22C5.97989 22 5.12145 21.6444 4.48851 21.0115L3.0743 22.4257C4.08231 23.4337 5.44946 24 6.875 24V22ZM4.48851 21.0115C3.85558 20.3785 3.5 19.5201 3.5 18.625H1.5C1.5 20.0505 2.06629 21.4177 3.0743 22.4257L4.48851 21.0115ZM3.5 18.625V16.875H1.5V18.625H3.5ZM17.375 17H20.875V15H17.375V17ZM20.875 17C20.8419 17 20.8101 16.9868 20.7866 16.9634L22.2008 15.5492C21.8492 15.1975 21.3723 15 20.875 15V17ZM20.7866 16.9634C20.7632 16.9399 20.75 16.9081 20.75 16.875H22.75C22.75 16.3777 22.5525 15.9008 22.2008 15.5492L20.7866 16.9634ZM20.75 16.875V18.625H22.75V16.875H20.75ZM20.75 18.625C20.75 19.056 20.5788 19.4693 20.274 19.774L21.6883 21.1883C22.3681 20.5084 22.75 19.5864 22.75 18.625H20.75ZM20.274 19.774C19.9693 20.0788 19.556 20.25 19.125 20.25V22.25C20.0864 22.25 21.0084 21.8681 21.6883 21.1883L20.274 19.774ZM19.125 20.25C18.694 20.25 18.2807 20.0788 17.976 19.774L16.5617 21.1883C17.2416 21.8681 18.1636 22.25 19.125 22.25V20.25ZM17.976 19.774C17.6712 19.4693 17.5 19.056 17.5 18.625H15.5C15.5 19.5864 15.8819 20.5084 16.5617 21.1883L17.976 19.774ZM17.5 18.625V16.875H15.5V18.625H17.5ZM17.5 16.875C17.5 16.9081 17.4868 16.9399 17.4634 16.9634L16.0492 15.5492C15.6975 15.9008 15.5 16.3777 15.5 16.875H17.5ZM17.4634 16.9634C17.4399 16.9868 17.4081 17 17.375 17V15C16.8777 15 16.4008 15.1975 16.0492 15.5492L17.4634 16.9634Z" fill="white" mask="url(#path-1-inside-1_1485_13)"/>
</svg>
