<svg width="19" height="17" viewBox="0 0 19 17" fill="none" xmlns="http://www.w3.org/2000/svg">
<path d="M3.66667 7.66675V8.16675H4.16667H10.3333V8.83342H4.16667H3.66667V9.33342V10.7931L0.80039 8.50008L3.66667 6.20706V7.66675ZM4.42124 3.00008C5.02352 2.38847 5.72412 1.87844 6.49617 1.49242C7.58391 0.948545 8.78349 0.665837 9.99963 0.66675H10C14.3264 0.66675 17.8333 4.17373 17.8333 8.50008C17.8333 12.8264 14.3264 16.3334 10 16.3334H9.99963C8.78349 16.3343 7.58391 16.0516 6.49617 15.5078C5.72412 15.1217 5.02353 14.6117 4.42124 14.0001H5.4049C6.41233 14.8417 7.63267 15.3913 8.93321 15.587C10.2971 15.7922 11.6912 15.5995 12.9482 15.0321C14.2053 14.4646 15.2719 13.5465 16.0201 12.3878C16.7683 11.2292 17.1663 9.87929 17.1663 8.50008C17.1663 7.12088 16.7683 5.77097 16.0201 4.61233C15.2719 3.4537 14.2053 2.53557 12.9482 1.96811C11.6912 1.40065 10.2971 1.20798 8.93321 1.4132C7.63267 1.60889 6.41233 2.15847 5.4049 3.00008H4.42124Z" fill="#419EAC" stroke="#419EAC"/>
</svg>
