<svg width="501" height="500" viewBox="0 0 501 500" fill="none" xmlns="http://www.w3.org/2000/svg">
<g clip-path="url(#clip0_379_6076)">
<path d="M500.5 382.4H0.5V382.65H500.5V382.4Z" fill="#EBEBEB"/>
<path d="M358.18 389.21H325.06V389.46H358.18V389.21Z" fill="#EBEBEB"/>
<path d="M437.76 391.4H429.07V391.65H437.76V391.4Z" fill="#EBEBEB"/>
<path d="M378.37 398.49H359.18V398.74H378.37V398.49Z" fill="#EBEBEB"/>
<path d="M250.5 395.11H207.31V395.36H250.5V395.11Z" fill="#EBEBEB"/>
<path d="M198.4 395.11H192.07V395.36H198.4V395.11Z" fill="#EBEBEB"/>
<path d="M171.49 390.89H77.8101V391.14H171.49V390.89Z" fill="#EBEBEB"/>
<path d="M237.5 337.8H44.41C42.8973 337.797 41.4475 337.195 40.3788 336.124C39.3102 335.053 38.71 333.603 38.71 332.09V60.66C38.7231 59.156 39.3292 57.718 40.3964 56.6582C41.4637 55.5985 42.9059 55.0026 44.41 55H237.5C239.014 55 240.467 55.6016 241.538 56.6724C242.608 57.7433 243.21 59.1956 243.21 60.71V332.09C243.21 333.604 242.608 335.057 241.538 336.128C240.467 337.198 239.014 337.8 237.5 337.8ZM44.41 55.2C42.9636 55.2026 41.5774 55.7791 40.5556 56.8027C39.5338 57.8264 38.96 59.2136 38.96 60.66V332.09C38.96 333.536 39.5338 334.924 40.5556 335.947C41.5774 336.971 42.9636 337.547 44.41 337.55H237.5C238.947 337.547 240.334 336.971 241.358 335.948C242.381 334.924 242.957 333.537 242.96 332.09V60.66C242.957 59.2127 242.381 57.8255 241.358 56.8021C240.334 55.7787 238.947 55.2026 237.5 55.2H44.41Z" fill="#EBEBEB"/>
<path d="M453.81 337.8H260.71C259.196 337.797 257.746 337.195 256.675 336.125C255.605 335.054 255.003 333.604 255 332.09V60.66C255.016 59.1551 255.624 57.7171 256.693 56.6576C257.762 55.5981 259.205 55.0025 260.71 55H453.81C455.312 55.0052 456.752 55.6022 457.817 56.6617C458.882 57.7212 459.487 59.1578 459.5 60.66V332.09C459.5 333.601 458.901 335.05 457.835 336.121C456.768 337.191 455.321 337.795 453.81 337.8ZM260.71 55.2C259.263 55.2026 257.875 55.7787 256.852 56.8021C255.829 57.8255 255.253 59.2127 255.25 60.66V332.09C255.253 333.537 255.829 334.924 256.852 335.948C257.875 336.971 259.263 337.547 260.71 337.55H453.81C455.257 337.547 456.645 336.971 457.668 335.948C458.691 334.924 459.267 333.537 459.27 332.09V60.66C459.267 59.2127 458.691 57.8255 457.668 56.8021C456.645 55.7787 455.257 55.2026 453.81 55.2H260.71Z" fill="#EBEBEB"/>
<path d="M117.8 307.73C112.58 305.96 108.8 300.92 112.1 295.73C117.6 287.19 103.85 285.37 107.71 271.08C113.15 250.9 130.04 268.39 134.24 249.02C137.24 234.93 160.96 225.7 161.88 244.25C162.88 264.57 173.08 251.3 175.34 273.88C176.9 289.5 154.68 291.77 161.34 296.65C166.19 300.22 169.05 306.43 162.29 310.65C153.08 316.44 161.77 320.96 155.51 325C149.25 329.04 148.23 322.6 138.51 325.74C129.82 328.54 122.45 319.95 124.18 314.58C125.77 309.63 123.05 309.51 117.8 307.73Z" fill="#E6E6E6"/>
<path d="M168.04 317C168.04 317 167.33 382.38 139.92 382.38C112.51 382.38 111.81 317 111.81 317H168.04Z" fill="#F0F0F0"/>
<path d="M281.23 228.04L436.97 228.04V83.91L281.23 83.91V228.04Z" fill="#E6E6E6"/>
<path d="M277.5 228.04L435.23 228.04V83.91L277.5 83.91V228.04Z" fill="#F0F0F0"/>
<path d="M429.99 222.15V89.79L282.74 89.79V222.15H429.99Z" fill="#FAFAFA"/>
<path d="M343.92 222.15L369.93 89.79H404.02L378.01 222.15H343.92Z" fill="white"/>
<path d="M383.32 222.15L409.32 89.79H424.72L398.71 222.15H383.32Z" fill="white"/>
<path d="M301.29 222.15L327.3 89.79H332.95L306.94 222.15H301.29Z" fill="white"/>
<path d="M283.39 222.14V89.78H282.72V222.14H283.39Z" fill="#E6E6E6"/>
<path opacity="0.7" d="M440.9 83.67V184.84H425.79C425.79 184.84 398.64 123.07 392.5 86.64C392.351 85.7682 392.395 84.8745 392.628 84.0214C392.861 83.1684 393.279 82.3767 393.85 81.702C394.422 81.0273 395.135 80.486 395.938 80.1159C396.741 79.7459 397.616 79.5561 398.5 79.56H436.86C437.938 79.5784 438.965 80.0195 439.721 80.7883C440.477 81.5571 440.9 82.592 440.9 83.67Z" fill="#E6E6E6"/>
<path opacity="0.7" d="M440.9 242.12V189.45H425.79C425.79 189.45 416.38 220.45 412.79 242.12H440.9Z" fill="#E6E6E6"/>
<path d="M426.23 189.45H440.35C441.184 189.45 441.86 188.774 441.86 187.94V186.35C441.86 185.516 441.184 184.84 440.35 184.84H426.23C425.396 184.84 424.72 185.516 424.72 186.35V187.94C424.72 188.774 425.396 189.45 426.23 189.45Z" fill="#E0E0E0"/>
<path opacity="0.7" d="M273.22 83.67V184.84H288.33C288.33 184.84 315.48 123.07 321.65 86.64C321.799 85.7682 321.755 84.8745 321.522 84.0214C321.289 83.1684 320.871 82.3767 320.3 81.702C319.728 81.0273 319.015 80.486 318.212 80.1159C317.409 79.7459 316.534 79.5561 315.65 79.56H277.33C276.24 79.56 275.195 79.993 274.424 80.7638C273.653 81.5346 273.22 82.58 273.22 83.67Z" fill="#E6E6E6"/>
<path opacity="0.7" d="M273.22 242.12V189.45H288.33C288.33 189.45 297.73 220.45 301.33 242.12H273.22Z" fill="#E6E6E6"/>
<path d="M287.89 184.84H273.77C272.936 184.84 272.26 185.516 272.26 186.35V187.94C272.26 188.774 272.936 189.45 273.77 189.45H287.89C288.724 189.45 289.4 188.774 289.4 187.94V186.35C289.4 185.516 288.724 184.84 287.89 184.84Z" fill="#E0E0E0"/>
<path d="M223.64 382.4H261.44V284.33H223.64V382.4Z" fill="#E6E6E6"/>
<path d="M233.73 382.4H223.63V365.48H244.31L233.73 382.4Z" fill="#F5F5F5"/>
<path d="M404.46 382.4H442.26V284.33H404.46V382.4Z" fill="#E6E6E6"/>
<path d="M223.63 376.58H413.27V284.34H223.63V376.58Z" fill="#F5F5F5"/>
<path d="M231.46 312.22H405.44V292.89H231.46V312.22Z" fill="#F0F0F0"/>
<path d="M403.18 382.4H413.27V365.48H392.59L403.18 382.4Z" fill="#F5F5F5"/>
<path d="M231.46 340.12H405.44V320.79H231.46V340.12Z" fill="#F0F0F0"/>
<path d="M231.46 368.02H405.44V348.69H231.46V368.02Z" fill="#F0F0F0"/>
<path d="M135.01 200.05H216.18V111.9L135.01 111.9V200.05Z" fill="#E6E6E6"/>
<path d="M128.14 200.05H214.23V111.9L128.14 111.9V200.05Z" fill="#F5F5F5"/>
<path d="M208.74 194.55V117.38H133.63V194.55H208.74Z" fill="white"/>
<path d="M195.5 166.16C195.501 163.483 194.975 160.833 193.951 158.359C192.928 155.886 191.426 153.639 189.534 151.746C187.641 149.854 185.394 148.352 182.921 147.329C180.447 146.305 177.797 145.779 175.12 145.78H146.85C146.85 151.185 148.997 156.369 152.819 160.191C156.641 164.013 161.825 166.16 167.23 166.16H195.5Z" fill="#F5F5F5"/>
<path d="M66.84 139.54H115.14V85.92H66.84V139.54Z" fill="#E6E6E6"/>
<path d="M59.9799 139.54H113.2V85.92H59.9799L59.9799 139.54Z" fill="#F5F5F5"/>
<path d="M107.7 134.05V91.4H65.4599V134.05H107.7Z" fill="white"/>
<path d="M99.0731 112.73L86.5927 100.25L74.1122 112.73L86.5927 125.21L99.0731 112.73Z" fill="#F5F5F5"/>
<path d="M250.5 427.56C357.582 427.56 444.39 422.492 444.39 416.24C444.39 409.988 357.582 404.92 250.5 404.92C143.417 404.92 56.61 409.988 56.61 416.24C56.61 422.492 143.417 427.56 250.5 427.56Z" fill="#F5F5F5"/>
<path d="M95.5 413.72H405.5L374.5 360.03H126.5L95.5 413.72Z" fill="#419EAC"/>
<path opacity="0.4" d="M95.5 413.72H405.5L374.5 360.03H126.5L95.5 413.72Z" fill="white"/>
<path d="M126.5 360.03H374.5L343.5 306.33H157.5L126.5 360.03Z" fill="#419EAC"/>
<path opacity="0.3" d="M126.5 360.03H374.5L343.5 306.33H157.5L126.5 360.03Z" fill="white"/>
<path d="M188.5 252.64L157.5 306.33H343.5L312.5 252.64H188.5Z" fill="#419EAC"/>
<path opacity="0.2" d="M188.5 252.64L157.5 306.33H343.5L312.5 252.64H188.5Z" fill="white"/>
<path d="M281.5 198.95H219.5L188.5 252.64H312.5L281.5 198.95Z" fill="#419EAC"/>
<path opacity="0.1" d="M281.5 198.95H219.5L188.5 252.64H312.5L281.5 198.95Z" fill="black"/>
<path d="M180.99 121.91C180.48 122.29 179.79 122.83 179.18 123.33C178.57 123.83 177.95 124.33 177.34 124.92C176.14 126.02 174.95 127.14 173.83 128.32C171.616 130.666 169.64 133.225 167.93 135.96C167.56 136.57 166.93 137.6 167.04 137.46C166.913 137.812 166.875 138.19 166.93 138.56C167.142 139.951 167.571 141.301 168.2 142.56C169.668 145.541 171.377 148.397 173.31 151.1L170.5 153.8C167.595 151.426 165.046 148.648 162.93 145.55C161.717 143.804 160.824 141.858 160.29 139.8C159.952 138.45 159.931 137.04 160.23 135.68C160.315 135.283 160.435 134.895 160.59 134.52C160.697 134.246 160.821 133.979 160.96 133.72L161.59 132.43C163.344 129.044 165.518 125.892 168.06 123.05C169.306 121.649 170.624 120.313 172.01 119.05C172.71 118.42 173.43 117.8 174.16 117.2C174.89 116.6 175.61 116.06 176.54 115.42L180.99 121.91Z" fill="#B55B52"/>
<path d="M181.66 110.32C176.74 110.54 169.33 120.44 169.33 120.44L177.24 129.82C177.24 129.82 187.24 124.43 188.34 117.3C188.87 113.74 186.5 110.1 181.66 110.32Z" fill="#419EAC"/>
<path d="M172.07 149.93L177.93 154.93L172.43 156.32C172.43 156.32 169.01 154.32 170.01 151.53L172.07 149.93Z" fill="#B55B52"/>
<path d="M177.97 157.86L175.11 160.63L172.43 156.37L177.93 154.98L177.97 157.86Z" fill="#B55B52"/>
<path d="M218.56 97.68C218.32 98.19 218.4 98.75 218.74 98.92C219.08 99.09 219.54 98.8 219.74 98.29C219.94 97.78 219.9 97.2201 219.57 97.0501C219.24 96.8801 218.8 97.16 218.56 97.68Z" fill="#263238"/>
<path d="M219.44 97L220.85 97.26C220.85 97.26 219.76 97.91 219.44 97Z" fill="#263238"/>
<path d="M218.76 98.4C218.671 99.8105 218.772 101.226 219.06 102.61C218.705 102.665 218.343 102.642 217.998 102.544C217.652 102.445 217.333 102.274 217.06 102.04L218.76 98.4Z" fill="#A02724"/>
<path d="M220.86 94.58C220.807 94.5671 220.758 94.5394 220.72 94.5C220.418 94.1946 220.05 93.9627 219.644 93.8223C219.239 93.6818 218.806 93.6366 218.38 93.69C218.337 93.7002 218.292 93.7016 218.248 93.6939C218.204 93.6863 218.162 93.6698 218.124 93.6455C218.087 93.6212 218.055 93.5896 218.03 93.5525C218.005 93.5155 217.988 93.4738 217.98 93.43C217.962 93.3425 217.979 93.2516 218.028 93.1767C218.077 93.1019 218.153 93.0492 218.24 93.03C218.774 92.9569 219.318 93.0092 219.828 93.1828C220.338 93.3563 220.801 93.6464 221.18 94.03C221.211 94.0607 221.236 94.0973 221.253 94.1376C221.27 94.178 221.278 94.2213 221.278 94.265C221.278 94.3087 221.27 94.352 221.253 94.3924C221.236 94.4327 221.211 94.4693 221.18 94.5C221.138 94.5394 221.086 94.5674 221.03 94.5814C220.974 94.5954 220.916 94.5949 220.86 94.58Z" fill="#263238"/>
<path d="M199.13 98.15C199.27 102.44 197.43 109.36 194.07 111.55C194.07 111.55 196.24 116.19 203.96 117.68C212.45 119.33 208.71 114.28 208.71 114.28C204.26 112.28 204.94 108.88 206.28 105.83L199.13 98.15Z" fill="#B55B52"/>
<path d="M221.1 122.06C221.49 124.24 221.9 126.56 222.38 128.8C222.86 131.04 223.3 133.33 223.83 135.57C224.36 137.81 224.91 140.04 225.5 142.25C225.79 143.36 226.12 144.45 226.44 145.54L227.29 148.19C227.64 148.745 228.108 149.216 228.66 149.57C229.464 150.119 230.313 150.598 231.2 151C233.198 151.924 235.26 152.702 237.37 153.33C239.52 154.02 241.75 154.61 244 155.14C246.25 155.67 248.53 156.14 250.77 156.63L250.41 160.52C245.55 160.448 240.705 159.956 235.93 159.05C233.449 158.587 231.01 157.918 228.64 157.05C227.346 156.573 226.1 155.973 224.92 155.26C223.431 154.414 222.166 153.224 221.23 151.79C221.088 151.567 220.958 151.337 220.84 151.1L220.67 150.72L220.54 150.4L220.21 149.54L219.56 147.83C219.15 146.68 218.73 145.54 218.35 144.38C217.58 142.08 216.88 139.76 216.28 137.38C215.009 132.708 214.007 127.967 213.28 123.18L221.1 122.06Z" fill="#B55B52"/>
<path d="M276.73 131.28L237.24 179.08L298.38 189.38L276.73 131.28Z" fill="#419EAC"/>
<path d="M249.5 157L255.11 155.09L255.76 160.33C255.76 160.33 250.64 163.07 248.76 159.33L249.5 157Z" fill="#B55B52"/>
<path d="M258.01 156.79L259.87 161.72L255.72 160.34L255.07 155.1L258.01 156.79Z" fill="#B55B52"/>
<path d="M179.13 317.29L186.22 317.81L188.33 301.53L181.24 301.01L179.13 317.29Z" fill="#B55B52"/>
<path d="M134.25 297.65L140.77 300.68L149.5 286.86L142.98 283.83L134.25 297.65Z" fill="#B55B52"/>
<path d="M142.5 299.12L136.09 294.19C135.987 294.097 135.854 294.046 135.715 294.046C135.576 294.046 135.443 294.097 135.34 294.19L130.83 298.56C130.721 298.677 130.638 298.816 130.585 298.967C130.533 299.118 130.514 299.279 130.528 299.438C130.542 299.598 130.59 299.753 130.668 299.892C130.745 300.032 130.852 300.154 130.98 300.25C133.25 301.93 134.43 302.63 137.25 304.79C138.98 306.12 141.39 308.25 143.78 310.09C146.17 311.93 148.07 309.72 147.24 308.75C143.48 304.38 143.76 302.55 143.24 300.16C143.114 299.742 142.854 299.377 142.5 299.12Z" fill="#263238"/>
<path d="M186.67 316.8H178.67C178.531 316.798 178.395 316.847 178.289 316.937C178.182 317.027 178.112 317.152 178.09 317.29L177.02 323.6C176.997 323.757 177.008 323.918 177.053 324.07C177.098 324.223 177.175 324.364 177.28 324.484C177.384 324.603 177.513 324.699 177.659 324.764C177.804 324.829 177.961 324.862 178.12 324.86C180.9 324.81 182.24 324.65 185.75 324.65C187.91 324.65 192.36 324.87 195.34 324.87C198.32 324.87 198.55 321.93 197.34 321.66C191.81 320.46 189.66 318.81 187.83 317.24C187.506 316.963 187.096 316.807 186.67 316.8Z" fill="#263238"/>
<path opacity="0.2" d="M188.33 301.54L187.16 310.58L180.15 309.41L181.23 301.01L188.33 301.54Z" fill="black"/>
<path opacity="0.2" d="M142.98 283.84L149.5 286.87L145.63 292.99L139.25 289.73L142.98 283.84Z" fill="black"/>
<path d="M179.66 153.51L208.11 159C221.55 119.43 218.33 118.15 218.33 118.15C216.242 117.021 214.089 116.019 211.88 115.15L211.5 115C209.68 114.34 209.3 114.24 206.86 113.53C202.67 112.53 198.77 111.73 193.95 111.04C193.64 111.04 193.33 110.94 193.03 110.91C192.15 110.8 191.28 110.71 190.45 110.63C189.88 110.56 189.32 110.53 188.78 110.49L186.94 110.39C183.83 110.24 181.61 110.28 181.61 110.28C183.23 135 182.04 142.1 179.66 153.51Z" fill="#419EAC"/>
<path opacity="0.2" d="M212.58 130.22C211.765 134.358 212.051 138.638 213.41 142.63C215.77 134.89 217.12 129.63 217.84 125.98C215.66 125.7 213.34 126.4 212.58 130.22Z" fill="black"/>
<path d="M218.09 118.05C222.83 121.14 225.86 128.05 226.66 131.98L215.66 140.98C215.66 140.98 209.66 127.59 211.66 124.17C213.67 120.57 216.3 116.87 218.09 118.05Z" fill="#419EAC"/>
<path d="M202 87.6501C199.44 94.1801 198.21 96.8901 199.89 101.74C202.41 109.03 210.96 111.01 215.41 105.43C219.41 100.43 222.95 90.5801 217.93 84.9701C216.879 83.7228 215.521 82.771 213.99 82.2086C212.459 81.6463 210.808 81.4928 209.2 81.7634C207.592 82.034 206.082 82.7193 204.819 83.7516C203.556 84.7839 202.585 86.1276 202 87.6501Z" fill="#B55B52"/>
<path d="M214.09 94.8001C213.772 96.0675 213.856 97.4024 214.33 98.6201C214.98 100.34 216.33 100.3 216.98 99.0801C217.63 97.8601 217.98 95.7601 216.91 94.4001C215.84 93.0401 214.5 93.4001 214.09 94.8001Z" fill="#B55B52"/>
<path d="M202.81 76.5C200.922 76.2389 199.001 76.5992 197.335 77.5265C195.67 78.4537 194.352 79.8976 193.58 81.64C191.17 86.49 188.86 92.89 185.41 91.56C186.06 92.56 188.11 93.67 188.81 93.21C186.48 95.54 186.02 97.43 185.52 102.21C184.9 108.12 181.63 106.82 181.63 106.82C181.63 106.82 185.45 113.01 197.96 115.2C209.08 117.2 214.23 114.66 215.73 112.58C214.19 112.08 211.79 106.58 213.9 103.46C216.01 100.34 219.66 91.71 219.06 88.25C220.41 90.39 220.48 93.7901 221.61 90.37C222.74 86.95 223.25 83.37 219.06 79.12C215.33 75.29 204.44 73.42 202.81 76.5Z" fill="#263238"/>
<path d="M200.6 157.57C200.6 157.57 186.74 204 179.97 230.7C172.83 258.89 148.5 292 148.5 292L139.5 287C139.5 287 154.26 255.37 161.18 229.06C175.18 175.65 168.47 164.33 179.67 153.48L200.6 157.57Z" fill="#263238"/>
<path d="M149.34 292.88L138.16 286.64L139.79 283.34L152.98 289.41L149.34 292.88Z" fill="#419EAC"/>
<path opacity="0.2" d="M194.09 167.45C185 174.45 184.39 201.18 184.6 213.25C189.22 196.38 194.69 177.61 197.89 166.74C197.02 166 195.76 166.16 194.09 167.45Z" fill="black"/>
<path d="M145.24 302.07C145.16 302.101 145.076 302.121 144.99 302.13C144.09 302.21 142.92 300.98 142.31 300.23C142.293 300.203 142.284 300.172 142.284 300.14C142.284 300.108 142.293 300.077 142.31 300.05C142.33 300.02 142.361 299.999 142.396 299.99C142.431 299.98 142.468 299.984 142.5 300C142.8 300 145.38 300.27 145.8 301.07C145.851 301.156 145.878 301.255 145.878 301.355C145.878 301.455 145.851 301.554 145.8 301.64C145.672 301.847 145.473 302 145.24 302.07ZM142.84 300.34C143.69 301.34 144.47 301.84 144.96 301.8C145.064 301.786 145.163 301.746 145.247 301.683C145.331 301.62 145.398 301.536 145.44 301.44C145.462 301.402 145.473 301.359 145.473 301.315C145.473 301.271 145.462 301.228 145.44 301.19C145.23 300.77 143.87 300.47 142.84 300.34Z" fill="#419EAC"/>
<path d="M207.68 159C207.68 159 209.45 215.15 205.48 236.29C201.36 258.29 188.79 308.29 188.79 308.29L178.57 307C178.57 307 185.03 256.45 187.78 234.6C190.78 210.77 186.85 154.96 186.85 154.96L207.68 159Z" fill="#263238"/>
<path d="M190.97 308.93L176.39 307.05L176.57 303.59L192.43 304.28L190.97 308.93Z" fill="#419EAC"/>
<path d="M144.62 299.93C143.92 300.216 143.164 300.339 142.41 300.29C142.382 300.286 142.355 300.274 142.332 300.257C142.309 300.239 142.291 300.216 142.28 300.19C142.267 300.163 142.261 300.134 142.261 300.105C142.261 300.076 142.267 300.047 142.28 300.02C142.34 299.96 143.56 298.38 144.58 298.31C144.713 298.296 144.848 298.311 144.975 298.356C145.101 298.401 145.216 298.474 145.31 298.57C145.416 298.653 145.49 298.77 145.519 298.901C145.548 299.033 145.531 299.17 145.47 299.29C145.267 299.594 144.968 299.819 144.62 299.93ZM142.77 299.98C143.64 299.98 144.98 299.58 145.19 299.14C145.19 299.07 145.25 298.96 145.09 298.81C145.031 298.749 144.959 298.702 144.879 298.673C144.8 298.644 144.714 298.632 144.63 298.64C144.02 298.68 143.21 299.48 142.77 300V299.98Z" fill="#419EAC"/>
<path d="M189.3 318C188.55 317.987 187.804 317.903 187.07 317.75C187.036 317.744 187.005 317.727 186.982 317.702C186.958 317.676 186.944 317.644 186.94 317.61C186.936 317.576 186.943 317.541 186.959 317.511C186.975 317.481 187 317.456 187.03 317.44C187.36 317.27 190.23 315.82 191.08 316.31C191.161 316.351 191.23 316.414 191.278 316.492C191.325 316.569 191.35 316.659 191.35 316.75C191.369 316.903 191.35 317.058 191.294 317.201C191.238 317.344 191.148 317.471 191.03 317.57C190.519 317.907 189.909 318.058 189.3 318ZM187.64 317.51C189.2 317.77 190.37 317.7 190.81 317.32C190.884 317.252 190.941 317.168 190.977 317.074C191.014 316.981 191.028 316.88 191.02 316.78C191.019 316.744 191.01 316.709 190.992 316.678C190.975 316.646 190.95 316.62 190.92 316.6C190.5 316.38 188.82 317 187.64 317.55V317.51Z" fill="#419EAC"/>
<path d="M187.11 317.79C187.077 317.8 187.043 317.8 187.01 317.79C186.985 317.775 186.965 317.752 186.952 317.726C186.94 317.699 186.936 317.669 186.94 317.64C186.94 317.51 187.28 314.64 188.87 314.64H189.01C189.47 314.69 189.6 314.92 189.63 315.11C189.76 315.91 188.04 317.44 187.18 317.83L187.11 317.79ZM188.88 314.92C187.88 314.92 187.45 316.6 187.32 317.32C188.21 316.8 189.37 315.59 189.32 315.11C189.32 315.11 189.32 314.95 188.99 314.92H188.88Z" fill="#419EAC"/>
<path d="M179.5 151.77L177.8 154.06C177.67 154.23 177.87 154.48 178.2 154.54L208.03 160.32C208.29 160.37 208.52 160.32 208.56 160.13L209.24 157.65C209.29 157.47 209.09 157.28 208.81 157.23L180 151.65C179.913 151.626 179.822 151.624 179.734 151.645C179.647 151.666 179.566 151.709 179.5 151.77Z" fill="#419EAC"/>
<path opacity="0.3" d="M179.5 151.77L177.8 154.06C177.67 154.23 177.87 154.48 178.2 154.54L208.03 160.32C208.29 160.37 208.52 160.32 208.56 160.13L209.24 157.65C209.29 157.47 209.09 157.28 208.81 157.23L180 151.65C179.913 151.626 179.822 151.624 179.734 151.645C179.647 151.666 179.566 151.709 179.5 151.77Z" fill="black"/>
<path d="M182.85 155.72L182.08 155.58C181.93 155.58 181.82 155.44 181.85 155.35L182.76 152.13C182.76 152.04 182.93 151.98 183.08 152.01L183.86 152.16C184.01 152.16 184.11 152.29 184.09 152.39L183.18 155.61C183.15 155.7 183.01 155.75 182.85 155.72Z" fill="#263238"/>
<path d="M202.33 159.54L201.56 159.39C201.41 159.39 201.31 159.26 201.33 159.17L202.24 155.95C202.24 155.86 202.41 155.8 202.56 155.83L203.34 155.98C203.49 155.98 203.59 156.11 203.57 156.21L202.66 159.43C202.64 159.52 202.5 159.57 202.33 159.54Z" fill="#263238"/>
<path d="M159.72 415.5H162.2L169.28 380.62L170.52 374.51L178.24 336.51H207.84L223.84 415.51H226.32L209.97 335.06C209.923 334.779 209.777 334.525 209.559 334.341C209.341 334.158 209.065 334.058 208.78 334.06H177.25C176.965 334.058 176.689 334.158 176.471 334.341C176.253 334.525 176.107 334.779 176.06 335.06L169.28 368.44L168.04 374.54L159.72 415.5Z" fill="#263238"/>
<path d="M112.2 415.5H114.68L130.68 336.5H160.27L167.99 374.5L169.23 380.59L176.31 415.47H178.79L170.47 374.47L169.23 368.39L162.5 335.05C162.452 334.769 162.307 334.515 162.089 334.331C161.871 334.148 161.595 334.048 161.31 334.05H129.74C129.455 334.048 129.179 334.148 128.961 334.331C128.743 334.515 128.597 334.769 128.55 335.05L112.2 415.5Z" fill="#263238"/>
<path d="M212.32 324.87H126.24C125.261 324.869 124.292 325.06 123.387 325.434C122.483 325.808 121.661 326.357 120.969 327.049C120.277 327.741 119.728 328.563 119.354 329.467C118.98 330.372 118.789 331.341 118.79 332.32V332.57C118.789 332.927 118.858 333.28 118.993 333.61C119.129 333.94 119.328 334.24 119.58 334.493C119.832 334.745 120.131 334.946 120.461 335.083C120.79 335.22 121.143 335.29 121.5 335.29H217.06C217.417 335.29 217.77 335.22 218.099 335.083C218.429 334.946 218.728 334.745 218.98 334.493C219.232 334.24 219.431 333.94 219.567 333.61C219.702 333.28 219.771 332.927 219.77 332.57V332.32C219.771 331.341 219.579 330.372 219.206 329.467C218.832 328.563 218.283 327.741 217.591 327.049C216.899 326.357 216.077 325.808 215.172 325.434C214.268 325.06 213.299 324.869 212.32 324.87Z" fill="#419EAC"/>
<path d="M374.5 212.35C376.61 216.24 378.56 220.13 380.43 224.11C382.3 228.09 384.05 232.11 385.68 236.26L386.28 237.82L386.58 238.61L386.75 239.07L387 239.86C387.462 241.58 387.523 243.383 387.18 245.13C386.684 247.703 385.783 250.18 384.51 252.47C383.414 254.535 382.164 256.514 380.77 258.39C379.418 260.242 377.945 262.002 376.36 263.66L371.88 260.45C373.676 256.751 375.249 252.947 376.59 249.06C377.163 247.42 377.516 245.712 377.64 243.98C377.64 243.32 377.53 242.79 377.45 242.81L377.32 242.53L376.97 241.82L376.28 240.4C374.4 236.6 372.45 232.79 370.49 228.98L364.66 217.53L374.5 212.35Z" fill="#FF8B7B"/>
<path d="M372.7 259.48L368.5 261.8L374.81 267.2C374.81 267.2 377.43 264.61 376.98 261.49L372.7 259.48Z" fill="#FF8B7B"/>
<path d="M364.45 265.89L369.88 270.1L374.79 267.19L368.48 261.8L364.45 265.89Z" fill="#FF8B7B"/>
<path d="M342.01 184.44C341.92 184.96 341.58 185.34 341.25 185.28C340.92 185.22 340.7 184.77 340.78 184.28C340.86 183.79 341.2 183.38 341.54 183.44C341.88 183.5 342.09 183.92 342.01 184.44Z" fill="#263238"/>
<path d="M341.63 185.34C340.763 186.813 339.696 188.159 338.46 189.34C338.774 189.65 339.153 189.887 339.57 190.034C339.987 190.181 340.43 190.234 340.87 190.19L341.63 185.34Z" fill="#FF5652"/>
<path d="M344.34 181.86C344.299 181.86 344.259 181.852 344.221 181.837C344.183 181.822 344.149 181.799 344.12 181.77C343.853 181.491 343.523 181.279 343.158 181.152C342.793 181.025 342.403 180.987 342.02 181.04C341.941 181.055 341.859 181.038 341.791 180.993C341.724 180.948 341.677 180.879 341.66 180.8C341.651 180.761 341.65 180.721 341.657 180.682C341.664 180.643 341.678 180.605 341.7 180.572C341.721 180.538 341.749 180.51 341.782 180.487C341.814 180.464 341.851 180.448 341.89 180.44C342.375 180.36 342.872 180.4 343.337 180.557C343.803 180.714 344.223 180.983 344.56 181.34C344.589 181.368 344.612 181.401 344.627 181.438C344.643 181.475 344.651 181.515 344.651 181.555C344.651 181.595 344.643 181.635 344.627 181.672C344.612 181.709 344.589 181.742 344.56 181.77C344.531 181.799 344.497 181.822 344.459 181.837C344.421 181.852 344.381 181.86 344.34 181.86Z" fill="#263238"/>
<path d="M359.29 190.15C358.36 194.91 357.43 203.62 360.76 206.79C360.76 206.79 359.46 211.62 350.62 211.62C340.9 211.62 345.98 206.79 345.98 206.79C351.28 205.53 351.14 201.59 350.22 197.9L359.29 190.15Z" fill="#FF8B7B"/>
<path d="M366.01 211.62C365.875 211.352 365.78 211.066 365.73 210.77C364.87 206.14 361.25 202.5 356.56 202.32C351.56 202.14 346.03 202.98 342.72 206.87C341.27 208.57 342.88 211.06 342.88 211.06L366.01 211.62Z" fill="#419EAC"/>
<path d="M381.41 405.69H381.35C381.235 405.625 381.144 405.525 381.09 405.404C381.036 405.284 381.022 405.149 381.05 405.02C381.056 404.916 381.085 404.814 381.135 404.722C381.185 404.63 381.255 404.551 381.34 404.49C382.11 403.9 384.25 404.26 384.34 404.28C384.369 404.286 384.396 404.3 384.419 404.319C384.442 404.338 384.459 404.362 384.47 404.39C384.476 404.42 384.474 404.45 384.463 404.479C384.453 404.507 384.434 404.532 384.41 404.55C383.89 404.93 382.17 406 381.41 405.69ZM383.92 404.5C383.12 404.332 382.288 404.405 381.53 404.71C381.478 404.744 381.435 404.79 381.403 404.844C381.372 404.898 381.354 404.958 381.35 405.02C381.35 405.3 381.45 405.37 381.49 405.39C381.9 405.61 383.11 405.05 383.92 404.5Z" fill="#419EAC"/>
<path d="M383.23 404.27C382.49 403.98 381.7 403.5 381.59 403.04C381.563 402.927 381.577 402.809 381.628 402.705C381.679 402.601 381.765 402.518 381.87 402.47C381.968 402.407 382.079 402.366 382.194 402.348C382.31 402.331 382.428 402.339 382.54 402.37C383.48 402.61 384.41 404.26 384.45 404.37C384.464 404.392 384.472 404.418 384.472 404.445C384.472 404.471 384.464 404.497 384.45 404.52C384.435 404.544 384.415 404.564 384.39 404.578C384.366 404.592 384.338 404.599 384.31 404.6C383.937 404.539 383.573 404.428 383.23 404.27ZM382.57 402.7H382.47C382.397 402.679 382.319 402.673 382.244 402.684C382.168 402.694 382.095 402.72 382.03 402.76C381.86 402.86 381.88 402.95 381.89 402.99C381.99 403.42 383.19 404.05 384.01 404.23C383.67 403.604 383.174 403.077 382.57 402.7Z" fill="#419EAC"/>
<path d="M332.22 409.93C331.39 409.93 330.58 409.82 330.31 409.44C330.242 409.342 330.206 409.225 330.206 409.105C330.206 408.985 330.242 408.869 330.31 408.77C330.363 408.68 330.434 408.602 330.518 408.54C330.602 408.478 330.698 408.434 330.8 408.41C331.88 408.12 334.16 409.41 334.25 409.47C334.278 409.483 334.301 409.504 334.315 409.532C334.33 409.559 334.335 409.59 334.33 409.62C334.326 409.653 334.311 409.684 334.287 409.707C334.264 409.731 334.233 409.746 334.2 409.75C333.546 409.867 332.884 409.927 332.22 409.93ZM331.22 408.67C331.121 408.655 331.019 408.655 330.92 408.67C330.797 408.699 330.689 408.774 330.62 408.88C330.51 409.07 330.55 409.17 330.62 409.22C330.92 409.64 332.57 409.65 333.78 409.48C332.978 409.044 332.098 408.769 331.19 408.67H331.22Z" fill="#419EAC"/>
<path d="M334.18 409.75H334.12C333.34 409.4 331.78 407.99 331.9 407.26C331.9 407.08 332.05 406.87 332.47 406.83C332.624 406.812 332.779 406.825 332.927 406.87C333.075 406.915 333.212 406.99 333.33 407.09C333.918 407.801 334.268 408.679 334.33 409.6C334.331 409.626 334.324 409.651 334.312 409.674C334.3 409.697 334.282 409.716 334.26 409.73C334.237 409.746 334.208 409.753 334.18 409.75ZM332.6 407.12H332.5C332.22 407.12 332.2 407.26 332.2 407.3C332.12 407.74 333.2 408.84 333.98 409.3C333.912 408.559 333.611 407.859 333.12 407.3C332.974 407.179 332.79 407.115 332.6 407.12Z" fill="#419EAC"/>
<path d="M341.33 409.6H334.83L334.19 394.54H340.69L341.33 409.6Z" fill="#FF8B7B"/>
<path d="M391.41 402.82L385.32 404.21L378.21 389.78L384.3 388.38L391.41 402.82Z" fill="#FF8B7B"/>
<path d="M384.44 403.52L391.08 400.52C391.197 400.466 391.329 400.453 391.455 400.484C391.58 400.515 391.691 400.588 391.77 400.69L395.35 405.41C395.429 405.528 395.481 405.662 395.504 405.802C395.527 405.943 395.52 406.086 395.483 406.223C395.446 406.36 395.38 406.488 395.29 406.598C395.2 406.708 395.087 406.797 394.96 406.86C392.63 407.86 391.44 408.26 388.52 409.6C386.73 410.42 380.38 414.9 377.71 415.47C375.04 416.04 374.13 413.47 375.17 413.01C378.878 411.152 381.862 408.112 383.65 404.37C383.796 403.997 384.078 403.693 384.44 403.52Z" fill="#263238"/>
<path d="M334.88 408.85H341.98C342.108 408.851 342.231 408.895 342.331 408.975C342.431 409.055 342.501 409.166 342.53 409.29L343.81 415.07C343.844 415.21 343.845 415.355 343.814 415.495C343.782 415.635 343.719 415.766 343.63 415.878C343.54 415.99 343.426 416.08 343.296 416.141C343.166 416.202 343.024 416.233 342.88 416.23C340.32 416.18 336.62 416.03 333.4 416.03C329.63 416.03 326.4 416.24 321.97 416.24C319.3 416.24 318.56 413.54 319.68 413.3C324.76 412.18 328.91 412.06 333.31 409.35C333.776 409.04 334.32 408.867 334.88 408.85Z" fill="#263238"/>
<path d="M362.81 219.3C363.49 221.05 364.23 222.75 364.99 224.3C366.28 227.06 367.57 229.47 368.51 231.14C369.35 232.64 369.9 233.53 369.9 233.53L384.1 226.53C384.1 226.53 378.38 210.08 372.4 208.25C366.42 206.42 359.74 211.46 362.81 219.3Z" fill="#263238"/>
<path opacity="0.2" d="M369.1 220.93C367.87 221.84 366.98 224.29 366.35 227.16C367.16 228.74 367.91 230.16 368.51 231.16C369.35 232.66 369.89 233.55 369.89 233.55L371.52 232.74C371.485 228.684 370.663 224.673 369.1 220.93Z" fill="black"/>
<path d="M332.78 229.79C332.78 232 332.83 234.44 332.96 237.12C333.28 244.41 334.07 253.5 335.6 264.79H370.37C370.61 259.46 367.25 233.41 372.37 208.26C368.525 207.523 364.637 207.032 360.73 206.79C355.807 206.51 350.873 206.51 345.95 206.79C342.575 207.137 339.232 207.742 335.95 208.6C335.95 208.6 332.77 212.22 332.78 229.79Z" fill="#263238"/>
<path opacity="0.2" d="M333.8 225.1C333.48 225.8 333.14 226.51 332.8 227.27C332.8 228.08 332.8 228.92 332.8 229.79C332.8 230.14 332.8 230.5 332.8 230.86C337.12 228.23 339.95 222.71 339.95 222.71L333.8 225.1Z" fill="black"/>
<path d="M343.24 220.37L342.24 220.99L341.36 221.5C340.77 221.85 340.22 222.1 339.66 222.41C338.54 222.96 337.44 223.48 336.33 223.98C334.12 224.98 331.86 225.82 329.59 226.62C324.904 228.282 320.036 229.377 315.09 229.88C314.42 229.88 313.8 230.01 313.09 230H311.3H310.93C309.299 229.878 307.698 229.493 306.19 228.86C303.803 227.858 301.532 226.597 299.42 225.1C295.498 222.368 291.878 219.227 288.62 215.73L292.1 211.45C295.96 213.59 299.9 215.83 303.75 217.61C305.536 218.474 307.393 219.183 309.3 219.73C309.923 219.912 310.571 219.996 311.22 219.98L312.48 219.86C312.92 219.86 313.42 219.72 313.89 219.66C317.97 218.893 321.965 217.731 325.82 216.19C327.82 215.44 329.82 214.6 331.76 213.75C332.76 213.31 333.69 212.87 334.61 212.41L335.93 211.72L336.54 211.4L337.02 211.12L343.24 220.37Z" fill="#FF8B7B"/>
<path d="M293.31 212.8L289.25 207.56L285.13 214.49C285.13 214.49 288.92 217.31 291.95 216.8L293.31 212.8Z" fill="#FF8B7B"/>
<path d="M283.18 205.43L281.02 211.15L285.13 214.49L289.25 207.56L283.18 205.43Z" fill="#FF8B7B"/>
<path d="M349.11 218.92C345.74 224.14 327.41 229.85 327.41 229.85L320.35 215.33C325.253 212.462 330.475 210.18 335.91 208.53C347.61 205.33 353.16 212.65 349.11 218.92Z" fill="#263238"/>
<path opacity="0.2" d="M334.19 394.55L334.52 402.31H341.02L340.69 394.55H334.19Z" fill="black"/>
<path opacity="0.2" d="M384.3 388.39L378.21 389.79L381.88 397.23L387.97 395.83L384.3 388.39Z" fill="black"/>
<path d="M359.5 186.05C358.11 192.35 357.62 196.11 353.89 198.87C348.29 203.03 340.89 198.87 340.37 192.3C339.9 186.36 342.25 177.06 348.87 175.5C350.329 175.149 351.854 175.177 353.299 175.581C354.745 175.985 356.063 176.752 357.128 177.81C358.193 178.867 358.97 180.179 359.386 181.621C359.801 183.064 359.84 184.588 359.5 186.05Z" fill="#FF8B7B"/>
<path d="M365.29 170.61C370.82 170.76 372.83 179.95 371.18 182.69C371.18 182.69 369.41 183.69 367.26 187.06C364 192.2 359.84 197.76 354.96 197.43C348.9 197.01 347.96 190.01 348.17 183.5C344.97 180.5 343.22 180.26 341.65 175.91C336.8 162.5 346.12 155.78 365.29 170.61Z" fill="#263238"/>
<path d="M350.78 185.44C350.609 187.067 349.906 188.593 348.78 189.78C347.27 191.33 345.78 190.29 345.6 188.33C345.43 186.57 346.01 183.65 347.81 182.83C349.61 182.01 350.96 183.47 350.78 185.44Z" fill="#FF8B7B"/>
<path d="M347.93 264.79C347.93 264.79 347.18 311.06 352.99 329.2C362.2 357.93 377.99 396.58 377.99 396.58L389.87 393.58C389.87 393.58 376.78 354.4 372.53 330.2C368.71 308.46 370.33 282.58 370.33 264.82L347.93 264.79Z" fill="#419EAC"/>
<path opacity="0.2" d="M354.42 272.74C355.65 281.08 351.3 304.29 349.8 311.89C348.22 297.68 347.93 280.82 347.91 271.62C351.09 269.46 353.85 268.9 354.42 272.74Z" fill="black"/>
<path d="M374.85 393.08C374.8 393.08 377.76 396.84 377.76 396.84L390.76 393.53L389.32 389.12L374.85 393.08Z" fill="#419EAC"/>
<path opacity="0.2" d="M374.85 393.08C374.8 393.08 377.76 396.84 377.76 396.84L390.76 393.53L389.32 389.12L374.85 393.08Z" fill="white"/>
<path d="M335.59 264.79C335.59 264.79 325.8 306.3 325.11 326.13C324.34 348.36 332.11 400.81 332.11 400.81H343.11C343.11 400.81 344.5 348 344.96 327.7C345.5 305.62 358.5 264.79 358.5 264.79H335.59Z" fill="#419EAC"/>
<path d="M329.98 396.42C329.93 396.42 330.6 400.99 330.6 400.99H344L344.36 396.91L329.98 396.42Z" fill="#419EAC"/>
<path opacity="0.2" d="M329.98 396.42C329.93 396.42 330.6 400.99 330.6 400.99H344L344.36 396.91L329.98 396.42Z" fill="white"/>
</g>
<defs>
<clipPath id="clip0_379_6076">
<rect width="500" height="500" fill="white" transform="translate(0.5)"/>
</clipPath>
</defs>
</svg>
