<svg width="110" height="55" viewBox="0 0 110 55" fill="none" xmlns="http://www.w3.org/2000/svg">
<path d="M26.988 21.5003C26.988 17.7357 24.9782 14.5032 21.5753 12.8664C19.4434 11.8434 16.4092 11.7207 14.1133 11.7207H6.40604V42.0006H7.92247H9.44015V14.4622H14.7289C16.8608 14.4622 18.746 14.585 20.632 15.608C22.6819 16.7128 23.9538 19.127 23.9538 21.4184C23.9538 24.5692 21.9035 26.9425 18.9516 27.8427C17.1067 28.4156 14.3189 28.2928 12.433 28.2928L22.7239 42.0006H26.5363L17.9682 30.707C23.052 30.3797 26.988 26.656 26.988 21.5003Z" fill="#419EAC"/>
<path d="M47.9139 42.0006V39.259H34.3436V28.0882H47.4635V25.3466H34.3436V14.4622H47.9139V11.7207H31.3095V42.0006H47.9139Z" fill="#419EAC"/>
<path d="M69.8133 33.6532C69.8133 28.9475 66.7372 26.2059 62.3913 24.8965C59.3164 23.9554 55.1758 23.2598 55.1758 19.2088C55.1758 16.1399 57.6358 13.9303 60.6697 13.9303C63.6626 13.9303 66.041 16.4673 66.041 19.4134H69.0751C69.0751 14.7078 65.3436 11.1887 60.6697 11.1887C55.9959 11.1887 52.1417 14.5441 52.1417 19.3316C52.1417 24.5692 55.7092 26.0423 60.0141 27.3107C63.335 28.2928 66.7792 29.684 66.7792 33.7759C66.7792 37.1722 64.0316 39.791 60.6697 39.791C56.8568 39.791 54.5203 37.254 54.3563 33.5304H51.3222C51.4042 38.9726 55.2989 42.5325 60.6697 42.5325C65.6716 42.5325 69.8133 38.6862 69.8133 33.6532Z" fill="#454238"/>
<path d="M90.3139 42.0006V39.259H76.7436V28.0882H89.8635V25.3466H76.7436V14.4622H90.3139V11.7207H73.7095V42.0006H90.3139Z" fill="#454238"/>
<path d="M109.999 14.4622V11.7207H93.0665V14.4622H100.036V42.0006H103.07V14.4622H109.999Z" fill="#454238"/>
<path d="M101.533 10.2297H93.0665L101.533 0L110 10.2297H101.533Z" fill="#454238"/>
<path d="M7.68725 43.1719H0L7.92247 55L15.3745 43.1719H7.68725Z" fill="#419EAC"/>
</svg>
