<svg width="428" height="926" viewBox="0 0 428 926" fill="none" xmlns="http://www.w3.org/2000/svg">
<rect width="428" height="926" fill="#419EAC"/>
<g opacity="0.2" clip-path="url(#clip0_1051_4727)">
<rect width="422.083" height="926" fill="#419EAC"/>
<g style="mix-blend-mode:overlay" opacity="0.2">
<path d="M377.826 330.165C380.386 335.31 384.65 339.272 389.8 341.288C394.95 343.304 400.622 343.233 405.725 341.088C410.828 338.944 415.003 334.876 417.447 329.669C419.892 324.461 420.432 318.48 418.966 312.875L446.862 295.978L457.434 315.626L465.299 310.832L454.764 291.184L456.915 289.848L467.45 309.496L483.216 299.947L472.644 280.299L478.505 276.763L472.273 265.249L412.919 301.322C409.108 297.114 403.959 294.552 398.468 294.13C392.978 293.708 387.534 295.456 383.189 299.038C378.844 302.619 375.906 307.779 374.943 313.521C373.98 319.262 375.06 325.178 377.974 330.126L377.826 330.165ZM387.323 324.428C386.197 322.352 385.678 319.968 385.832 317.579C385.986 315.19 386.805 312.902 388.186 311.007C389.567 309.111 391.448 307.692 393.591 306.929C395.734 306.166 398.042 306.094 400.224 306.721C402.406 307.348 404.363 308.647 405.847 310.453C407.332 312.259 408.278 314.491 408.564 316.866C408.851 319.241 408.466 321.653 407.459 323.797C406.451 325.94 404.865 327.719 402.903 328.908C400.276 330.5 397.159 330.922 394.238 330.082C391.317 329.242 388.83 327.209 387.323 324.428Z" fill="white"/>
</g>
<g style="mix-blend-mode:overlay" opacity="0.2">
<path d="M90.7258 224.2C91.4738 225.63 92.7202 226.73 94.2252 227.291C95.7302 227.851 97.3878 227.831 98.8792 227.235C100.371 226.639 101.591 225.509 102.305 224.062C103.019 222.615 103.177 220.952 102.749 219.395L110.902 214.7L113.991 220.159L116.29 218.827L113.211 213.367L113.84 212.996L116.918 218.456L121.526 215.802L118.436 210.342L120.149 209.36L118.328 206.16L100.982 216.185C99.8678 215.015 98.3632 214.303 96.7585 214.186C95.1538 214.069 93.5629 214.554 92.2931 215.55C91.0233 216.545 90.1648 217.979 89.8833 219.574C89.6018 221.17 89.9174 222.814 90.7691 224.189L90.7258 224.2ZM93.5011 222.605C93.1722 222.028 93.0205 221.366 93.0654 220.702C93.1104 220.038 93.3498 219.403 93.7535 218.876C94.1571 218.349 94.7069 217.955 95.3331 217.743C95.9593 217.531 96.6339 217.511 97.2715 217.685C97.9091 217.859 98.4811 218.22 98.915 218.722C99.3488 219.224 99.6252 219.844 99.709 220.504C99.7928 221.164 99.6804 221.834 99.3858 222.43C99.0913 223.026 98.628 223.52 98.0545 223.85C97.2866 224.293 96.3759 224.41 95.5222 224.177C94.6685 223.943 93.9416 223.378 93.5011 222.605Z" fill="white"/>
</g>
<g style="mix-blend-mode:overlay" opacity="0.2">
<path d="M60.8935 17.1959C62.1502 19.6087 64.2441 21.4663 66.7725 22.4118C69.301 23.3574 72.0857 23.324 74.5913 22.3182C77.097 21.3124 79.1468 19.4052 80.3467 16.963C81.5467 14.5208 81.8122 11.7161 81.0922 9.08795L94.7887 1.16428L99.9796 10.3779L103.841 8.12976L98.6682 -1.08384L99.7246 -1.71038L104.897 7.50321L112.638 3.02542L107.447 -6.18817L110.325 -7.84664L107.265 -13.2458L78.1234 3.67035C76.2521 1.69699 73.7244 0.495302 71.0285 0.297416C68.3326 0.0995302 65.6598 0.919512 63.5266 2.59893C61.3933 4.27835 59.951 6.69802 59.4781 9.39055C59.0053 12.0831 59.5355 14.8574 60.9663 17.1775L60.8935 17.1959ZM65.5561 14.5055C65.0034 13.5317 64.7487 12.4139 64.8241 11.2936C64.8996 10.1732 65.3019 9.10069 65.98 8.21172C66.6582 7.32275 67.5817 6.65729 68.6338 6.29955C69.6859 5.94181 70.8192 5.90788 71.8904 6.20204C72.9616 6.49619 73.9224 7.10522 74.6513 7.95205C75.3803 8.79889 75.8445 9.84545 75.9853 10.9593C76.1262 12.0732 75.9372 13.2043 75.4424 14.2095C74.9476 15.2147 74.1693 16.0488 73.2058 16.6062C71.9157 17.3526 70.3856 17.5507 68.9514 17.1568C67.5172 16.763 66.2961 15.8094 65.5561 14.5055Z" fill="white"/>
</g>
<g style="mix-blend-mode:overlay" opacity="0.2">
<path d="M221.874 -28.6025H202.176V-49.4683H186.744V-28.6025H167.046V-12.2555H186.744V8.61037H202.176V-12.2555H221.874V-28.6025Z" fill="white"/>
</g>
<g style="mix-blend-mode:overlay" opacity="0.2">
<path d="M17.3597 215.35C11.3143 213.12 5.58383 210.029 0.326147 206.16L-9.30405 234.65C-12.7455 244.728 -8.7835 258.453 0.933454 262.22L1.45401 262.404C11.1131 265.988 22.3339 258.177 25.7464 248.098L35.4634 219.333C29.2882 218.867 23.1996 217.527 17.3597 215.35ZM21.0614 230.177C23.9534 230.882 25.7175 233.241 25.0523 235.569C21.3772 234.996 17.7509 234.116 14.2075 232.934C14.8765 231.687 15.9377 230.727 17.2061 230.223C18.4745 229.719 19.8696 229.703 21.1482 230.177H21.0614ZM5.09787 224.05C6.3474 224.568 7.38835 225.529 8.04253 226.769C8.69672 228.01 8.92344 229.453 8.68388 230.851C5.27909 229.327 1.99159 227.525 -1.14875 225.46C-0.19441 223.223 2.52403 222.672 5.18463 224.112L5.09787 224.05ZM3.85433 254.868H3.53621C-3.49123 252.203 -6.78805 242.829 -5.13964 234.497C-2.24769 242.155 1.51185 246.75 6.11005 248.588C10.7083 250.426 16.3186 249.201 22.5942 245.096C18.8635 252.418 10.8818 257.35 3.94109 254.93L3.85433 254.868Z" fill="white"/>
</g>
<g style="mix-blend-mode:overlay" opacity="0.2">
<path d="M294.404 233.841L312.433 240.324L319.852 217.454L301.749 210.853C300.327 210.337 298.822 210.122 297.322 210.222C295.821 210.322 294.354 210.734 293.003 211.435C291.653 212.135 290.446 213.111 289.452 214.305C288.457 215.5 287.695 216.891 287.207 218.397C286.72 219.904 286.518 221.498 286.612 223.088C286.707 224.677 287.096 226.231 287.757 227.662C289.093 230.551 291.457 232.759 294.33 233.801L294.404 233.841ZM312.322 234.548L311.543 236.984L295.294 231.051C293.121 230.224 291.345 228.521 290.351 226.313C289.357 224.105 289.228 221.571 289.99 219.262C290.073 219.032 290.172 218.809 290.286 218.594C294.701 225.942 302.973 230.5 312.322 234.43V234.548ZM333.912 248.065L316.18 241.66L323.599 218.79L341.182 225.117C344.055 226.159 346.42 228.367 347.755 231.256C349.091 234.145 349.289 237.478 348.305 240.521C347.321 243.564 345.236 246.068 342.509 247.483C339.782 248.898 336.636 249.108 333.763 248.065H333.912Z" fill="white"/>
</g>
<g style="mix-blend-mode:overlay" opacity="0.2">
<path d="M55.1632 78.1634L36.949 64.017L20.738 87.0048L39.1006 101.308C40.5265 102.543 42.1746 103.458 43.9447 103.996C45.7148 104.535 47.5699 104.687 49.3971 104.442C51.2242 104.197 52.9853 103.561 54.5731 102.573C56.1609 101.584 57.5423 100.264 58.6331 98.6922C59.724 97.1204 60.5016 95.3298 60.9186 93.4296C61.3355 91.5293 61.3831 89.5591 61.0586 87.6387C60.734 85.7184 60.0439 83.888 59.0305 82.2591C58.017 80.6301 56.7012 79.2366 55.1632 78.1634ZM35.1313 70.54L36.8377 68.1037L53.4197 81.0319C55.5752 82.7854 56.9961 85.3638 57.3775 88.2141C57.7589 91.0645 57.0705 93.9597 55.46 96.2786C55.46 96.5143 55.0891 96.7108 54.9036 96.9466C52.1585 86.9262 44.4054 78.517 35.1313 70.54ZM15.2478 46.9627L33.1652 60.9126L16.9171 83.9005L-0.777798 70.1078C-2.27297 69.0195 -3.54646 67.624 -4.52261 66.0043C-5.49876 64.3845 -6.1577 62.5735 -6.46026 60.6787C-6.76282 58.784 -6.70284 56.8441 -6.28391 54.9744C-5.86497 53.1047 -5.09562 51.3432 -4.02152 49.7945C-2.94742 48.2459 -1.59048 46.9417 -0.0313001 45.9593C1.52788 44.977 3.25753 44.3366 5.05491 44.0761C6.85229 43.8156 8.68075 43.9404 10.4317 44.4431C12.1827 44.9457 13.8205 45.8159 15.2478 47.002V46.9627Z" fill="white"/>
</g>
<g style="mix-blend-mode:overlay" opacity="0.2">
<path d="M-35.9451 129.365C-35.9251 130.069 -36.0839 130.765 -36.4048 131.382C-36.7257 131.998 -37.197 132.512 -37.7694 132.869C-38.3418 133.226 -38.9944 133.414 -39.6588 133.413C-40.3233 133.412 -40.9753 133.222 -41.5466 132.863C-43.0234 132.088 -44.2026 130.797 -44.8853 129.208C-47.4449 123.471 -42.6595 118.323 -38.0596 116.201C-35.4633 114.94 -32.6073 114.398 -29.7591 114.625C-26.9108 114.851 -24.1635 115.84 -21.7744 117.498C-17.8875 120.704 -15.1836 125.25 -14.1325 130.348C-13.044 134.979 -13.1814 139.839 -14.5295 144.394C-15.8775 148.948 -18.3843 153.021 -21.7744 156.165C-25.5698 159.679 -30.1244 162.149 -35.0353 163.355C-39.9462 164.562 -45.062 164.467 -49.9304 163.081C-54.3688 161.723 -58.5095 159.448 -62.1133 156.386C-65.717 153.324 -68.7125 149.536 -70.9268 145.241C-73.5359 139.756 -74.895 133.7 -74.895 127.558C-74.895 121.416 -73.5359 115.36 -70.9268 109.875C-67.0247 100.789 -60.2743 93.4139 -51.8218 89.0016C-43.3693 84.5892 -33.7356 83.4117 -24.5566 85.6689C-14.8192 88.1664 -6.05785 93.8143 0.510313 101.828C7.07848 109.842 11.1273 119.824 12.0945 130.387C10.1415 118.384 4.225 107.507 -4.59882 99.6973C-9.05385 95.601 -14.2595 92.5232 -19.8896 90.657C-25.5197 88.7907 -31.4529 88.1762 -37.3177 88.8518C-46.9854 90.3477 -55.7347 95.7396 -61.7408 103.903C-67.7468 112.066 -70.5459 122.37 -69.5542 132.666C-68.8234 137.789 -66.9245 142.645 -64.0222 146.815C-61.1199 150.985 -57.3016 154.343 -52.8981 156.597C-48.3878 158.948 -43.3365 159.883 -38.3407 159.292C-33.345 158.7 -28.6134 156.606 -24.7049 153.257C-22.4303 151.123 -20.4785 148.631 -18.9179 145.87C-17.005 142.038 -16.2659 137.67 -16.8035 133.374C-17.1327 130.364 -17.9881 127.446 -19.326 124.768C-20.0424 123.294 -20.9966 121.964 -22.1453 120.838C-23.9611 119.12 -26.1652 117.927 -28.544 117.377C-30.9227 116.826 -33.3955 116.935 -35.7225 117.695C-40.3595 119.031 -46.1095 123.51 -43.624 129.287C-43.624 129.601 -43.3272 129.916 -43.1418 130.23C-42.4102 131.305 -41.4254 132.159 -40.2854 132.706C-39.7807 132.889 -39.2429 132.945 -38.7141 132.871C-38.1853 132.797 -37.6799 132.594 -37.2378 132.278C-36.7956 131.961 -36.4286 131.541 -36.1657 131.049C-35.9028 130.558 -35.7511 130.008 -35.7225 129.444C-35.9451 129.837 -35.9822 129.837 -35.9451 129.365ZM-83.1315 145.084C-81.3903 150.287 -78.8866 155.167 -75.7122 159.544C-68.9335 168.754 -59.2338 175.05 -48.4094 177.267C-39.8059 178.913 -30.9329 177.737 -22.9776 173.895C-15.0223 170.054 -8.36417 163.731 -3.89398 155.772C0.466492 147.651 1.95265 138.149 0.297891 128.972C-0.683394 123.275 -2.89496 117.895 -6.16401 113.253C-9.43307 108.611 -13.6711 104.832 -18.547 102.212C-23.4273 99.559 -28.887 98.3315 -34.364 98.6561C-39.841 98.9807 -45.1373 100.846 -49.7078 104.059C-53.4157 106.929 -56.3658 110.76 -58.2755 115.184C-60.1852 119.608 -60.9904 124.478 -60.6141 129.326C-60.0072 134.873 -57.4991 139.991 -53.5658 143.708C-51.8587 145.418 -49.8489 146.754 -47.6524 147.637C-45.4558 148.521 -43.116 148.935 -40.7676 148.856C-38.1251 148.695 -35.5833 147.726 -33.4501 146.066C-31.3169 144.406 -29.6837 142.127 -28.7484 139.504C-28.2271 138.203 -28.0689 136.771 -28.2924 135.378C-28.516 133.985 -29.112 132.69 -30.0097 131.645C-31.6438 130.204 -33.7077 129.424 -35.8338 129.444C-33.8014 129.596 -31.8842 130.5 -30.4178 131.998C-29.6833 132.987 -29.2275 134.176 -29.1028 135.427C-28.9781 136.679 -29.1896 137.942 -29.7129 139.071C-30.8021 141.722 -32.6986 143.909 -35.0992 145.284C-37.4998 146.659 -40.2662 147.142 -42.9563 146.655C-46.7525 145.751 -50.1655 143.557 -52.6755 140.407C-54.5252 138.159 -55.8673 135.493 -56.6 132.613C-57.3328 129.733 -57.4369 126.714 -56.9044 123.785C-55.8551 118.176 -53.1226 113.076 -49.1142 109.246C-47.4325 107.529 -45.4383 106.192 -43.253 105.317C-40.37 104.047 -37.2862 103.367 -34.1645 103.313C-29.3847 103.377 -24.6756 104.543 -20.3647 106.731C-14.9572 109.768 -10.5176 114.43 -7.6036 120.131C-4.70843 125.878 -3.42151 132.38 -3.89398 138.875C-4.20656 143.722 -5.47 148.446 -7.6036 152.746C-10.1154 157.571 -13.5223 161.808 -17.6196 165.203C-21.9317 168.78 -26.895 171.376 -32.1984 172.826C-36.9006 174.228 -41.8228 174.603 -46.6659 173.927C-50.9573 173.288 -55.1491 172.046 -59.1302 170.233C-64.231 167.778 -68.84 164.31 -72.7074 160.016C-76.5173 155.789 -79.6499 150.931 -81.9815 145.634C-83.8035 141.37 -85.2081 136.919 -86.1733 132.352C-85.5868 136.723 -84.5672 141.017 -83.1315 145.162V145.084Z" fill="white"/>
</g>
<g style="mix-blend-mode:overlay" opacity="0.2">
<path d="M269.492 293.147C269.505 293.582 269.406 294.014 269.207 294.395C269.008 294.777 268.716 295.095 268.361 295.317C268.006 295.538 267.601 295.655 267.189 295.654C266.777 295.653 266.373 295.535 266.018 295.313C265.102 294.833 264.371 294.033 263.948 293.049C262.36 289.495 265.328 286.307 268.181 284.992C269.791 284.211 271.563 283.875 273.329 284.016C275.096 284.156 276.799 284.769 278.281 285.796C280.692 287.781 282.369 290.597 283.021 293.755C283.696 296.624 283.611 299.634 282.775 302.455C281.938 305.276 280.384 307.799 278.281 309.747C275.927 311.924 273.102 313.454 270.057 314.201C267.011 314.948 263.838 314.89 260.819 314.031C258.066 313.19 255.498 311.78 253.263 309.884C251.028 307.987 249.17 305.641 247.796 302.98C246.178 299.583 245.335 295.831 245.335 292.027C245.335 288.222 246.178 284.471 247.796 281.074C250.217 275.446 254.403 270.877 259.646 268.144C264.888 265.411 270.863 264.682 276.556 266.08C282.595 267.627 288.029 271.125 292.102 276.089C296.176 281.053 298.687 287.236 299.287 293.779C298.076 286.344 294.406 279.607 288.934 274.769C286.171 272.232 282.942 270.326 279.45 269.17C275.958 268.014 272.278 267.633 268.641 268.051C262.645 268.978 257.219 272.318 253.494 277.374C249.769 282.431 248.033 288.813 248.648 295.191C249.101 298.364 250.279 301.373 252.079 303.956C253.879 306.538 256.247 308.618 258.978 310.015C261.775 311.471 264.908 312.05 268.007 311.684C271.105 311.317 274.04 310.02 276.464 307.946C277.874 306.624 279.085 305.08 280.053 303.37C281.239 300.996 281.698 298.291 281.364 295.629C281.16 293.765 280.63 291.957 279.8 290.299C279.355 289.386 278.764 288.562 278.051 287.865C276.925 286.8 275.558 286.062 274.083 285.72C272.607 285.379 271.074 285.447 269.63 285.917C266.755 286.745 263.188 289.52 264.73 293.098C264.73 293.293 264.914 293.487 265.029 293.682C265.483 294.348 266.093 294.877 266.801 295.216C267.114 295.329 267.447 295.364 267.775 295.318C268.103 295.272 268.416 295.146 268.691 294.95C268.965 294.755 269.193 294.494 269.356 294.19C269.519 293.885 269.613 293.545 269.63 293.195C269.492 293.439 269.469 293.439 269.492 293.147ZM240.227 302.883C241.307 306.106 242.86 309.128 244.828 311.84C249.033 317.545 255.048 321.445 261.762 322.818C267.098 323.838 272.601 323.109 277.535 320.73C282.469 318.35 286.598 314.433 289.371 309.503C292.075 304.473 292.997 298.588 291.971 292.903C291.362 289.374 289.99 286.042 287.963 283.166C285.935 280.291 283.307 277.95 280.283 276.327C277.256 274.684 273.87 273.923 270.473 274.124C267.076 274.326 263.791 275.481 260.957 277.471C258.657 279.249 256.827 281.622 255.643 284.362C254.458 287.103 253.959 290.119 254.192 293.122C254.569 296.558 256.124 299.728 258.564 302.031C259.623 303.09 260.869 303.917 262.231 304.464C263.594 305.012 265.045 305.268 266.501 305.22C268.14 305.12 269.717 304.519 271.04 303.491C272.363 302.463 273.376 301.051 273.956 299.426C274.279 298.621 274.377 297.734 274.239 296.871C274.1 296.008 273.73 295.206 273.174 294.558C272.16 293.666 270.88 293.183 269.561 293.195C270.822 293.289 272.011 293.849 272.921 294.777C273.376 295.39 273.659 296.126 273.736 296.901C273.813 297.677 273.682 298.459 273.358 299.159C272.682 300.801 271.506 302.155 270.017 303.007C268.528 303.859 266.812 304.158 265.144 303.856C262.79 303.296 260.673 301.937 259.116 299.986C257.969 298.593 257.136 296.942 256.682 295.158C256.228 293.374 256.163 291.504 256.493 289.69C257.144 286.216 258.839 283.057 261.325 280.684C262.368 279.62 263.605 278.792 264.96 278.25C266.748 277.464 268.661 277.043 270.597 277.009C273.561 277.049 276.482 277.771 279.156 279.126C282.509 281.007 285.263 283.895 287.07 287.427C288.866 290.986 289.664 295.014 289.371 299.037C289.177 302.039 288.393 304.966 287.07 307.629C285.512 310.618 283.399 313.243 280.858 315.345C278.184 317.561 275.105 319.169 271.816 320.067C268.9 320.936 265.847 321.168 262.843 320.749C260.182 320.353 257.582 319.584 255.113 318.461C251.949 316.94 249.091 314.792 246.692 312.132C244.329 309.514 242.386 306.505 240.94 303.224C239.81 300.582 238.939 297.826 238.34 294.996C238.704 297.704 239.336 300.364 240.227 302.932V302.883Z" fill="white"/>
</g>
<g style="mix-blend-mode:overlay" opacity="0.2">
<path d="M449.792 100.208C447.492 76.6308 426.904 68.7717 406.093 68.4967C373.263 68.4967 366.697 91.0916 365.918 99.1079C365.658 101.505 364.471 111.722 364.471 111.722C364.174 113.136 363.061 119.581 365.213 120.878C365.687 121.137 366.076 121.542 366.327 122.04C366.579 122.539 366.682 123.106 366.623 123.668L361.132 141.783C361.018 142.395 361.032 143.027 361.174 143.632C361.317 144.238 361.583 144.803 361.955 145.287C362.327 145.771 362.795 146.163 363.326 146.433C363.857 146.703 364.438 146.846 365.027 146.852L369.924 147.245C369.071 147.245 371.185 172.551 371.816 175.42C372.163 176.99 373.052 178.365 374.309 179.274C375.565 180.183 377.098 180.561 378.605 180.332L395.446 178.681L394 194.399H441.891L438.997 154.75C448.568 132.981 451.647 118.913 449.792 100.208ZM417.593 153.846H398.414L401.345 117.302C399.92 116.208 398.76 114.773 397.961 113.113C397.161 111.453 396.744 109.616 396.745 107.753C396.783 105.762 397.296 103.815 398.237 102.091C399.178 100.368 400.516 98.925 402.125 97.8971C403.734 96.8691 405.563 96.2897 407.441 96.2128C409.319 96.1358 411.185 96.564 412.865 97.4573C414.544 98.3505 415.983 99.6798 417.047 101.321C418.11 102.962 418.764 104.862 418.947 106.844C419.13 108.825 418.837 110.823 418.094 112.652C417.351 114.481 416.183 116.08 414.699 117.302L417.593 153.846Z" fill="white"/>
</g>
<g style="mix-blend-mode:overlay" opacity="0.2">
<path d="M173.278 295.141C171.904 281.025 159.602 276.319 147.167 276.155C127.55 276.155 123.627 289.682 123.161 294.482C123.006 295.917 122.297 302.034 122.297 302.034C122.12 302.881 121.455 306.739 122.74 307.516C123.024 307.671 123.256 307.913 123.406 308.212C123.557 308.51 123.618 308.85 123.583 309.186L120.302 320.032C120.234 320.398 120.242 320.776 120.327 321.139C120.412 321.502 120.571 321.84 120.794 322.13C121.016 322.42 121.296 322.654 121.613 322.816C121.93 322.978 122.277 323.063 122.629 323.067L125.555 323.302C125.046 323.302 126.309 338.453 126.686 340.17C126.893 341.11 127.424 341.934 128.175 342.478C128.926 343.022 129.842 343.248 130.742 343.111L140.805 342.123L139.941 351.534H168.557L166.828 327.795C172.547 314.762 174.386 306.339 173.278 295.141ZM154.038 327.254H142.579L144.33 305.375C143.478 304.72 142.786 303.861 142.308 302.867C141.83 301.873 141.581 300.773 141.581 299.658C141.604 298.466 141.911 297.3 142.473 296.268C143.035 295.236 143.834 294.372 144.796 293.757C145.758 293.142 146.85 292.795 147.973 292.749C149.095 292.703 150.21 292.959 151.213 293.494C152.217 294.028 153.076 294.824 153.712 295.807C154.347 296.79 154.738 297.927 154.848 299.113C154.957 300.3 154.782 301.496 154.338 302.591C153.894 303.686 153.196 304.643 152.309 305.375L154.038 327.254Z" fill="white"/>
</g>
<g style="mix-blend-mode:overlay" opacity="0.2">
<path d="M160.03 93.0307C160.94 93.5359 161.688 94.3155 162.179 95.2709C162.67 96.2263 162.883 97.3146 162.791 98.3983C162.699 99.4819 162.305 100.512 161.66 101.359C161.014 102.205 160.147 102.83 159.166 103.155C158.186 103.479 157.136 103.488 156.151 103.18C155.166 102.873 154.289 102.263 153.631 101.427C152.973 100.592 152.563 99.5685 152.454 98.4866C152.345 97.4047 152.542 96.3128 153.019 95.3491C153.335 94.7092 153.768 94.1416 154.292 93.6788C154.815 93.216 155.42 92.867 156.071 92.6517C156.722 92.4364 157.407 92.3591 158.086 92.4241C158.765 92.4891 159.426 92.6952 160.03 93.0307ZM140.962 97.8247C142.669 80.4561 157.878 74.2474 173.236 74.2474C197.534 74.2474 202.394 90.948 202.913 96.8817C202.913 98.6107 203.989 106.195 203.989 106.195C204.174 107.216 205.028 111.853 203.432 112.953C203.087 113.146 202.804 113.444 202.619 113.808C202.435 114.172 202.356 114.586 202.394 114.997L206.437 128.357C206.551 128.824 206.562 129.311 206.469 129.783C206.377 130.254 206.183 130.697 205.904 131.077C205.624 131.456 205.266 131.763 204.857 131.973C204.448 132.183 203.998 132.29 203.544 132.287L199.834 132.562C199.847 139.53 199.388 146.49 198.462 153.389C198.204 154.553 197.541 155.571 196.606 156.241C195.671 156.911 194.532 157.184 193.416 157.004L180.989 155.825L182.065 167.299H146.972L149.087 138.024C141.89 121.991 139.553 111.578 140.962 97.8247ZM168.822 107.374H172.939L174.943 109.888L174.386 114.25L177.873 116.176L180.915 113.189L184.068 113.818L186.554 117.315L190.263 116.058V111.696L192.637 109.574L196.718 110.164L198.573 106.47L195.754 103.248L196.013 99.986L199.315 97.3532L198.128 93.4236H194.01L192.007 90.9087L192.6 86.5862L189.113 84.6215L186.071 87.6079L182.955 87.3328L180.507 83.8356L176.797 85.093V89.4548L174.423 91.5767L170.306 90.948L168.488 94.6418L171.307 97.864L171.01 101.126L167.709 103.758L168.822 107.374ZM150.904 105.487L153.241 104.584L154.911 105.487L155.541 108.081H157.952L158.991 105.684L160.809 105.094L162.96 106.43L164.778 104.78L163.925 102.304L164.815 100.536L167.227 99.8681L167.449 97.3532L165.149 96.2136L164.593 94.3274L165.854 92.0483L164.333 90.0835L161.959 90.9873L160.29 90.0835L159.659 87.49H157.285L156.246 89.8871L154.428 90.4765L152.277 89.1404L150.422 90.7908L151.312 93.2664L150.422 95.0348L148.011 95.7028L147.788 98.2177L150.051 99.3573L150.645 101.243L149.346 103.562L150.904 105.487ZM175.536 95.86C174.686 97.5323 174.324 99.4342 174.497 101.325C174.669 103.215 175.367 105.009 176.502 106.478C177.638 107.948 179.16 109.027 180.876 109.579C182.591 110.131 184.423 110.131 186.139 109.578C187.854 109.026 189.376 107.946 190.511 106.477C191.647 105.007 192.344 103.213 192.516 101.322C192.688 99.4319 192.326 97.5301 191.475 95.858C190.625 94.1859 189.325 92.8189 187.741 91.9304C185.627 90.7567 183.162 90.5109 180.878 91.2461C178.595 91.9814 176.676 93.6386 175.536 95.86Z" fill="white"/>
</g>
<path opacity="0.1" d="M277.98 95.9717C278.117 94.2014 278.898 92.557 280.16 91.3874C281.421 90.2177 283.063 89.6148 284.736 89.7064C286.415 89.7308 288.018 90.4483 289.206 91.7064C290.393 92.9645 291.07 94.6638 291.093 96.4428C291.093 113.307 291.093 130.219 290.87 147.083C290.745 148.079 290.434 149.038 289.956 149.905C289.478 150.773 288.842 151.531 288.086 152.136C287.329 152.74 286.466 153.18 285.548 153.428C284.63 153.677 283.674 153.73 282.736 153.584C281.792 153.661 280.843 153.538 279.945 153.224C279.046 152.91 278.215 152.409 277.499 151.752C276.784 151.095 276.199 150.294 275.778 149.395C275.357 148.497 275.108 147.519 275.046 146.518L277.98 95.9717ZM287.092 15.0416C280.441 14.8033 273.872 16.6608 268.217 20.3792C262.561 24.0975 258.073 29.5096 255.321 35.9312C252.568 42.3527 251.674 49.4952 252.751 56.4553C253.829 63.4154 256.83 69.8805 261.374 75.0331C265.919 80.1856 271.804 83.7941 278.284 85.4022C284.764 87.0103 291.548 86.5458 297.779 84.0675C304.01 81.5891 309.407 77.2081 313.289 71.4787C317.17 65.7492 319.361 58.9286 319.585 51.8794C319.873 42.4316 316.614 33.2484 310.523 26.3429C304.432 19.4375 296.006 15.3734 287.092 15.0416ZM259.178 49.7596C259.382 44.187 261.136 38.8028 264.221 34.2848C267.306 29.7668 271.583 26.3168 276.513 24.3692C281.444 22.4216 286.809 22.0634 291.931 23.3396C297.054 24.6158 301.705 27.4695 305.301 31.5414C308.896 35.6133 311.275 40.7215 312.137 46.2229C312.999 51.7242 312.306 57.373 310.146 62.458C307.986 67.5431 304.454 71.8372 299.996 74.7998C295.538 77.7624 290.352 79.2611 285.092 79.1073C281.566 79.0042 278.094 78.1609 274.878 76.6261C271.662 75.0913 268.765 72.8956 266.354 70.1662C263.944 67.4367 262.069 64.2276 260.837 60.7248C259.605 57.222 259.041 53.495 259.178 49.7596ZM287.092 15.0416C280.441 14.8033 273.872 16.6608 268.217 20.3792C262.561 24.0975 258.073 29.5096 255.321 35.9312C252.568 42.3527 251.674 49.4952 252.751 56.4553C253.829 63.4154 256.83 69.8805 261.374 75.0331C265.919 80.1856 271.804 83.7941 278.284 85.4022C284.764 87.0103 291.548 86.5458 297.779 84.0675C304.01 81.5891 309.407 77.2081 313.289 71.4787C317.17 65.7492 319.361 58.9286 319.585 51.8794C319.873 42.4316 316.614 33.2484 310.523 26.3429C304.432 19.4375 296.006 15.3734 287.092 15.0416ZM259.178 49.7596C259.382 44.187 261.136 38.8028 264.221 34.2848C267.306 29.7668 271.583 26.3168 276.513 24.3692C281.444 22.4216 286.809 22.0634 291.931 23.3396C297.054 24.6158 301.705 27.4695 305.301 31.5414C308.896 35.6133 311.275 40.7215 312.137 46.2229C312.999 51.7242 312.306 57.373 310.146 62.458C307.986 67.5431 304.454 71.8372 299.996 74.7998C295.538 77.7624 290.352 79.2611 285.092 79.1073C281.566 79.0042 278.094 78.1609 274.878 76.6261C271.662 75.0913 268.765 72.8956 266.354 70.1662C263.944 67.4367 262.069 64.2276 260.837 60.7248C259.605 57.222 259.041 53.495 259.178 49.7596Z" fill="white"/>
<g style="mix-blend-mode:overlay" opacity="0.2">
<path d="M90.7258 921.702C91.4738 923.131 92.7202 924.232 94.2252 924.792C95.7302 925.353 97.3878 925.333 98.8792 924.737C100.371 924.141 101.591 923.011 102.305 921.563C103.019 920.116 103.177 918.454 102.749 916.897L110.902 912.201L113.991 917.661L116.29 916.329L113.211 910.869L113.84 910.498L116.918 915.958L121.526 913.304L118.436 907.844L120.149 906.861L118.328 903.662L100.982 913.686C99.8678 912.517 98.3632 911.805 96.7585 911.688C95.1538 911.57 93.5629 912.056 92.2931 913.051C91.0233 914.047 90.1648 915.481 89.8833 917.076C89.6018 918.672 89.9174 920.316 90.7691 921.691L90.7258 921.702ZM93.5011 920.107C93.1722 919.53 93.0205 918.868 93.0654 918.204C93.1104 917.54 93.3498 916.904 93.7535 916.378C94.1571 915.851 94.7069 915.456 95.3331 915.244C95.9593 915.032 96.6339 915.012 97.2715 915.187C97.9091 915.361 98.4811 915.722 98.915 916.224C99.3488 916.725 99.6252 917.346 99.709 918.006C99.7928 918.666 99.6804 919.336 99.3858 919.932C99.0913 920.527 98.628 921.022 98.0545 921.352C97.2866 921.794 96.3759 921.912 95.5222 921.678C94.6685 921.445 93.9416 920.88 93.5011 920.107Z" fill="white"/>
</g>
<g style="mix-blend-mode:overlay" opacity="0.2">
<path d="M60.8935 714.698C62.1502 717.11 64.2441 718.968 66.7725 719.914C69.301 720.859 72.0857 720.826 74.5913 719.82C77.097 718.814 79.1468 716.907 80.3467 714.465C81.5467 712.023 81.8122 709.218 81.0922 706.59L94.7887 698.666L99.9796 707.88L103.841 705.631L98.6682 696.418L99.7246 695.791L104.897 705.005L112.638 700.527L107.447 691.314L110.325 689.655L107.265 684.256L78.1234 701.172C76.2521 699.199 73.7244 697.997 71.0285 697.799C68.3326 697.601 65.6598 698.421 63.5266 700.101C61.3933 701.78 59.951 704.2 59.4781 706.892C59.0053 709.585 59.5355 712.359 60.9663 714.679L60.8935 714.698ZM65.5561 712.007C65.0034 711.033 64.7487 709.916 64.8241 708.795C64.8996 707.675 65.3019 706.602 65.98 705.713C66.6582 704.824 67.5817 704.159 68.6338 703.801C69.6859 703.444 70.8192 703.41 71.8904 703.704C72.9616 703.998 73.9224 704.607 74.6513 705.454C75.3803 706.301 75.8445 707.347 75.9853 708.461C76.1262 709.575 75.9372 710.706 75.4424 711.711C74.9476 712.716 74.1693 713.55 73.2058 714.108C71.9157 714.854 70.3856 715.052 68.9514 714.659C67.5172 714.265 66.2961 713.311 65.5561 712.007Z" fill="white"/>
</g>
<g style="mix-blend-mode:overlay" opacity="0.2">
<path d="M428.017 489.083H415.441V475.801H405.611V489.083H393.035V499.536H405.611V512.818H415.441V499.536H428.017V489.083Z" fill="white"/>
</g>
<g style="mix-blend-mode:overlay" opacity="0.2">
<path d="M116.854 383.85H106.912V373.318H99.1222V383.85H89.2175V392.102H99.1222V402.633H106.912V392.102H116.854V383.85Z" fill="white"/>
</g>
<g style="mix-blend-mode:overlay" opacity="0.2">
<path d="M312.982 383.85H303.04V373.318H295.287V383.85H285.345V392.102H295.287V402.633H303.04V392.102H312.982V383.85Z" fill="white"/>
</g>
<g style="mix-blend-mode:overlay" opacity="0.2">
<path d="M221.874 668.899H202.176V648.033H186.744V668.899H167.046V685.246H186.744V706.112H202.176V685.246H221.874V668.899Z" fill="white"/>
</g>
<g style="mix-blend-mode:overlay" opacity="0.2">
<path d="M201.248 415.365C193.493 412.504 186.142 408.538 179.398 403.576L167.045 440.121C162.631 453.049 167.713 470.654 180.177 475.487L180.845 475.723C193.235 480.32 207.628 470.3 212.006 457.372L224.47 420.473C216.549 419.875 208.739 418.157 201.248 415.365ZM205.996 434.384C209.706 435.288 211.969 438.313 211.115 441.3C206.401 440.566 201.75 439.436 197.204 437.92C198.063 436.32 199.424 435.089 201.051 434.443C202.678 433.797 204.467 433.776 206.107 434.384H205.996ZM185.519 426.525C187.122 427.188 188.457 428.421 189.296 430.013C190.135 431.604 190.426 433.455 190.119 435.248C185.752 433.294 181.535 430.981 177.506 428.332C178.73 425.464 182.218 424.757 185.63 426.603L185.519 426.525ZM183.924 466.056H183.516C174.502 462.637 170.273 450.613 172.387 439.925C176.097 449.748 180.919 455.643 186.817 458C192.716 460.358 199.912 458.786 207.962 453.521C203.177 462.912 192.938 469.239 184.035 466.135L183.924 466.056Z" fill="white"/>
</g>
<g style="mix-blend-mode:overlay" opacity="0.2">
<path d="M17.3597 912.852C11.3143 910.622 5.58383 907.53 0.326147 903.662L-9.30405 932.152C-12.7455 942.23 -8.7835 955.954 0.933454 959.722L1.45401 959.906C11.1131 963.49 22.3339 955.679 25.7464 945.6L35.4634 916.835C29.2882 916.368 23.1996 915.029 17.3597 912.852ZM21.0614 927.679C23.9534 928.384 25.7175 930.742 25.0523 933.071C21.3772 932.498 17.7509 931.617 14.2075 930.436C14.8765 929.188 15.9377 928.229 17.2061 927.725C18.4745 927.221 19.8696 927.205 21.1482 927.679H21.0614ZM5.09787 921.552C6.3474 922.069 7.38835 923.031 8.04253 924.271C8.69672 925.512 8.92344 926.955 8.68388 928.353C5.27909 926.829 1.99159 925.026 -1.14875 922.961C-0.19441 920.725 2.52403 920.174 5.18463 921.614L5.09787 921.552ZM3.85433 952.37H3.53621C-3.49123 949.705 -6.78805 940.331 -5.13964 931.998C-2.24769 939.657 1.51185 944.252 6.11005 946.09C10.7083 947.928 16.3186 946.703 22.5942 942.598C18.8635 949.919 10.8818 954.851 3.94109 952.431L3.85433 952.37Z" fill="white"/>
</g>
<g style="mix-blend-mode:overlay" opacity="0.2">
<path d="M190.787 558.675C184.17 560.553 177.345 561.478 170.495 561.426L178.471 593.373C181.29 604.69 192.864 614.318 203.733 611.253H204.104C214.973 608.188 220.538 593.727 217.681 582.449L209.706 550.581C203.766 554.155 197.404 556.877 190.787 558.675ZM179.287 578.323C183.625 578.164 187.789 576.477 191.121 573.529C191.377 574.263 191.49 575.045 191.454 575.827C191.418 576.609 191.234 577.375 190.912 578.079C190.589 578.784 190.136 579.412 189.579 579.927C189.023 580.441 188.373 580.831 187.671 581.074C186.172 581.695 184.516 581.744 182.986 581.213C181.457 580.683 180.149 579.606 179.287 578.166V578.323ZM199.653 594.277C194.763 595.581 190.276 598.208 186.632 601.9C187.022 598.68 188.344 595.666 190.417 593.274C192.489 590.882 195.21 589.228 198.206 588.54C206.107 586.379 212.303 589.601 214.528 594.081C209.626 592.948 204.55 592.961 199.653 594.12V594.277ZM203.919 576.516C203.197 576.65 202.457 576.63 201.742 576.456C201.027 576.283 200.353 575.959 199.758 575.505C199.163 575.051 198.661 574.475 198.279 573.812C197.898 573.149 197.646 572.411 197.538 571.643C201.82 572.46 206.237 571.727 210.077 569.56C209.972 571.281 209.297 572.907 208.17 574.151C207.043 575.395 205.537 576.177 203.919 576.358V576.516Z" fill="white"/>
</g>
<g style="mix-blend-mode:overlay" opacity="0.2">
<path d="M294.404 931.342L312.433 937.826L319.852 914.956L301.749 908.354C300.327 907.838 298.822 907.624 297.322 907.724C295.821 907.824 294.354 908.236 293.003 908.937C291.653 909.637 290.446 910.613 289.452 911.807C288.457 913.002 287.695 914.392 287.207 915.899C286.72 917.406 286.518 919 286.612 920.589C286.707 922.179 287.096 923.733 287.757 925.164C289.093 928.052 291.457 930.261 294.33 931.303L294.404 931.342ZM312.322 932.05L311.543 934.486L295.294 928.552C293.121 927.725 291.345 926.023 290.351 923.815C289.357 921.607 289.228 919.072 289.99 916.764C290.073 916.534 290.172 916.31 290.286 916.096C294.701 923.444 302.973 928.002 312.322 931.932V932.05ZM333.912 945.567L316.18 939.162L323.599 916.292L341.182 922.619C344.055 923.661 346.42 925.869 347.755 928.758C349.091 931.647 349.289 934.979 348.305 938.022C347.321 941.066 345.236 943.57 342.509 944.985C339.782 946.4 336.636 946.609 333.763 945.567H333.912Z" fill="white"/>
</g>
<g style="mix-blend-mode:overlay" opacity="0.2">
<path d="M55.1632 775.665L36.949 761.519L20.738 784.507L39.1006 798.81C40.5265 800.045 42.1746 800.959 43.9447 801.498C45.7148 802.037 47.5699 802.188 49.3971 801.944C51.2242 801.699 52.9853 801.063 54.5731 800.075C56.1609 799.086 57.5423 797.766 58.6331 796.194C59.724 794.622 60.5016 792.832 60.9186 790.931C61.3355 789.031 61.3831 787.061 61.0586 785.14C60.734 783.22 60.0439 781.39 59.0305 779.761C58.017 778.132 56.7012 776.738 55.1632 775.665ZM35.1313 768.042L36.8377 765.605L53.4197 778.534C55.5752 780.287 56.9961 782.865 57.3775 785.716C57.7589 788.566 57.0705 791.461 55.46 793.78C55.46 794.016 55.0891 794.213 54.9036 794.448C52.1585 784.428 44.4054 776.019 35.1313 768.042ZM15.2478 744.464L33.1652 758.414L16.9171 781.402L-0.777798 767.609C-2.27297 766.521 -3.54646 765.126 -4.52261 763.506C-5.49876 761.886 -6.1577 760.075 -6.46026 758.18C-6.76282 756.286 -6.70284 754.346 -6.28391 752.476C-5.86497 750.606 -5.09562 748.845 -4.02152 747.296C-2.94742 745.748 -1.59048 744.443 -0.0313001 743.461C1.52788 742.479 3.25753 741.838 5.05491 741.578C6.85229 741.317 8.68075 741.442 10.4317 741.945C12.1827 742.447 13.8205 743.318 15.2478 744.504V744.464Z" fill="white"/>
</g>
<g style="mix-blend-mode:overlay" opacity="0.2">
<path d="M-35.9451 826.867C-35.9251 827.571 -36.0839 828.267 -36.4048 828.883C-36.7257 829.5 -37.197 830.013 -37.7694 830.371C-38.3418 830.728 -38.9944 830.916 -39.6588 830.915C-40.3233 830.914 -40.9753 830.724 -41.5466 830.364C-43.0234 829.59 -44.2026 828.299 -44.8853 826.71C-47.4449 820.973 -42.6595 815.825 -38.0596 813.703C-35.4633 812.442 -32.6073 811.899 -29.7591 812.126C-26.9108 812.353 -24.1635 813.342 -21.7744 815C-17.8875 818.205 -15.1836 822.752 -14.1325 827.849C-13.044 832.481 -13.1814 837.341 -14.5295 841.895C-15.8775 846.45 -18.3843 850.522 -21.7744 853.667C-25.5698 857.181 -30.1244 859.651 -35.0353 860.857C-39.9462 862.063 -45.062 861.969 -49.9304 860.583C-54.3688 859.225 -58.5095 856.949 -62.1133 853.887C-65.717 850.825 -68.7125 847.037 -70.9268 842.742C-73.5359 837.258 -74.895 831.201 -74.895 825.059C-74.895 818.918 -73.5359 812.861 -70.9268 807.376C-67.0247 798.291 -60.2743 790.916 -51.8218 786.503C-43.3693 782.091 -33.7356 780.913 -24.5566 783.17C-14.8192 785.668 -6.05785 791.316 0.510313 799.33C7.07848 807.344 11.1273 817.326 12.0945 827.889C10.1415 815.886 4.225 805.008 -4.59882 797.199C-9.05385 793.103 -14.2595 790.025 -19.8896 788.159C-25.5197 786.292 -31.4529 785.678 -37.3177 786.353C-46.9854 787.849 -55.7347 793.241 -61.7408 801.404C-67.7468 809.568 -70.5459 819.872 -69.5542 830.168C-68.8234 835.29 -66.9245 840.147 -64.0222 844.317C-61.1199 848.487 -57.3016 851.845 -52.8981 854.099C-48.3878 856.45 -43.3365 857.385 -38.3407 856.793C-33.345 856.201 -28.6134 854.107 -24.7049 850.759C-22.4303 848.625 -20.4785 846.133 -18.9179 843.371C-17.005 839.54 -16.2659 835.172 -16.8035 830.875C-17.1327 827.866 -17.9881 824.947 -19.326 822.269C-20.0424 820.796 -20.9966 819.466 -22.1453 818.34C-23.9611 816.621 -26.1652 815.429 -28.544 814.878C-30.9227 814.327 -33.3955 814.437 -35.7225 815.196C-40.3595 816.532 -46.1095 821.012 -43.624 826.788C-43.624 827.103 -43.3272 827.417 -43.1418 827.732C-42.4102 828.807 -41.4254 829.661 -40.2854 830.207C-39.7807 830.39 -39.2429 830.447 -38.7141 830.373C-38.1853 830.298 -37.6799 830.095 -37.2378 829.779C-36.7956 829.463 -36.4286 829.043 -36.1657 828.551C-35.9028 828.059 -35.7511 827.51 -35.7225 826.946C-35.9451 827.339 -35.9822 827.339 -35.9451 826.867ZM-83.1315 842.585C-81.3903 847.788 -78.8866 852.668 -75.7122 857.046C-68.9335 866.256 -59.2338 872.552 -48.4094 874.768C-39.8059 876.415 -30.9329 875.238 -22.9776 871.397C-15.0223 867.556 -8.36417 861.233 -3.89398 853.274C0.466492 845.152 1.95265 835.651 0.297891 826.474C-0.683394 820.777 -2.89496 815.397 -6.16401 810.755C-9.43307 806.112 -13.6711 802.334 -18.547 799.714C-23.4273 797.061 -28.887 795.833 -34.364 796.158C-39.841 796.482 -45.1373 798.347 -49.7078 801.561C-53.4157 804.431 -56.3658 808.262 -58.2755 812.686C-60.1852 817.11 -60.9904 821.979 -60.6141 826.828C-60.0072 832.375 -57.4991 837.492 -53.5658 841.21C-51.8587 842.92 -49.8489 844.255 -47.6524 845.139C-45.4558 846.022 -43.116 846.436 -40.7676 846.358C-38.1251 846.197 -35.5833 845.227 -33.4501 843.568C-31.3169 841.908 -29.6837 839.628 -28.7484 837.005C-28.2271 835.705 -28.0689 834.273 -28.2924 832.88C-28.516 831.487 -29.112 830.191 -30.0097 829.146C-31.6438 827.705 -33.7077 826.925 -35.8338 826.946C-33.8014 827.097 -31.8842 828.002 -30.4178 829.5C-29.6833 830.489 -29.2275 831.677 -29.1028 832.929C-28.9781 834.18 -29.1896 835.443 -29.7129 836.573C-30.8021 839.224 -32.6986 841.411 -35.0992 842.786C-37.4998 844.161 -40.2662 844.643 -42.9563 844.157C-46.7525 843.253 -50.1655 841.059 -52.6755 837.909C-54.5252 835.66 -55.8673 832.995 -56.6 830.115C-57.3328 827.235 -57.4369 824.216 -56.9044 821.287C-55.8551 815.678 -53.1226 810.578 -49.1142 806.748C-47.4325 805.03 -45.4383 803.693 -43.253 802.818C-40.37 801.549 -37.2862 800.869 -34.1645 800.814C-29.3847 800.878 -24.6756 802.045 -20.3647 804.233C-14.9572 807.27 -10.5176 811.931 -7.6036 817.633C-4.70843 823.379 -3.42151 829.882 -3.89398 836.377C-4.20656 841.223 -5.47 845.948 -7.6036 850.248C-10.1154 855.073 -13.5223 859.31 -17.6196 862.705C-21.9317 866.282 -26.895 868.877 -32.1984 870.328C-36.9006 871.73 -41.8228 872.104 -46.6659 871.428C-50.9573 870.79 -55.1491 869.547 -59.1302 867.734C-64.231 865.28 -68.84 861.811 -72.7074 857.518C-76.5173 853.29 -79.6499 848.432 -81.9815 843.135C-83.8035 838.871 -85.2081 834.421 -86.1733 829.854C-85.5868 834.225 -84.5672 838.519 -83.1315 842.664V842.585Z" fill="white"/>
</g>
<g style="mix-blend-mode:overlay" opacity="0.2">
<path d="M449.792 797.71C447.492 774.132 426.904 766.273 406.093 765.998C373.263 765.998 366.697 788.593 365.918 796.609C365.658 799.007 364.471 809.223 364.471 809.223C364.174 810.638 363.061 817.082 365.213 818.379C365.687 818.638 366.076 819.044 366.327 819.542C366.579 820.04 366.682 820.608 366.623 821.169L361.132 839.284C361.018 839.897 361.032 840.528 361.174 841.134C361.317 841.74 361.583 842.305 361.955 842.789C362.327 843.273 362.795 843.664 363.326 843.935C363.857 844.205 364.438 844.348 365.027 844.354L369.924 844.746C369.071 844.746 371.185 870.053 371.816 872.921C372.163 874.491 373.052 875.866 374.309 876.776C375.565 877.685 377.098 878.062 378.605 877.833L395.446 876.183L394 891.901H441.891L438.997 852.252C448.568 830.482 451.647 816.414 449.792 797.71ZM417.593 851.348H398.414L401.345 814.803C399.92 813.71 398.76 812.275 397.961 810.615C397.161 808.955 396.744 807.118 396.745 805.254C396.783 803.264 397.296 801.316 398.237 799.593C399.178 797.87 400.516 796.427 402.125 795.399C403.734 794.371 405.563 793.791 407.441 793.714C409.319 793.637 411.185 794.066 412.865 794.959C414.544 795.852 415.983 797.181 417.047 798.823C418.11 800.464 418.764 802.364 418.947 804.345C419.13 806.327 418.837 808.325 418.094 810.153C417.351 811.982 416.183 813.582 414.699 814.803L417.593 851.348Z" fill="white"/>
</g>
<g style="mix-blend-mode:overlay" opacity="0.2">
<path d="M367.439 553.685C367.324 552.673 367.125 551.674 366.845 550.698C366.623 549.794 366.363 549.009 366.14 548.223C365.695 546.69 365.213 545.354 364.842 544.293C364.137 542.093 363.618 540.874 363.618 540.874C363.618 540.874 363.618 542.21 363.618 544.529C363.618 545.708 363.618 547.122 363.618 548.734C363.618 549.519 363.618 550.423 363.618 551.288C363.672 552.151 363.672 553.018 363.618 553.881C363.458 555.769 363.085 557.629 362.505 559.422C361.904 561.262 360.986 562.967 359.797 564.452C359.227 565.114 358.579 565.695 357.868 566.181C357.536 566.383 357.189 566.554 356.829 566.692H356.31H355.902C355.902 566.692 354.566 566.692 354.603 566.692H351.932L351.339 535.648H346.776L346.183 566.692H343.512C343.129 566.73 342.744 566.73 342.362 566.692H341.842H341.286C340.926 566.554 340.578 566.383 340.247 566.181C339.528 565.707 338.878 565.125 338.318 564.452C337.118 562.975 336.199 561.268 335.61 559.422C335.018 557.646 334.644 555.797 334.497 553.921C334.497 553.488 334.497 553.095 334.497 552.624V551.209C334.497 550.463 334.497 549.519 334.497 548.734C334.497 547.122 334.497 545.708 334.497 544.529C334.497 542.21 334.497 540.874 334.497 540.874C334.497 540.874 334.015 542.093 333.273 544.293C332.902 545.393 332.457 546.729 332.012 548.223C331.789 549.048 331.53 549.755 331.27 550.738C331.006 551.704 330.808 552.689 330.676 553.685C330.344 556.029 330.344 558.413 330.676 560.758C331.062 563.577 332.052 566.266 333.57 568.617C334.423 569.955 335.49 571.125 336.723 572.075C338.057 573.117 339.589 573.841 341.212 574.197C342.025 574.414 342.859 574.532 343.697 574.551H345.923L345.403 600.564H352.489L351.97 574.551H355.234H355.679H356.124H356.829C358.413 574.204 359.917 573.529 361.253 572.564C362.59 571.6 363.734 570.365 364.619 568.931C366.148 566.582 367.151 563.894 367.55 561.072C367.88 558.619 367.842 556.126 367.439 553.685Z" fill="white"/>
</g>
<g style="mix-blend-mode:overlay" opacity="0.2">
<path d="M58.7617 463.698C58.7617 462.755 58.4278 461.891 58.2423 461.105C58.0568 460.319 57.7972 459.651 57.6117 458.983C57.2407 457.647 56.8327 456.507 56.5359 455.564C55.9053 453.678 55.4601 452.617 55.4601 452.617C55.4601 452.617 55.4601 453.756 55.4601 455.761C55.4601 456.782 55.4601 458 55.4601 459.376C55.4601 460.044 55.4601 460.83 55.4601 461.576C55.4601 462.323 55.4601 463.03 55.4601 463.816C55.3133 465.435 54.9897 467.031 54.4956 468.571C53.985 470.157 53.1917 471.624 52.1585 472.893C51.6786 473.465 51.1298 473.967 50.5263 474.387C50.2242 474.547 49.9147 474.691 49.5989 474.819H49.1538H48.8199C48.8199 474.819 47.6699 474.819 47.707 474.819H45.407L44.9248 448.137H40.7329L40.2507 475.487H38.0249C37.691 475.487 37.3572 475.487 37.0604 475.487H36.5781H36.133C35.8172 475.359 35.5077 475.215 35.2056 475.055C34.6021 474.635 34.0533 474.133 33.5733 473.561C32.5402 472.292 31.7468 470.825 31.2363 469.239C30.7499 467.71 30.4264 466.128 30.2718 464.523C30.2521 464.144 30.2521 463.763 30.2718 463.384V462.205C30.2718 461.537 30.2718 460.712 30.2718 460.044C30.2718 458.668 30.2718 457.45 30.2718 456.429C30.2718 454.425 30.2718 453.285 30.2718 453.285C30.2718 453.285 29.8637 454.346 29.2331 456.232C28.8992 457.175 28.4912 458.315 28.1202 459.651C28.1202 460.319 27.7122 460.948 27.4896 461.812C27.2585 462.429 27.0603 463.058 26.896 463.698C26.5972 465.716 26.5972 467.771 26.896 469.789C27.2378 472.162 28.088 474.42 29.3815 476.391C30.1258 477.535 31.0404 478.543 32.0895 479.377C33.1943 480.254 34.4567 480.883 35.7991 481.224C36.5087 481.374 37.2279 481.466 37.9507 481.499H40.1023L39.6942 503.858H45.7409L45.4441 481.656H49.1538H49.7473C52.4892 481.02 54.8941 479.289 56.4617 476.823C57.7455 474.832 58.5946 472.564 58.9471 470.182C59.2036 468.024 59.141 465.836 58.7617 463.698Z" fill="white"/>
</g>
<g style="mix-blend-mode:overlay" opacity="0.2">
<path d="M160.03 790.532C160.94 791.038 161.688 791.817 162.179 792.773C162.67 793.728 162.883 794.816 162.791 795.9C162.699 796.984 162.305 798.014 161.66 798.86C161.014 799.707 160.147 800.332 159.166 800.656C158.186 800.98 157.136 800.989 156.151 800.682C155.166 800.375 154.289 799.765 153.631 798.929C152.973 798.094 152.563 797.07 152.454 795.988C152.345 794.906 152.542 793.814 153.019 792.851C153.335 792.211 153.768 791.643 154.292 791.18C154.815 790.718 155.42 790.369 156.071 790.153C156.722 789.938 157.407 789.861 158.086 789.926C158.765 789.991 159.426 790.197 160.03 790.532ZM140.962 795.326C142.669 777.958 157.878 771.749 173.236 771.749C197.534 771.749 202.394 788.45 202.913 794.383C202.913 796.112 203.989 803.696 203.989 803.696C204.174 804.718 205.028 809.355 203.432 810.455C203.087 810.648 202.804 810.945 202.619 811.309C202.435 811.673 202.356 812.087 202.394 812.499L206.437 825.859C206.551 826.325 206.562 826.813 206.469 827.284C206.377 827.756 206.183 828.199 205.904 828.578C205.624 828.958 205.266 829.265 204.857 829.475C204.448 829.684 203.998 829.792 203.544 829.789L199.834 830.064C199.847 837.032 199.388 843.992 198.462 850.89C198.204 852.054 197.541 853.073 196.606 853.743C195.671 854.413 194.532 854.685 193.416 854.505L180.989 853.327L182.065 864.801H146.972L149.087 835.526C141.89 819.493 139.553 809.08 140.962 795.326ZM168.822 804.875H172.939L174.943 807.39L174.386 811.752L177.873 813.677L180.915 810.691L184.068 811.32L186.554 814.817L190.263 813.559V809.198L192.637 807.076L196.718 807.665L198.573 803.971L195.754 800.749L196.013 797.488L199.315 794.855L198.128 790.925H194.01L192.007 788.41L192.6 784.088L189.113 782.123L186.071 785.11L182.955 784.834L180.507 781.337L176.797 782.595V786.956L174.423 789.078L170.306 788.45L168.488 792.143L171.307 795.366L171.01 798.627L167.709 801.26L168.822 804.875ZM150.904 802.989L153.241 802.085L154.911 802.989L155.541 805.583H157.952L158.991 803.185L160.809 802.596L162.96 803.932L164.778 802.282L163.925 799.806L164.815 798.038L167.227 797.37L167.449 794.855L165.149 793.715L164.593 791.829L165.854 789.55L164.333 787.585L161.959 788.489L160.29 787.585L159.659 784.992H157.285L156.246 787.389L154.428 787.978L152.277 786.642L150.422 788.292L151.312 790.768L150.422 792.536L148.011 793.204L147.788 795.719L150.051 796.859L150.645 798.745L149.346 801.064L150.904 802.989ZM175.536 793.362C174.686 795.034 174.324 796.936 174.497 798.826C174.669 800.717 175.367 802.51 176.502 803.98C177.638 805.45 179.16 806.529 180.876 807.081C182.591 807.632 184.423 807.632 186.139 807.08C187.854 806.528 189.376 805.448 190.511 803.978C191.647 802.508 192.344 800.715 192.516 798.824C192.688 796.934 192.326 795.032 191.475 793.36C190.625 791.688 189.325 790.321 187.741 789.432C185.627 788.258 183.162 788.013 180.878 788.748C178.595 789.483 176.676 791.14 175.536 793.362Z" fill="white"/>
</g>
<g style="mix-blend-mode:overlay" opacity="0.2">
<path d="M-26.6191 600.739C-25.7093 601.245 -24.9614 602.024 -24.47 602.98C-23.9785 603.935 -23.7655 605.023 -23.858 606.107C-23.9504 607.191 -24.3441 608.221 -24.9893 609.068C-25.6345 609.914 -26.5023 610.539 -27.4827 610.863C-28.4632 611.188 -29.5125 611.197 -30.4978 610.889C-31.4831 610.582 -32.3602 609.972 -33.0182 609.136C-33.6762 608.301 -34.0856 607.277 -34.1945 606.195C-34.3035 605.113 -34.1071 604.022 -33.6302 603.058C-33.3136 602.418 -32.8811 601.85 -32.3573 601.388C-31.8336 600.925 -31.229 600.576 -30.5779 600.36C-29.9269 600.145 -29.2422 600.068 -28.5629 600.133C-27.8836 600.198 -27.2231 600.404 -26.6191 600.739ZM-45.6865 605.534C-43.9801 588.165 -28.7706 581.956 -13.4128 581.956C10.8852 581.956 15.7448 598.657 16.2642 604.59C16.2642 606.319 17.34 613.903 17.34 613.903C17.5254 614.925 18.3786 619.562 16.7835 620.662C16.4385 620.855 16.1555 621.153 15.9706 621.517C15.7856 621.88 15.707 622.294 15.7448 622.706L19.7883 636.066C19.902 636.532 19.913 637.02 19.8205 637.492C19.728 637.963 19.5345 638.406 19.2549 638.786C18.9753 639.165 18.617 639.472 18.2078 639.682C17.7986 639.891 17.3494 639.999 16.8948 639.996L13.1852 640.271C13.1981 647.239 12.7394 654.199 11.8126 661.097C11.5549 662.262 10.8925 663.28 9.95753 663.95C9.02253 664.62 7.88352 664.892 6.76751 664.713L-5.6597 663.534L-4.58391 675.008H-39.6769L-37.5624 645.733C-44.7591 629.7 -47.0961 619.287 -45.6865 605.534ZM-17.8272 615.082H-13.7096L-11.7064 617.597L-12.2628 621.959L-8.77577 623.885L-5.73388 620.898L-2.58071 621.527L-0.0952748 625.024L3.61434 623.767V619.405L5.9885 617.283L10.0691 617.872L11.9239 614.179L9.10459 610.956L9.36426 607.695L12.6658 605.062L11.4787 601.132H7.36107L5.35787 598.618L5.95142 594.295L2.46437 592.33L-0.577515 595.317L-3.69361 595.042L-6.14194 591.544L-9.85156 592.802V597.164L-12.2257 599.286L-16.3434 598.657L-18.1611 602.351L-15.3418 605.573L-15.6386 608.834L-18.9401 611.467L-17.8272 615.082ZM-35.7447 613.196L-33.4076 612.292L-31.7383 613.196L-31.1077 615.79H-28.6964L-27.6577 613.393L-25.84 612.803L-23.6885 614.139L-21.8707 612.489L-22.7239 610.013L-21.8336 608.245L-19.4224 607.577L-19.1998 605.062L-21.4998 603.922L-22.0562 602.036L-20.795 599.757L-22.3159 597.792L-24.69 598.696L-26.3594 597.792L-26.99 595.199H-29.3642L-30.4029 597.596L-32.2206 598.185L-34.3721 596.849L-36.227 598.5L-35.3367 600.975L-36.227 602.744L-38.6382 603.412L-38.8608 605.926L-36.5979 607.066L-36.0044 608.952L-37.3027 611.271L-35.7447 613.196ZM-11.1128 603.569C-11.9627 605.241 -12.3245 607.143 -12.1524 609.033C-11.9804 610.924 -11.2822 612.718 -10.1464 614.187C-9.01069 615.657 -7.4885 616.736 -5.77297 617.288C-4.05743 617.84 -2.22582 617.839 -0.510411 617.287C1.205 616.735 2.72693 615.655 3.86236 614.185C4.99778 612.716 5.69556 610.922 5.86719 609.031C6.03883 607.141 5.67659 605.239 4.82641 603.567C3.97623 601.895 2.6764 600.528 1.0918 599.639C-1.02213 598.465 -3.48706 598.22 -5.77062 598.955C-8.05418 599.69 -9.97309 601.347 -11.1128 603.569Z" fill="white"/>
</g>
<g style="mix-blend-mode:overlay" opacity="0.2">
<path d="M266.687 474.211C267.597 474.716 268.345 475.496 268.836 476.451C269.328 477.406 269.541 478.495 269.448 479.578C269.356 480.662 268.962 481.692 268.317 482.539C267.672 483.386 266.804 484.01 265.823 484.335C264.843 484.659 263.794 484.668 262.808 484.36C261.823 484.053 260.946 483.443 260.288 482.607C259.63 481.772 259.221 480.749 259.112 479.667C259.003 478.585 259.199 477.493 259.676 476.529C259.993 475.889 260.425 475.322 260.949 474.859C261.473 474.396 262.077 474.047 262.728 473.832C263.379 473.616 264.064 473.539 264.743 473.604C265.423 473.669 266.083 473.875 266.687 474.211ZM247.62 479.005C249.326 461.636 264.536 455.428 279.893 455.428C304.191 455.428 309.051 472.128 309.57 478.062C309.57 479.791 310.646 487.375 310.646 487.375C310.832 488.396 311.685 493.033 310.09 494.134C309.745 494.327 309.462 494.624 309.277 494.988C309.092 495.352 309.013 495.766 309.051 496.177L313.094 509.537C313.208 510.004 313.219 510.491 313.127 510.963C313.034 511.434 312.841 511.877 312.561 512.257C312.281 512.637 311.923 512.943 311.514 513.153C311.105 513.363 310.656 513.47 310.201 513.467L306.491 513.742C306.504 520.71 306.046 527.67 305.119 534.569C304.861 535.733 304.199 536.751 303.264 537.421C302.329 538.091 301.19 538.364 300.074 538.184L287.646 537.005L288.722 548.479H253.629L255.744 519.204C248.547 503.172 246.21 492.758 247.62 479.005ZM275.479 488.554H279.597L281.6 491.069L281.043 495.43L284.53 497.356L287.572 494.369L290.725 494.998L293.211 498.495L296.92 497.238V492.876L299.295 490.754L303.375 491.344L305.23 487.65L302.411 484.428L302.67 481.166L305.972 478.533L304.785 474.604H300.667L298.664 472.089L299.258 467.766L295.771 465.802L292.729 468.788L289.613 468.513L287.164 465.016L283.455 466.273V470.635L281.08 472.757L276.963 472.128L275.145 475.822L277.964 479.044L277.668 482.306L274.366 484.938L275.479 488.554ZM257.561 486.667L259.899 485.764L261.568 486.667L262.198 489.261H264.61L265.648 486.864L267.466 486.274L269.618 487.611L271.435 485.96L270.582 483.484L271.473 481.716L273.884 481.048L274.106 478.533L271.806 477.394L271.25 475.508L272.511 473.228L270.99 471.264L268.616 472.167L266.947 471.264L266.316 468.67H263.942L262.903 471.067L261.086 471.657L258.934 470.321L257.079 471.971L257.97 474.447L257.079 476.215L254.668 476.883L254.445 479.398L256.708 480.537L257.302 482.424L256.003 484.742L257.561 486.667ZM282.193 477.04C281.343 478.712 280.982 480.614 281.154 482.505C281.326 484.395 282.024 486.189 283.16 487.658C284.295 489.128 285.818 490.207 287.533 490.759C289.249 491.311 291.08 491.311 292.796 490.758C294.511 490.206 296.033 489.127 297.169 487.657C298.304 486.187 299.002 484.393 299.173 482.503C299.345 480.612 298.983 478.71 298.133 477.038C297.282 475.366 295.983 473.999 294.398 473.11C292.284 471.937 289.819 471.691 287.536 472.426C285.252 473.161 283.333 474.819 282.193 477.04Z" fill="white"/>
</g>
<g style="mix-blend-mode:overlay" opacity="0.2">
<path d="M319.799 667.517L337.828 674L345.247 651.13L327.144 644.529C325.722 644.013 324.217 643.798 322.717 643.898C321.216 643.998 319.749 644.41 318.398 645.111C317.048 645.811 315.841 646.787 314.847 647.981C313.852 649.176 313.09 650.567 312.602 652.073C312.115 653.58 311.913 655.174 312.007 656.763C312.102 658.353 312.491 659.907 313.152 661.338C314.488 664.227 316.852 666.435 319.725 667.477L319.799 667.517ZM337.717 668.224L336.938 670.66L320.689 664.727C318.516 663.9 316.74 662.197 315.746 659.989C314.752 657.781 314.623 655.247 315.385 652.938C315.468 652.708 315.567 652.485 315.681 652.27C320.096 659.618 328.368 664.176 337.717 668.106V668.224ZM359.307 681.741L341.575 675.336L348.994 652.466L366.577 658.793C369.45 659.835 371.815 662.043 373.15 664.932C374.486 667.821 374.684 671.154 373.7 674.197C372.716 677.24 370.631 679.744 367.904 681.159C365.177 682.574 362.031 682.784 359.158 681.741H359.307Z" fill="white"/>
</g>
<g style="mix-blend-mode:overlay" opacity="0.2">
<path d="M56.9656 573.293L74.9944 579.777L82.4136 556.907L64.3107 550.305C62.8882 549.789 61.3837 549.575 59.883 549.675C58.3824 549.775 56.915 550.187 55.5647 550.887C54.2144 551.588 53.0076 552.563 52.0131 553.758C51.0187 554.953 50.2561 556.343 49.769 557.85C49.2818 559.357 49.0796 560.95 49.1739 562.54C49.2682 564.13 49.6571 565.684 50.3185 567.114C51.6542 570.003 54.0186 572.212 56.8914 573.254L56.9656 573.293ZM74.8831 574L74.1041 576.437L57.8559 570.503C55.6828 569.676 53.906 567.973 52.9125 565.766C51.9189 563.558 51.7891 561.023 52.5512 558.714C52.6348 558.484 52.734 558.261 52.848 558.046C57.2624 565.395 65.5349 569.953 74.8831 573.882V574ZM96.4731 587.518L78.7411 581.113L86.1603 558.243L103.744 564.569C106.617 565.612 108.981 567.82 110.317 570.709C111.653 573.598 111.85 576.93 110.866 579.973C109.883 583.016 107.798 585.521 105.071 586.936C102.344 588.351 99.1975 588.56 96.3247 587.518H96.4731Z" fill="white"/>
</g>
<path opacity="0.1" d="M277.98 793.473C278.117 791.703 278.898 790.059 280.16 788.889C281.421 787.719 283.063 787.116 284.736 787.208C286.415 787.232 288.018 787.95 289.206 789.208C290.393 790.466 291.07 792.165 291.093 793.944C291.093 810.809 291.093 827.72 290.87 844.585C290.745 845.58 290.434 846.54 289.956 847.407C289.478 848.274 288.842 849.032 288.086 849.637C287.329 850.242 286.466 850.681 285.548 850.93C284.63 851.179 283.674 851.231 282.736 851.085C281.792 851.162 280.843 851.04 279.945 850.726C279.046 850.411 278.215 849.911 277.499 849.254C276.784 848.597 276.199 847.795 275.778 846.897C275.357 845.998 275.108 845.02 275.046 844.019L277.98 793.473ZM287.092 712.543C280.441 712.305 273.872 714.163 268.217 717.881C262.561 721.599 258.073 727.011 255.321 733.433C252.568 739.854 251.674 746.997 252.751 753.957C253.829 760.917 256.83 767.382 261.374 772.535C265.919 777.687 271.804 781.296 278.284 782.904C284.764 784.512 291.548 784.048 297.779 781.569C304.01 779.091 309.407 774.71 313.289 768.98C317.17 763.251 319.361 756.43 319.585 749.381C319.873 739.933 316.614 730.75 310.523 723.845C304.432 716.939 296.006 712.875 287.092 712.543ZM259.178 747.261C259.382 741.689 261.136 736.305 264.221 731.787C267.306 727.268 271.583 723.819 276.513 721.871C281.444 719.923 286.809 719.565 291.931 720.841C297.054 722.118 301.705 724.971 305.301 729.043C308.896 733.115 311.275 738.223 312.137 743.725C312.999 749.226 312.306 754.875 310.146 759.96C307.986 765.045 304.454 769.339 299.996 772.302C295.538 775.264 290.352 776.763 285.092 776.609C281.566 776.506 278.094 775.663 274.878 774.128C271.662 772.593 268.765 770.397 266.354 767.668C263.944 764.938 262.069 761.729 260.837 758.227C259.605 754.724 259.041 750.997 259.178 747.261ZM287.092 712.543C280.441 712.305 273.872 714.163 268.217 717.881C262.561 721.599 258.073 727.011 255.321 733.433C252.568 739.854 251.674 746.997 252.751 753.957C253.829 760.917 256.83 767.382 261.374 772.535C265.919 777.687 271.804 781.296 278.284 782.904C284.764 784.512 291.548 784.048 297.779 781.569C304.01 779.091 309.407 774.71 313.289 768.98C317.17 763.251 319.361 756.43 319.585 749.381C319.873 739.933 316.614 730.75 310.523 723.845C304.432 716.939 296.006 712.875 287.092 712.543ZM259.178 747.261C259.382 741.689 261.136 736.305 264.221 731.787C267.306 727.268 271.583 723.819 276.513 721.871C281.444 719.923 286.809 719.565 291.931 720.841C297.054 722.118 301.705 724.971 305.301 729.043C308.896 733.115 311.275 738.223 312.137 743.725C312.999 749.226 312.306 754.875 310.146 759.96C307.986 765.045 304.454 769.339 299.996 772.302C295.538 775.264 290.352 776.763 285.092 776.609C281.566 776.506 278.094 775.663 274.878 774.128C271.662 772.593 268.765 770.397 266.354 767.668C263.944 764.938 262.069 761.729 260.837 758.227C259.605 754.724 259.041 750.997 259.178 747.261Z" fill="white"/>
<path opacity="0.1" d="M359.463 413.844C359.519 413.105 359.844 412.418 360.368 411.93C360.891 411.442 361.573 411.19 362.267 411.228C362.964 411.238 363.63 411.538 364.122 412.063C364.615 412.588 364.896 413.298 364.906 414.04C364.906 421.081 364.906 428.141 364.814 435.181C364.762 435.597 364.633 435.998 364.434 436.36C364.236 436.722 363.972 437.038 363.658 437.291C363.343 437.543 362.985 437.727 362.604 437.83C362.223 437.934 361.826 437.956 361.437 437.895C361.045 437.927 360.651 437.876 360.278 437.745C359.905 437.614 359.56 437.405 359.263 437.131C358.966 436.856 358.724 436.522 358.549 436.147C358.374 435.772 358.271 435.363 358.245 434.945L359.463 413.844ZM363.245 380.057C360.484 379.958 357.758 380.733 355.41 382.286C353.063 383.838 351.2 386.097 350.057 388.778C348.914 391.459 348.543 394.441 348.99 397.347C349.438 400.252 350.683 402.951 352.57 405.102C354.456 407.253 356.899 408.76 359.589 409.431C362.279 410.103 365.095 409.909 367.681 408.874C370.268 407.839 372.508 406.01 374.119 403.618C375.73 401.227 376.64 398.379 376.733 395.436C376.852 391.492 375.5 387.658 372.971 384.775C370.443 381.893 366.945 380.196 363.245 380.057ZM351.658 394.551C351.743 392.225 352.471 389.977 353.752 388.091C355.032 386.205 356.807 384.764 358.854 383.951C360.901 383.138 363.127 382.989 365.254 383.522C367.38 384.054 369.311 385.246 370.804 386.946C372.296 388.646 373.283 390.778 373.641 393.075C373.999 395.371 373.712 397.73 372.815 399.853C371.918 401.975 370.452 403.768 368.601 405.005C366.751 406.242 364.598 406.867 362.415 406.803C360.951 406.76 359.51 406.408 358.175 405.767C356.84 405.127 355.638 404.21 354.637 403.07C353.637 401.931 352.858 400.591 352.347 399.129C351.836 397.667 351.601 396.111 351.658 394.551ZM363.245 380.057C360.484 379.958 357.758 380.733 355.41 382.286C353.063 383.838 351.2 386.097 350.057 388.778C348.914 391.459 348.543 394.441 348.99 397.347C349.438 400.252 350.683 402.951 352.57 405.102C354.456 407.253 356.899 408.76 359.589 409.431C362.279 410.103 365.095 409.909 367.681 408.874C370.268 407.839 372.508 406.01 374.119 403.618C375.73 401.227 376.64 398.379 376.733 395.436C376.852 391.492 375.5 387.658 372.971 384.775C370.443 381.893 366.945 380.196 363.245 380.057ZM351.658 394.551C351.743 392.225 352.471 389.977 353.752 388.091C355.032 386.205 356.807 384.764 358.854 383.951C360.901 383.138 363.127 382.989 365.254 383.522C367.38 384.054 369.311 385.246 370.804 386.946C372.296 388.646 373.283 390.778 373.641 393.075C373.999 395.371 373.712 397.73 372.815 399.853C371.918 401.975 370.452 403.768 368.601 405.005C366.751 406.242 364.598 406.867 362.415 406.803C360.951 406.76 359.51 406.408 358.175 405.767C356.84 405.127 355.638 404.21 354.637 403.07C353.637 401.931 352.858 400.591 352.347 399.129C351.836 397.667 351.601 396.111 351.658 394.551Z" fill="white"/>
</g>
<defs>
<clipPath id="clip0_1051_4727">
<rect width="422.083" height="926" fill="white"/>
</clipPath>
</defs>
</svg>
