<svg width="682" height="750" viewBox="0 0 682 750" fill="none" xmlns="http://www.w3.org/2000/svg">
<g clip-path="url(#clip0_84_291)">
<rect width="683" height="750" fill="#419EAC"/>
<g style="mix-blend-mode:overlay" opacity="0.2">
<path d="M503.734 600.404C506.224 605.125 510.372 608.76 515.382 610.61C520.391 612.46 525.908 612.395 530.872 610.427C535.836 608.459 539.897 604.727 542.275 599.949C544.652 595.17 545.178 589.682 543.751 584.54L570.887 569.036L581.171 587.064L588.82 582.665L578.573 564.637L580.665 563.411L590.913 581.439L606.249 572.677L595.965 554.649L601.666 551.404L595.604 540.84L537.87 573.939C534.162 570.078 529.154 567.727 523.813 567.339C518.472 566.952 513.177 568.557 508.951 571.843C504.724 575.129 501.867 579.863 500.93 585.132C499.993 590.4 501.044 595.829 503.878 600.368L503.734 600.404ZM512.972 595.14C511.877 593.235 511.372 591.047 511.522 588.855C511.671 586.663 512.468 584.565 513.812 582.825C515.155 581.086 516.985 579.784 519.069 579.084C521.154 578.384 523.399 578.317 525.521 578.893C527.643 579.468 529.547 580.66 530.991 582.317C532.435 583.974 533.355 586.022 533.634 588.201C533.913 590.381 533.538 592.594 532.558 594.561C531.578 596.528 530.036 598.16 528.127 599.251C525.571 600.711 522.54 601.098 519.698 600.328C516.857 599.557 514.438 597.691 512.972 595.14Z" fill="white"/>
</g>
<g style="mix-blend-mode:overlay" opacity="0.2">
<path d="M224.467 503.174C225.194 504.486 226.407 505.496 227.871 506.011C229.335 506.525 230.947 506.507 232.398 505.96C233.848 505.413 235.035 504.376 235.73 503.048C236.425 501.72 236.579 500.195 236.162 498.766L244.092 494.457L247.097 499.467L249.333 498.245L246.338 493.235L246.95 492.894L249.945 497.904L254.427 495.469L251.421 490.46L253.087 489.558L251.316 486.622L234.443 495.82C233.359 494.747 231.896 494.094 230.335 493.986C228.774 493.878 227.226 494.324 225.991 495.237C224.756 496.151 223.921 497.466 223.647 498.93C223.373 500.394 223.68 501.903 224.509 503.164L224.467 503.174ZM227.166 501.712C226.846 501.182 226.699 500.574 226.742 499.965C226.786 499.356 227.019 498.773 227.412 498.289C227.804 497.806 228.339 497.444 228.948 497.25C229.557 497.055 230.214 497.037 230.834 497.197C231.454 497.357 232.01 497.688 232.432 498.148C232.854 498.609 233.123 499.178 233.205 499.783C233.286 500.389 233.177 501.004 232.89 501.551C232.604 502.097 232.153 502.551 231.595 502.854C230.848 503.26 229.963 503.367 229.132 503.153C228.302 502.939 227.595 502.421 227.166 501.712Z" fill="white"/>
</g>
<g style="mix-blend-mode:overlay" opacity="0.2">
<path d="M195.448 313.236C196.671 315.45 198.708 317.154 201.167 318.022C203.627 318.889 206.335 318.859 208.773 317.936C211.21 317.013 213.204 315.263 214.371 313.022C215.538 310.781 215.796 308.208 215.096 305.796L228.419 298.526L233.468 306.98L237.224 304.917L232.193 296.463L233.22 295.888L238.252 304.342L245.781 300.234L240.732 291.779L243.531 290.258L240.555 285.304L212.208 300.825C210.388 299.015 207.929 297.912 205.307 297.73C202.685 297.549 200.085 298.301 198.01 299.842C195.935 301.383 194.532 303.603 194.072 306.074C193.612 308.544 194.127 311.09 195.519 313.219L195.448 313.236ZM199.984 310.767C199.446 309.874 199.198 308.848 199.272 307.82C199.345 306.792 199.737 305.808 200.396 304.992C201.056 304.177 201.954 303.566 202.978 303.238C204.001 302.909 205.103 302.878 206.145 303.148C207.187 303.418 208.122 303.977 208.831 304.754C209.54 305.531 209.992 306.491 210.129 307.513C210.266 308.535 210.082 309.573 209.6 310.496C209.119 311.418 208.362 312.183 207.425 312.695C206.17 313.38 204.682 313.561 203.287 313.2C201.891 312.839 200.704 311.964 199.984 310.767Z" fill="white"/>
</g>
<g style="mix-blend-mode:overlay" opacity="0.2">
<path d="M116.082 113.54H102.876V100.308H92.5195V113.54H79.2766V123.888H92.5195V137.121H102.876V123.888H116.082V113.54Z" fill="white"/>
</g>
<g style="mix-blend-mode:overlay" opacity="0.2">
<path d="M552.556 106.221H540.323V94.0339H530.761V106.221H518.528V115.812H530.761V127.999H540.323V115.812H552.556V106.221Z" fill="white"/>
</g>
<g style="mix-blend-mode:overlay" opacity="0.2">
<path d="M249.882 9.66301H240.212V0H232.634V9.66301H223V17.2348H232.634V26.8978H240.212V17.2348H249.882V9.66301Z" fill="white"/>
</g>
<g style="mix-blend-mode:overlay" opacity="0.2">
<path d="M440.659 9.66301H430.988V0H423.447V9.66301H413.776V17.2348H423.447V26.8978H430.988V17.2348H440.659V9.66301Z" fill="white"/>
</g>
<g style="mix-blend-mode:overlay" opacity="0.2">
<path d="M36.8418 242.332H23.5989V229.1H13.2427V242.332H-0.00012207V252.68H13.2427V265.913H23.5989V252.68H36.8418V242.332Z" fill="white"/>
</g>
<g style="mix-blend-mode:overlay" opacity="0.2">
<path d="M352.036 271.213H332.876V252.067H317.865V271.213H298.704V286.212H317.865V305.358H332.876V286.212H352.036V271.213Z" fill="white"/>
</g>
<g style="mix-blend-mode:overlay" opacity="0.2">
<path d="M331.974 38.58C324.431 35.9552 317.28 32.3162 310.72 27.7632L298.704 61.2953C294.41 73.1577 299.354 89.3108 311.478 93.7456L312.127 93.962C324.179 98.1805 338.18 88.9863 342.438 77.1238L354.562 43.2673C346.857 42.7185 339.26 41.142 331.974 38.58ZM336.592 56.0311C340.201 56.8604 342.402 59.6367 341.572 62.3769C336.986 61.7032 332.462 60.6663 328.04 59.2761C328.875 57.8075 330.199 56.6782 331.782 56.0851C333.365 55.4921 335.105 55.473 336.701 56.0311H336.592ZM316.674 48.8199C318.233 49.4286 319.532 50.5599 320.348 52.0201C321.164 53.4803 321.447 55.1786 321.148 56.8243C316.9 55.0307 312.798 52.909 308.88 50.4785C310.071 47.8464 313.462 47.1974 316.782 48.892L316.674 48.8199ZM315.122 85.0922H314.725C305.957 81.9553 301.843 70.9222 303.9 61.115C307.509 70.129 312.2 75.5374 317.937 77.7007C323.674 79.8641 330.675 78.4219 338.505 73.5903C333.85 82.2077 323.891 88.0127 315.231 85.1643L315.122 85.0922Z" fill="white"/>
</g>
<g style="mix-blend-mode:overlay" opacity="0.2">
<path d="M153.102 495.055C147.222 493.008 141.648 490.171 136.534 486.622L127.166 512.763C123.819 522.011 127.673 534.603 137.124 538.061L137.631 538.229C147.026 541.518 157.941 534.35 161.26 525.103L170.712 498.709C164.705 498.281 158.783 497.052 153.102 495.055ZM156.703 508.659C159.516 509.306 161.232 511.47 160.585 513.606C157.01 513.081 153.483 512.273 150.036 511.189C150.687 510.044 151.719 509.164 152.953 508.701C154.187 508.239 155.544 508.224 156.788 508.659H156.703ZM141.175 503.037C142.391 503.512 143.403 504.394 144.039 505.532C144.676 506.671 144.896 507.995 144.663 509.278C141.351 507.879 138.154 506.225 135.099 504.33C136.027 502.279 138.672 501.773 141.26 503.094L141.175 503.037ZM139.966 531.315H139.656C132.82 528.869 129.614 520.268 131.217 512.623C134.03 519.65 137.687 523.866 142.16 525.552C146.632 527.239 152.09 526.115 158.194 522.348C154.565 529.066 146.801 533.592 140.05 531.371L139.966 531.315Z" fill="white"/>
</g>
<g style="mix-blend-mode:overlay" opacity="0.2">
<path d="M321.798 170.076C315.362 171.799 308.723 172.648 302.06 172.6L309.818 201.914C312.56 212.298 323.819 221.131 334.391 218.319H334.752C345.325 215.507 350.737 202.238 347.959 191.89L340.201 162.649C334.423 165.928 328.234 168.426 321.798 170.076ZM310.612 188.104C314.832 187.958 318.882 186.41 322.123 183.705C322.372 184.379 322.482 185.096 322.447 185.814C322.412 186.531 322.233 187.234 321.919 187.88C321.606 188.527 321.165 189.103 320.623 189.576C320.082 190.048 319.45 190.406 318.767 190.628C317.309 191.198 315.698 191.243 314.21 190.756C312.722 190.269 311.45 189.281 310.612 187.96V188.104ZM330.422 202.743C325.665 203.939 321.301 206.35 317.756 209.738C318.136 206.783 319.422 204.018 321.438 201.823C323.454 199.627 326.101 198.11 329.015 197.479C336.701 195.496 342.727 198.452 344.892 202.563C340.123 201.523 335.185 201.535 330.422 202.599V202.743ZM334.572 186.446C333.869 186.569 333.149 186.55 332.454 186.391C331.759 186.232 331.103 185.935 330.524 185.519C329.946 185.102 329.457 184.574 329.086 183.965C328.715 183.356 328.47 182.68 328.365 181.975C332.53 182.725 336.826 182.052 340.562 180.064C340.46 181.642 339.803 183.134 338.707 184.276C337.611 185.417 336.146 186.135 334.572 186.301V186.446Z" fill="white"/>
</g>
<g style="mix-blend-mode:overlay" opacity="0.2">
<path d="M78.5189 572.749L96.0558 578.698L103.273 557.714L85.6636 551.656C84.2799 551.183 82.8164 550.986 81.3567 551.078C79.897 551.17 78.4697 551.548 77.1562 552.191C75.8427 552.833 74.6688 553.728 73.7015 554.825C72.7342 555.921 71.9925 557.197 71.5186 558.579C71.0447 559.962 70.848 561.424 70.9398 562.883C71.0315 564.341 71.4098 565.767 72.0532 567.08C73.3524 569.731 75.6523 571.757 78.4467 572.713L78.5189 572.749ZM95.9475 573.398L95.1898 575.634L79.3849 570.189C77.2711 569.431 75.5428 567.868 74.5764 565.842C73.6099 563.816 73.4836 561.491 74.2249 559.372C74.3062 559.161 74.4027 558.957 74.5136 558.759C78.8076 565.502 86.8543 569.684 95.9475 573.29V573.398ZM116.948 585.801L99.7003 579.924L106.917 558.94L124.021 564.745C126.815 565.701 129.115 567.727 130.415 570.378C131.714 573.029 131.906 576.086 130.949 578.879C129.992 581.671 127.964 583.969 125.312 585.267C122.659 586.566 119.599 586.758 116.804 585.801H116.948Z" fill="white"/>
</g>
<g style="mix-blend-mode:overlay" opacity="0.2">
<path d="M422.588 512.02L440.125 517.969L447.342 496.985L429.733 490.927C428.349 490.454 426.886 490.257 425.426 490.349C423.966 490.441 422.539 490.819 421.226 491.462C419.912 492.104 418.738 492.999 417.771 494.096C416.804 495.192 416.062 496.468 415.588 497.85C415.114 499.233 414.917 500.695 415.009 502.154C415.101 503.612 415.479 505.038 416.122 506.351C417.422 509.002 419.722 511.028 422.516 511.984L422.588 512.02ZM440.017 512.669L439.259 514.905L423.454 509.46C421.34 508.702 419.612 507.139 418.646 505.113C417.679 503.087 417.553 500.762 418.294 498.643C418.376 498.432 418.472 498.228 418.583 498.03C422.877 504.773 430.924 508.955 440.017 512.561V512.669ZM461.018 525.072L443.77 519.195L450.986 498.211L468.09 504.016C470.885 504.972 473.185 506.998 474.484 509.649C475.783 512.3 475.975 515.357 475.018 518.15C474.061 520.942 472.034 523.24 469.381 524.538C466.728 525.837 463.668 526.029 460.873 525.072H461.018Z" fill="white"/>
</g>
<g style="mix-blend-mode:overlay" opacity="0.2">
<path d="M189.874 369.177L172.157 356.197L156.388 377.29L174.25 390.414C175.637 391.547 177.24 392.386 178.962 392.881C180.684 393.375 182.488 393.514 184.266 393.289C186.043 393.065 187.756 392.481 189.3 391.574C190.845 390.667 192.189 389.456 193.25 388.014C194.311 386.571 195.067 384.928 195.473 383.185C195.878 381.441 195.925 379.633 195.609 377.871C195.293 376.109 194.622 374.43 193.636 372.935C192.65 371.441 191.37 370.162 189.874 369.177ZM170.389 362.182L172.049 359.947L188.178 371.809C190.275 373.418 191.657 375.784 192.028 378.399C192.399 381.015 191.73 383.671 190.163 385.799C190.163 386.015 189.802 386.196 189.622 386.412C186.952 377.218 179.41 369.502 170.389 362.182ZM151.048 340.549L168.477 353.349L152.672 374.441L135.46 361.786C134.005 360.787 132.766 359.507 131.817 358.02C130.867 356.534 130.226 354.872 129.932 353.134C129.638 351.395 129.696 349.615 130.104 347.9C130.511 346.184 131.26 344.568 132.304 343.147C133.349 341.726 134.669 340.529 136.186 339.628C137.702 338.727 139.385 338.139 141.133 337.9C142.881 337.661 144.66 337.776 146.363 338.237C148.066 338.698 149.66 339.496 151.048 340.585V340.549Z" fill="white"/>
</g>
<g style="mix-blend-mode:overlay" opacity="0.2">
<path d="M623.324 56.1002L605.606 43.1201L589.838 64.2128L607.699 77.3372C609.086 78.4702 610.689 79.3093 612.411 79.8036C614.133 80.2979 615.938 80.4371 617.715 80.2125C619.492 79.9879 621.205 79.4044 622.75 78.4974C624.294 77.5904 625.638 76.379 626.699 74.9367C627.76 73.4944 628.516 71.8515 628.922 70.1079C629.328 68.3643 629.374 66.5565 629.058 64.7945C628.742 63.0324 628.071 61.353 627.085 59.8583C626.1 58.3637 624.82 57.085 623.324 56.1002ZM603.838 49.1054L605.498 46.8699L621.628 58.7323C623.724 60.3412 625.107 62.7071 625.478 65.3224C625.849 67.9378 625.179 70.5943 623.612 72.722C623.612 72.9384 623.252 73.1186 623.071 73.335C620.401 64.1407 612.859 56.4247 603.838 49.1054ZM584.497 27.4718L601.926 40.2717L586.121 61.3644L568.909 48.7087C567.455 47.7102 566.216 46.4298 565.266 44.9435C564.317 43.4573 563.676 41.7956 563.381 40.057C563.087 38.3185 563.146 36.5386 563.553 34.823C563.961 33.1074 564.709 31.4911 565.754 30.0701C566.798 28.6491 568.118 27.4524 569.635 26.5511C571.152 25.6497 572.834 25.0621 574.582 24.8231C576.331 24.5841 578.109 24.6986 579.813 25.1598C581.516 25.621 583.109 26.4195 584.497 27.5078V27.4718Z" fill="white"/>
</g>
<g style="mix-blend-mode:overlay" opacity="0.2">
<path d="M651.607 218.644C651.591 219.06 651.471 219.466 651.257 219.824C651.043 220.182 650.743 220.48 650.384 220.692C650.025 220.904 649.618 221.022 649.201 221.036C648.784 221.049 648.371 220.958 647.998 220.771C647.034 220.306 646.267 219.514 645.833 218.535C644.173 214.93 647.277 211.865 650.308 210.531C652.001 209.766 653.86 209.438 655.713 209.577C657.567 209.715 659.356 210.316 660.916 211.324C663.441 213.316 665.2 216.118 665.896 219.256C666.608 222.103 666.519 225.09 665.641 227.889C664.762 230.688 663.127 233.191 660.916 235.121C658.442 237.286 655.472 238.809 652.269 239.558C649.066 240.306 645.729 240.256 642.55 239.412C639.652 238.571 636.949 237.167 634.596 235.28C632.243 233.393 630.286 231.06 628.838 228.415C627.152 225.058 626.274 221.354 626.274 217.598C626.274 213.842 627.152 210.138 628.838 206.781C631.662 200.727 636.621 195.926 642.766 193.296C647.925 191.2 653.598 190.71 659.04 191.89C665.397 193.412 671.118 196.882 675.402 201.816C679.685 206.749 682.317 212.898 682.928 219.401C681.675 212.03 677.838 205.345 672.102 200.543C669.193 198.022 665.794 196.128 662.119 194.98C658.443 193.832 654.569 193.455 650.741 193.873C644.416 194.729 638.671 198.003 634.713 203.007C630.756 208.01 628.895 214.352 629.523 220.699C629.99 223.847 631.22 226.834 633.107 229.398C634.994 231.962 637.48 234.026 640.349 235.41C643.285 236.861 646.578 237.439 649.834 237.074C653.09 236.71 656.172 235.419 658.715 233.354C660.215 232.054 661.494 230.52 662.504 228.811C663.748 226.455 664.227 223.772 663.875 221.131C663.682 219.276 663.131 217.476 662.252 215.831C661.788 214.89 661.166 214.036 660.411 213.307C659.22 212.255 657.779 211.524 656.226 211.183C654.672 210.842 653.058 210.903 651.535 211.36C648.54 212.19 644.787 214.966 646.411 218.571C646.497 218.775 646.606 218.969 646.735 219.148C647.209 219.811 647.842 220.344 648.576 220.699C648.907 220.81 649.259 220.844 649.606 220.797C649.952 220.75 650.283 220.624 650.573 220.429C650.862 220.234 651.103 219.974 651.276 219.671C651.449 219.367 651.55 219.028 651.571 218.68L651.607 218.644ZM620.827 228.379C622.001 231.568 623.656 234.559 625.734 237.248C630.152 242.894 636.476 246.739 643.524 248.065C649.107 249.049 654.858 248.313 660.013 245.957C665.168 243.6 669.485 239.733 672.391 234.869C675.246 229.867 676.218 224.01 675.134 218.355C674.485 214.859 673.041 211.558 670.914 208.708C668.787 205.857 666.033 203.533 662.865 201.914C659.677 200.285 656.113 199.53 652.538 199.726C648.963 199.923 645.504 201.063 642.514 203.031C640.069 204.786 638.121 207.142 636.856 209.872C635.592 212.601 635.055 215.61 635.297 218.607C635.659 222.023 637.295 225.177 639.879 227.441C642.131 229.555 645.127 230.695 648.215 230.614C649.924 230.491 651.562 229.878 652.931 228.848C654.301 227.818 655.345 226.416 655.937 224.809C656.281 223.998 656.386 223.105 656.239 222.236C656.092 221.367 655.699 220.558 655.107 219.906C654.084 219.076 652.815 218.608 651.498 218.571C652.844 218.66 654.117 219.207 655.107 220.122C655.58 220.736 655.871 221.47 655.948 222.241C656.024 223.012 655.883 223.79 655.54 224.485C654.836 226.116 653.602 227.463 652.037 228.307C650.472 229.151 648.667 229.443 646.916 229.136C644.441 228.582 642.213 227.241 640.565 225.314C639.382 223.93 638.527 222.296 638.065 220.535C637.602 218.775 637.544 216.932 637.895 215.146C638.578 211.694 640.363 208.556 642.983 206.204C644.071 205.145 645.376 204.333 646.808 203.825C648.678 203.025 650.691 202.608 652.725 202.599C655.838 202.624 658.907 203.338 661.71 204.69C665.245 206.557 668.146 209.431 670.046 212.947C671.955 216.466 672.818 220.456 672.536 224.449C672.307 227.439 671.459 230.349 670.046 232.994C668.374 236.016 666.099 238.664 663.362 240.773C660.624 242.881 657.483 244.406 654.133 245.253C651.074 246.126 647.868 246.359 644.715 245.938C641.919 245.546 639.188 244.782 636.596 243.666C633.315 242.192 630.35 240.098 627.863 237.501C625.393 234.891 623.347 231.91 621.801 228.667C620.631 226.035 619.724 223.293 619.095 220.482C619.404 223.166 619.984 225.812 620.827 228.379Z" fill="white"/>
</g>
<g style="mix-blend-mode:overlay" opacity="0.2">
<path d="M571.582 312.966C571.573 313.218 571.501 313.463 571.372 313.679C571.244 313.895 571.064 314.076 570.849 314.204C570.633 314.332 570.389 314.403 570.139 314.412C569.889 314.42 569.641 314.365 569.418 314.252C568.839 313.971 568.379 313.492 568.119 312.901C567.124 310.722 568.985 308.87 570.803 308.064C571.819 307.602 572.934 307.403 574.045 307.487C575.157 307.571 576.23 307.934 577.166 308.543C578.681 309.747 579.736 311.44 580.153 313.336C580.58 315.056 580.527 316.862 580 318.553C579.473 320.245 578.492 321.757 577.166 322.923C575.682 324.231 573.901 325.152 571.979 325.604C570.058 326.056 568.056 326.026 566.15 325.516C564.412 325.008 562.79 324.16 561.379 323.019C559.968 321.879 558.794 320.469 557.925 318.871C556.914 316.842 556.388 314.604 556.388 312.334C556.388 310.065 556.914 307.826 557.925 305.798C559.619 302.139 562.594 299.238 566.28 297.649C569.374 296.382 572.776 296.086 576.041 296.799C579.854 297.719 583.285 299.816 585.855 302.797C588.424 305.778 590.002 309.494 590.369 313.424C589.617 308.969 587.316 304.93 583.876 302.028C582.131 300.504 580.092 299.36 577.887 298.666C575.682 297.973 573.359 297.745 571.063 297.997C567.269 298.515 563.823 300.493 561.449 303.517C559.076 306.54 557.96 310.373 558.336 314.208C558.616 316.111 559.354 317.915 560.486 319.465C561.618 321.014 563.109 322.262 564.829 323.098C566.591 323.975 568.566 324.324 570.519 324.104C572.472 323.883 574.321 323.103 575.846 321.856C576.745 321.07 577.513 320.143 578.119 319.11C578.864 317.687 579.152 316.065 578.941 314.469C578.825 313.348 578.494 312.261 577.967 311.267C577.689 310.698 577.316 310.182 576.863 309.741C576.149 309.105 575.284 308.664 574.353 308.458C573.421 308.252 572.452 308.289 571.539 308.565C569.742 309.066 567.492 310.744 568.465 312.922C568.517 313.046 568.583 313.162 568.66 313.271C568.945 313.671 569.324 313.994 569.764 314.208C569.963 314.275 570.174 314.296 570.382 314.267C570.59 314.239 570.788 314.163 570.962 314.045C571.136 313.927 571.28 313.77 571.384 313.587C571.488 313.403 571.548 313.198 571.561 312.988L571.582 312.966ZM553.12 318.849C553.824 320.776 554.817 322.584 556.064 324.209C558.714 327.62 562.507 329.944 566.734 330.745C570.083 331.34 573.532 330.895 576.624 329.471C579.717 328.047 582.306 325.71 584.049 322.771C585.761 319.748 586.344 316.209 585.694 312.792C585.305 310.679 584.439 308.684 583.163 306.962C581.887 305.239 580.235 303.835 578.335 302.856C576.423 301.872 574.285 301.416 572.141 301.535C569.996 301.653 567.922 302.342 566.128 303.532C564.662 304.592 563.493 306.016 562.735 307.665C561.976 309.314 561.654 311.133 561.799 312.944C562.017 315.008 562.998 316.914 564.548 318.282C565.899 319.559 567.695 320.249 569.548 320.2C570.573 320.125 571.555 319.755 572.377 319.133C573.198 318.51 573.824 317.663 574.179 316.692C574.386 316.202 574.449 315.662 574.361 315.137C574.273 314.612 574.037 314.123 573.682 313.729C573.068 313.228 572.307 312.944 571.517 312.922C572.324 312.976 573.088 313.307 573.682 313.859C573.965 314.23 574.14 314.674 574.186 315.14C574.232 315.606 574.147 316.076 573.941 316.496C573.519 317.482 572.779 318.296 571.84 318.806C570.901 319.316 569.819 319.492 568.769 319.306C567.284 318.971 565.948 318.161 564.959 316.997C564.25 316.16 563.737 315.173 563.46 314.109C563.182 313.045 563.147 311.932 563.358 310.853C563.767 308.766 564.838 306.87 566.409 305.449C567.062 304.809 567.845 304.318 568.704 304.011C569.826 303.528 571.033 303.276 572.253 303.27C574.12 303.286 575.961 303.717 577.642 304.534C579.763 305.663 581.503 307.399 582.642 309.523C583.787 311.65 584.305 314.061 584.135 316.474C583.999 318.281 583.49 320.039 582.642 321.638C581.639 323.464 580.275 325.064 578.633 326.338C576.991 327.613 575.107 328.534 573.097 329.046C571.263 329.573 569.339 329.714 567.448 329.46C565.771 329.223 564.134 328.762 562.578 328.087C560.611 327.196 558.832 325.931 557.341 324.361C555.859 322.784 554.632 320.983 553.705 319.023C553.002 317.433 552.459 315.776 552.081 314.077C552.266 315.699 552.615 317.298 553.12 318.849Z" fill="white"/>
</g>
<g style="mix-blend-mode:overlay" opacity="0.2">
<path d="M101.252 416.158C101.271 416.804 101.117 417.443 100.805 418.008C100.493 418.574 100.034 419.045 99.4774 419.373C98.9206 419.701 98.2858 419.873 97.6395 419.872C96.9932 419.871 96.359 419.697 95.8032 419.367C94.3667 418.656 93.2197 417.472 92.5556 416.014C90.0658 410.75 94.7207 406.027 99.1951 404.08C101.721 402.922 104.499 402.425 107.269 402.633C110.04 402.841 112.712 403.748 115.036 405.269C118.817 408.21 121.447 412.382 122.469 417.06C123.528 421.309 123.395 425.769 122.083 429.948C120.772 434.126 118.334 437.864 115.036 440.748C111.344 443.973 106.914 446.239 102.137 447.346C97.36 448.453 92.3837 448.366 87.6482 447.094C83.3308 445.849 79.3031 443.761 75.7977 440.951C72.2923 438.141 69.3785 434.666 67.2246 430.725C64.6867 425.692 63.3646 420.135 63.3646 414.5C63.3646 408.864 64.6867 403.307 67.2246 398.274C71.0202 389.938 77.5865 383.171 85.8084 379.122C94.0303 375.073 103.401 373.993 112.33 376.064C121.801 378.356 130.324 383.538 136.713 390.891C143.102 398.244 147.04 407.403 147.981 417.096C146.081 406.082 140.326 396.102 131.743 388.936C127.41 385.177 122.346 382.353 116.869 380.641C111.393 378.929 105.622 378.365 99.9168 378.985C90.5128 380.357 82.0022 385.305 76.16 392.795C70.3178 400.285 67.5951 409.74 68.5597 419.187C69.2707 423.887 71.1177 428.343 73.9408 432.17C76.764 435.996 80.4781 439.077 84.7615 441.145C89.1487 443.302 94.0622 444.16 98.9217 443.617C103.781 443.074 108.384 441.153 112.185 438.08C114.398 436.122 116.297 433.836 117.815 431.302C119.675 427.786 120.394 423.779 119.871 419.836C119.551 417.075 118.719 414.397 117.418 411.94C116.721 410.587 115.793 409.367 114.675 408.334C112.909 406.757 110.765 405.663 108.451 405.158C106.137 404.652 103.732 404.753 101.468 405.45C96.9579 406.676 91.3649 410.786 93.7825 416.086C93.7825 416.375 94.0712 416.663 94.2516 416.951C94.9632 417.938 95.9212 418.721 97.0301 419.223C97.521 419.391 98.0441 419.443 98.5585 419.375C99.0729 419.307 99.5644 419.12 99.9945 418.83C100.425 418.54 100.782 418.155 101.037 417.703C101.293 417.252 101.441 416.748 101.468 416.23C101.252 416.591 101.216 416.591 101.252 416.158ZM55.3529 430.581C57.0465 435.355 59.482 439.832 62.5698 443.849C69.1635 452.3 78.5986 458.077 89.1277 460.111C97.4965 461.621 106.127 460.542 113.866 457.017C121.604 453.493 128.08 447.691 132.429 440.388C136.67 432.936 138.116 424.218 136.506 415.798C135.552 410.57 133.4 405.634 130.22 401.374C127.041 397.115 122.918 393.648 118.175 391.244C113.428 388.809 108.117 387.683 102.79 387.981C97.4623 388.278 92.3105 389.99 87.8647 392.938C84.2579 395.572 81.3883 399.087 79.5308 403.146C77.6732 407.206 76.8899 411.674 77.256 416.122C77.8463 421.212 80.286 425.908 84.112 429.319C85.7725 430.888 87.7274 432.113 89.864 432.924C92.0007 433.734 94.2767 434.114 96.561 434.042C99.1314 433.894 101.604 433.005 103.679 431.482C105.754 429.959 107.342 427.867 108.252 425.461C108.759 424.267 108.913 422.954 108.696 421.676C108.478 420.397 107.899 419.208 107.025 418.25C105.436 416.927 103.428 416.212 101.36 416.23C103.337 416.37 105.202 417.199 106.628 418.574C107.343 419.481 107.786 420.572 107.908 421.72C108.029 422.868 107.823 424.028 107.314 425.064C106.255 427.496 104.41 429.503 102.075 430.765C99.7396 432.026 97.0487 432.469 94.432 432.023C90.7394 431.193 87.4195 429.18 84.978 426.29C83.1787 424.227 81.8732 421.781 81.1605 419.138C80.4478 416.496 80.3465 413.726 80.8644 411.038C81.8851 405.891 84.543 401.212 88.4421 397.698C90.0779 396.122 92.0177 394.895 94.1434 394.092C96.9477 392.927 99.9474 392.303 102.984 392.253C107.633 392.312 112.214 393.383 116.407 395.39C121.667 398.176 125.986 402.454 128.82 407.685C131.636 412.958 132.888 418.925 132.429 424.884C132.125 429.331 130.896 433.666 128.82 437.612C126.377 442.039 123.063 445.927 119.077 449.041C114.883 452.324 110.055 454.705 104.896 456.036C100.323 457.323 95.5345 457.666 90.8236 457.046C86.6493 456.46 82.5719 455.32 78.6994 453.656C73.7377 451.404 69.2545 448.222 65.4926 444.282C61.7866 440.403 58.7395 435.946 56.4715 431.085C54.6992 427.173 53.3329 423.089 52.394 418.899C52.9646 422.91 53.9563 426.849 55.3529 430.653V430.581Z" fill="white"/>
</g>
<g style="mix-blend-mode:overlay" opacity="0.2">
<path d="M398.356 566.438C398.368 566.837 398.273 567.233 398.079 567.584C397.885 567.934 397.601 568.226 397.256 568.429C396.91 568.632 396.517 568.739 396.116 568.738C395.715 568.738 395.322 568.63 394.977 568.425C394.086 567.985 393.375 567.251 392.963 566.348C391.419 563.088 394.306 560.162 397.081 558.956C398.647 558.239 400.37 557.931 402.088 558.059C403.807 558.188 405.464 558.75 406.905 559.693C409.25 561.515 410.881 564.099 411.516 566.996C412.172 569.628 412.089 572.39 411.276 574.979C410.463 577.568 408.951 579.882 406.905 581.669C404.616 583.667 401.868 585.071 398.905 585.756C395.942 586.442 392.856 586.388 389.919 585.6C387.241 584.829 384.743 583.535 382.569 581.795C380.395 580.055 378.588 577.902 377.252 575.461C375.678 572.343 374.858 568.901 374.858 565.41C374.858 561.919 375.678 558.477 377.252 555.36C379.606 550.196 383.679 546.004 388.778 543.496C393.877 540.989 399.689 540.319 405.227 541.602C411.101 543.022 416.387 546.232 420.349 550.787C424.312 555.341 426.755 561.015 427.338 567.018C426.16 560.196 422.59 554.014 417.267 549.575C414.579 547.247 411.439 545.498 408.042 544.437C404.646 543.377 401.066 543.027 397.528 543.411C391.696 544.262 386.417 547.326 382.794 551.966C379.171 556.605 377.482 562.462 378.08 568.314C378.521 571.225 379.667 573.985 381.418 576.355C383.169 578.726 385.472 580.634 388.129 581.915C390.85 583.251 393.897 583.783 396.911 583.446C399.925 583.11 402.779 581.92 405.137 580.017C406.51 578.804 407.687 577.388 408.629 575.818C409.783 573.64 410.228 571.158 409.904 568.716C409.706 567.005 409.189 565.347 408.382 563.825C407.95 562.987 407.375 562.231 406.681 561.591C405.586 560.614 404.256 559.937 402.821 559.624C401.386 559.311 399.894 559.373 398.491 559.804C395.693 560.564 392.224 563.11 393.724 566.393C393.724 566.572 393.903 566.75 394.015 566.929C394.456 567.54 395.05 568.025 395.738 568.336C396.042 568.44 396.367 568.472 396.686 568.43C397.005 568.388 397.31 568.272 397.576 568.093C397.843 567.913 398.065 567.674 398.223 567.395C398.382 567.115 398.473 566.803 398.491 566.482C398.356 566.706 398.334 566.706 398.356 566.438ZM369.889 575.371C370.94 578.328 372.45 581.102 374.365 583.59C378.455 588.825 384.306 592.403 390.837 593.663C396.027 594.598 401.38 593.93 406.179 591.747C410.979 589.563 414.996 585.97 417.692 581.446C420.323 576.83 421.22 571.43 420.221 566.214C419.629 562.976 418.295 559.918 416.323 557.28C414.351 554.642 411.794 552.494 408.852 551.005C405.908 549.497 402.614 548.799 399.31 548.984C396.006 549.168 392.811 550.228 390.053 552.055C387.816 553.686 386.037 555.863 384.885 558.378C383.732 560.892 383.247 563.66 383.474 566.415C383.84 569.568 385.353 572.477 387.726 574.59C388.756 575.561 389.968 576.32 391.293 576.822C392.619 577.325 394.03 577.56 395.447 577.515C397.041 577.424 398.574 576.873 399.861 575.93C401.148 574.986 402.134 573.691 402.698 572.2C403.012 571.461 403.108 570.647 402.973 569.855C402.838 569.063 402.479 568.327 401.937 567.733C400.951 566.914 399.706 566.471 398.423 566.482C399.649 566.569 400.806 567.082 401.691 567.934C402.134 568.496 402.409 569.172 402.484 569.883C402.559 570.594 402.432 571.312 402.116 571.954C401.459 573.461 400.315 574.704 398.867 575.485C397.418 576.267 395.749 576.541 394.126 576.265C391.836 575.751 389.777 574.504 388.263 572.713C387.147 571.435 386.337 569.92 385.895 568.284C385.453 566.647 385.39 564.931 385.712 563.266C386.345 560.078 387.993 557.18 390.411 555.003C391.426 554.026 392.629 553.267 393.947 552.769C395.687 552.048 397.547 551.661 399.43 551.63C402.314 551.667 405.155 552.33 407.756 553.573C411.018 555.299 413.696 557.949 415.454 561.189C417.201 564.455 417.977 568.151 417.692 571.842C417.504 574.597 416.742 577.282 415.454 579.726C413.939 582.469 411.884 584.877 409.412 586.806C406.81 588.84 403.816 590.315 400.617 591.139C397.78 591.936 394.81 592.149 391.888 591.764C389.3 591.402 386.771 590.695 384.369 589.665C381.292 588.27 378.511 586.299 376.178 583.858C373.879 581.456 371.99 578.694 370.583 575.684C369.484 573.26 368.636 570.731 368.054 568.135C368.408 570.62 369.023 573.06 369.889 575.416V575.371Z" fill="white"/>
</g>
<g style="mix-blend-mode:overlay" opacity="0.2">
<path d="M573.737 389.405C571.5 367.771 551.473 360.56 531.23 360.307C499.296 360.307 492.909 381.04 492.151 388.395C491.898 390.594 490.744 399.969 490.744 399.969C490.455 401.267 489.372 407.18 491.465 408.37C491.926 408.608 492.304 408.98 492.549 409.437C492.794 409.894 492.894 410.415 492.836 410.93L487.496 427.552C487.385 428.114 487.398 428.693 487.537 429.249C487.675 429.805 487.934 430.323 488.296 430.767C488.658 431.212 489.114 431.57 489.63 431.819C490.147 432.067 490.712 432.198 491.285 432.203L496.048 432.564C495.218 432.564 497.275 455.784 497.888 458.416C498.225 459.856 499.09 461.118 500.313 461.952C501.535 462.787 503.026 463.133 504.492 462.923L520.874 461.408L519.467 475.831H566.051L563.237 439.45C572.546 419.475 575.541 406.567 573.737 389.405ZM542.416 438.621H523.761L526.611 405.089C525.225 404.086 524.097 402.769 523.32 401.246C522.542 399.723 522.136 398.037 522.137 396.327C522.174 394.501 522.673 392.714 523.589 391.133C524.504 389.551 525.805 388.227 527.37 387.284C528.936 386.341 530.715 385.809 532.542 385.739C534.368 385.668 536.183 386.061 537.817 386.88C539.451 387.7 540.85 388.92 541.885 390.426C542.919 391.932 543.555 393.675 543.734 395.493C543.912 397.311 543.626 399.144 542.904 400.822C542.181 402.5 541.045 403.968 539.601 405.089L542.416 438.621Z" fill="white"/>
</g>
<g style="mix-blend-mode:overlay" opacity="0.2">
<path d="M304.767 568.267C303.43 555.315 291.464 550.997 279.368 550.846C260.286 550.846 256.47 563.259 256.017 567.662C255.866 568.979 255.176 574.592 255.176 574.592C255.004 575.369 254.357 578.909 255.608 579.622C255.883 579.764 256.109 579.987 256.255 580.26C256.402 580.534 256.462 580.846 256.427 581.154L253.236 591.106C253.169 591.442 253.178 591.789 253.26 592.122C253.343 592.455 253.498 592.765 253.714 593.031C253.93 593.297 254.202 593.512 254.511 593.66C254.82 593.809 255.157 593.888 255.5 593.891L258.346 594.106C257.85 594.106 259.079 608.008 259.446 609.584C259.647 610.447 260.164 611.202 260.894 611.702C261.625 612.201 262.516 612.408 263.391 612.283L273.18 611.376L272.339 620.011H300.174L298.492 598.23C304.055 586.27 305.845 578.542 304.767 568.267ZM286.052 597.733H274.905L276.608 577.657C275.78 577.057 275.106 576.268 274.641 575.356C274.177 574.444 273.934 573.435 273.935 572.412C273.957 571.318 274.255 570.248 274.802 569.301C275.349 568.355 276.126 567.562 277.062 566.997C277.997 566.433 279.06 566.114 280.152 566.072C281.243 566.03 282.328 566.265 283.304 566.756C284.28 567.246 285.116 567.977 285.734 568.878C286.352 569.78 286.733 570.824 286.839 571.912C286.945 573.001 286.775 574.098 286.343 575.103C285.911 576.107 285.233 576.986 284.37 577.657L286.052 597.733Z" fill="white"/>
</g>
<g style="mix-blend-mode:overlay" opacity="0.2">
<path d="M62.6908 42.1223C61.354 29.1702 49.3877 24.8528 37.292 24.7017C18.2105 24.7017 14.3942 37.1142 13.9414 41.5179C13.7905 42.8347 13.1005 48.4473 13.1005 48.4473C12.9281 49.2244 12.2812 52.7647 13.5318 53.4771C13.8073 53.6194 14.0331 53.8422 14.1794 54.1158C14.3258 54.3895 14.3856 54.7012 14.3511 55.0097L11.1601 64.9613C11.0935 65.2977 11.1018 65.6446 11.1844 65.9773C11.2671 66.3101 11.422 66.6205 11.6382 66.8865C11.8544 67.1524 12.1266 67.3673 12.4352 67.5159C12.7439 67.6645 13.0815 67.743 13.4239 67.746L16.27 67.9619C15.7741 67.9619 17.0031 81.8639 17.3696 83.4397C17.571 84.3021 18.0879 85.0576 18.8183 85.5572C19.5488 86.0567 20.4397 86.264 21.3153 86.1381L31.104 85.2314L30.2631 93.8662H58.0983L56.4166 72.085C61.9793 60.1258 63.7689 52.3977 62.6908 42.1223ZM43.9759 71.5885H32.8288L34.5322 51.5126C33.7042 50.9121 33.0301 50.1235 32.5654 49.2117C32.1006 48.2999 31.8584 47.2907 31.8586 46.267C31.8808 45.1736 32.1793 44.1036 32.7261 43.1569C33.2729 42.2101 34.0502 41.4174 34.9857 40.8527C35.9211 40.288 36.9842 39.9697 38.0757 39.9275C39.1672 39.8852 40.2516 40.1204 41.2278 40.6111C42.204 41.1018 43.0402 41.8321 43.6584 42.7337C44.2766 43.6354 44.6566 44.6791 44.7631 45.7675C44.8695 46.856 44.6989 47.9537 44.2672 48.9583C43.8355 49.9629 43.1567 50.8416 42.2941 51.5126L43.9759 71.5885Z" fill="white"/>
</g>
<g style="mix-blend-mode:overlay" opacity="0.2">
<path d="M493.63 165.497C493.518 164.568 493.325 163.652 493.053 162.757C492.837 161.927 492.584 161.206 492.367 160.485C491.934 159.079 491.465 157.853 491.105 156.88C490.419 154.86 489.914 153.743 489.914 153.743C489.914 153.743 489.914 154.969 489.914 157.096C489.914 158.178 489.914 159.476 489.914 160.954C489.914 161.675 489.914 162.504 489.914 163.298C489.966 164.09 489.966 164.885 489.914 165.677C489.759 167.409 489.395 169.116 488.831 170.761C488.247 172.449 487.354 174.014 486.197 175.376C485.643 175.984 485.012 176.517 484.321 176.963C483.998 177.148 483.66 177.305 483.31 177.431H482.805H482.408C482.408 177.431 481.109 177.431 481.145 177.431H478.547L477.97 148.947H473.532L472.954 177.431H470.356C469.984 177.467 469.61 177.467 469.238 177.431H468.732H468.191C467.841 177.305 467.503 177.148 467.181 176.963C466.481 176.528 465.849 175.994 465.304 175.376C464.137 174.022 463.243 172.455 462.67 170.761C462.094 169.132 461.73 167.435 461.588 165.713C461.588 165.317 461.588 164.956 461.588 164.523V163.225C461.588 162.54 461.588 161.675 461.588 160.954C461.588 159.476 461.588 158.178 461.588 157.096C461.588 154.969 461.588 153.743 461.588 153.743C461.588 153.743 461.119 154.86 460.397 156.88C460.036 157.889 459.603 159.115 459.17 160.485C458.954 161.242 458.701 161.891 458.448 162.793C458.192 163.679 457.999 164.583 457.871 165.497C457.548 167.648 457.548 169.836 457.871 171.987C458.246 174.574 459.209 177.041 460.686 179.198C461.516 180.426 462.554 181.499 463.753 182.371C465.051 183.327 466.54 183.991 468.119 184.318C468.91 184.517 469.721 184.626 470.537 184.643H472.702L472.196 208.512H479.089L478.583 184.643H481.759H482.192H482.625H483.31C484.851 184.324 486.314 183.705 487.614 182.82C488.914 181.935 490.027 180.802 490.888 179.487C492.375 177.331 493.35 174.865 493.739 172.275C494.059 170.024 494.023 167.737 493.63 165.497Z" fill="white"/>
</g>
<g style="mix-blend-mode:overlay" opacity="0.2">
<path d="M193.375 82.9288C193.375 82.0635 193.05 81.2702 192.87 80.5491C192.689 79.828 192.437 79.215 192.256 78.6021C191.895 77.3762 191.498 76.3306 191.21 75.4652C190.596 73.7345 190.163 72.761 190.163 72.761C190.163 72.761 190.163 73.8066 190.163 75.6455C190.163 76.5829 190.163 77.7007 190.163 78.9626C190.163 79.5756 190.163 80.2967 190.163 80.9818C190.163 81.6668 190.163 82.3159 190.163 83.037C190.02 84.5226 189.706 85.9866 189.225 87.3997C188.728 88.855 187.957 90.2015 186.952 91.3659C186.485 91.8902 185.951 92.3508 185.364 92.736C185.07 92.8832 184.769 93.0156 184.462 93.1326H184.029H183.704C183.704 93.1326 182.586 93.1326 182.622 93.1326H180.384L179.915 68.6506H175.838L175.369 93.7456H173.204C172.879 93.7456 172.554 93.7456 172.266 93.7456H171.796H171.363C171.056 93.6286 170.755 93.4962 170.461 93.349C169.874 92.9638 169.34 92.5031 168.874 91.9789C167.869 90.8144 167.097 89.468 166.6 88.0127C166.127 86.6099 165.813 85.1586 165.662 83.686C165.643 83.3377 165.643 82.9886 165.662 82.6404V81.5587C165.662 80.9457 165.662 80.1885 165.662 79.5756C165.662 78.3136 165.662 77.1959 165.662 76.2584C165.662 74.4196 165.662 73.374 165.662 73.374C165.662 73.374 165.265 74.3475 164.652 76.0782C164.327 76.9435 163.93 77.9891 163.569 79.215C163.569 79.828 163.172 80.4049 162.956 81.1981C162.731 81.7637 162.538 82.3415 162.378 82.9288C162.088 84.7804 162.088 86.6659 162.378 88.5175C162.711 90.6946 163.538 92.7667 164.796 94.5749C165.52 95.6246 166.41 96.55 167.43 97.3151C168.505 98.1199 169.733 98.6966 171.039 99.0098C171.729 99.147 172.428 99.2314 173.132 99.2622H175.224L174.827 119.778H180.709L180.421 99.4064H184.029H184.606C187.273 98.8229 189.613 97.2345 191.137 94.9715C192.386 93.145 193.212 91.0634 193.555 88.878C193.805 86.8976 193.744 84.8905 193.375 82.9288Z" fill="white"/>
</g>
<g style="mix-blend-mode:overlay" opacity="0.2">
<path d="M291.88 382.819C292.765 383.282 293.493 383.998 293.971 384.874C294.449 385.751 294.656 386.75 294.566 387.744C294.476 388.738 294.093 389.683 293.465 390.46C292.838 391.237 291.994 391.811 291.04 392.108C290.086 392.406 289.066 392.414 288.107 392.132C287.149 391.85 286.296 391.29 285.656 390.523C285.015 389.757 284.617 388.818 284.511 387.825C284.405 386.832 284.596 385.83 285.06 384.946C285.368 384.359 285.789 383.838 286.298 383.413C286.808 382.989 287.396 382.669 288.029 382.471C288.663 382.273 289.329 382.202 289.989 382.262C290.65 382.322 291.293 382.511 291.88 382.819ZM273.333 387.218C274.993 371.281 289.787 365.584 304.726 365.584C328.361 365.584 333.088 380.908 333.593 386.352C333.593 387.939 334.64 394.897 334.64 394.897C334.82 395.835 335.65 400.09 334.099 401.099C333.763 401.276 333.488 401.549 333.308 401.883C333.128 402.217 333.051 402.597 333.088 402.974L337.021 415.233C337.132 415.661 337.143 416.108 337.053 416.541C336.963 416.974 336.774 417.38 336.502 417.728C336.231 418.077 335.882 418.358 335.484 418.551C335.086 418.743 334.649 418.842 334.207 418.839L330.598 419.091C330.611 425.485 330.165 431.871 329.263 438.201C329.013 439.269 328.368 440.204 327.459 440.818C326.549 441.433 325.441 441.683 324.356 441.518L312.268 440.436L313.314 450.965H279.179L281.235 424.103C274.235 409.392 271.962 399.837 273.333 387.218ZM300.432 395.979H304.437L306.386 398.287L305.845 402.289L309.237 404.056L312.195 401.315L315.263 401.892L317.68 405.101L321.289 403.948V399.945L323.598 397.998L327.567 398.539L329.372 395.15L326.629 392.193L326.882 389.201L330.093 386.785L328.939 383.179H324.933L322.985 380.872L323.562 376.906L320.17 375.103L317.211 377.843L314.18 377.591L311.799 374.382L308.19 375.535V379.538L305.881 381.485L301.875 380.908L300.107 384.297L302.85 387.254L302.561 390.246L299.35 392.662L300.432 395.979ZM283.003 394.248L285.277 393.419L286.901 394.248L287.514 396.628H289.859L290.87 394.429L292.638 393.888L294.731 395.114L296.499 393.599L295.669 391.328L296.535 389.705L298.88 389.092L299.097 386.785L296.86 385.739L296.318 384.009L297.545 381.917L296.066 380.115L293.757 380.944L292.133 380.115L291.519 377.735H289.21L288.2 379.934L286.431 380.475L284.339 379.249L282.534 380.764L283.4 383.035L282.534 384.658L280.189 385.271L279.972 387.578L282.174 388.624L282.751 390.354L281.488 392.482L283.003 394.248ZM306.963 385.415C306.137 386.949 305.785 388.694 305.952 390.429C306.119 392.164 306.799 393.809 307.903 395.158C309.008 396.506 310.489 397.496 312.157 398.003C313.826 398.509 315.608 398.509 317.276 398.002C318.945 397.495 320.425 396.505 321.53 395.156C322.634 393.808 323.313 392.162 323.48 390.427C323.647 388.692 323.295 386.947 322.468 385.413C321.641 383.879 320.376 382.624 318.835 381.809C316.779 380.732 314.381 380.507 312.16 381.181C309.938 381.856 308.072 383.377 306.963 385.415Z" fill="white"/>
</g>
<g style="mix-blend-mode:overlay" opacity="0.2">
<path d="M110.323 208.672C111.208 209.136 111.936 209.851 112.414 210.728C112.892 211.604 113.099 212.603 113.009 213.597C112.919 214.592 112.536 215.537 111.908 216.314C111.281 217.091 110.437 217.664 109.483 217.962C108.529 218.259 107.509 218.267 106.55 217.985C105.592 217.703 104.739 217.143 104.099 216.377C103.458 215.61 103.06 214.671 102.954 213.678C102.848 212.686 103.039 211.684 103.503 210.8C103.811 210.212 104.232 209.692 104.741 209.267C105.251 208.842 105.839 208.522 106.472 208.325C107.106 208.127 107.772 208.056 108.432 208.116C109.093 208.175 109.736 208.364 110.323 208.672ZM91.7759 213.071C93.4357 197.134 108.23 191.438 123.169 191.438C146.804 191.438 151.531 206.761 152.036 212.206C152.036 213.792 153.083 220.751 153.083 220.751C153.263 221.688 154.093 225.943 152.542 226.953C152.206 227.13 151.931 227.403 151.751 227.736C151.571 228.07 151.494 228.45 151.531 228.828L155.464 241.087C155.575 241.514 155.586 241.962 155.496 242.395C155.406 242.827 155.217 243.233 154.945 243.582C154.673 243.93 154.325 244.212 153.927 244.404C153.529 244.597 153.092 244.695 152.65 244.692L149.041 244.945C149.054 251.338 148.608 257.724 147.706 264.054C147.456 265.122 146.811 266.057 145.902 266.672C144.992 267.287 143.884 267.536 142.799 267.371L130.711 266.29L131.757 276.818H97.6215L99.6783 249.956C92.678 235.246 90.4047 225.691 91.7759 213.071ZM118.875 221.833H122.88L124.829 224.14L124.288 228.142L127.68 229.909L130.638 227.169L133.706 227.746L136.123 230.955L139.732 229.801V225.799L142.041 223.852L146.01 224.393L147.815 221.003L145.072 218.047L145.325 215.054L148.536 212.638L147.381 209.033H143.376L141.428 206.725L142.005 202.759L138.613 200.956L135.654 203.697L132.623 203.444L130.242 200.235L126.633 201.389V205.391L124.324 207.338L120.318 206.761L118.55 210.151L121.293 213.107L121.004 216.1L117.793 218.516L118.875 221.833ZM101.446 220.102L103.72 219.273L105.344 220.102L105.957 222.482H108.302L109.313 220.282L111.081 219.741L113.174 220.967L114.942 219.453L114.112 217.181L114.978 215.559L117.323 214.946L117.54 212.638L115.303 211.593L114.761 209.862L115.988 207.771L114.509 205.968L112.199 206.797L110.576 205.968L109.962 203.588H107.653L106.643 205.788L104.874 206.329L102.782 205.103L100.977 206.617L101.843 208.889L100.977 210.511L98.6319 211.124L98.4154 213.432L100.616 214.477L101.194 216.208L99.9309 218.335L101.446 220.102ZM125.406 211.268C124.58 212.803 124.228 214.548 124.395 216.282C124.562 218.017 125.242 219.663 126.346 221.011C127.451 222.36 128.932 223.35 130.6 223.856C132.269 224.363 134.051 224.362 135.719 223.856C137.388 223.349 138.868 222.358 139.973 221.01C141.077 219.661 141.756 218.015 141.923 216.28C142.09 214.546 141.738 212.801 140.911 211.266C140.084 209.732 138.819 208.478 137.278 207.663C135.222 206.586 132.824 206.36 130.603 207.035C128.381 207.709 126.515 209.23 125.406 211.268Z" fill="white"/>
</g>
<g style="mix-blend-mode:overlay" opacity="0.2">
<path d="M395.627 92.5746C396.512 93.0381 397.239 93.7535 397.717 94.6301C398.195 95.5068 398.403 96.5054 398.313 97.4997C398.223 98.494 397.84 99.4394 397.212 100.216C396.585 100.993 395.741 101.566 394.787 101.864C393.833 102.161 392.812 102.17 391.854 101.888C390.896 101.605 390.042 101.046 389.402 100.279C388.762 99.5125 388.364 98.5734 388.258 97.5807C388.152 96.588 388.343 95.5862 388.807 94.7019C389.115 94.1148 389.536 93.594 390.045 93.1693C390.555 92.7446 391.143 92.4244 391.776 92.2269C392.409 92.0293 393.075 91.9584 393.736 92.018C394.397 92.0777 395.039 92.2668 395.627 92.5746ZM377.08 96.9734C378.74 81.0367 393.534 75.3398 408.473 75.3398C432.108 75.3398 436.835 90.6636 437.34 96.1081C437.34 97.6946 438.387 104.653 438.387 104.653C438.567 105.591 439.397 109.845 437.845 110.855C437.51 111.032 437.235 111.305 437.055 111.639C436.875 111.973 436.798 112.352 436.835 112.73L440.768 124.989C440.879 125.417 440.889 125.864 440.799 126.297C440.71 126.73 440.521 127.136 440.249 127.484C439.977 127.833 439.629 128.114 439.231 128.306C438.833 128.499 438.396 128.598 437.954 128.595L434.345 128.847C434.358 135.241 433.912 141.627 433.01 147.957C432.759 149.025 432.115 149.959 431.206 150.574C430.296 151.189 429.188 151.439 428.103 151.274L416.014 150.192L417.061 160.72H382.925L384.982 133.859C377.982 119.148 375.709 109.593 377.08 96.9734ZM404.179 105.735H408.184L410.133 108.043L409.591 112.045L412.983 113.812L415.942 111.071L419.009 111.648L421.427 114.857L425.035 113.703V109.701L427.345 107.754L431.314 108.295L433.118 104.906L430.376 101.949L430.629 98.9565L433.84 96.5408L432.685 92.9352H428.68L426.731 90.6276L427.309 86.6614L423.917 84.8586L420.958 87.5989L417.927 87.3465L415.545 84.1375L411.937 85.2913V89.2935L409.628 91.2405L405.622 90.6636L403.854 94.0529L406.597 97.0095L406.308 100.002L403.096 102.418L404.179 105.735ZM386.75 104.004L389.024 103.175L390.647 104.004L391.261 106.384H393.606L394.617 104.185L396.385 103.644L398.478 104.87L400.246 103.355L399.416 101.084L400.282 99.4613L402.627 98.8483L402.844 96.5408L400.607 95.4951L400.065 93.7645L401.292 91.6732L399.813 89.8704L397.503 90.6997L395.88 89.8704L395.266 87.4907H392.957L391.946 89.6901L390.178 90.231L388.085 89.0051L386.281 90.5194L387.147 92.7909L386.281 94.4135L383.936 95.0264L383.719 97.334L385.92 98.3796L386.498 100.11L385.235 102.238L386.75 104.004ZM410.71 95.1706C409.883 96.7051 409.532 98.4503 409.699 100.185C409.866 101.919 410.545 103.565 411.65 104.914C412.755 106.262 414.236 107.252 415.904 107.759C417.573 108.265 419.355 108.265 421.023 107.758C422.692 107.251 424.172 106.261 425.277 104.912C426.381 103.563 427.06 101.917 427.227 100.183C427.394 98.4482 427.041 96.7031 426.214 95.1688C425.388 93.6346 424.123 92.3803 422.582 91.565C420.526 90.4881 418.128 90.2626 415.907 90.9372C413.685 91.6118 411.819 93.1324 410.71 95.1706Z" fill="white"/>
</g>
<g style="mix-blend-mode:overlay" opacity="0.2">
<path d="M447.29 269.945L464.827 275.894L472.044 254.909L454.435 248.852C453.051 248.378 451.587 248.182 450.128 248.273C448.668 248.365 447.241 248.743 445.927 249.386C444.614 250.029 443.44 250.924 442.473 252.02C441.505 253.116 440.763 254.392 440.29 255.775C439.816 257.157 439.619 258.619 439.711 260.078C439.802 261.537 440.181 262.963 440.824 264.275C442.123 266.926 444.423 268.952 447.218 269.908L447.29 269.945ZM464.719 270.594L463.961 272.829L448.156 267.385C446.042 266.626 444.314 265.064 443.347 263.038C442.381 261.012 442.255 258.686 442.996 256.568C443.077 256.357 443.174 256.152 443.285 255.955C447.579 262.697 455.625 266.88 464.719 270.485V270.594ZM485.719 282.997L468.471 277.12L475.688 256.135L492.792 261.94C495.586 262.896 497.886 264.923 499.186 267.573C500.485 270.224 500.677 273.282 499.72 276.074C498.763 278.866 496.735 281.164 494.083 282.463C491.43 283.761 488.37 283.953 485.575 282.997H485.719Z" fill="white"/>
</g>
<g style="mix-blend-mode:overlay" opacity="0.2">
<path d="M191.628 183.489L209.165 189.438L216.382 168.453L198.773 162.396C197.389 161.922 195.926 161.726 194.466 161.818C193.006 161.909 191.579 162.287 190.265 162.93C188.952 163.573 187.778 164.468 186.811 165.564C185.843 166.66 185.102 167.936 184.628 169.319C184.154 170.701 183.957 172.164 184.049 173.622C184.141 175.081 184.519 176.507 185.162 177.819C186.462 180.47 188.761 182.496 191.556 183.453L191.628 183.489ZM209.057 184.138L208.299 186.373L192.494 180.929C190.38 180.17 188.652 178.608 187.685 176.582C186.719 174.556 186.593 172.23 187.334 170.112C187.415 169.901 187.512 169.696 187.623 169.499C191.917 176.241 199.963 180.424 209.057 184.03V184.138ZM230.058 196.541L212.809 190.664L220.026 169.679L237.13 175.484C239.925 176.441 242.224 178.467 243.524 181.117C244.823 183.768 245.015 186.826 244.058 189.618C243.101 192.411 241.073 194.709 238.421 196.007C235.768 197.305 232.708 197.497 229.913 196.541H230.058Z" fill="white"/>
</g>
<path opacity="0.1" d="M406.612 385.517C406.745 383.893 407.506 382.384 408.733 381.311C409.96 380.238 411.556 379.685 413.185 379.769C414.817 379.791 416.377 380.449 417.532 381.604C418.686 382.758 419.345 384.317 419.367 385.95C419.367 401.424 419.367 416.941 419.151 432.415C419.029 433.329 418.727 434.209 418.262 435.005C417.797 435.801 417.179 436.496 416.442 437.051C415.706 437.606 414.867 438.009 413.974 438.237C413.081 438.465 412.151 438.514 411.239 438.38C410.321 438.45 409.398 438.338 408.523 438.05C407.649 437.761 406.841 437.302 406.145 436.699C405.449 436.096 404.88 435.361 404.471 434.537C404.061 433.712 403.819 432.815 403.759 431.896L406.612 385.517ZM415.476 311.259C409.006 311.041 402.616 312.745 397.115 316.157C391.614 319.568 387.249 324.534 384.571 330.427C381.894 336.319 381.024 342.872 382.072 349.259C383.12 355.645 386.039 361.577 390.46 366.305C394.881 371.033 400.605 374.344 406.908 375.819C413.211 377.295 419.81 376.869 425.871 374.595C431.932 372.32 437.182 368.301 440.958 363.044C444.733 357.786 446.865 351.528 447.082 345.06C447.362 336.391 444.192 327.965 438.268 321.629C432.343 315.293 424.147 311.564 415.476 311.259ZM388.323 343.115C388.521 338.002 390.228 333.062 393.229 328.916C396.229 324.77 400.39 321.605 405.186 319.818C409.982 318.031 415.2 317.702 420.183 318.873C425.166 320.044 429.69 322.663 433.188 326.399C436.685 330.135 438.999 334.822 439.838 339.87C440.676 344.918 440.002 350.101 437.901 354.767C435.799 359.432 432.364 363.373 428.028 366.091C423.691 368.809 418.647 370.184 413.53 370.043C410.101 369.949 406.724 369.175 403.595 367.767C400.467 366.358 397.648 364.344 395.304 361.839C392.96 359.335 391.136 356.39 389.937 353.176C388.739 349.962 388.19 346.542 388.323 343.115ZM415.476 311.259C409.006 311.041 402.616 312.745 397.115 316.157C391.614 319.568 387.249 324.534 384.571 330.427C381.894 336.319 381.024 342.872 382.072 349.259C383.12 355.645 386.039 361.577 390.46 366.305C394.881 371.033 400.605 374.344 406.908 375.819C413.211 377.295 419.81 376.869 425.871 374.595C431.932 372.32 437.182 368.301 440.958 363.044C444.733 357.786 446.865 351.528 447.082 345.06C447.362 336.391 444.192 327.965 438.268 321.629C432.343 315.293 424.147 311.564 415.476 311.259ZM388.323 343.115C388.521 338.002 390.228 333.062 393.229 328.916C396.229 324.77 400.39 321.605 405.186 319.818C409.982 318.031 415.2 317.702 420.183 318.873C425.166 320.044 429.69 322.663 433.188 326.399C436.685 330.135 438.999 334.822 439.838 339.87C440.676 344.918 440.002 350.101 437.901 354.767C435.799 359.432 432.364 363.373 428.028 366.091C423.691 368.809 418.647 370.184 413.53 370.043C410.101 369.949 406.724 369.175 403.595 367.767C400.467 366.358 397.648 364.344 395.304 361.839C392.96 359.335 391.136 356.39 389.937 353.176C388.739 349.962 388.19 346.542 388.323 343.115Z" fill="white"/>
<path opacity="0.1" d="M600.735 201.45C600.79 200.772 601.105 200.142 601.615 199.694C602.124 199.246 602.787 199.015 603.463 199.05C604.14 199.059 604.788 199.334 605.267 199.816C605.747 200.298 606.02 200.949 606.029 201.63C606.029 208.09 606.029 214.569 605.939 221.029C605.889 221.41 605.763 221.777 605.57 222.11C605.377 222.442 605.121 222.732 604.815 222.964C604.509 223.196 604.161 223.364 603.79 223.459C603.42 223.555 603.034 223.575 602.655 223.519C602.274 223.548 601.891 223.501 601.528 223.381C601.165 223.261 600.829 223.069 600.541 222.817C600.252 222.565 600.016 222.259 599.846 221.914C599.676 221.57 599.575 221.196 599.55 220.812L600.735 201.45ZM604.414 170.449C601.728 170.358 599.076 171.069 596.793 172.494C594.509 173.918 592.697 175.991 591.586 178.451C590.474 180.911 590.113 183.647 590.548 186.313C590.983 188.979 592.195 191.456 594.03 193.429C595.865 195.403 598.241 196.785 600.857 197.401C603.474 198.017 606.213 197.839 608.729 196.89C611.245 195.941 613.424 194.262 614.991 192.068C616.559 189.873 617.443 187.26 617.533 184.56C617.65 180.941 616.334 177.423 613.875 174.778C611.415 172.133 608.013 170.576 604.414 170.449ZM593.143 183.748C593.225 181.613 593.934 179.551 595.179 177.82C596.425 176.09 598.152 174.768 600.143 174.022C602.133 173.276 604.299 173.139 606.368 173.628C608.436 174.116 610.314 175.21 611.766 176.769C613.218 178.329 614.178 180.286 614.526 182.393C614.874 184.501 614.595 186.664 613.722 188.612C612.85 190.56 611.424 192.205 609.624 193.34C607.824 194.475 605.73 195.049 603.606 194.99C602.183 194.95 600.781 194.627 599.482 194.039C598.184 193.452 597.014 192.61 596.041 191.565C595.068 190.519 594.31 189.29 593.813 187.948C593.316 186.607 593.088 185.179 593.143 183.748ZM604.414 170.449C601.728 170.358 599.076 171.069 596.793 172.494C594.509 173.918 592.697 175.991 591.586 178.451C590.474 180.911 590.113 183.647 590.548 186.313C590.983 188.979 592.195 191.456 594.03 193.429C595.865 195.403 598.241 196.785 600.857 197.401C603.474 198.017 606.213 197.839 608.729 196.89C611.245 195.941 613.424 194.262 614.991 192.068C616.559 189.873 617.443 187.26 617.533 184.56C617.65 180.941 616.334 177.423 613.875 174.778C611.415 172.133 608.013 170.576 604.414 170.449ZM593.143 183.748C593.225 181.613 593.934 179.551 595.179 177.82C596.425 176.09 598.152 174.768 600.143 174.022C602.133 173.276 604.299 173.139 606.368 173.628C608.436 174.116 610.314 175.21 611.766 176.769C613.218 178.329 614.178 180.286 614.526 182.393C614.874 184.501 614.595 186.664 613.722 188.612C612.85 190.56 611.424 192.205 609.624 193.34C607.824 194.475 605.73 195.049 603.606 194.99C602.183 194.95 600.781 194.627 599.482 194.039C598.184 193.452 597.014 192.61 596.041 191.565C595.068 190.519 594.31 189.29 593.813 187.948C593.316 186.607 593.088 185.179 593.143 183.748Z" fill="white"/>
<path opacity="0.1" d="M485.872 37.1841C485.927 36.506 486.243 35.8761 486.752 35.428C487.262 34.98 487.924 34.749 488.6 34.7841C489.278 34.7935 489.925 35.0683 490.405 35.5502C490.884 36.0322 491.157 36.6831 491.167 37.3645C491.167 43.8246 491.167 50.3027 491.077 56.7627C491.026 57.1441 490.901 57.5116 490.708 57.8439C490.515 58.1761 490.258 58.4665 489.953 58.6982C489.647 58.9298 489.299 59.0982 488.928 59.1934C488.557 59.2886 488.171 59.3089 487.793 59.2529C487.411 59.2824 487.028 59.2355 486.665 59.1151C486.302 58.9946 485.967 58.803 485.678 58.5513C485.389 58.2995 485.153 57.9927 484.983 57.6485C484.813 57.3043 484.713 56.9296 484.688 56.5462L485.872 37.1841ZM489.551 6.18309C486.866 6.09182 484.213 6.80335 481.93 8.22769C479.647 9.65203 477.834 11.7252 476.723 14.185C475.611 16.6449 475.25 19.3808 475.686 22.047C476.121 24.7131 477.332 27.1896 479.167 29.1634C481.002 31.1371 483.378 32.5194 485.995 33.1354C488.611 33.7514 491.351 33.5734 493.866 32.6241C496.382 31.6747 498.562 29.9965 500.129 27.8018C501.696 25.6071 502.581 22.9944 502.671 20.2941C502.787 16.6751 501.471 13.1574 499.012 10.5122C496.553 7.86698 493.151 6.31018 489.551 6.18309ZM478.28 19.4821C478.363 17.3475 479.071 15.285 480.317 13.5544C481.562 11.8237 483.289 10.5022 485.28 9.75612C487.271 9.01006 489.437 8.87284 491.505 9.36171C493.573 9.85059 495.452 10.9437 496.903 12.5035C498.355 14.0633 499.316 16.02 499.664 18.1274C500.012 20.2347 499.732 22.3985 498.86 24.3464C497.987 26.2943 496.562 27.9392 494.761 29.074C492.961 30.2089 490.868 30.783 488.744 30.724C487.32 30.6845 485.918 30.3615 484.62 29.7736C483.321 29.1857 482.151 28.3446 481.178 27.2991C480.205 26.2535 479.448 25.0242 478.95 23.6825C478.453 22.3407 478.225 20.913 478.28 19.4821ZM489.551 6.18309C486.866 6.09182 484.213 6.80335 481.93 8.22769C479.647 9.65203 477.834 11.7252 476.723 14.185C475.611 16.6449 475.25 19.3808 475.686 22.047C476.121 24.7131 477.332 27.1896 479.167 29.1634C481.002 31.1371 483.378 32.5194 485.995 33.1354C488.611 33.7514 491.351 33.5734 493.866 32.6241C496.382 31.6747 498.562 29.9965 500.129 27.8018C501.696 25.6071 502.581 22.9944 502.671 20.2941C502.787 16.6751 501.471 13.1574 499.012 10.5122C496.553 7.86698 493.151 6.31018 489.551 6.18309ZM478.28 19.4821C478.363 17.3475 479.071 15.285 480.317 13.5544C481.562 11.8237 483.289 10.5022 485.28 9.75612C487.271 9.01006 489.437 8.87284 491.505 9.36171C493.573 9.85059 495.452 10.9437 496.903 12.5035C498.355 14.0633 499.316 16.02 499.664 18.1274C500.012 20.2347 499.732 22.3985 498.86 24.3464C497.987 26.2943 496.562 27.9392 494.761 29.074C492.961 30.2089 490.868 30.783 488.744 30.724C487.32 30.6845 485.918 30.3615 484.62 29.7736C483.321 29.1857 482.151 28.3446 481.178 27.2991C480.205 26.2535 479.448 25.0242 478.95 23.6825C478.453 22.3407 478.225 20.913 478.28 19.4821Z" fill="white"/>
<g style="mix-blend-mode:overlay" opacity="0.2">
<path d="M116.082 753.54H102.876V740.308H92.5195V753.54H79.2766V763.888H92.5195V777.121H102.876V763.888H116.082V753.54Z" fill="white"/>
</g>
<g style="mix-blend-mode:overlay" opacity="0.2">
<path d="M552.556 746.221H540.323V734.034H530.761V746.221H518.528V755.812H530.761V767.999H540.323V755.812H552.556V746.221Z" fill="white"/>
</g>
<g style="mix-blend-mode:overlay" opacity="0.2">
<path d="M249.882 649.663H240.212V640H232.634V649.663H223V657.235H232.634V666.898H240.212V657.235H249.882V649.663Z" fill="white"/>
</g>
<g style="mix-blend-mode:overlay" opacity="0.2">
<path d="M440.659 649.663H430.988V640H423.447V649.663H413.776V657.235H423.447V666.898H430.988V657.235H440.659V649.663Z" fill="white"/>
</g>
<g style="mix-blend-mode:overlay" opacity="0.2">
<path d="M331.974 678.58C324.431 675.955 317.28 672.316 310.72 667.763L298.704 701.295C294.41 713.158 299.354 729.311 311.478 733.746L312.127 733.962C324.179 738.181 338.18 728.986 342.438 717.124L354.562 683.267C346.857 682.718 339.26 681.142 331.974 678.58ZM336.592 696.031C340.201 696.86 342.402 699.637 341.572 702.377C336.986 701.703 332.462 700.666 328.04 699.276C328.875 697.807 330.199 696.678 331.782 696.085C333.365 695.492 335.105 695.473 336.701 696.031H336.592ZM316.674 688.82C318.233 689.429 319.532 690.56 320.348 692.02C321.164 693.48 321.447 695.179 321.148 696.824C316.9 695.031 312.798 692.909 308.88 690.478C310.071 687.846 313.462 687.197 316.782 688.892L316.674 688.82ZM315.122 725.092H314.725C305.957 721.955 301.843 710.922 303.9 701.115C307.509 710.129 312.2 715.537 317.937 717.701C323.674 719.864 330.675 718.422 338.505 713.59C333.85 722.208 323.891 728.013 315.231 725.164L315.122 725.092Z" fill="white"/>
</g>
<g style="mix-blend-mode:overlay" opacity="0.2">
<path d="M623.324 696.1L605.606 683.12L589.838 704.213L607.699 717.337C609.086 718.47 610.689 719.309 612.411 719.804C614.133 720.298 615.938 720.437 617.715 720.213C619.492 719.988 621.205 719.404 622.75 718.497C624.294 717.59 625.638 716.379 626.699 714.937C627.76 713.494 628.516 711.851 628.922 710.108C629.328 708.364 629.374 706.557 629.058 704.794C628.742 703.032 628.071 701.353 627.085 699.858C626.1 698.364 624.82 697.085 623.324 696.1ZM603.838 689.105L605.498 686.87L621.628 698.732C623.724 700.341 625.107 702.707 625.478 705.322C625.849 707.938 625.179 710.594 623.612 712.722C623.612 712.938 623.252 713.119 623.071 713.335C620.401 704.141 612.859 696.425 603.838 689.105ZM584.497 667.472L601.926 680.272L586.121 701.364L568.909 688.709C567.455 687.71 566.216 686.43 565.266 684.944C564.317 683.457 563.676 681.796 563.381 680.057C563.087 678.318 563.146 676.539 563.553 674.823C563.961 673.107 564.709 671.491 565.754 670.07C566.798 668.649 568.118 667.452 569.635 666.551C571.152 665.65 572.834 665.062 574.582 664.823C576.331 664.584 578.109 664.699 579.813 665.16C581.516 665.621 583.109 666.419 584.497 667.508V667.472Z" fill="white"/>
</g>
<g style="mix-blend-mode:overlay" opacity="0.2">
<path d="M62.6908 682.122C61.354 669.17 49.3877 664.853 37.292 664.702C18.2105 664.702 14.3942 677.114 13.9414 681.518C13.7905 682.835 13.1005 688.447 13.1005 688.447C12.9281 689.224 12.2812 692.765 13.5318 693.477C13.8073 693.619 14.0331 693.842 14.1794 694.116C14.3258 694.39 14.3856 694.701 14.3511 695.01L11.1601 704.961C11.0935 705.298 11.1018 705.645 11.1844 705.977C11.2671 706.31 11.422 706.621 11.6382 706.886C11.8544 707.152 12.1266 707.367 12.4352 707.516C12.7439 707.664 13.0815 707.743 13.4239 707.746L16.27 707.962C15.7741 707.962 17.0031 721.864 17.3696 723.44C17.571 724.302 18.0879 725.058 18.8183 725.557C19.5488 726.057 20.4397 726.264 21.3153 726.138L31.104 725.231L30.2631 733.866H58.0983L56.4166 712.085C61.9793 700.126 63.7689 692.398 62.6908 682.122ZM43.9759 711.589H32.8288L34.5322 691.513C33.7042 690.912 33.0301 690.124 32.5654 689.212C32.1006 688.3 31.8584 687.291 31.8586 686.267C31.8808 685.174 32.1793 684.104 32.7261 683.157C33.2729 682.21 34.0502 681.417 34.9857 680.853C35.9211 680.288 36.9842 679.97 38.0757 679.927C39.1672 679.885 40.2516 680.12 41.2278 680.611C42.204 681.102 43.0402 681.832 43.6584 682.734C44.2766 683.635 44.6566 684.679 44.7631 685.768C44.8695 686.856 44.6989 687.954 44.2672 688.958C43.8355 689.963 43.1567 690.842 42.2941 691.513L43.9759 711.589Z" fill="white"/>
</g>
<g style="mix-blend-mode:overlay" opacity="0.2">
<path d="M193.375 722.929C193.375 722.063 193.05 721.27 192.87 720.549C192.689 719.828 192.437 719.215 192.256 718.602C191.895 717.376 191.498 716.33 191.21 715.465C190.596 713.734 190.163 712.761 190.163 712.761C190.163 712.761 190.163 713.806 190.163 715.645C190.163 716.583 190.163 717.7 190.163 718.962C190.163 719.575 190.163 720.296 190.163 720.982C190.163 721.667 190.163 722.316 190.163 723.037C190.02 724.522 189.706 725.986 189.225 727.399C188.728 728.855 187.957 730.201 186.952 731.366C186.485 731.89 185.951 732.351 185.364 732.736C185.07 732.883 184.769 733.015 184.462 733.132H184.029H183.704C183.704 733.132 182.586 733.132 182.622 733.132H180.384L179.915 708.65H175.838L175.369 733.745H173.204C172.879 733.745 172.554 733.745 172.266 733.745H171.796H171.363C171.056 733.628 170.755 733.496 170.461 733.349C169.874 732.964 169.34 732.503 168.874 731.979C167.869 730.814 167.097 729.468 166.6 728.012C166.127 726.61 165.813 725.158 165.662 723.686C165.643 723.337 165.643 722.988 165.662 722.64V721.558C165.662 720.945 165.662 720.188 165.662 719.575C165.662 718.313 165.662 717.196 165.662 716.258C165.662 714.419 165.662 713.374 165.662 713.374C165.662 713.374 165.265 714.347 164.652 716.078C164.327 716.943 163.93 717.989 163.569 719.215C163.569 719.828 163.172 720.405 162.956 721.198C162.731 721.763 162.538 722.341 162.378 722.929C162.088 724.78 162.088 726.666 162.378 728.517C162.711 730.694 163.538 732.766 164.796 734.575C165.52 735.624 166.41 736.55 167.43 737.315C168.505 738.12 169.733 738.696 171.039 739.01C171.729 739.147 172.428 739.231 173.132 739.262H175.224L174.827 759.778H180.709L180.421 739.406H184.029H184.606C187.273 738.823 189.613 737.234 191.137 734.971C192.386 733.145 193.212 731.063 193.555 728.878C193.805 726.897 193.744 724.89 193.375 722.929Z" fill="white"/>
</g>
<g style="mix-blend-mode:overlay" opacity="0.2">
<path d="M395.627 732.575C396.512 733.038 397.239 733.753 397.717 734.63C398.195 735.507 398.403 736.505 398.313 737.5C398.223 738.494 397.84 739.439 397.212 740.216C396.585 740.993 395.741 741.566 394.787 741.864C393.833 742.161 392.812 742.17 391.854 741.888C390.896 741.605 390.042 741.046 389.402 740.279C388.762 739.512 388.364 738.573 388.258 737.581C388.152 736.588 388.343 735.586 388.807 734.702C389.115 734.115 389.536 733.594 390.045 733.169C390.555 732.745 391.143 732.424 391.776 732.227C392.409 732.029 393.075 731.958 393.736 732.018C394.397 732.078 395.039 732.267 395.627 732.575ZM377.08 736.973C378.74 721.037 393.534 715.34 408.473 715.34C432.108 715.34 436.835 730.664 437.34 736.108C437.34 737.695 438.387 744.653 438.387 744.653C438.567 745.591 439.397 749.845 437.845 750.855C437.51 751.032 437.235 751.305 437.055 751.639C436.875 751.973 436.798 752.352 436.835 752.73L440.768 764.989C440.879 765.417 440.889 765.864 440.799 766.297C440.71 766.73 440.521 767.136 440.249 767.484C439.977 767.833 439.629 768.114 439.231 768.306C438.833 768.499 438.396 768.598 437.954 768.595L434.345 768.847C434.358 775.241 433.912 781.627 433.01 787.957C432.759 789.025 432.115 789.959 431.206 790.574C430.296 791.189 429.188 791.439 428.103 791.274L416.014 790.192L417.061 800.72H382.925L384.982 773.859C377.982 759.148 375.709 749.593 377.08 736.973ZM404.179 745.735H408.184L410.133 748.043L409.591 752.045L412.983 753.812L415.942 751.071L419.009 751.648L421.427 754.857L425.035 753.703V749.701L427.345 747.754L431.314 748.295L433.118 744.906L430.376 741.949L430.629 738.957L433.84 736.541L432.685 732.935H428.68L426.731 730.628L427.309 726.661L423.917 724.859L420.958 727.599L417.927 727.346L415.545 724.138L411.937 725.291V729.294L409.628 731.241L405.622 730.664L403.854 734.053L406.597 737.01L406.308 740.002L403.096 742.418L404.179 745.735ZM386.75 744.004L389.024 743.175L390.647 744.004L391.261 746.384H393.606L394.617 744.185L396.385 743.644L398.478 744.87L400.246 743.355L399.416 741.084L400.282 739.461L402.627 738.848L402.844 736.541L400.607 735.495L400.065 733.764L401.292 731.673L399.813 729.87L397.503 730.7L395.88 729.87L395.266 727.491H392.957L391.946 729.69L390.178 730.231L388.085 729.005L386.281 730.519L387.147 732.791L386.281 734.413L383.936 735.026L383.719 737.334L385.92 738.38L386.498 740.11L385.235 742.238L386.75 744.004ZM410.71 735.171C409.883 736.705 409.532 738.45 409.699 740.185C409.866 741.919 410.545 743.565 411.65 744.914C412.755 746.262 414.236 747.252 415.904 747.759C417.573 748.265 419.355 748.265 421.023 747.758C422.692 747.251 424.172 746.261 425.277 744.912C426.381 743.563 427.06 741.917 427.227 740.183C427.394 738.448 427.041 736.703 426.214 735.169C425.388 733.635 424.123 732.38 422.582 731.565C420.526 730.488 418.128 730.263 415.907 730.937C413.685 731.612 411.819 733.132 410.71 735.171Z" fill="white"/>
</g>
<path opacity="0.1" d="M485.872 677.184C485.927 676.506 486.243 675.876 486.752 675.428C487.262 674.98 487.924 674.749 488.6 674.784C489.278 674.793 489.925 675.068 490.405 675.55C490.884 676.032 491.157 676.683 491.167 677.365C491.167 683.825 491.167 690.303 491.077 696.763C491.026 697.144 490.901 697.512 490.708 697.844C490.515 698.176 490.258 698.467 489.953 698.698C489.647 698.93 489.299 699.098 488.928 699.193C488.557 699.289 488.171 699.309 487.793 699.253C487.411 699.282 487.028 699.236 486.665 699.115C486.302 698.995 485.967 698.803 485.678 698.551C485.389 698.3 485.153 697.993 484.983 697.648C484.813 697.304 484.713 696.93 484.688 696.546L485.872 677.184ZM489.551 646.183C486.866 646.092 484.213 646.803 481.93 648.228C479.647 649.652 477.834 651.725 476.723 654.185C475.611 656.645 475.25 659.381 475.686 662.047C476.121 664.713 477.332 667.19 479.167 669.163C481.002 671.137 483.378 672.519 485.995 673.135C488.611 673.751 491.351 673.573 493.866 672.624C496.382 671.675 498.562 669.997 500.129 667.802C501.696 665.607 502.581 662.994 502.671 660.294C502.787 656.675 501.471 653.157 499.012 650.512C496.553 647.867 493.151 646.31 489.551 646.183ZM478.28 659.482C478.363 657.348 479.071 655.285 480.317 653.554C481.562 651.824 483.289 650.502 485.28 649.756C487.271 649.01 489.437 648.873 491.505 649.362C493.573 649.851 495.452 650.944 496.903 652.503C498.355 654.063 499.316 656.02 499.664 658.127C500.012 660.235 499.732 662.399 498.86 664.346C497.987 666.294 496.562 667.939 494.761 669.074C492.961 670.209 490.868 670.783 488.744 670.724C487.32 670.685 485.918 670.361 484.62 669.774C483.321 669.186 482.151 668.345 481.178 667.299C480.205 666.253 479.448 665.024 478.95 663.682C478.453 662.341 478.225 660.913 478.28 659.482ZM489.551 646.183C486.866 646.092 484.213 646.803 481.93 648.228C479.647 649.652 477.834 651.725 476.723 654.185C475.611 656.645 475.25 659.381 475.686 662.047C476.121 664.713 477.332 667.19 479.167 669.163C481.002 671.137 483.378 672.519 485.995 673.135C488.611 673.751 491.351 673.573 493.866 672.624C496.382 671.675 498.562 669.997 500.129 667.802C501.696 665.607 502.581 662.994 502.671 660.294C502.787 656.675 501.471 653.157 499.012 650.512C496.553 647.867 493.151 646.31 489.551 646.183ZM478.28 659.482C478.363 657.348 479.071 655.285 480.317 653.554C481.562 651.824 483.289 650.502 485.28 649.756C487.271 649.01 489.437 648.873 491.505 649.362C493.573 649.851 495.452 650.944 496.903 652.503C498.355 654.063 499.316 656.02 499.664 658.127C500.012 660.235 499.732 662.399 498.86 664.346C497.987 666.294 496.562 667.939 494.761 669.074C492.961 670.209 490.868 670.783 488.744 670.724C487.32 670.685 485.918 670.361 484.62 669.774C483.321 669.186 482.151 668.345 481.178 667.299C480.205 666.253 479.448 665.024 478.95 663.682C478.453 662.341 478.225 660.913 478.28 659.482Z" fill="white"/>
</g>
<defs>
<clipPath id="clip0_84_291">
<rect width="683" height="750" fill="white"/>
</clipPath>
</defs>
</svg>
