<svg width="60" height="60" viewBox="0 0 60 60" fill="none" xmlns="http://www.w3.org/2000/svg">
<rect width="60" height="60" rx="30" fill="#DEAA2B" fill-opacity="0.1"/>
<g clip-path="url(#clip0_17_51)">
<path d="M30 17.5C31.12 17.5 32.205 17.6475 33.2375 17.9237L30.58 20.58C30.3784 20.7824 30.2006 21.0072 30.05 21.25H30C28.2694 21.25 26.5777 21.7632 25.1388 22.7246C23.6998 23.6861 22.5783 25.0527 21.9161 26.6515C21.2538 28.2504 21.0805 30.0097 21.4181 31.707C21.7557 33.4044 22.5891 34.9635 23.8128 36.1872C25.0365 37.4109 26.5956 38.2443 28.293 38.5819C29.9903 38.9195 31.7496 38.7462 33.3485 38.0839C34.9473 37.4217 36.3139 36.3002 37.2754 34.8612C38.2368 33.4223 38.75 31.7306 38.75 30V29.95C38.99 29.8 39.215 29.6237 39.4188 29.4187L42.0762 26.7625C42.3525 27.795 42.5 28.88 42.5 30C42.5 36.9037 36.9037 42.5 30 42.5C23.0963 42.5 17.5 36.9037 17.5 30C17.5 23.0963 23.0963 17.5 30 17.5ZM29.4825 23.7713C29.4825 24.835 29.43 25.9138 29.4875 26.9763L28.8125 27.6513C28.5803 27.8834 28.3961 28.1591 28.2705 28.4625C28.1448 28.7658 28.0801 29.091 28.0801 29.4194C28.0801 29.7477 28.1448 30.0729 28.2705 30.3763C28.3961 30.6797 28.5803 30.9553 28.8125 31.1875C29.0447 31.4197 29.3203 31.6039 29.6237 31.7295C29.9271 31.8552 30.2523 31.9199 30.5806 31.9199C30.909 31.9199 31.2342 31.8552 31.5375 31.7295C31.8409 31.6039 32.1166 31.4197 32.3487 31.1875L33.0237 30.5125C34.0863 30.57 35.1637 30.5175 36.2288 30.5175C36.13 31.7054 35.6936 32.8403 34.971 33.7884C34.2485 34.7364 33.2698 35.4581 32.1506 35.8682C31.0313 36.2783 29.8181 36.3598 28.6541 36.1031C27.4901 35.8463 26.4237 35.2621 25.5808 34.4192C24.7379 33.5763 24.1537 32.5099 23.8969 31.3459C23.6402 30.1819 23.7217 28.9687 24.1318 27.8494C24.5419 26.7302 25.2636 25.7515 26.2116 25.029C27.1597 24.3064 28.2946 23.87 29.4825 23.7713ZM38.13 17.6588C38.3582 17.7533 38.5532 17.9134 38.6904 18.1188C38.8277 18.3241 38.9011 18.5655 38.9013 18.8125V21.1H41.1875C41.4347 21.1001 41.6763 21.1734 41.8818 21.3107C42.0873 21.4481 42.2475 21.6433 42.3421 21.8717C42.4367 22.1001 42.4614 22.3513 42.4132 22.5938C42.365 22.8362 42.246 23.0589 42.0712 23.2337L37.65 27.65C37.4156 27.8844 37.0977 28.0162 36.7663 28.0163H33.75L31.4637 30.3025C31.2292 30.5369 30.9111 30.6685 30.5796 30.6684C30.248 30.6683 29.93 30.5364 29.6956 30.3019C29.4612 30.0673 29.3296 29.7493 29.3297 29.4177C29.3299 29.0861 29.4617 28.7681 29.6962 28.5337L31.9825 26.25V23.2325C31.9824 23.0682 32.0147 22.9054 32.0775 22.7535C32.1403 22.6017 32.2325 22.4637 32.3487 22.3475L36.7675 17.9287C36.9423 17.7538 37.1651 17.6347 37.4076 17.5864C37.6501 17.5381 37.9015 17.5629 38.13 17.6575V17.6588Z" fill="#DEAA2B"/>
</g>
<defs>
<clipPath id="clip0_17_51">
<rect width="30" height="30" fill="white" transform="translate(15 15)"/>
</clipPath>
</defs>
</svg>
