<svg width="100" height="100" viewBox="0 0 100 100" fill="none" xmlns="http://www.w3.org/2000/svg">
<rect width="100" height="100" rx="50" fill="#419EAC" fill-opacity="0.1"/>
<path d="M45.1563 53.5416L46.9792 47.6041L42.1875 43.75H48.125L50 37.9166L51.875 43.75H57.8125L52.9688 47.6041L54.7917 53.5416L50 49.8437L45.1563 53.5416ZM37.5 72.9166V56.8229C36.1806 55.3645 35.1563 53.6979 34.4271 51.8229C33.698 49.9479 33.3334 47.9513 33.3334 45.8333C33.3334 41.1805 34.948 37.2395 38.1771 34.0104C41.4063 30.7812 45.3473 29.1666 50 29.1666C54.6528 29.1666 58.5938 30.7812 61.823 34.0104C65.0521 37.2395 66.6667 41.1805 66.6667 45.8333C66.6667 47.9513 66.3021 49.9479 65.573 51.8229C64.8438 53.6979 63.8195 55.3645 62.5 56.8229V72.9166L50 68.75L37.5 72.9166ZM50 58.3333C53.4723 58.3333 56.4237 57.118 58.8542 54.6875C61.2848 52.2569 62.5 49.3055 62.5 45.8333C62.5 42.3611 61.2848 39.4097 58.8542 36.9791C56.4237 34.5486 53.4723 33.3333 50 33.3333C46.5278 33.3333 43.5764 34.5486 41.1459 36.9791C38.7153 39.4097 37.5 42.3611 37.5 45.8333C37.5 49.3055 38.7153 52.2569 41.1459 54.6875C43.5764 57.118 46.5278 58.3333 50 58.3333Z" fill="#419EAC"/>
</svg>
