<svg width="624" height="630" viewBox="0 0 624 630" fill="none" xmlns="http://www.w3.org/2000/svg">
<path d="M538.877 526.184C522.933 542.607 508.666 552.261 497.743 559.549C391.213 630.627 269.432 610.141 231.78 603.138C171.033 591.841 119.758 583.872 75.7011 544.099C-24.4081 453.722 -19.5394 265.191 56.95 148.404C66.0196 134.568 142.4 21.4238 264.442 5.48312C267.428 5.09258 269.655 4.87164 271.605 4.6641C290.485 2.65562 407.478 -7.87551 502.875 71.9884C516.53 83.4188 538.506 104.039 558.885 135.49C633.405 250.48 633.641 428.578 538.877 526.184Z" fill="white"/>
<path d="M595.347 307.296C601.094 163.73 480.034 42.322 324.951 36.1234C169.869 29.9248 39.4912 141.283 33.7442 284.848C27.9972 428.414 149.057 549.822 304.14 556.021C459.222 562.219 589.6 450.861 595.347 307.296Z" fill="#419EAC"/>
<path opacity="0.26" d="M300.278 486.766C421.97 486.766 520.621 393.643 520.621 278.77C520.621 163.897 421.97 70.7744 300.278 70.7744C178.586 70.7744 79.9354 163.897 79.9354 278.77C79.9354 393.643 178.586 486.766 300.278 486.766Z" fill="white"/>
<g opacity="0.68">
<g style="mix-blend-mode:soft-light">
<path d="M387.707 298.779C387.684 321.723 386.84 344.671 385.054 367.552C383.218 390.428 380.404 413.238 376.33 435.84C372.172 458.413 366.876 480.864 358.87 502.477C354.807 513.243 350.097 523.854 343.706 533.566C340.483 538.387 336.827 543.011 332.316 546.82C330.053 548.758 327.534 550.377 324.829 551.629C322.077 552.897 319.097 553.595 316.068 553.682C313.034 553.753 310.018 553.201 307.206 552.062C304.445 550.927 301.864 549.395 299.546 547.514C294.914 543.821 291.178 539.257 287.899 534.466C281.391 524.823 276.618 514.231 272.516 503.481C268.413 492.732 265.115 481.68 262.243 470.553C259.37 459.426 256.961 448.188 254.873 436.896C250.727 414.305 247.891 391.5 245.968 368.63C244.045 345.76 243.092 322.81 242.949 299.857C242.882 288.384 243.235 276.911 243.655 265.447C244.074 253.984 244.751 242.528 245.613 231.08C247.333 208.212 249.91 185.385 253.707 162.747C255.616 151.431 257.841 140.163 260.512 128.994C263.183 117.824 266.301 106.753 270.155 95.9139C274.048 85.1083 278.586 74.4365 284.895 64.7267C288.071 59.9085 291.723 55.3069 296.285 51.618C298.555 49.7474 301.096 48.232 303.82 47.1234C306.573 46.0162 309.527 45.4963 312.493 45.597C315.449 45.7067 318.357 46.3832 321.057 47.5899C323.728 48.7983 326.229 50.3522 328.494 52.2116C333.032 55.8871 336.784 60.3749 340.108 65.0882C346.727 74.5771 351.721 85.0391 356.045 95.6796C364.585 117.054 370.374 139.38 374.934 161.868C379.417 184.387 382.55 207.159 384.622 230.016C386.644 252.881 387.672 275.802 387.707 298.779ZM383.341 298.779C383.397 275.95 382.504 253.142 380.661 230.357C378.814 207.594 376.011 184.914 371.817 162.475C367.622 140.036 362.137 117.793 353.983 96.5008C349.849 85.9005 345.05 75.4876 338.687 66.0835C335.487 61.4149 331.876 56.9828 327.55 53.381C323.264 49.8103 318.056 47.061 312.463 46.8869C309.683 46.8221 306.92 47.3462 304.357 48.4245C301.784 49.5155 299.391 50.9903 297.261 52.7985C292.944 56.3937 289.445 60.9217 286.398 65.684C280.344 75.2801 275.998 85.9005 272.295 96.6548C268.628 107.443 265.695 118.483 263.189 129.609C260.684 140.736 258.62 151.975 256.885 163.258C249.99 208.42 247.777 254.2 247.951 299.853C247.864 322.682 248.638 345.495 250.274 368.291C251.963 391.053 254.558 413.767 258.457 436.253C260.409 447.494 262.7 458.677 265.432 469.743C268.163 480.81 271.359 491.765 275.281 502.444C279.202 513.122 283.834 523.573 290.061 532.997C293.188 537.668 296.761 542.096 301.067 545.597C305.326 549.081 310.547 551.555 315.985 551.37C321.421 551.223 326.516 548.529 330.687 544.923C334.904 541.301 338.392 536.818 341.47 532.105C347.587 522.604 352.132 512.104 356.029 501.435C363.721 480.011 368.759 457.657 372.656 435.193C376.553 412.729 379.097 389.991 380.806 367.224C382.514 344.457 383.343 321.618 383.329 298.779H383.341Z" fill="white"/>
</g>
<g style="mix-blend-mode:soft-light">
<path d="M503.514 298.779C503.342 328.353 499.525 357.936 491.588 386.452C483.501 414.901 471.307 442.243 454.78 466.809C438.276 491.31 417.26 513.044 392.149 528.808C379.602 536.652 366.05 542.932 351.864 547.193C323.312 555.841 292.839 555.858 264.277 547.242C250.082 543.001 236.515 536.731 223.952 528.895C198.807 513.155 177.742 491.435 161.195 466.931C144.626 442.372 132.399 415.003 124.263 386.539C120.27 372.272 117.279 357.745 115.314 343.062C113.369 328.38 112.363 313.589 112.303 298.779C112.375 283.97 113.393 269.181 115.349 254.501C117.327 239.823 120.33 225.301 124.336 211.042C132.497 182.591 144.749 155.251 161.334 130.719C177.894 106.249 198.952 84.557 224.09 68.8685C236.65 61.0276 250.196 54.8882 264.373 50.6114C292.867 41.9434 323.3 41.959 351.786 50.6561C365.952 54.9486 379.484 61.1022 392.028 68.9555C417.126 84.6686 438.138 106.371 454.651 130.844C471.191 155.365 483.412 182.696 491.523 211.129C499.474 239.63 503.317 269.208 503.514 298.779ZM498.509 298.779C498.484 269.638 494.871 240.462 487.195 212.325C479.497 184.229 467.883 157.09 451.884 132.676C443.908 120.449 434.776 109.016 424.615 98.5315C414.426 88.0964 403.175 78.6453 390.858 70.7966C378.523 62.9859 365.204 56.7038 351.232 52.4548C323.128 43.7234 293.032 43.7398 264.938 52.5016C250.975 56.7641 237.671 63.0685 225.355 70.8815C213.06 78.7435 201.822 88.2035 191.658 98.6386C181.521 109.126 172.412 120.559 164.458 132.783C148.494 157.208 136.926 184.334 129.27 212.41C125.484 226.475 122.662 240.781 120.823 255.229C117.039 284.139 117.051 313.42 120.859 342.328C122.711 356.771 125.547 371.071 129.346 385.128C137.026 413.191 148.619 440.303 164.597 464.669C172.553 476.879 181.662 488.299 191.799 498.773C201.965 509.194 213.185 518.645 225.484 526.474C237.796 534.26 251.096 540.506 265.025 544.773C293.052 553.582 323.108 553.599 351.145 544.823C365.085 540.582 378.391 534.334 390.728 526.568C403.043 518.757 414.286 509.31 424.472 498.895C434.633 488.428 443.766 477.01 451.745 464.8C467.765 440.419 479.392 413.305 487.121 385.222C494.82 357.092 498.46 327.922 498.509 298.779Z" fill="white"/>
</g>
<g style="mix-blend-mode:soft-light">
<path d="M80.668 197.947C100.176 197.666 119.684 197.545 139.195 197.34L197.708 196.996C217.216 196.849 236.724 196.865 256.221 196.82L314.746 196.717L431.797 197.023L490.322 197.4C509.83 197.623 529.338 197.753 548.835 198.056C548.894 198.056 548.951 198.08 548.993 198.122C549.035 198.163 549.058 198.22 549.058 198.279C549.058 198.339 549.035 198.395 548.993 198.437C548.951 198.479 548.894 198.503 548.835 198.503C529.327 198.804 509.819 198.936 490.322 199.159L431.797 199.534L314.746 199.839L256.244 199.732C236.736 199.685 217.227 199.701 197.73 199.556L139.217 199.21C119.707 199.007 100.199 198.886 80.6903 198.603C80.6077 198.596 80.5306 198.559 80.4744 198.498C80.4182 198.437 80.387 198.357 80.387 198.274C80.387 198.191 80.4182 198.111 80.4744 198.05C80.5306 197.989 80.6077 197.951 80.6903 197.945L80.668 197.947Z" fill="white"/>
</g>
<g style="mix-blend-mode:soft-light">
<path d="M148.564 99.9889C162.41 99.7077 176.257 99.585 190.104 99.3819L231.644 99.0382C245.49 98.8909 259.337 98.9066 273.184 98.8619L314.735 98.7593L356.275 98.8753C370.121 98.9445 383.968 98.9066 397.815 99.065L439.355 99.4399C453.201 99.6631 467.048 99.7948 480.906 100.096C480.965 100.096 481.022 100.12 481.064 100.161C481.106 100.203 481.129 100.26 481.129 100.319C481.129 100.378 481.106 100.435 481.064 100.477C481.022 100.519 480.965 100.542 480.906 100.542C467.059 100.846 453.213 100.975 439.355 101.198L397.815 101.576C383.968 101.734 370.121 101.696 356.275 101.765L314.735 101.881L273.184 101.779C259.337 101.734 245.49 101.75 231.644 101.602L190.104 101.259C176.257 101.053 162.41 100.933 148.564 100.652C148.481 100.645 148.404 100.607 148.348 100.546C148.291 100.485 148.26 100.405 148.26 100.323C148.26 100.24 148.291 100.16 148.348 100.099C148.404 100.038 148.481 100 148.564 99.9934V99.9889Z" fill="white"/>
</g>
<g style="mix-blend-mode:soft-light">
<path d="M60.3313 295.889L123.95 295.282L187.558 294.936C208.761 294.791 229.964 294.807 251.167 294.762L314.777 294.66L441.997 294.965L505.607 295.34C526.81 295.563 548.013 295.695 569.216 295.996C569.276 295.996 569.332 296.02 569.374 296.062C569.416 296.104 569.44 296.16 569.44 296.22C569.44 296.279 569.416 296.336 569.374 296.377C569.332 296.419 569.276 296.443 569.216 296.443C548.013 296.746 526.81 296.876 505.607 297.099L441.988 297.478L314.768 297.784L251.158 297.681C229.955 297.637 208.752 297.652 187.549 297.505L123.95 297.155L60.3402 296.548C60.2576 296.541 60.1805 296.503 60.1243 296.442C60.0681 296.381 60.0369 296.301 60.0369 296.218C60.0369 296.136 60.0681 296.056 60.1243 295.995C60.1805 295.934 60.2576 295.896 60.3402 295.889H60.3313Z" fill="white"/>
</g>
<g style="mix-blend-mode:soft-light">
<path d="M80.668 393.838C100.176 393.557 119.684 393.437 139.195 393.231L197.708 392.888C217.216 392.74 236.724 392.756 256.221 392.711L314.746 392.609L431.797 392.914L490.322 393.292C509.83 393.515 529.338 393.644 548.835 393.948C548.894 393.948 548.951 393.971 548.993 394.013C549.035 394.055 549.058 394.112 549.058 394.171C549.058 394.23 549.035 394.287 548.993 394.329C548.951 394.37 548.894 394.394 548.835 394.394C529.327 394.695 509.819 394.827 490.322 395.05L431.797 395.425L314.746 395.731L256.221 395.63C236.713 395.583 217.205 395.599 197.708 395.454L139.195 395.108C119.684 394.905 100.176 394.784 80.668 394.501C80.5792 394.501 80.4939 394.466 80.4311 394.403C80.3683 394.34 80.333 394.255 80.333 394.166C80.333 394.078 80.3683 393.992 80.4311 393.93C80.4939 393.867 80.5792 393.832 80.668 393.832V393.838Z" fill="white"/>
</g>
<g style="mix-blend-mode:soft-light">
<path d="M489.348 493.272H156.939C156.632 493.272 156.339 493.15 156.122 492.934C155.906 492.717 155.784 492.424 155.784 492.118C155.784 491.812 155.906 491.518 156.122 491.302C156.339 491.086 156.632 490.964 156.939 490.964H489.348C489.654 490.964 489.948 491.086 490.164 491.302C490.381 491.518 490.503 491.812 490.503 492.118C490.503 492.424 490.381 492.717 490.164 492.934C489.948 493.15 489.654 493.272 489.348 493.272Z" fill="white"/>
</g>
</g>
<path d="M268.404 314.619C276.667 358.848 282.224 393.173 285.742 416.646C285.864 417.462 286.301 418.199 286.958 418.699C287.616 419.2 288.443 419.423 289.263 419.324C290.338 419.193 291.317 418.645 291.989 417.798C292.662 416.951 292.973 415.873 292.855 414.798C286.467 356.532 272.902 246.628 255.558 186.333C215.782 47.9312 147.224 119.208 106.925 43.5348C105.317 40.5177 100.781 41.1648 100.1 44.5145C93.9161 74.9006 82.8723 165.18 158.888 202.836C250.998 248.467 251.71 225.238 268.404 314.619Z" fill="#8AC0C8"/>
<path opacity="0.47" d="M105.989 54.6752C107.128 59.6763 109.185 64.5971 111.714 69.1184C114.283 73.6341 117.289 77.8872 120.689 81.8165C127.51 89.6451 135.849 96.0387 144.843 101.232C149.309 103.945 154.066 105.996 158.839 108.244L166.182 111.591C168.608 112.752 170.991 114.01 173.398 115.217C182.93 120.232 192.158 125.898 200.736 132.49C209.257 139.164 217.077 146.684 224.077 154.936L229.082 161.314C229.951 162.352 230.645 163.513 231.418 164.624L233.678 167.985L235.934 171.346L237.944 174.856C239.261 177.21 240.655 179.522 241.901 181.908L245.374 189.201C245.923 190.428 246.591 191.604 247.042 192.874L248.51 196.632C249.474 199.141 250.493 201.631 251.359 204.171L253.707 211.874L254.879 215.72L255.804 219.632L257.635 227.454C257.972 228.748 258.191 230.069 258.408 231.39L259.055 235.349L260.344 243.258C260.39 243.5 260.337 243.749 260.199 243.952C260.06 244.155 259.847 244.295 259.605 244.34C259.363 244.386 259.113 244.334 258.91 244.195C258.707 244.057 258.567 243.843 258.522 243.602V243.546L256.878 235.766L256.061 231.881C255.804 230.582 255.542 229.286 255.167 228.016L253.092 220.359L252.052 216.539L250.765 212.792L248.186 205.311C247.257 202.845 246.151 200.448 245.173 198.007L243.657 194.354C243.19 193.122 242.511 191.986 241.95 190.799L238.417 183.749C237.151 181.448 235.737 179.226 234.42 176.963L232.396 173.586L230.134 170.368L227.88 167.15C227.114 166.088 226.415 164.976 225.549 163.988L220.571 157.909C213.669 150.023 206.013 142.829 197.712 136.429C189.286 130.16 180.366 124.582 171.04 119.75C168.684 118.578 166.35 117.355 163.978 116.224L156.78 112.968C151.931 110.66 146.929 108.422 142.303 105.557C132.97 99.9776 124.377 92.9524 117.589 84.3806C115.966 82.1802 114.302 80.02 112.917 77.6589C112.167 76.5213 111.478 75.3443 110.854 74.1329C110.251 72.9077 109.545 71.7428 109.031 70.4753C107.893 68.0037 106.917 65.4609 106.108 62.8631C105.264 60.2594 104.697 57.574 104.417 54.8515C104.383 54.6444 104.433 54.4322 104.555 54.2616C104.678 54.0911 104.863 53.9761 105.07 53.9421C105.278 53.9081 105.49 53.9577 105.661 54.0802C105.831 54.2026 105.946 54.3877 105.981 54.5949L105.989 54.6752Z" fill="white"/>
<g opacity="0.3">
<path d="M540.424 104.874C540.128 104.862 539.837 104.792 539.568 104.667C539.299 104.543 539.058 104.367 538.857 104.149C538.656 103.931 538.5 103.676 538.398 103.398C538.296 103.12 538.25 102.824 538.262 102.529C538.363 100.112 538.358 97.6546 538.249 95.2266C538.223 94.6369 538.43 94.0606 538.824 93.6213C539.219 93.182 539.77 92.9146 540.359 92.8767H540.404C540.7 92.8635 540.996 92.9088 541.274 93.0099C541.553 93.111 541.809 93.266 542.028 93.466C542.246 93.666 542.423 93.9071 542.549 94.1755C542.674 94.4439 542.745 94.7343 542.758 95.0302C542.872 97.5854 542.876 100.163 542.771 102.716C542.749 103.272 542.521 103.801 542.132 104.199C541.742 104.598 541.219 104.838 540.663 104.874C540.583 104.878 540.504 104.878 540.424 104.874ZM536.913 83.4391C536.467 81.0467 535.931 78.6522 535.294 76.3179C535.211 76.0307 535.187 75.73 535.221 75.4332C535.256 75.1364 535.349 74.8495 535.496 74.589C535.642 74.3286 535.839 74.0999 536.075 73.9163C536.311 73.7326 536.581 73.5976 536.87 73.5192C537.158 73.4408 537.46 73.4205 537.756 73.4595C538.053 73.4985 538.338 73.596 538.597 73.7464C538.855 73.8968 539.081 74.097 539.261 74.3354C539.442 74.5738 539.573 74.8456 539.647 75.1351C540.317 77.5899 540.891 80.1094 541.351 82.6245C541.404 82.9158 541.4 83.2148 541.338 83.5044C541.276 83.794 541.157 84.0686 540.989 84.3123C540.82 84.556 540.605 84.7642 540.356 84.9249C540.107 85.0856 539.829 85.1957 539.537 85.2489C539.45 85.2646 539.361 85.2758 539.272 85.2824C538.721 85.3165 538.177 85.1478 537.742 84.8081C537.308 84.4684 537.013 83.9814 536.913 83.4391ZM531.384 65.1239C530.428 62.8923 529.374 60.683 528.217 58.5473C527.934 58.0202 527.873 57.4026 528.046 56.8303C528.219 56.258 528.613 55.7778 529.14 55.4955C529.668 55.2132 530.286 55.1518 530.859 55.3249C531.431 55.4979 531.912 55.8912 532.194 56.4183C533.4 58.67 534.524 60.9999 535.531 63.3364C535.767 63.886 535.774 64.5066 535.552 65.0619C535.33 65.6171 534.897 66.0616 534.347 66.2978C534.111 66.3998 533.858 66.4602 533.601 66.4763C533.137 66.5062 532.675 66.3924 532.278 66.1504C531.882 65.9084 531.569 65.5499 531.384 65.1239ZM521.896 48.5049C520.463 46.5455 518.928 44.6263 517.334 42.7986C516.957 42.3454 516.773 41.763 516.82 41.1758C516.868 40.5886 517.143 40.0433 517.587 39.6563C518.032 39.2693 518.61 39.0714 519.199 39.1047C519.787 39.1381 520.339 39.4002 520.737 39.8349C522.414 41.7609 524.029 43.7827 525.539 45.8448C525.892 46.3274 526.039 46.9305 525.947 47.5212C525.855 48.1119 525.532 48.642 525.049 48.9947C524.566 49.3475 523.962 49.4941 523.371 49.4022C522.78 49.3103 522.249 48.9876 521.896 48.5049ZM508.943 34.4121C507.114 32.8231 505.191 31.2878 503.23 29.8573C502.991 29.6826 502.789 29.4626 502.634 29.2097C502.48 28.9569 502.378 28.6762 502.332 28.3837C502.287 28.0912 502.299 27.7926 502.369 27.505C502.439 27.2174 502.565 26.9463 502.74 26.7073C502.915 26.4683 503.135 26.2661 503.388 26.1121C503.641 25.9581 503.922 25.8555 504.215 25.81C504.507 25.7645 504.806 25.7771 505.094 25.847C505.382 25.9169 505.653 26.0428 505.892 26.2175C507.958 27.726 509.979 29.3418 511.904 31.011C512.356 31.4034 512.633 31.9589 512.674 32.5553C512.716 33.1517 512.518 33.7401 512.126 34.1911C511.733 34.6421 511.177 34.9188 510.58 34.9602C509.983 35.0016 509.394 34.8045 508.943 34.4121ZM493.187 23.535C491.05 22.388 488.836 21.319 486.607 20.3572C486.335 20.2399 486.089 20.0703 485.883 19.858C485.676 19.6457 485.514 19.3948 485.404 19.1197C485.183 18.5641 485.192 17.9436 485.429 17.3946C485.666 16.8457 486.112 16.4133 486.668 16.1925C487.224 15.9717 487.845 15.9807 488.394 16.2175C490.739 17.2306 493.069 18.3576 495.317 19.5649C495.585 19.7015 495.822 19.89 496.015 20.1193C496.208 20.3486 496.354 20.6141 496.443 20.9003C496.532 21.1865 496.564 21.4876 496.535 21.786C496.506 22.0844 496.419 22.3741 496.277 22.6382C496.135 22.9023 495.941 23.1354 495.708 23.3239C495.475 23.5124 495.206 23.6525 494.918 23.736C494.63 23.8195 494.328 23.8447 494.03 23.8102C493.732 23.7757 493.444 23.6822 493.182 23.535H493.187ZM409.419 22.4861C409.279 22.2249 409.193 21.9387 409.164 21.644C409.135 21.3493 409.165 21.0518 409.251 20.7684C409.337 20.4851 409.479 20.2216 409.667 19.9929C409.855 19.7642 410.087 19.5748 410.348 19.4355C412.599 18.2371 414.935 17.119 417.287 16.1148C417.837 15.8798 418.458 15.8729 419.014 16.0956C419.569 16.3182 420.013 16.7522 420.248 17.302C420.484 17.8519 420.491 18.4726 420.268 19.0275C420.045 19.5825 419.611 20.0262 419.06 20.2612C416.827 21.2141 414.609 22.2697 412.47 23.4145C412.208 23.5539 411.922 23.6405 411.627 23.6693C411.333 23.6981 411.035 23.6685 410.752 23.5823C410.468 23.4961 410.205 23.3549 409.976 23.1668C409.748 22.9787 409.558 22.7474 409.419 22.4861ZM475.418 16.425C473.08 15.7801 470.686 15.2311 468.301 14.7914C468.009 14.7377 467.732 14.6271 467.483 14.466C467.234 14.3048 467.02 14.0964 466.852 13.8525C466.684 13.6086 466.566 13.334 466.504 13.0444C466.442 12.7548 466.438 12.4559 466.492 12.1648C466.546 11.8736 466.656 11.5959 466.818 11.3475C466.979 11.0991 467.187 10.8848 467.432 10.717C467.676 10.5491 467.95 10.431 468.24 10.3692C468.53 10.3075 468.829 10.3034 469.12 10.3572C471.631 10.8213 474.154 11.3993 476.616 12.0778C477.13 12.2184 477.578 12.5367 477.88 12.9762C478.182 13.4156 478.318 13.9478 478.265 14.4781C478.211 15.0084 477.971 15.5026 477.587 15.873C477.204 16.2433 476.701 16.4658 476.169 16.5009C475.916 16.5174 475.663 16.4917 475.418 16.425ZM427.502 14.787C427.347 14.2096 427.427 13.5941 427.725 13.0756C428.023 12.5572 428.515 12.1782 429.092 12.022C431.549 11.3525 434.082 10.7879 436.596 10.3326C437.185 10.2258 437.792 10.357 438.284 10.6975C438.776 11.038 439.113 11.5597 439.219 12.1481C439.326 12.7364 439.195 13.343 438.854 13.8346C438.514 14.3261 437.991 14.6623 437.403 14.7691C435.011 15.2021 432.61 15.7421 430.269 16.3759C430.123 16.4144 429.974 16.439 429.823 16.4495C429.304 16.4811 428.79 16.3331 428.367 16.0303C427.944 15.7274 427.639 15.2884 427.502 14.787ZM456.511 13.448C454.09 13.3431 451.631 13.3431 449.206 13.448C448.612 13.4735 448.033 13.264 447.593 12.8649C447.153 12.4659 446.888 11.9095 446.856 11.3166C446.825 10.7238 447.028 10.1423 447.423 9.69861C447.818 9.25489 448.372 8.98471 448.965 8.94676H449.014C451.569 8.83741 454.15 8.83741 456.705 8.94676C457.282 8.97161 457.828 9.21654 458.229 9.63109C458.631 10.0456 458.858 10.5983 458.864 11.1752C458.87 11.7521 458.654 12.3093 458.261 12.7321C457.869 13.1549 457.328 13.4111 456.752 13.448C456.672 13.4562 456.592 13.4599 456.511 13.4591V13.448Z" fill="#8AC0C8"/>
<path d="M398.301 32.3589C398.76 32.3298 399.199 32.1608 399.559 31.8746C400.47 31.1515 401.413 30.4352 402.357 29.7456C402.81 29.3824 403.105 28.8587 403.181 28.2835C403.258 27.7083 403.109 27.1259 402.766 26.6576C402.423 26.1892 401.913 25.8709 401.342 25.769C400.77 25.667 400.181 25.7893 399.697 26.1103C398.703 26.8355 397.712 27.5876 396.754 28.3419C396.378 28.6409 396.107 29.0519 395.981 29.5151C395.855 29.9784 395.88 30.4697 396.053 30.9177C396.225 31.3658 396.537 31.7471 396.941 32.0062C397.345 32.2654 397.822 32.3889 398.301 32.3589Z" fill="#8AC0C8"/>
</g>
<g opacity="0.3">
<path d="M365.411 92.7204C365.946 92.6857 366.452 92.4619 366.837 92.089C367.222 91.7161 367.461 91.2185 367.513 90.6851C367.624 89.5291 367.761 88.353 367.919 87.1948C367.971 86.8967 367.962 86.5914 367.892 86.2969C367.823 86.0024 367.696 85.7248 367.517 85.4807C367.338 85.2365 367.112 85.0309 366.852 84.8759C366.592 84.7209 366.304 84.6198 366.004 84.5786C365.704 84.5374 365.399 84.557 365.106 84.6361C364.814 84.7152 364.541 84.8522 364.303 85.0391C364.065 85.226 363.867 85.4588 363.721 85.7237C363.575 85.9886 363.483 86.2802 363.453 86.5811C363.285 87.7996 363.14 89.0359 363.024 90.2544C362.968 90.8488 363.15 91.4411 363.531 91.9014C363.911 92.3616 364.459 92.6521 365.054 92.7092C365.172 92.7217 365.292 92.7254 365.411 92.7204Z" fill="#8AC0C8"/>
<path d="M453.909 188.958C453.311 188.966 452.734 188.737 452.305 188.321C451.876 187.904 451.63 187.334 451.621 186.736C451.613 186.138 451.842 185.562 452.259 185.133C452.676 184.704 453.246 184.458 453.844 184.45C456.216 184.416 458.624 184.28 461.027 184.046C461.622 183.987 462.217 184.166 462.68 184.545C463.143 184.924 463.437 185.472 463.496 186.067C463.555 186.662 463.375 187.256 462.996 187.719C462.617 188.181 462.069 188.475 461.474 188.534C460.431 188.636 459.389 188.72 458.347 188.784C456.871 188.88 455.377 188.938 453.909 188.958ZM470.883 184.843C470.814 184.555 470.803 184.256 470.85 183.964C470.898 183.672 471.002 183.392 471.158 183.14C471.313 182.888 471.517 182.669 471.757 182.496C471.997 182.323 472.269 182.199 472.558 182.131C474.885 181.58 477.214 180.924 479.481 180.183C479.764 180.083 480.065 180.04 480.365 180.058C480.665 180.075 480.959 180.153 481.228 180.285C481.498 180.418 481.739 180.603 481.936 180.83C482.133 181.057 482.283 181.32 482.376 181.606C482.47 181.891 482.506 182.193 482.481 182.492C482.457 182.791 482.372 183.083 482.233 183.349C482.095 183.616 481.904 183.852 481.672 184.043C481.441 184.235 481.173 184.379 480.886 184.466C478.498 185.247 476.046 185.938 473.598 186.516C473.31 186.586 473.011 186.598 472.718 186.551C472.425 186.505 472.144 186.401 471.891 186.245C471.639 186.089 471.42 185.885 471.247 185.645C471.073 185.404 470.95 185.131 470.883 184.843ZM441.639 188.293C439.147 187.985 436.637 187.568 434.173 187.05C433.588 186.927 433.075 186.577 432.748 186.076C432.421 185.576 432.306 184.966 432.429 184.381C432.552 183.796 432.902 183.283 433.403 182.956C433.904 182.63 434.515 182.515 435.1 182.638C437.441 183.131 439.826 183.53 442.191 183.818C442.752 183.927 443.25 184.245 443.586 184.707C443.922 185.169 444.069 185.741 443.999 186.307C443.929 186.874 443.647 187.393 443.209 187.759C442.771 188.126 442.21 188.312 441.639 188.282V188.293ZM489.265 178.811C489.135 178.545 489.059 178.256 489.04 177.96C489.022 177.665 489.062 177.369 489.158 177.089C489.255 176.809 489.405 176.55 489.601 176.328C489.797 176.107 490.035 175.926 490.301 175.796C492.448 174.749 494.576 173.597 496.624 172.374C496.879 172.205 497.165 172.089 497.466 172.034C497.767 171.978 498.076 171.985 498.374 172.052C498.672 172.12 498.954 172.248 499.201 172.428C499.449 172.607 499.657 172.836 499.813 173.098C499.97 173.361 500.071 173.653 500.111 173.956C500.151 174.259 500.129 174.567 500.046 174.862C499.963 175.156 499.821 175.43 499.628 175.668C499.436 175.905 499.197 176.102 498.926 176.244C496.769 177.532 494.529 178.746 492.271 179.848C492.006 179.977 491.719 180.052 491.425 180.071C490.98 180.099 490.536 179.994 490.151 179.77C489.766 179.545 489.456 179.211 489.261 178.811H489.265ZM422.352 183.705C419.992 182.857 417.633 181.899 415.344 180.853C415.072 180.731 414.828 180.557 414.624 180.34C414.42 180.123 414.261 179.869 414.156 179.59C414.051 179.312 414.002 179.016 414.012 178.718C414.022 178.421 414.091 178.129 414.215 177.858C414.339 177.588 414.515 177.345 414.733 177.142C414.952 176.94 415.208 176.783 415.487 176.681C415.767 176.578 416.064 176.531 416.361 176.544C416.658 176.556 416.95 176.627 417.22 176.753C419.395 177.746 421.635 178.657 423.878 179.46C424.165 179.553 424.431 179.703 424.659 179.901C424.887 180.099 425.073 180.34 425.206 180.611C425.339 180.883 425.416 181.178 425.433 181.479C425.45 181.78 425.406 182.082 425.303 182.366C425.201 182.65 425.043 182.911 424.838 183.133C424.633 183.354 424.386 183.533 424.11 183.657C423.835 183.782 423.538 183.85 423.236 183.857C422.934 183.864 422.633 183.811 422.352 183.7V183.705ZM404.541 175.001C402.417 173.662 400.325 172.207 398.324 170.692C398.088 170.513 397.889 170.29 397.739 170.034C397.59 169.779 397.492 169.496 397.452 169.203C397.411 168.91 397.429 168.612 397.504 168.325C397.579 168.039 397.709 167.77 397.888 167.534C398.067 167.298 398.291 167.1 398.546 166.95C398.802 166.801 399.085 166.703 399.378 166.662C399.672 166.622 399.97 166.64 400.257 166.715C400.543 166.79 400.812 166.92 401.048 167.099C402.951 168.538 404.939 169.915 406.956 171.194C407.358 171.449 407.669 171.824 407.845 172.267C408.02 172.709 408.051 173.196 407.933 173.657C407.815 174.118 407.553 174.53 407.186 174.834C406.819 175.137 406.366 175.317 405.89 175.347C405.414 175.379 404.939 175.257 404.537 174.999L404.541 175.001ZM389.047 162.624C387.26 160.839 385.54 158.976 383.91 157.063C383.717 156.838 383.57 156.576 383.478 156.294C383.387 156.011 383.352 155.714 383.376 155.418C383.399 155.122 383.481 154.834 383.617 154.569C383.753 154.305 383.939 154.071 384.166 153.879C384.392 153.687 384.655 153.541 384.938 153.451C385.221 153.361 385.519 153.327 385.815 153.352C386.111 153.377 386.399 153.461 386.663 153.597C386.926 153.734 387.16 153.921 387.351 154.149C388.895 155.967 390.534 157.744 392.227 159.433C392.65 159.855 392.889 160.429 392.889 161.026C392.89 161.624 392.653 162.198 392.23 162.621C391.808 163.044 391.234 163.282 390.636 163.283C390.037 163.284 389.463 163.047 389.04 162.624H389.047ZM376.627 147.166C375.287 145.044 374.003 142.839 372.83 140.614C372.693 140.351 372.609 140.064 372.583 139.77C372.557 139.475 372.589 139.177 372.678 138.895C372.767 138.613 372.91 138.35 373.1 138.123C373.29 137.896 373.524 137.709 373.786 137.572C374.049 137.435 374.336 137.351 374.631 137.325C374.926 137.299 375.223 137.331 375.506 137.42C375.789 137.508 376.051 137.652 376.278 137.842C376.506 138.032 376.693 138.265 376.83 138.527C377.933 140.638 379.144 142.732 380.426 144.749C380.701 145.251 380.775 145.838 380.633 146.393C380.491 146.947 380.143 147.426 379.66 147.734C379.177 148.041 378.595 148.154 378.032 148.048C377.469 147.943 376.968 147.627 376.629 147.166H376.627ZM367.906 129.348C367.059 126.987 366.302 124.559 365.657 122.129C365.503 121.551 365.586 120.936 365.887 120.419C366.187 119.902 366.681 119.525 367.259 119.372C367.838 119.219 368.453 119.301 368.971 119.601C369.488 119.902 369.865 120.395 370.019 120.973C370.633 123.281 371.359 125.588 372.154 127.831C372.269 128.113 372.326 128.415 372.321 128.719C372.316 129.024 372.25 129.324 372.126 129.602C372.002 129.88 371.822 130.13 371.599 130.337C371.376 130.544 371.112 130.703 370.826 130.806C370.539 130.908 370.234 130.952 369.93 130.933C369.626 130.915 369.329 130.836 369.056 130.699C368.784 130.563 368.542 130.373 368.345 130.141C368.148 129.909 368 129.639 367.91 129.348H367.906ZM363.316 110.074C363.093 108.239 362.912 106.376 362.794 104.535C362.75 103.867 362.716 103.202 362.691 102.54C362.676 102.243 362.72 101.947 362.82 101.668C362.921 101.388 363.077 101.132 363.278 100.914C363.479 100.695 363.722 100.519 363.992 100.396C364.262 100.272 364.554 100.204 364.851 100.194C365.147 100.182 365.442 100.227 365.72 100.329C365.999 100.431 366.254 100.586 366.472 100.787C366.69 100.987 366.866 101.229 366.991 101.497C367.115 101.766 367.186 102.056 367.198 102.352C367.225 102.984 367.258 103.617 367.298 104.249C367.408 106.001 367.575 107.771 367.794 109.516C367.868 110.109 367.703 110.707 367.336 111.178C366.969 111.65 366.429 111.957 365.835 112.031C365.788 112.031 365.741 112.035 365.695 112.044C365.122 112.08 364.557 111.896 364.115 111.53C363.673 111.164 363.387 110.643 363.316 110.074Z" fill="#8AC0C8"/>
<path d="M507.811 169.688C508.273 169.658 508.716 169.487 509.077 169.197C510.031 168.433 510.984 167.635 511.916 166.824C512.367 166.431 512.643 165.876 512.684 165.279C512.725 164.682 512.527 164.094 512.133 163.643C511.74 163.193 511.184 162.916 510.587 162.876C509.99 162.835 509.401 163.033 508.95 163.426C508.056 164.196 507.163 164.954 506.254 165.68C505.875 165.979 505.602 166.391 505.475 166.857C505.349 167.322 505.375 167.816 505.55 168.266C505.725 168.715 506.039 169.097 506.448 169.355C506.856 169.612 507.336 169.732 507.818 169.697L507.811 169.688Z" fill="#8AC0C8"/>
</g>
<path d="M512.072 131.274C512.199 131.096 512.268 130.882 512.268 130.663C512.268 130.444 512.199 130.23 512.072 130.051L504.639 119.598C506.958 113.984 508.345 108.029 508.746 101.968L520.023 95.8647C520.215 95.7604 520.371 95.5986 520.467 95.4018C520.564 95.205 520.597 94.983 520.561 94.7668L518.042 79.5916C518.005 79.3755 517.903 79.176 517.748 79.0208C517.593 78.8657 517.393 78.7625 517.177 78.7257L504.532 76.5855C502.196 70.9798 498.961 65.7923 494.953 61.2274L498.609 48.9355C498.672 48.7254 498.668 48.501 498.596 48.2936C498.525 48.0863 498.391 47.9065 498.212 47.7795L485.705 38.8284C485.526 38.7011 485.313 38.6327 485.093 38.6327C484.874 38.6327 484.66 38.7011 484.481 38.8284L474.018 46.2553C468.399 43.9379 462.44 42.5517 456.375 42.1513L450.267 30.8837C450.162 30.691 450 30.5356 449.803 30.4392C449.606 30.3428 449.384 30.3102 449.168 30.3459L433.981 32.8632C433.764 32.8985 433.564 33.0008 433.409 33.1557C433.253 33.3107 433.15 33.5104 433.115 33.7268L430.973 46.3624C425.363 48.697 420.172 51.9299 415.603 55.9339L403.302 52.2807C403.091 52.218 402.866 52.2225 402.659 52.2937C402.451 52.365 402.27 52.4993 402.143 52.6779L393.187 65.1863C393.059 65.3645 392.99 65.5784 392.99 65.7978C392.99 66.0172 393.059 66.231 393.187 66.4092L400.62 76.8645C398.301 82.4791 396.914 88.4338 396.512 94.4945L385.236 100.598C385.043 100.702 384.888 100.864 384.791 101.061C384.695 101.258 384.662 101.48 384.698 101.696L387.215 116.871C387.251 117.087 387.354 117.287 387.509 117.442C387.664 117.598 387.863 117.701 388.079 117.737L400.725 119.877C403.062 125.483 406.298 130.67 410.306 135.235L406.647 147.527C406.585 147.738 406.59 147.962 406.661 148.17C406.733 148.377 406.867 148.557 407.045 148.686L419.565 157.637C419.744 157.764 419.958 157.832 420.177 157.832C420.396 157.832 420.61 157.764 420.789 157.637L431.25 150.21C436.868 152.528 442.828 153.914 448.893 154.314L455.001 165.584C455.106 165.776 455.268 165.931 455.465 166.027C455.662 166.123 455.884 166.155 456.1 166.119L471.287 163.604C471.503 163.567 471.702 163.465 471.858 163.31C472.013 163.155 472.116 162.956 472.153 162.74L474.295 150.105C479.905 147.77 485.097 144.536 489.665 140.531L501.966 144.187C502.176 144.249 502.401 144.244 502.608 144.173C502.815 144.102 502.995 143.968 503.123 143.789L512.072 131.274Z" fill="#8AC0C8"/>
<path d="M451.357 113.64C447.367 113.307 443.662 111.441 441.021 108.435C438.38 105.428 437.008 101.516 437.195 97.5197C437.381 93.5236 439.111 89.7555 442.021 87.0077C444.93 84.2599 448.793 82.7466 452.796 82.7859C456.799 82.8252 460.631 84.4142 463.486 87.2186C466.341 90.0231 467.996 93.8244 468.104 97.8234C468.212 101.822 466.764 105.707 464.064 108.661C461.364 111.615 457.623 113.408 453.628 113.662C452.871 113.709 452.112 113.702 451.357 113.64ZM444.974 89.1832C442.879 90.9556 441.464 93.3988 440.97 96.0966C440.477 98.7944 440.934 101.58 442.265 103.978C443.596 106.377 445.718 108.24 448.27 109.251C450.821 110.261 453.645 110.356 456.258 109.52C458.872 108.683 461.115 106.967 462.605 104.663C464.094 102.36 464.738 99.6113 464.427 96.8864C464.116 94.1615 462.869 91.6286 460.899 89.7194C458.928 87.8102 456.356 86.6427 453.621 86.416C453.036 86.3684 452.448 86.3632 451.861 86.4004C449.321 86.5579 446.9 87.5344 444.963 89.1832H444.974Z" fill="#419EAC"/>
<path d="M454.718 135.967C456.019 135.886 457.315 135.737 458.601 135.521C459.009 135.454 459.416 135.38 459.821 135.298C461.816 134.902 463.777 134.347 465.683 133.638L465.761 133.611L465.985 133.526L466.411 133.361C466.589 133.292 466.739 133.168 466.841 133.007C466.943 132.847 466.992 132.658 466.979 132.468C466.973 132.373 466.953 132.28 466.918 132.191C466.875 132.081 466.811 131.979 466.728 131.894C466.646 131.808 466.547 131.74 466.438 131.693C466.329 131.646 466.211 131.621 466.093 131.62C465.974 131.619 465.856 131.642 465.746 131.687C458.851 134.41 451.287 134.957 444.072 133.255C436.856 131.553 430.336 127.683 425.387 122.167C420.784 117.053 417.743 110.728 416.626 103.941C416.422 102.708 416.28 101.474 416.202 100.239C415.656 91.2969 418.446 82.4704 424.033 75.4639C429.619 68.4573 437.606 63.7677 446.45 62.3008C466.172 59.0337 484.863 72.4034 488.133 92.1022C488.334 93.3162 488.473 94.5347 488.55 95.7576C488.889 101.05 488.055 106.352 486.109 111.285C486.065 111.396 486.044 111.513 486.045 111.632C486.047 111.751 486.072 111.868 486.118 111.977C486.165 112.086 486.233 112.184 486.318 112.267C486.403 112.35 486.504 112.415 486.614 112.459C486.724 112.503 486.842 112.525 486.961 112.523C487.08 112.522 487.197 112.497 487.306 112.45C487.415 112.403 487.514 112.335 487.597 112.251C487.68 112.166 487.745 112.065 487.789 111.955C490.304 105.557 491.038 98.5978 489.913 91.8165C486.48 71.1336 466.845 57.101 446.155 60.5289C436.869 62.0696 428.483 66.9946 422.618 74.3526C416.754 81.7106 413.826 90.9793 414.401 100.368C414.484 101.67 414.633 102.967 414.848 104.253C416.388 113.535 421.317 121.916 428.682 127.776C436.047 133.637 445.325 136.561 454.722 135.983L454.718 135.967Z" fill="#419EAC"/>
<g opacity="0.3">
<path d="M621.262 159.286C621.562 159.267 621.848 159.151 622.077 158.956C622.306 158.761 622.465 158.497 622.53 158.203C622.792 157.05 623.022 155.874 623.212 154.706C623.248 154.523 623.248 154.334 623.21 154.15C623.172 153.967 623.098 153.793 622.991 153.639C622.884 153.486 622.748 153.355 622.589 153.255C622.431 153.155 622.254 153.088 622.069 153.058C621.884 153.028 621.695 153.035 621.513 153.08C621.331 153.125 621.16 153.206 621.01 153.318C620.86 153.43 620.734 153.571 620.64 153.733C620.546 153.895 620.485 154.074 620.462 154.26C620.279 155.376 620.06 156.492 619.812 157.596C619.732 157.957 619.797 158.334 619.994 158.646C620.191 158.958 620.504 159.179 620.864 159.261C620.995 159.288 621.129 159.296 621.262 159.286Z" fill="#8AC0C8"/>
<path d="M622.51 148.67C622.141 148.655 621.792 148.495 621.541 148.224C621.29 147.953 621.156 147.593 621.17 147.224C621.244 145.276 621.219 143.326 621.097 141.381C621.072 140.973 621.041 140.565 621.005 140.154C620.974 139.786 621.091 139.421 621.329 139.139C621.567 138.857 621.908 138.681 622.276 138.65C622.641 138.631 623.001 138.752 623.28 138.987C623.56 139.223 623.74 139.556 623.783 139.92C623.819 140.35 623.851 140.778 623.879 141.205C624.007 143.245 624.033 145.289 623.955 147.331C623.942 147.676 623.802 148.003 623.562 148.25C623.321 148.498 622.997 148.647 622.653 148.67H622.51ZM619.973 133.158C619.49 130.849 618.866 128.572 618.104 126.34C618.033 126.164 617.998 125.976 618.003 125.786C618.007 125.597 618.05 125.41 618.129 125.238C618.208 125.066 618.322 124.911 618.463 124.784C618.604 124.657 618.769 124.56 618.949 124.5C619.128 124.439 619.319 124.415 619.508 124.43C619.697 124.445 619.881 124.499 620.048 124.588C620.216 124.677 620.364 124.799 620.483 124.946C620.601 125.094 620.689 125.265 620.739 125.448C621.539 127.786 622.194 130.171 622.702 132.589C622.777 132.95 622.706 133.327 622.504 133.636C622.301 133.945 621.985 134.161 621.624 134.238C621.558 134.251 621.492 134.26 621.425 134.265C621.09 134.285 620.76 134.184 620.493 133.981C620.227 133.778 620.042 133.486 619.973 133.158ZM615.402 119.804C614.367 117.683 613.201 115.629 611.911 113.653C611.716 113.344 611.65 112.97 611.728 112.613C611.806 112.256 612.021 111.944 612.328 111.744C612.634 111.544 613.007 111.472 613.366 111.545C613.724 111.618 614.04 111.828 614.245 112.131C615.597 114.205 616.82 116.36 617.907 118.583C618.068 118.915 618.091 119.297 617.971 119.646C617.85 119.995 617.596 120.282 617.264 120.444C617.102 120.524 616.925 120.571 616.744 120.583C616.469 120.599 616.196 120.534 615.958 120.395C615.72 120.257 615.529 120.051 615.408 119.804H615.402ZM607.685 107.976C606.161 106.175 604.528 104.469 602.794 102.868C602.523 102.617 602.362 102.269 602.347 101.9C602.333 101.531 602.465 101.171 602.716 100.899C602.967 100.628 603.316 100.467 603.685 100.453C604.054 100.438 604.415 100.571 604.686 100.821C606.506 102.5 608.222 104.289 609.823 106.177C609.941 106.317 610.031 106.478 610.086 106.652C610.142 106.827 610.163 107.01 610.147 107.192C610.132 107.375 610.081 107.552 609.997 107.714C609.913 107.877 609.797 108.021 609.657 108.139C609.43 108.332 609.147 108.447 608.849 108.465C608.631 108.48 608.413 108.445 608.212 108.36C608.01 108.276 607.832 108.146 607.69 107.98L607.685 107.976ZM597.314 98.3933C595.398 97.0167 593.399 95.7587 591.328 94.6263C591.167 94.5383 591.025 94.4195 590.909 94.2766C590.794 94.1337 590.708 93.9695 590.656 93.7934C590.604 93.6172 590.588 93.4326 590.607 93.25C590.627 93.0675 590.682 92.8905 590.77 92.7294C590.858 92.5682 590.977 92.4259 591.12 92.3106C591.263 92.1953 591.427 92.1093 591.604 92.0575C591.78 92.0057 591.965 91.9891 592.147 92.0087C592.33 92.0282 592.507 92.0835 592.668 92.1714C594.837 93.3606 596.932 94.6797 598.942 96.1215C599.242 96.3372 599.444 96.6632 599.503 97.0277C599.563 97.3922 599.475 97.7654 599.259 98.0652C599.043 98.365 598.717 98.5668 598.352 98.6262C597.987 98.6857 597.614 98.5979 597.314 98.3821V98.3933ZM584.93 91.618C582.738 90.7499 580.494 90.0173 578.212 89.4243C578.033 89.3804 577.864 89.3014 577.716 89.1918C577.567 89.0822 577.442 88.9442 577.347 88.7859C577.253 88.6276 577.191 88.452 577.164 88.2695C577.138 88.0869 577.149 87.901 577.195 87.7225C577.241 87.544 577.322 87.3764 577.434 87.2295C577.546 87.0827 577.685 86.9594 577.845 86.867C578.005 86.7745 578.181 86.7146 578.364 86.6908C578.547 86.6671 578.733 86.6799 578.911 86.7285C581.307 87.3542 583.663 88.1271 585.964 89.0427C586.255 89.1615 586.497 89.3751 586.651 89.6489C586.806 89.9226 586.863 90.2404 586.813 90.5506C586.764 90.8608 586.611 91.1452 586.379 91.3576C586.148 91.57 585.851 91.698 585.537 91.7207C585.332 91.7332 585.127 91.6996 584.937 91.6225L584.93 91.618ZM571.287 88.0808C568.946 87.7755 566.589 87.6153 564.229 87.601C563.86 87.5987 563.506 87.4497 563.246 87.1869C562.987 86.924 562.842 86.5689 562.845 86.1996C562.847 85.8302 562.996 85.477 563.259 85.2175C563.522 84.958 563.877 84.8136 564.247 84.8159C566.721 84.832 569.192 84.9997 571.646 85.3181C571.991 85.3613 572.307 85.5315 572.532 85.7954C572.758 86.0592 572.877 86.3978 572.865 86.7446C572.854 87.0914 572.714 87.4216 572.472 87.6704C572.23 87.9192 571.903 88.0688 571.557 88.0898C571.467 88.0946 571.376 88.0916 571.287 88.0808ZM548.507 88.2214C548.463 88.0438 548.455 87.8594 548.484 87.6788C548.512 87.4982 548.575 87.3249 548.67 87.1688C548.766 87.0127 548.891 86.8769 549.038 86.7692C549.186 86.6615 549.354 86.5839 549.532 86.541C551.62 86.0314 553.734 85.6343 555.865 85.3515C556.189 85.3069 556.511 85.2667 556.835 85.2288C557.202 85.1865 557.571 85.2917 557.861 85.5212C558.15 85.7508 558.337 86.0859 558.379 86.4529C558.421 86.8198 558.316 87.1886 558.086 87.478C557.857 87.7674 557.521 87.9537 557.154 87.996C556.853 88.0317 556.549 88.0697 556.238 88.1121C554.204 88.3814 552.185 88.7599 550.191 89.2458C550.111 89.2653 550.029 89.2772 549.947 89.2815C549.621 89.3018 549.297 89.2067 549.034 89.0129C548.771 88.8191 548.584 88.5389 548.507 88.2214Z" fill="#8AC0C8"/>
</g>
<g opacity="0.3">
<path d="M566.789 205.021C564.358 205.144 561.922 205.12 559.494 204.95C559.126 204.924 558.783 204.752 558.54 204.473C558.298 204.195 558.176 203.831 558.203 203.462C558.229 203.094 558.4 202.751 558.679 202.509C558.958 202.267 559.322 202.145 559.691 202.171C562.007 202.334 564.33 202.357 566.648 202.241C567.017 202.219 567.379 202.345 567.655 202.591C567.931 202.837 568.098 203.182 568.12 203.551C568.141 203.919 568.015 204.281 567.769 204.557C567.523 204.833 567.178 205 566.809 205.021H566.789ZM572.434 203.082C572.403 202.902 572.407 202.717 572.447 202.539C572.487 202.36 572.562 202.192 572.668 202.042C572.773 201.893 572.907 201.766 573.062 201.668C573.216 201.57 573.389 201.504 573.569 201.473C575.859 201.079 578.123 200.548 580.349 199.884C580.705 199.778 581.088 199.818 581.414 199.994C581.74 200.171 581.982 200.469 582.088 200.825C582.194 201.18 582.154 201.562 581.977 201.888C581.801 202.214 581.502 202.456 581.147 202.562C578.814 203.258 576.442 203.814 574.042 204.227C573.993 204.227 573.942 204.24 573.893 204.245C573.548 204.266 573.209 204.158 572.939 203.943C572.67 203.728 572.49 203.42 572.434 203.08V203.082ZM552.259 203.99C549.87 203.521 547.512 202.909 545.197 202.158C544.859 202.034 544.583 201.784 544.425 201.461C544.267 201.138 544.241 200.767 544.351 200.424C544.461 200.082 544.7 199.796 545.016 199.625C545.333 199.455 545.703 199.413 546.05 199.509C548.258 200.227 550.507 200.811 552.786 201.259C553.138 201.34 553.445 201.555 553.641 201.858C553.838 202.161 553.909 202.529 553.84 202.883C553.77 203.238 553.565 203.552 553.269 203.758C552.972 203.965 552.607 204.048 552.25 203.99H552.259ZM586.165 199.322C586.091 199.154 586.051 198.974 586.047 198.791C586.043 198.608 586.076 198.426 586.142 198.256C586.209 198.085 586.309 197.93 586.435 197.798C586.562 197.666 586.714 197.56 586.882 197.487C589.008 196.555 591.076 195.495 593.073 194.312C593.23 194.215 593.405 194.15 593.588 194.122C593.771 194.093 593.957 194.101 594.137 194.145C594.316 194.189 594.485 194.269 594.634 194.379C594.782 194.489 594.907 194.628 595.002 194.786C595.096 194.945 595.158 195.121 595.183 195.304C595.209 195.487 595.198 195.674 595.151 195.852C595.104 196.031 595.022 196.198 594.909 196.345C594.796 196.492 594.656 196.614 594.495 196.706C592.4 197.948 590.231 199.06 588.001 200.038C587.852 200.103 587.692 200.142 587.53 200.152C587.244 200.17 586.96 200.1 586.716 199.951C586.472 199.803 586.28 199.583 586.165 199.322ZM538.414 199.48C536.209 198.451 534.068 197.291 532.002 196.005C531.844 195.91 531.706 195.784 531.596 195.635C531.487 195.487 531.408 195.317 531.365 195.138C531.322 194.958 531.314 194.771 531.344 194.589C531.374 194.407 531.439 194.232 531.537 194.075C531.635 193.918 531.763 193.782 531.914 193.675C532.065 193.569 532.235 193.493 532.416 193.453C532.596 193.412 532.783 193.408 532.965 193.441C533.147 193.473 533.321 193.542 533.476 193.642C535.446 194.869 537.489 195.976 539.593 196.956C539.874 197.087 540.102 197.308 540.243 197.583C540.384 197.858 540.43 198.173 540.372 198.477C540.315 198.78 540.157 199.057 539.925 199.261C539.693 199.466 539.4 199.588 539.091 199.607C538.858 199.623 538.625 199.579 538.414 199.48ZM526.055 191.783C524.159 190.256 522.358 188.616 520.659 186.873C520.525 186.744 520.419 186.589 520.346 186.417C520.273 186.246 520.235 186.061 520.235 185.875C520.235 185.688 520.272 185.504 520.344 185.332C520.417 185.161 520.523 185.005 520.657 184.875C520.79 184.745 520.949 184.643 521.122 184.576C521.296 184.508 521.482 184.476 521.668 184.481C521.855 184.486 522.038 184.529 522.208 184.606C522.377 184.684 522.53 184.795 522.656 184.932C524.277 186.595 525.996 188.16 527.804 189.618C528.022 189.795 528.182 190.033 528.262 190.301C528.343 190.57 528.34 190.857 528.255 191.124C528.17 191.391 528.006 191.626 527.785 191.799C527.564 191.972 527.295 192.073 527.015 192.091C526.668 192.113 526.324 192.003 526.055 191.783ZM515.9 181.35C514.425 179.414 513.069 177.389 511.84 175.289C511.743 175.131 511.678 174.955 511.65 174.772C511.622 174.589 511.631 174.402 511.676 174.222C511.721 174.043 511.802 173.874 511.913 173.725C512.024 173.577 512.164 173.453 512.324 173.359C512.484 173.265 512.661 173.205 512.845 173.18C513.029 173.156 513.216 173.169 513.395 173.218C513.574 173.266 513.741 173.35 513.887 173.465C514.033 173.579 514.155 173.721 514.245 173.883C515.417 175.886 516.71 177.815 518.118 179.661C518.229 179.806 518.31 179.972 518.356 180.149C518.403 180.326 518.414 180.511 518.39 180.692C518.365 180.874 518.305 181.048 518.213 181.206C518.12 181.364 517.998 181.503 517.852 181.613C517.635 181.781 517.373 181.879 517.099 181.895C516.87 181.91 516.64 181.868 516.431 181.773C516.222 181.678 516.039 181.533 515.9 181.35Z" fill="#8AC0C8"/>
<path d="M599.824 192.859C600.102 192.841 600.368 192.741 600.588 192.571C601.532 191.841 602.457 191.08 603.341 190.31C603.479 190.19 603.592 190.044 603.673 189.88C603.755 189.716 603.803 189.538 603.815 189.355C603.828 189.173 603.804 188.99 603.745 188.816C603.687 188.643 603.595 188.483 603.474 188.345C603.354 188.207 603.208 188.095 603.044 188.014C602.88 187.932 602.701 187.884 602.519 187.872C602.336 187.859 602.153 187.883 601.979 187.942C601.806 188 601.646 188.092 601.508 188.212C600.666 188.947 599.784 189.672 598.884 190.368C598.648 190.551 598.477 190.804 598.396 191.09C598.315 191.377 598.328 191.682 598.434 191.96C598.539 192.239 598.731 192.477 598.981 192.638C599.231 192.8 599.527 192.877 599.824 192.859Z" fill="#8AC0C8"/>
</g>
<path d="M603.522 166.61C603.608 166.491 603.654 166.348 603.654 166.201C603.654 166.054 603.608 165.911 603.522 165.791L598.549 158.797C600.1 155.04 601.028 151.056 601.296 147.001L608.842 142.917C608.971 142.847 609.075 142.739 609.139 142.607C609.204 142.475 609.226 142.327 609.202 142.183L607.518 132.029C607.494 131.884 607.426 131.75 607.322 131.646C607.218 131.542 607.084 131.473 606.939 131.448L598.477 130.016C596.914 126.264 594.748 122.793 592.065 119.739L594.522 111.513C594.564 111.372 594.561 111.222 594.514 111.083C594.466 110.944 594.376 110.824 594.256 110.739L585.879 104.751C585.76 104.666 585.617 104.62 585.47 104.62C585.324 104.62 585.181 104.666 585.062 104.751L578.06 109.721C574.301 108.171 570.315 107.244 566.257 106.976L562.17 99.4354C562.1 99.3063 561.991 99.2022 561.859 99.1378C561.727 99.0734 561.578 99.0518 561.433 99.0761L551.271 100.759C551.127 100.783 550.993 100.852 550.889 100.955C550.785 101.059 550.716 101.192 550.691 101.337L549.253 109.797C545.498 111.36 542.024 113.523 538.966 116.202L530.736 113.758C530.595 113.716 530.445 113.718 530.306 113.766C530.167 113.813 530.046 113.902 529.961 114.021L523.967 122.392C523.882 122.512 523.836 122.655 523.836 122.802C523.836 122.949 523.882 123.092 523.967 123.211L528.94 130.208C527.389 133.964 526.461 137.947 526.193 142.002L518.647 146.086C518.518 146.156 518.414 146.265 518.35 146.397C518.285 146.529 518.263 146.677 518.287 146.822L519.973 156.976C519.998 157.121 520.066 157.254 520.169 157.358C520.272 157.462 520.405 157.531 520.55 157.556L529.012 158.987C530.575 162.738 532.741 166.209 535.424 169.264L532.967 177.489C532.925 177.63 532.928 177.78 532.975 177.919C533.023 178.058 533.113 178.179 533.233 178.264L541.61 184.254C541.73 184.338 541.873 184.384 542.02 184.384C542.167 184.384 542.31 184.338 542.43 184.254L549.429 179.284C553.19 180.832 557.178 181.758 561.237 182.024L565.324 189.565C565.394 189.694 565.502 189.797 565.634 189.862C565.765 189.926 565.914 189.948 566.058 189.924L576.22 188.239C576.365 188.215 576.499 188.146 576.603 188.043C576.707 187.939 576.776 187.806 576.801 187.661L578.232 179.208C581.986 177.644 585.461 175.48 588.519 172.801L596.749 175.256C596.89 175.298 597.04 175.295 597.179 175.247C597.318 175.199 597.438 175.11 597.524 174.99L603.522 166.61Z" fill="#8AC0C8"/>
<path d="M562.871 154.994C560.165 154.765 557.653 153.497 555.863 151.455C554.073 149.414 553.144 146.759 553.273 144.048C553.401 141.336 554.576 138.781 556.551 136.917C558.526 135.054 561.147 134.028 563.863 134.055C566.579 134.082 569.178 135.16 571.116 137.063C573.053 138.965 574.176 141.544 574.25 144.257C574.325 146.97 573.343 149.606 571.513 151.612C569.682 153.617 567.145 154.835 564.435 155.01C563.914 155.042 563.391 155.036 562.871 154.994ZM556.017 143.856C555.933 144.87 556.049 145.891 556.359 146.86C556.67 147.829 557.168 148.727 557.826 149.504C558.484 150.28 559.288 150.92 560.193 151.385C561.099 151.851 562.087 152.134 563.101 152.218C564.63 152.345 566.162 152.017 567.503 151.274C568.845 150.531 569.936 149.408 570.638 148.045C571.34 146.683 571.623 145.143 571.449 143.62C571.276 142.097 570.654 140.66 569.663 139.49C568.672 138.321 567.356 137.471 565.882 137.049C564.408 136.626 562.841 136.65 561.38 137.117C559.92 137.585 558.631 138.475 557.676 139.674C556.721 140.874 556.144 142.329 556.017 143.856Z" fill="#419EAC"/>
<path d="M565.221 170.536C566.101 170.481 566.984 170.379 567.872 170.232C569.635 169.94 571.365 169.47 573.033 168.828L573.256 168.741C573.53 168.633 573.762 168.441 573.921 168.193C574.079 167.945 574.154 167.653 574.136 167.36C574.126 167.214 574.094 167.07 574.04 166.934C573.903 166.591 573.636 166.317 573.297 166.171C572.958 166.024 572.575 166.018 572.231 166.153C570.679 166.768 569.066 167.217 567.418 167.492L567.148 167.534C563.305 168.138 559.372 167.769 555.709 166.458C553.718 165.747 551.832 164.771 550.101 163.557L550.059 163.526L549.927 163.434C546.79 161.191 544.254 158.209 542.546 154.752C540.837 151.296 540.008 147.472 540.132 143.618C540.255 139.765 541.328 136.002 543.255 132.662C545.182 129.322 547.903 126.509 551.178 124.471C554.453 122.432 558.18 121.233 562.03 120.978C565.879 120.723 569.732 121.421 573.248 123.009C576.763 124.598 579.832 127.028 582.183 130.085C584.534 133.141 586.094 136.73 586.726 140.533C586.857 141.317 586.947 142.106 586.996 142.899C587.214 146.322 586.675 149.75 585.417 152.941C585.341 153.132 585.309 153.337 585.323 153.542C585.347 153.855 585.475 154.15 585.688 154.381C585.901 154.612 586.186 154.764 586.496 154.813C586.806 154.862 587.124 154.804 587.397 154.65C587.671 154.496 587.884 154.254 588.003 153.963C589.412 150.389 590.016 146.549 589.772 142.716C589.715 141.829 589.614 140.946 589.468 140.069C588.365 133.439 584.757 127.486 579.388 123.437C574.02 119.387 567.301 117.552 560.618 118.308C553.935 119.065 547.797 122.356 543.471 127.503C539.146 132.65 536.962 139.259 537.371 145.967C537.429 146.865 537.532 147.758 537.679 148.645C538.75 155.051 542.157 160.833 547.243 164.875C552.33 168.918 558.734 170.934 565.221 170.536Z" fill="#419EAC"/>
<path d="M301.388 276.686C256.44 234.086 180.389 197.239 113.672 197.146L107.932 266.996C109.719 266.943 111.513 266.915 113.315 266.914C168.862 266.914 222.775 298.215 255.614 337.88C264.71 318.766 283.557 306.191 292.424 286.762L301.388 276.686Z" fill="url(#paint0_linear_53_383)"/>
<path d="M139.606 170.948L31.6084 223.388L46.9648 234.861H144.479L149.1 173.845L139.606 170.948Z" fill="url(#paint1_linear_53_383)"/>
<path d="M139.606 170.944L129.247 307.422L23.1306 229.002C22.9686 228.881 22.8404 228.72 22.7584 228.535C22.6765 228.35 22.6434 228.146 22.6625 227.945C22.6815 227.743 22.752 227.55 22.8672 227.384C22.9824 227.217 23.1385 227.083 23.3205 226.994L139.606 170.944Z" fill="url(#paint2_linear_53_383)"/>
<path d="M249.133 373.187C259.183 350.411 277.831 304.452 293.88 285.8C248.206 237.306 175.513 201.43 103.62 201.332L97.8802 271.172C99.6669 271.12 101.454 271.089 103.263 271.089C161.861 271.089 238.913 312.968 249.133 373.187Z" fill="url(#paint3_linear_53_383)"/>
<path opacity="0.71" d="M279.783 290.52C279.678 290.52 279.574 290.496 279.478 290.451C279.383 290.407 279.299 290.342 279.231 290.261C266.593 274.956 247.493 259.824 224.001 246.503C223.915 246.459 223.839 246.399 223.777 246.325C223.715 246.251 223.669 246.165 223.641 246.073C223.614 245.981 223.605 245.884 223.616 245.788C223.627 245.693 223.657 245.6 223.704 245.516C223.752 245.433 223.816 245.359 223.893 245.301C223.97 245.243 224.057 245.201 224.151 245.177C224.244 245.154 224.342 245.15 224.437 245.165C224.532 245.181 224.623 245.215 224.705 245.267C248.344 258.672 267.585 273.919 280.33 289.357C280.415 289.461 280.469 289.587 280.486 289.721C280.502 289.854 280.481 289.989 280.423 290.111C280.366 290.233 280.276 290.335 280.162 290.408C280.049 290.48 279.918 290.519 279.783 290.52Z" fill="white"/>
<path opacity="0.71" d="M216.651 242.381C216.535 242.381 216.421 242.352 216.318 242.298C201.969 234.708 187.043 228.261 171.679 223.017C171.581 222.995 171.489 222.952 171.41 222.893C171.33 222.833 171.263 222.757 171.214 222.669C171.166 222.582 171.136 222.485 171.127 222.386C171.118 222.287 171.131 222.186 171.163 222.092C171.196 221.997 171.248 221.911 171.316 221.838C171.384 221.765 171.467 221.707 171.559 221.668C171.651 221.629 171.75 221.609 171.85 221.611C171.95 221.613 172.048 221.636 172.139 221.678C187.574 226.945 202.569 233.421 216.984 241.047C217.123 241.121 217.234 241.241 217.298 241.385C217.362 241.53 217.376 241.692 217.338 241.845C217.3 241.999 217.212 242.135 217.087 242.233C216.963 242.331 216.81 242.385 216.651 242.386V242.381Z" fill="white"/>
<path opacity="0.71" d="M162.881 220.152C162.812 220.152 162.742 220.142 162.676 220.12C153.973 217.455 145.12 215.303 136.164 213.675C136.072 213.659 135.984 213.625 135.906 213.574C135.827 213.524 135.759 213.459 135.706 213.382C135.652 213.306 135.614 213.219 135.594 213.128C135.574 213.037 135.573 212.943 135.589 212.851C135.605 212.759 135.64 212.671 135.69 212.593C135.74 212.514 135.806 212.446 135.882 212.393C135.959 212.339 136.045 212.302 136.137 212.282C136.228 212.262 136.322 212.26 136.414 212.276C145.425 213.908 154.332 216.069 163.089 218.748C163.252 218.798 163.392 218.905 163.483 219.049C163.574 219.193 163.61 219.365 163.585 219.534C163.56 219.702 163.475 219.856 163.346 219.968C163.217 220.079 163.052 220.14 162.881 220.141V220.152Z" fill="white"/>
<path d="M306.395 1.43488L293.837 0.178467L296.808 6.30433L238.913 106.193H342.678L365.414 112.865L375.323 107.338L306.395 1.43488Z" fill="url(#paint4_linear_53_383)"/>
<path d="M272.607 97.1367V225.606C283.935 234.854 285.337 271.131 295.642 282.403C307.085 271.263 328.872 247.726 343.212 239.188V97.1367H272.607Z" fill="url(#paint5_linear_53_383)"/>
<path d="M230.674 112.986H365.414L294.454 0.167432C294.421 0.115389 294.374 0.0727472 294.32 0.0435747C294.265 0.0144022 294.204 -0.000327295 294.143 0.000791744C294.081 0.00191078 294.02 0.018841 293.967 0.0499669C293.913 0.0810928 293.869 0.125376 293.837 0.17859L229.56 111.053C229.447 111.249 229.387 111.471 229.387 111.697C229.386 111.923 229.446 112.145 229.559 112.341C229.672 112.537 229.834 112.7 230.03 112.813C230.226 112.926 230.448 112.986 230.674 112.986Z" fill="url(#paint6_linear_53_383)"/>
<path d="M259.768 103.93V255.646C272.607 264.892 282.356 278.13 292.665 289.409C304.109 278.268 317.542 255.423 331.525 246.61V103.93H259.768Z" fill="url(#paint7_linear_53_383)"/>
<path opacity="0.71" d="M260.523 110.299H237.917C237.649 110.298 237.385 110.226 237.153 110.092C236.92 109.958 236.727 109.766 236.591 109.534C236.456 109.303 236.384 109.04 236.381 108.771C236.379 108.503 236.446 108.239 236.577 108.005L291.539 10.0959C291.583 10.0107 291.644 9.93522 291.717 9.87395C291.791 9.81268 291.876 9.76687 291.968 9.73925C292.059 9.71164 292.156 9.70279 292.251 9.71324C292.346 9.72368 292.438 9.75321 292.522 9.80005C292.605 9.84689 292.679 9.91009 292.737 9.98585C292.796 10.0616 292.838 10.1484 292.862 10.241C292.887 10.3336 292.892 10.4302 292.878 10.5249C292.864 10.6196 292.831 10.7105 292.781 10.7921L237.814 108.701C237.803 108.719 237.798 108.739 237.798 108.76C237.798 108.781 237.803 108.802 237.814 108.819C237.825 108.837 237.84 108.852 237.858 108.862C237.876 108.873 237.896 108.878 237.917 108.877H260.523C260.62 108.872 260.716 108.886 260.807 108.92C260.898 108.953 260.982 109.004 261.052 109.071C261.123 109.137 261.179 109.218 261.217 109.307C261.255 109.395 261.275 109.491 261.275 109.588C261.275 109.685 261.255 109.781 261.217 109.87C261.179 109.959 261.123 110.039 261.052 110.105C260.982 110.172 260.898 110.223 260.807 110.257C260.716 110.29 260.62 110.304 260.523 110.299Z" fill="white"/>
<path d="M502.538 199.359C398.992 199.5 310.333 257.5 271.995 349.19V349.219C271.96 349.299 271.924 349.388 271.89 349.469H271.937C251.82 393.628 264.06 532.796 265.646 609.435C265.646 609.435 345.153 613.898 344.976 610.734C341.85 552.638 337.044 422.671 345.278 373.867C347.903 358.375 354.631 343.868 364.764 331.852C397.594 292.823 447.288 267.942 502.895 267.942C504.698 267.942 506.491 267.922 508.278 267.974L502.538 199.359Z" fill="url(#paint8_linear_53_383)"/>
<path d="M487.881 194.519C487.847 194.092 487.652 193.694 487.337 193.404C487.021 193.114 486.607 192.954 486.179 192.957C383.309 193.691 295.354 252.319 257.211 345.601C257.177 345.682 257.141 345.764 257.106 345.845H257.153C237.577 389.612 251.674 530.939 253.803 608.364C253.822 609.097 254.124 609.795 254.644 610.312C255.164 610.83 255.863 611.128 256.596 611.145C270.512 611.484 333.066 612.959 333.021 612.098C329.716 548.605 321.745 423.91 330.413 371.138C333.035 355.109 339.882 340.067 350.249 327.558C383.079 287.996 432.659 262.794 488.104 262.794C489.285 262.794 490.462 262.794 491.637 262.794C491.872 262.796 492.105 262.748 492.32 262.655C492.536 262.562 492.73 262.425 492.889 262.253C493.049 262.081 493.171 261.877 493.248 261.655C493.324 261.433 493.354 261.198 493.334 260.964L487.881 194.519Z" fill="url(#paint9_linear_53_383)"/>
<path d="M572.396 234.164L572.662 233.966L570.103 219.844L569.862 219.725L569.817 219.467L569.565 219.583L465.17 169.275L472.37 264.151L470.552 264.985L462.123 299.056L472.855 307.679L475.526 305.706L475.528 305.753L572.303 234.233L572.396 234.164Z" fill="url(#paint10_linear_53_383)"/>
<path d="M451.767 162.578L462.123 299.056L569.817 219.467L451.767 162.578Z" fill="url(#paint11_linear_53_383)"/>
<path d="M238.772 321.946C238.772 321.946 245.655 325.294 246.922 329.134C247.936 332.218 255.547 332.616 256.302 338.681C256.69 341.805 259.009 344.321 262.131 344.798C269.905 345.99 281.885 350.022 283.794 363.51C285.257 373.805 279.997 377.708 274.494 379.058C270.445 380.051 267.756 383.986 268.574 388.07C269.36 391.986 268.188 396.514 261.398 400.096C246.178 408.13 230.98 381.085 230.98 381.085L227.854 333.881L238.772 321.946Z" fill="url(#paint12_linear_53_383)"/>
<path d="M155.963 310.754C155.963 310.754 186.349 358.781 222.48 368.058C222.48 368.058 215.441 388.096 210.007 390.388C210.007 390.388 165.553 353.325 154.129 317.579L155.963 310.754Z" fill="url(#paint13_linear_53_383)"/>
<path d="M301.326 617.942L302.311 626.032C302.401 626.778 302.739 627.471 303.271 628.002C303.803 628.532 304.499 628.868 305.245 628.956C307.84 629.252 312.005 629.556 316.079 629.125C316.499 629.077 316.904 628.937 317.263 628.714C317.623 628.491 317.928 628.192 318.158 627.837C318.388 627.482 318.537 627.081 318.593 626.662C318.65 626.243 318.612 625.817 318.484 625.414C317.493 622.29 315.675 617.603 313.055 614.845H304.073C303.681 614.845 303.294 614.928 302.937 615.088C302.58 615.249 302.261 615.483 302.002 615.776C301.742 616.069 301.548 616.413 301.431 616.787C301.314 617.16 301.279 617.554 301.326 617.942Z" fill="url(#paint14_linear_53_383)"/>
<path d="M230.985 523.165L229.468 532.073C229.468 532.073 234.545 583.452 235.449 604.006C235.587 607.225 234.756 610.412 233.064 613.156L224.227 627.481L246.661 614.254L247.107 611.518L243.436 606.472L248.244 548.915C248.527 545.534 247.829 542.143 246.234 539.148L241.593 530.444L230.985 523.165Z" fill="url(#paint15_linear_53_383)"/>
<path d="M222.759 629.547H229.917C230.578 629.548 231.23 629.397 231.823 629.107C232.416 628.816 232.935 628.393 233.339 627.871C235.572 624.97 240.195 619.319 242.406 619.168C245.381 618.969 245.001 629.542 245.001 629.542H246.669L248.782 616.405C249.042 614.793 248.787 613.14 248.054 611.681C247.321 610.221 246.146 609.03 244.697 608.275C244.697 608.275 244.027 613.303 240.329 615.526C236.631 617.748 225.317 625.715 225.317 625.715C224.35 625.602 223.372 625.628 222.413 625.791C220.149 626.213 220.464 629.547 222.759 629.547Z" fill="url(#paint16_linear_53_383)"/>
<path d="M261.711 527.396C261.711 527.396 291.45 583.763 296.176 596.632C300.901 609.502 302.561 620.239 302.623 621.256C302.722 622.845 304.7 624.367 310.15 624.367C312.964 624.367 314.342 623.252 315.016 622.151C315.295 621.691 315.452 621.167 315.474 620.629C315.495 620.091 315.379 619.557 315.137 619.076C313.415 615.597 307.957 604.479 305.935 599.438C303.521 593.412 298.329 566.135 295.481 556.648C292.634 547.161 289.413 536.873 277.014 527.396C277.014 527.396 268.5 519.063 261.711 527.396Z" fill="url(#paint17_linear_53_383)"/>
<path d="M242.924 435.032C235.253 402.553 254.687 384.182 254.687 384.182C242.424 372.419 220.084 367.068 220.084 367.068C220.084 367.068 198.764 382.642 201.295 394.832C202.776 401.973 216.278 437.628 216.278 437.628C216.278 437.628 228.765 443.53 242.924 435.032Z" fill="url(#paint18_linear_53_383)"/>
<path d="M259.933 451.113C256.806 441.716 242.924 435.032 242.924 435.032C228.765 443.53 216.278 437.628 216.278 437.628C216.278 437.628 213.478 448.322 215.412 458.259C217.346 468.197 229.468 532.073 229.468 532.073C248.574 535.941 277.956 528.181 277.956 528.181C265.789 506.583 263.055 460.511 259.933 451.113Z" fill="url(#paint19_linear_53_383)"/>
<path d="M234.02 345.604L240.257 373.597C240.854 376.063 238.605 375.659 236.11 375.189C232.023 374.419 226.759 372.834 224.997 369.656C224.827 369.328 224.719 368.971 224.68 368.603L222 349.188C221.897 348.438 222.04 347.675 222.409 347.013C222.777 346.352 223.351 345.828 224.043 345.521L229.214 343.231C229.681 343.024 230.189 342.922 230.7 342.933C231.211 342.943 231.714 343.066 232.173 343.293C232.631 343.519 233.035 343.843 233.354 344.243C233.673 344.642 233.9 345.107 234.02 345.604Z" fill="url(#paint20_linear_53_383)"/>
<path d="M254.687 384.182C254.687 384.182 298.217 415.3 260.255 448.007C260.255 448.007 258.805 449.645 255.958 450.495C254.522 450.924 250.267 454.14 248.112 455.816C247.948 455.942 247.76 456.033 247.559 456.083C247.358 456.132 247.149 456.139 246.945 456.102C246.741 456.066 246.547 455.987 246.376 455.87C246.204 455.754 246.06 455.603 245.95 455.427C245.771 455.14 245.667 454.813 245.647 454.476C245.627 454.138 245.692 453.801 245.836 453.495L251.225 442.113C251.952 441.44 252.894 441.047 253.884 441.006C254.874 440.965 255.846 441.279 256.626 441.89C256.866 442.079 257.145 442.212 257.443 442.279C257.741 442.347 258.05 442.347 258.348 442.279C258.646 442.211 258.926 442.078 259.165 441.889C259.405 441.7 259.6 441.459 259.734 441.185C262.669 435.213 268.221 417.648 245.53 397.8C245.118 397.435 244.84 396.942 244.741 396.401C244.642 395.859 244.728 395.3 244.985 394.814C246.578 391.734 250.223 385.659 254.687 384.182Z" fill="url(#paint21_linear_53_383)"/>
<path d="M222.074 320.085C222.074 320.085 215.434 324.575 212.582 336.012C209.73 347.449 214.369 351.553 219.117 351.301C223.865 351.049 230.761 349.583 236.733 341.377C242.705 333.171 230.775 314.597 222.074 320.085Z" fill="url(#paint22_linear_53_383)"/>
<path d="M230.703 336.755C230.703 336.755 233.135 320.366 219.519 322.872L216.765 325.737C216.765 325.737 210.099 318.237 217.475 312.571C224.852 306.905 235.087 308.353 240.749 318.674C246.41 328.996 248.467 336.251 243.721 342.664C238.976 349.078 235.405 343.577 235.405 343.577C235.405 343.577 237.582 338.025 235.775 335.644C233.968 333.263 231.639 337.03 231.639 337.03L230.703 336.755Z" fill="url(#paint23_linear_53_383)"/>
<path d="M232.573 338.165C232.573 338.165 233.774 329.734 238.082 332.14C242.39 334.546 236.519 340.018 234.178 341.877L232.573 338.165Z" fill="url(#paint24_linear_53_383)"/>
<path d="M156.17 320.643C156.079 321.634 159.766 322.317 160.939 318.094C160.617 316.26 160.045 308.23 158.636 306.983C151.143 300.339 137.781 292.865 137.781 292.865C136.287 295.146 138.246 296.659 138.246 296.659L144.917 301.156C144.22 303.459 143.206 305.494 143.09 308.125C143.023 310.127 143.729 312.078 145.062 313.575C146.388 315.09 148.188 317.048 149.787 318.534C152.836 321.335 156.17 320.643 156.17 320.643Z" fill="url(#paint25_linear_53_383)"/>
<path d="M152.548 317.369L153.566 316.949C153.432 316.621 150.23 308.848 148.682 307.23C148.095 306.617 147.811 306.092 147.836 305.668C147.866 305.406 147.987 305.164 148.179 304.983L153.575 307.866L155.96 311.598L156.889 311.002L154.35 307.03L148.028 303.653L147.744 303.876C147.103 304.398 146.772 304.959 146.735 305.592C146.69 306.347 147.065 307.128 147.885 307.985C149.05 309.21 151.643 315.173 152.548 317.369Z" fill="url(#paint26_linear_53_383)"/>
<path d="M366.983 611.08C366.983 611.08 365.853 617.472 365.299 623.8C365.25 624.387 365.32 624.978 365.505 625.537C365.69 626.096 365.986 626.612 366.377 627.053C366.767 627.494 367.242 627.852 367.774 628.105C368.307 628.357 368.885 628.499 369.474 628.523C377.904 628.875 395.936 629.556 402.408 629.268C402.634 629.257 402.854 629.192 403.05 629.08C403.245 628.967 403.411 628.808 403.533 628.619C403.655 628.429 403.73 628.212 403.752 627.988C403.773 627.763 403.741 627.536 403.657 627.326C403.355 626.568 402.773 625.955 402.031 625.615L372.243 611.935L366.983 611.08Z" fill="url(#paint27_linear_53_383)"/>
<path d="M366.059 607.327L366.966 614.97C366.966 614.97 372.185 617.398 375.747 614.664L373.587 606.146L366.059 607.327Z" fill="url(#paint28_linear_53_383)"/>
<path d="M366.74 463.618C366.349 465.626 364.636 563.232 375.079 606.976C375.165 607.321 375.123 607.685 374.963 608.002C374.803 608.319 374.534 608.568 374.206 608.704C371.489 609.753 368.613 610.337 365.701 610.431C365.135 610.449 364.579 610.279 364.119 609.947C363.66 609.615 363.324 609.14 363.164 608.596C360.178 598.445 345.876 547.592 344.009 499.023C341.925 444.74 344.009 497.173 344.009 497.173L345.233 463.62L366.74 463.618Z" fill="url(#paint29_linear_53_383)"/>
<path d="M332.717 614.414C332.717 614.414 330.931 617.641 329.177 626.213C329.102 626.578 329.104 626.955 329.184 627.319C329.264 627.683 329.419 628.026 329.64 628.326C329.861 628.626 330.142 628.877 330.466 629.061C330.79 629.246 331.149 629.361 331.52 629.398C334.303 629.672 338.589 630.022 342.017 630C342.391 629.999 342.76 629.919 343.101 629.765C343.441 629.611 343.746 629.388 343.994 629.108C344.242 628.829 344.428 628.5 344.54 628.144C344.653 627.788 344.689 627.412 344.646 627.041C344.264 623.917 343.082 618.784 339.42 614.778L332.717 614.414Z" fill="url(#paint30_linear_53_383)"/>
<path d="M331.138 604.582L333.26 616.141C333.26 616.141 335.355 617.704 339.513 616.57L338.502 604.133L331.138 604.582Z" fill="url(#paint31_linear_53_383)"/>
<path d="M325.41 466.612C316.867 518.116 327.261 593.91 330.77 608.744C330.873 609.188 331.106 609.592 331.439 609.904C331.771 610.217 332.189 610.424 332.639 610.5C334.203 610.759 336.78 610.971 339.319 610.232C339.746 610.108 340.123 609.852 340.396 609.502C340.67 609.152 340.827 608.725 340.844 608.282C341.313 596.289 340.467 522.662 348.424 493.564C348.829 492.091 349.731 490.803 350.977 489.917L366.423 478.947L367.606 461.209L325.41 466.612Z" fill="url(#paint32_linear_53_383)"/>
<path d="M379.83 369.025C354.236 368.601 326.006 375.74 326.006 375.74C318.377 420.221 324.666 471.529 324.666 471.529C344.48 476.72 366.832 468.353 366.832 468.353C370.126 449.761 385.491 397.436 385.491 397.436C397.998 395.874 408.298 392.281 416.78 387.514C410.303 380.018 407.259 370.48 405.935 364.843C396.881 367.652 387.724 369.154 379.83 369.025Z" fill="url(#paint33_linear_53_383)"/>
<path d="M455.43 331.352C452.915 328.32 449.735 329.754 449.735 329.754C445.967 345.653 426.218 358.543 405.93 364.843C407.255 370.48 410.306 380.018 416.775 387.514C450.447 368.596 455.43 331.352 455.43 331.352Z" fill="url(#paint34_linear_53_383)"/>
<path d="M454.82 332.124C455.084 332.961 452.038 334.233 450.242 330.814C450.18 329.176 449.183 322.16 450.164 320.826C455.381 313.718 465.496 304.807 465.496 304.807C467.204 306.494 465.797 308.154 465.797 308.154L460.884 313.26C461.911 315.115 463.164 316.679 463.749 318.92C464.18 320.631 463.934 322.442 463.064 323.977C462.204 325.539 461.027 327.547 459.917 329.109C457.818 332.102 454.82 332.124 454.82 332.124Z" fill="url(#paint35_linear_53_383)"/>
<path d="M458.742 316.572L454.275 320.366L452.873 324.138L456.859 328.556C456.859 328.556 458.199 321.073 459.196 319.453C460.192 317.833 459.671 317.045 458.742 316.572Z" fill="url(#paint36_linear_53_383)"/>
<path d="M335.811 400.502L325.984 375.731C325.984 375.731 302.087 391.962 298.145 412.54C302.663 412.872 310.875 414.048 318.929 418.105C320.707 408.391 335.811 400.502 335.811 400.502Z" fill="url(#paint37_linear_53_383)"/>
<path d="M356.703 423.805C356.703 423.805 329.863 438.965 320.805 426.021C318.924 423.343 318.475 420.665 318.94 418.114C310.9 414.057 302.675 412.881 298.156 412.549C296.971 418.753 297.598 425.352 301.245 432.022C317.102 461.018 360.254 430.417 360.254 430.417L356.703 423.805Z" fill="url(#paint38_linear_53_383)"/>
<path d="M353.478 442.981L368.127 391.863C368.207 391.58 368.37 391.327 368.595 391.136C368.82 390.944 369.096 390.824 369.389 390.79C372.042 390.48 379.734 389.612 388.613 388.862C399.309 387.969 411.731 387.224 419.152 387.849C419.395 387.868 419.63 387.947 419.837 388.078C420.043 388.209 420.214 388.388 420.334 388.6C420.455 388.813 420.522 389.051 420.529 389.295C420.536 389.539 420.484 389.781 420.376 390C416.155 398.534 398.793 433.243 390.098 444.613C389.957 444.799 389.774 444.949 389.564 445.052C389.355 445.154 389.124 445.207 388.89 445.204L354.903 444.89C354.673 444.888 354.446 444.832 354.24 444.728C354.034 444.624 353.855 444.473 353.717 444.289C353.579 444.104 353.486 443.89 353.445 443.663C353.403 443.436 353.415 443.203 353.478 442.981Z" fill="url(#paint39_linear_53_383)"/>
<path d="M390.132 384.43L400.754 382.662C400.883 382.641 401.016 382.653 401.139 382.698C401.262 382.742 401.372 382.818 401.457 382.918C401.542 383.017 401.601 383.137 401.626 383.265C401.651 383.394 401.643 383.527 401.602 383.651L400.55 386.836C400.506 386.972 400.424 387.092 400.313 387.183C400.203 387.274 400.069 387.333 399.927 387.351L389.708 388.715C389.585 388.732 389.461 388.718 389.344 388.676C389.228 388.634 389.124 388.564 389.041 388.473C388.958 388.381 388.899 388.271 388.868 388.151C388.838 388.032 388.837 387.906 388.866 387.786L389.516 385.008C389.55 384.862 389.626 384.729 389.736 384.626C389.846 384.523 389.984 384.455 390.132 384.43Z" fill="#8AC0C8"/>
<path d="M382.179 393.414L383.054 388.86C383.097 388.637 383.21 388.434 383.378 388.281C383.545 388.128 383.758 388.034 383.984 388.012L405.435 385.836C405.602 385.819 405.771 385.843 405.928 385.904C406.084 385.966 406.224 386.065 406.334 386.191C406.445 386.318 406.523 386.469 406.564 386.633C406.604 386.796 406.604 386.967 406.565 387.13L405.2 392.803C405.148 393.024 405.024 393.223 404.849 393.368C404.674 393.513 404.456 393.598 404.229 393.609L383.267 394.664C383.107 394.672 382.948 394.643 382.802 394.58C382.655 394.518 382.525 394.423 382.42 394.302C382.315 394.182 382.239 394.04 382.198 393.886C382.156 393.732 382.15 393.571 382.179 393.414Z" fill="#8AC0C8"/>
<path d="M357.018 430.632C357.018 430.632 354.977 422.247 355.799 419.272C356.621 416.298 358.218 412.473 363.533 413.323C368.848 414.173 375.119 416.411 375.119 416.411C375.119 416.411 374.804 420.286 370.764 419.036L373.268 420.973C373.268 420.973 372.911 424.075 369.498 422.417L371.827 424.985C371.827 424.985 370.362 427.534 367.852 425.9C365.342 424.267 364.138 431.64 357.018 430.632Z" fill="url(#paint40_linear_53_383)"/>
<path d="M353.905 348.262L345.76 371.792C345.694 371.981 345.697 372.187 345.768 372.374C345.839 372.561 345.974 372.717 346.149 372.814C348.369 374.039 356.366 377.585 366.003 371.475C366.501 371.164 366.924 370.747 367.242 370.254C367.56 369.762 367.765 369.204 367.843 368.623L370.481 348.255L353.905 348.262Z" fill="url(#paint41_linear_53_383)"/>
<path d="M371.627 326.469C371.627 326.469 380.56 343.289 379.423 350.085C378.286 356.88 367.193 356.391 357.516 350.873L350.752 332.709L371.627 326.469Z" fill="url(#paint42_linear_53_383)"/>
<path d="M357.941 341.953C358.033 341.912 358.116 341.852 358.183 341.777C358.25 341.701 358.299 341.612 358.328 341.515C358.357 341.419 358.365 341.317 358.35 341.217C358.336 341.117 358.3 341.022 358.244 340.937C357.527 339.844 356.185 337.614 355.756 335.66C355.756 335.66 354.148 334.631 359.848 333.267C365.547 331.904 374.045 329.788 375.832 324.941C377.574 320.214 372.998 308.331 365.697 317.8C365.632 317.884 365.549 317.952 365.454 317.999C365.359 318.046 365.254 318.071 365.148 318.071C365.041 318.071 364.937 318.046 364.841 317.999C364.746 317.952 364.663 317.884 364.598 317.8C363.401 316.238 360.254 313.011 355.888 314.97C351.799 316.802 351.339 319.797 351.395 321.306C351.399 321.409 351.38 321.512 351.338 321.608C351.297 321.703 351.235 321.787 351.156 321.855C351.078 321.923 350.985 321.972 350.885 321.999C350.784 322.026 350.679 322.03 350.577 322.011C348.509 321.618 343.549 321.279 341.235 326.363C339.328 330.551 340.565 332.921 341.695 334.082C341.779 334.167 341.839 334.272 341.87 334.387C341.901 334.502 341.901 334.623 341.872 334.738C341.842 334.854 341.783 334.96 341.701 335.045C341.618 335.131 341.515 335.195 341.401 335.229C340.04 335.644 338.287 336.791 338.464 339.976C338.705 344.372 343.625 343.993 345.025 343.785C345.138 343.769 345.254 343.78 345.361 343.819C345.469 343.858 345.565 343.923 345.642 344.008C346.843 345.347 352.255 350.973 358.11 351.654C358.227 351.666 358.346 351.648 358.454 351.603C358.562 351.557 358.657 351.485 358.73 351.393C358.804 351.301 358.852 351.192 358.872 351.076C358.891 350.96 358.881 350.841 358.843 350.73L356.31 343.365C356.253 343.201 356.26 343.021 356.33 342.861C356.399 342.701 356.526 342.573 356.686 342.502L357.941 341.953Z" fill="url(#paint43_linear_53_383)"/>
<path d="M358.959 343.004C358.959 343.004 352.592 338.639 352.127 342.317C351.663 345.994 357.86 347.641 360.931 346.269L358.959 343.004Z" fill="url(#paint44_linear_53_383)"/>
<defs>
<linearGradient id="paint0_linear_53_383" x1="107.932" y1="267.505" x2="301.388" y2="267.505" gradientUnits="userSpaceOnUse">
<stop stop-color="#E1473D"/>
<stop offset="1" stop-color="#E9605A"/>
</linearGradient>
<linearGradient id="paint1_linear_53_383" x1="31.6084" y1="202.906" x2="149.1" y2="202.906" gradientUnits="userSpaceOnUse">
<stop stop-color="#E1473D"/>
<stop offset="1" stop-color="#E9605A"/>
</linearGradient>
<linearGradient id="paint2_linear_53_383" x1="202.235" y1="-107.32" x2="42.0481" y2="369.022" gradientUnits="userSpaceOnUse">
<stop stop-color="#FF928E"/>
<stop offset="1" stop-color="#FE7062"/>
</linearGradient>
<linearGradient id="paint3_linear_53_383" x1="305.256" y1="-72.6758" x2="145.07" y2="403.666" gradientUnits="userSpaceOnUse">
<stop stop-color="#FF928E"/>
<stop offset="1" stop-color="#FE7062"/>
</linearGradient>
<linearGradient id="paint4_linear_53_383" x1="238.913" y1="56.5208" x2="375.323" y2="56.5208" gradientUnits="userSpaceOnUse">
<stop stop-color="#E1473D"/>
<stop offset="1" stop-color="#E9605A"/>
</linearGradient>
<linearGradient id="paint5_linear_53_383" x1="272.607" y1="189.77" x2="343.221" y2="189.77" gradientUnits="userSpaceOnUse">
<stop stop-color="#E1473D"/>
<stop offset="1" stop-color="#E9605A"/>
</linearGradient>
<linearGradient id="paint6_linear_53_383" x1="311.083" y1="-2.62212" x2="282.863" y2="234.754" gradientUnits="userSpaceOnUse">
<stop stop-color="#FF928E"/>
<stop offset="1" stop-color="#FE7062"/>
</linearGradient>
<linearGradient id="paint7_linear_53_383" x1="316.74" y1="-1.95045" x2="288.522" y2="235.426" gradientUnits="userSpaceOnUse">
<stop stop-color="#FF928E"/>
<stop offset="1" stop-color="#FE7062"/>
</linearGradient>
<linearGradient id="paint8_linear_53_383" x1="260.509" y1="405.615" x2="508.275" y2="405.615" gradientUnits="userSpaceOnUse">
<stop stop-color="#E1473D"/>
<stop offset="1" stop-color="#E9605A"/>
</linearGradient>
<linearGradient id="paint9_linear_53_383" x1="555.745" y1="108.065" x2="245.939" y2="542.578" gradientUnits="userSpaceOnUse">
<stop stop-color="#FF928E"/>
<stop offset="1" stop-color="#FE7062"/>
</linearGradient>
<linearGradient id="paint10_linear_53_383" x1="462.123" y1="238.476" x2="572.662" y2="238.476" gradientUnits="userSpaceOnUse">
<stop stop-color="#E1473D"/>
<stop offset="1" stop-color="#E9605A"/>
</linearGradient>
<linearGradient id="paint11_linear_53_383" x1="565.209" y1="114.814" x2="255.406" y2="549.327" gradientUnits="userSpaceOnUse">
<stop stop-color="#FF928E"/>
<stop offset="1" stop-color="#FE7062"/>
</linearGradient>
<linearGradient id="paint12_linear_53_383" x1="226.665" y1="294.414" x2="247.056" y2="345.605" gradientUnits="userSpaceOnUse">
<stop stop-color="#09005D"/>
<stop offset="1" stop-color="#1A0F91"/>
</linearGradient>
<linearGradient id="paint13_linear_53_383" x1="178.673" y1="333.412" x2="233.571" y2="409.348" gradientUnits="userSpaceOnUse">
<stop stop-color="#C4421B"/>
<stop offset="1" stop-color="#5C0E16"/>
</linearGradient>
<linearGradient id="paint14_linear_53_383" x1="301.306" y1="622.08" x2="318.621" y2="622.08" gradientUnits="userSpaceOnUse">
<stop stop-color="#4F52FF"/>
<stop offset="1" stop-color="#4042E2"/>
</linearGradient>
<linearGradient id="paint15_linear_53_383" x1="228.144" y1="690.306" x2="253.024" y2="399.314" gradientUnits="userSpaceOnUse">
<stop stop-color="#C4421B"/>
<stop offset="1" stop-color="#5C0E16"/>
</linearGradient>
<linearGradient id="paint16_linear_53_383" x1="220.866" y1="618.922" x2="248.883" y2="618.922" gradientUnits="userSpaceOnUse">
<stop stop-color="#4F52FF"/>
<stop offset="1" stop-color="#4042E2"/>
</linearGradient>
<linearGradient id="paint17_linear_53_383" x1="278.267" y1="694.637" x2="303.151" y2="403.565" gradientUnits="userSpaceOnUse">
<stop stop-color="#C4421B"/>
<stop offset="1" stop-color="#5C0E16"/>
</linearGradient>
<linearGradient id="paint18_linear_53_383" x1="228.76" y1="396.86" x2="241.202" y2="512.365" gradientUnits="userSpaceOnUse">
<stop stop-color="#4F52FF"/>
<stop offset="1" stop-color="#4042E2"/>
</linearGradient>
<linearGradient id="paint19_linear_53_383" x1="297.388" y1="402.531" x2="235.162" y2="502.169" gradientUnits="userSpaceOnUse">
<stop stop-color="#09005D"/>
<stop offset="1" stop-color="#1A0F91"/>
</linearGradient>
<linearGradient id="paint20_linear_53_383" x1="225.412" y1="403.477" x2="230.087" y2="369.26" gradientUnits="userSpaceOnUse">
<stop stop-color="#C4421B"/>
<stop offset="1" stop-color="#5C0E16"/>
</linearGradient>
<linearGradient id="paint21_linear_53_383" x1="244.702" y1="420.15" x2="275.794" y2="420.15" gradientUnits="userSpaceOnUse">
<stop stop-color="#C4421B"/>
<stop offset="1" stop-color="#5C0E16"/>
</linearGradient>
<linearGradient id="paint22_linear_53_383" x1="217.047" y1="362.289" x2="242.956" y2="283.109" gradientUnits="userSpaceOnUse">
<stop stop-color="#C4421B"/>
<stop offset="1" stop-color="#5C0E16"/>
</linearGradient>
<linearGradient id="paint23_linear_53_383" x1="213.368" y1="298.544" x2="243.315" y2="344.809" gradientUnits="userSpaceOnUse">
<stop stop-color="#09005D"/>
<stop offset="1" stop-color="#1A0F91"/>
</linearGradient>
<linearGradient id="paint24_linear_53_383" x1="226.523" y1="365.389" x2="252.431" y2="286.21" gradientUnits="userSpaceOnUse">
<stop stop-color="#C4421B"/>
<stop offset="1" stop-color="#5C0E16"/>
</linearGradient>
<linearGradient id="paint25_linear_53_383" x1="172.075" y1="338.182" x2="226.974" y2="414.117" gradientUnits="userSpaceOnUse">
<stop stop-color="#C4421B"/>
<stop offset="1" stop-color="#5C0E16"/>
</linearGradient>
<linearGradient id="paint26_linear_53_383" x1="155.907" y1="252.046" x2="149.806" y2="336.006" gradientUnits="userSpaceOnUse">
<stop stop-color="#C4421B"/>
<stop offset="1" stop-color="#5C0E16"/>
</linearGradient>
<linearGradient id="paint27_linear_53_383" x1="401.466" y1="602.249" x2="292.473" y2="720.892" gradientUnits="userSpaceOnUse">
<stop stop-color="#09005D"/>
<stop offset="1" stop-color="#1A0F91"/>
</linearGradient>
<linearGradient id="paint28_linear_53_383" x1="425.986" y1="484.566" x2="374.62" y2="602.644" gradientUnits="userSpaceOnUse">
<stop stop-color="#FF928E"/>
<stop offset="1" stop-color="#FEB3B1"/>
</linearGradient>
<linearGradient id="paint29_linear_53_383" x1="374.324" y1="612.919" x2="349.41" y2="449.068" gradientUnits="userSpaceOnUse">
<stop stop-color="#09005D"/>
<stop offset="1" stop-color="#1A0F91"/>
</linearGradient>
<linearGradient id="paint30_linear_53_383" x1="376.993" y1="579.768" x2="268" y2="698.413" gradientUnits="userSpaceOnUse">
<stop stop-color="#09005D"/>
<stop offset="1" stop-color="#1A0F91"/>
</linearGradient>
<linearGradient id="paint31_linear_53_383" x1="395.918" y1="471.486" x2="344.555" y2="589.564" gradientUnits="userSpaceOnUse">
<stop stop-color="#FF928E"/>
<stop offset="1" stop-color="#FEB3B1"/>
</linearGradient>
<linearGradient id="paint32_linear_53_383" x1="361.177" y1="614.918" x2="336.263" y2="451.068" gradientUnits="userSpaceOnUse">
<stop stop-color="#09005D"/>
<stop offset="1" stop-color="#1A0F91"/>
</linearGradient>
<linearGradient id="paint33_linear_53_383" x1="384.397" y1="462.363" x2="347.782" y2="374.314" gradientUnits="userSpaceOnUse">
<stop stop-color="#4F52FF"/>
<stop offset="1" stop-color="#4042E2"/>
</linearGradient>
<linearGradient id="paint34_linear_53_383" x1="387.421" y1="413.124" x2="474.41" y2="297.435" gradientUnits="userSpaceOnUse">
<stop stop-color="#FF928E"/>
<stop offset="1" stop-color="#FEB3B1"/>
</linearGradient>
<linearGradient id="paint35_linear_53_383" x1="465.138" y1="309.402" x2="448.35" y2="335.363" gradientUnits="userSpaceOnUse">
<stop stop-color="#FF928E"/>
<stop offset="1" stop-color="#FEB3B1"/>
</linearGradient>
<linearGradient id="paint36_linear_53_383" x1="499.8" y1="287.307" x2="461.631" y2="319.393" gradientUnits="userSpaceOnUse">
<stop stop-color="#FF928E"/>
<stop offset="1" stop-color="#FEB3B1"/>
</linearGradient>
<linearGradient id="paint37_linear_53_383" x1="346.971" y1="477.927" x2="310.355" y2="389.88" gradientUnits="userSpaceOnUse">
<stop stop-color="#4F52FF"/>
<stop offset="1" stop-color="#4042E2"/>
</linearGradient>
<linearGradient id="paint38_linear_53_383" x1="368.317" y1="370.801" x2="335.759" y2="413.057" gradientUnits="userSpaceOnUse">
<stop stop-color="#FF928E"/>
<stop offset="1" stop-color="#FEB3B1"/>
</linearGradient>
<linearGradient id="paint39_linear_53_383" x1="383.617" y1="402.383" x2="418.013" y2="545.81" gradientUnits="userSpaceOnUse">
<stop stop-color="#09005D"/>
<stop offset="1" stop-color="#1A0F91"/>
</linearGradient>
<linearGradient id="paint40_linear_53_383" x1="365.326" y1="419.484" x2="508.415" y2="257.958" gradientUnits="userSpaceOnUse">
<stop stop-color="#FF928E"/>
<stop offset="1" stop-color="#FEB3B1"/>
</linearGradient>
<linearGradient id="paint41_linear_53_383" x1="364.181" y1="352.345" x2="337.734" y2="403.246" gradientUnits="userSpaceOnUse">
<stop stop-color="#FF928E"/>
<stop offset="1" stop-color="#FEB3B1"/>
</linearGradient>
<linearGradient id="paint42_linear_53_383" x1="3276.2" y1="1269.77" x2="3238.79" y2="1257.86" gradientUnits="userSpaceOnUse">
<stop stop-color="#FF928E"/>
<stop offset="1" stop-color="#FEB3B1"/>
</linearGradient>
<linearGradient id="paint43_linear_53_383" x1="330.104" y1="315.445" x2="365.476" y2="343.38" gradientUnits="userSpaceOnUse">
<stop stop-color="#09005D"/>
<stop offset="1" stop-color="#1A0F91"/>
</linearGradient>
<linearGradient id="paint44_linear_53_383" x1="3274.01" y1="1276.65" x2="3236.6" y2="1264.74" gradientUnits="userSpaceOnUse">
<stop stop-color="#FF928E"/>
<stop offset="1" stop-color="#FEB3B1"/>
</linearGradient>
</defs>
</svg>
