<svg width="178" height="90" viewBox="0 0 178 90" fill="none" xmlns="http://www.w3.org/2000/svg">
<path d="M43.9261 35.2914C43.9261 29.1997 40.6923 23.9688 35.2167 21.3202C31.7862 19.6648 26.904 19.4662 23.2096 19.4662H10.8079V68.4646H13.248H15.6901V23.9025H24.2001C27.6306 23.9025 30.6641 24.1012 33.6987 25.7565C36.9972 27.5443 39.0439 31.4509 39.0439 35.1589C39.0439 40.2574 35.7448 44.0978 30.9949 45.5545C28.0262 46.4815 23.5404 46.2829 20.5058 46.2829L37.0649 68.4646H43.1993L29.4125 50.1895C37.5928 49.6598 43.9261 43.6343 43.9261 35.2914Z" fill="#419EAC"/>
<path d="M77.5979 68.4646V64.0283H55.762V45.9518H76.8731V41.5155H55.762V23.9025H77.5979V19.4662H50.8799V68.4646H77.5979Z" fill="#419EAC"/>
<path d="M112.836 54.9569C112.836 47.3423 107.886 42.906 100.893 40.7871C95.9456 39.2642 89.2829 38.1386 89.2829 31.5834C89.2829 26.6173 93.2413 23.0418 98.1231 23.0418C102.939 23.0418 106.766 27.147 106.766 31.9144H111.648C111.648 24.2998 105.644 18.6054 98.1231 18.6054C90.6025 18.6054 84.4007 24.035 84.4007 31.782C84.4007 40.2574 90.1412 42.6411 97.0682 44.6938C102.412 46.2829 107.954 48.5342 107.954 55.1556C107.954 60.6514 103.533 64.8891 98.1231 64.8891C91.9878 64.8891 88.2281 60.7838 87.9642 54.7583H83.082C83.214 63.5648 89.481 69.3254 98.1231 69.3254C106.172 69.3254 112.836 63.1013 112.836 54.9569Z" fill="#454238"/>
<path d="M145.823 68.4646V64.0283H123.987V45.9518H145.099V41.5155H123.987V23.9025H145.823V19.4662H119.105V68.4646H145.823Z" fill="#454238"/>
<path d="M177.498 23.9025V19.4662H150.253V23.9025H161.466V68.4646H166.349V23.9025H177.498Z" fill="#454238"/>
<path d="M163.876 17.0535H150.253L163.876 0.5L177.5 17.0535H163.876Z" fill="#454238"/>
<path d="M12.8695 70.36H0.5L13.248 89.5L25.239 70.36H12.8695Z" fill="#419EAC"/>
</svg>
