<svg width="80" height="40" viewBox="0 0 80 40" fill="none" xmlns="http://www.w3.org/2000/svg">
<path d="M19.6276 15.6366C19.6276 12.8987 18.166 10.5478 15.6912 9.35739C14.1407 8.61341 11.934 8.52413 10.2642 8.52413H4.65894V30.5459H5.7618H6.86557V10.518H10.7119C12.2624 10.518 13.6335 10.6073 15.0051 11.3512C16.4959 12.1547 17.421 13.9105 17.421 15.577C17.421 17.8685 15.9298 19.5945 13.783 20.2492C12.4412 20.6659 10.4138 20.5766 9.04216 20.5766L16.5265 30.5459H19.2991L13.0678 22.3324C16.7651 22.0943 19.6276 19.3862 19.6276 15.6366Z" fill="white"/>
<path d="M34.8465 30.5459V28.552H24.9772V20.4278H34.5189V18.4339H24.9772V10.518H34.8465V8.52413H22.7706V30.5459H34.8465Z" fill="white"/>
<path d="M50.7733 24.475C50.7733 21.0527 48.5361 19.0589 45.3755 18.1066C43.1392 17.4221 40.1278 16.9162 40.1278 13.9701C40.1278 11.7381 41.917 10.1311 44.1234 10.1311C46.3001 10.1311 48.0298 11.9762 48.0298 14.1188H50.2365C50.2365 10.6965 47.5226 8.13726 44.1234 8.13726C40.7243 8.13726 37.9212 10.5775 37.9212 14.0593C37.9212 17.8685 40.5158 18.9398 43.6466 19.8624C46.0618 20.5766 48.5667 21.5884 48.5667 24.5643C48.5667 27.0343 46.5684 28.9389 44.1234 28.9389C41.3504 28.9389 39.6511 27.0938 39.5318 24.3858H37.3252C37.3848 28.3437 40.2174 30.9328 44.1234 30.9328C47.7611 30.9328 50.7733 28.1354 50.7733 24.475Z" fill="white"/>
<path d="M65.6829 30.5459V28.552H55.8135V20.4278H65.3553V18.4339H55.8135V10.518H65.6829V8.52413H53.6069V30.5459H65.6829Z" fill="white"/>
<path d="M79.9991 10.518V8.52413H67.6847V10.518H72.7532V30.5459H74.9598V10.518H79.9991Z" fill="white"/>
<path d="M73.8424 7.43978H67.6847L73.8424 0L80 7.43978H73.8424Z" fill="white"/>
<path d="M5.59073 31.3977H0L5.7618 40L11.1815 31.3977H5.59073Z" fill="white"/>
</svg>
