<svg width="428" height="324" viewBox="0 0 428 324" fill="none" xmlns="http://www.w3.org/2000/svg">
<g clip-path="url(#clip0_1042_4724)">
<rect width="428" height="175" transform="translate(0 149)" fill="#419EAC"/>
<g style="mix-blend-mode:overlay" opacity="0.2">
<path d="M122.477 301.438C123.243 302.889 124.52 304.006 126.061 304.575C127.602 305.144 129.299 305.124 130.827 304.519C132.354 303.914 133.603 302.766 134.335 301.297C135.066 299.828 135.228 298.141 134.789 296.561L143.138 291.794L146.302 297.336L148.656 295.984L145.503 290.442L146.147 290.065L149.3 295.607L154.018 292.914L150.854 287.372L152.608 286.374L150.743 283.127L132.98 293.302C131.839 292.115 130.298 291.392 128.655 291.273C127.012 291.154 125.383 291.647 124.082 292.657C122.782 293.668 121.903 295.123 121.614 296.743C121.326 298.362 121.649 300.031 122.522 301.426L122.477 301.438ZM125.319 299.819C124.982 299.234 124.827 298.561 124.873 297.887C124.919 297.213 125.164 296.568 125.578 296.033C125.991 295.499 126.554 295.098 127.195 294.883C127.837 294.668 128.527 294.648 129.18 294.825C129.833 295.002 130.419 295.368 130.863 295.877C131.308 296.387 131.591 297.016 131.676 297.686C131.762 298.356 131.647 299.037 131.346 299.641C131.044 300.246 130.569 300.748 129.982 301.083C129.196 301.532 128.263 301.651 127.389 301.414C126.515 301.177 125.77 300.604 125.319 299.819Z" fill="white"/>
</g>
<g style="mix-blend-mode:overlay" opacity="0.2">
<path d="M72.7427 170.526H64.4667V161.851H57.9771V170.526H49.6785V177.31H57.9771V185.984H64.4667V177.31H72.7427V170.526Z" fill="white"/>
</g>
<g style="mix-blend-mode:overlay" opacity="0.2">
<path d="M346.257 165.728H338.592V157.739H332.6V165.728H324.934V172.015H332.6V180.004H338.592V172.015H346.257V165.728Z" fill="white"/>
</g>
<g style="mix-blend-mode:overlay" opacity="0.2">
<path d="M23.0869 254.956H14.7882V246.282H8.2986V254.956H0V261.74H8.2986V270.415H14.7882V261.74H23.0869V254.956Z" fill="white"/>
</g>
<g style="mix-blend-mode:overlay" opacity="0.2">
<path d="M220.603 273.889H208.596V261.338H199.189V273.889H187.182V283.722H199.189V296.273H208.596V283.722H220.603V273.889Z" fill="white"/>
</g>
<g style="mix-blend-mode:overlay" opacity="0.2">
<path d="M208.03 121.385C203.303 119.665 198.823 117.279 194.712 114.294L187.182 136.276C184.491 144.053 187.589 154.642 195.187 157.549L195.594 157.691C203.146 160.457 211.92 154.429 214.588 146.653L222.185 124.458C217.357 124.098 212.596 123.065 208.03 121.385ZM210.925 132.825C213.186 133.369 214.565 135.189 214.045 136.986C211.172 136.544 208.336 135.864 205.566 134.953C206.089 133.99 206.918 133.25 207.91 132.861C208.902 132.472 209.993 132.46 210.992 132.825H210.925ZM198.443 128.098C199.42 128.497 200.234 129.239 200.745 130.196C201.257 131.153 201.434 132.267 201.247 133.345C198.584 132.17 196.014 130.779 193.559 129.185C194.305 127.46 196.43 127.034 198.511 128.145L198.443 128.098ZM197.47 151.877H197.222C191.727 149.82 189.149 142.587 190.438 136.158C192.699 142.067 195.639 145.613 199.234 147.031C202.83 148.449 207.216 147.504 212.123 144.337C209.206 149.986 202.965 153.791 197.538 151.924L197.47 151.877Z" fill="white"/>
</g>
<g style="mix-blend-mode:overlay" opacity="0.2">
<path d="M201.654 207.588C197.62 208.718 193.46 209.274 189.285 209.243L194.146 228.46C195.865 235.267 202.92 241.058 209.545 239.214H209.771C216.397 237.371 219.789 228.672 218.047 221.889L213.186 202.719C209.565 204.869 205.687 206.507 201.654 207.588ZM194.644 219.407C197.288 219.311 199.827 218.296 201.857 216.523C202.013 216.965 202.082 217.435 202.061 217.905C202.039 218.375 201.926 218.836 201.73 219.26C201.533 219.684 201.257 220.062 200.918 220.371C200.578 220.681 200.183 220.915 199.754 221.061C198.841 221.435 197.831 221.464 196.899 221.145C195.967 220.826 195.169 220.178 194.644 219.312V219.407ZM207.058 229.003C204.077 229.788 201.342 231.368 199.121 233.589C199.359 231.652 200.165 229.839 201.428 228.4C202.691 226.961 204.35 225.966 206.176 225.552C210.992 224.252 214.769 226.19 216.125 228.885C213.137 228.204 210.043 228.212 207.058 228.909V229.003ZM209.658 218.319C209.218 218.4 208.767 218.388 208.331 218.284C207.896 218.179 207.485 217.985 207.122 217.712C206.76 217.438 206.453 217.092 206.221 216.693C205.988 216.294 205.835 215.851 205.769 215.388C208.379 215.88 211.071 215.439 213.412 214.136C213.348 215.171 212.936 216.149 212.25 216.897C211.563 217.645 210.645 218.115 209.658 218.225V218.319Z" fill="white"/>
</g>
<g style="mix-blend-mode:overlay" opacity="0.2">
<path d="M118.984 338.11L107.882 329.601L98.0005 343.428L109.193 352.032C110.063 352.775 111.067 353.325 112.146 353.649C113.225 353.973 114.356 354.064 115.47 353.917C116.583 353.77 117.657 353.387 118.625 352.793C119.593 352.198 120.435 351.404 121.099 350.459C121.764 349.513 122.238 348.436 122.493 347.293C122.747 346.15 122.776 344.965 122.578 343.81C122.38 342.655 121.959 341.554 121.342 340.574C120.724 339.594 119.922 338.756 118.984 338.11ZM106.774 333.525L107.814 332.059L117.922 339.836C119.236 340.89 120.102 342.441 120.334 344.156C120.567 345.87 120.147 347.612 119.165 349.007C119.165 349.149 118.939 349.267 118.826 349.409C117.153 343.381 112.427 338.323 106.774 333.525ZM94.6539 319.343L105.575 327.734L95.6714 341.561L84.8855 333.265C83.9741 332.61 83.1979 331.771 82.6028 330.796C82.0078 329.822 81.6062 328.733 81.4217 327.593C81.2373 326.453 81.2739 325.286 81.5292 324.162C81.7846 323.037 82.2536 321.978 82.9083 321.046C83.563 320.114 84.3901 319.33 85.3405 318.739C86.2909 318.148 87.3452 317.763 88.4408 317.606C89.5364 317.45 90.651 317.525 91.7183 317.827C92.7856 318.129 93.7839 318.653 94.6539 319.366V319.343Z" fill="white"/>
</g>
<g style="mix-blend-mode:overlay" opacity="0.2">
<path d="M408.328 239.427C408.318 239.7 408.242 239.966 408.108 240.201C407.974 240.435 407.786 240.631 407.561 240.77C407.336 240.909 407.081 240.986 406.82 240.995C406.559 241.004 406.3 240.944 406.066 240.821C405.462 240.517 404.981 239.997 404.71 239.356C403.669 236.992 405.614 234.983 407.513 234.109C408.575 233.607 409.739 233.392 410.901 233.483C412.062 233.574 413.183 233.968 414.161 234.629C415.743 235.935 416.846 237.771 417.282 239.829C417.728 241.695 417.673 243.653 417.122 245.488C416.571 247.323 415.547 248.964 414.161 250.229C412.611 251.648 410.75 252.647 408.743 253.137C406.736 253.628 404.644 253.595 402.652 253.042C400.836 252.491 399.142 251.57 397.668 250.333C396.193 249.096 394.967 247.566 394.059 245.832C393.003 243.632 392.453 241.204 392.453 238.741C392.453 236.279 393.003 233.851 394.059 231.65C395.829 227.682 398.937 224.534 402.788 222.81C406.02 221.436 409.575 221.115 412.986 221.888C416.969 222.886 420.554 225.161 423.238 228.395C425.923 231.629 427.572 235.66 427.955 239.923C427.17 235.091 424.765 230.709 421.171 227.561C419.348 225.908 417.218 224.667 414.915 223.914C412.611 223.162 410.184 222.915 407.785 223.189C403.822 223.75 400.221 225.896 397.741 229.176C395.261 232.456 394.096 236.614 394.489 240.774C394.781 242.838 395.552 244.796 396.735 246.477C397.917 248.158 399.475 249.511 401.273 250.418C403.113 251.369 405.176 251.748 407.216 251.509C409.257 251.27 411.189 250.424 412.782 249.071C413.722 248.218 414.523 247.212 415.156 246.092C415.936 244.548 416.236 242.789 416.016 241.058C415.895 239.842 415.549 238.662 414.998 237.583C414.708 236.966 414.318 236.407 413.845 235.929C413.098 235.239 412.195 234.759 411.222 234.536C410.249 234.313 409.237 234.353 408.282 234.652C406.405 235.196 404.054 237.016 405.071 239.38C405.126 239.513 405.194 239.64 405.275 239.758C405.572 240.192 405.968 240.542 406.428 240.774C406.636 240.847 406.857 240.869 407.074 240.839C407.291 240.808 407.498 240.725 407.68 240.597C407.861 240.469 408.012 240.299 408.12 240.1C408.229 239.901 408.292 239.679 408.305 239.451L408.328 239.427ZM389.039 245.809C389.775 247.899 390.812 249.86 392.115 251.623C394.883 255.324 398.846 257.845 403.262 258.714C406.761 259.359 410.365 258.877 413.595 257.332C416.826 255.787 419.531 253.252 421.352 250.063C423.141 246.784 423.75 242.945 423.071 239.238C422.664 236.946 421.76 234.782 420.427 232.913C419.094 231.045 417.368 229.521 415.382 228.459C413.385 227.392 411.152 226.897 408.911 227.026C406.671 227.154 404.503 227.902 402.629 229.192C401.098 230.343 399.876 231.887 399.084 233.676C398.292 235.465 397.955 237.438 398.107 239.403C398.334 241.642 399.359 243.71 400.979 245.194C402.39 246.58 404.267 247.327 406.202 247.274C407.273 247.193 408.299 246.792 409.158 246.117C410.016 245.442 410.67 244.522 411.041 243.469C411.257 242.937 411.323 242.352 411.231 241.782C411.138 241.212 410.892 240.682 410.521 240.254C409.88 239.711 409.085 239.403 408.26 239.38C409.103 239.438 409.901 239.796 410.521 240.396C410.817 240.799 411 241.28 411.048 241.786C411.096 242.291 411.007 242.8 410.792 243.256C410.351 244.326 409.578 245.209 408.597 245.762C407.616 246.315 406.486 246.507 405.388 246.305C403.837 245.942 402.441 245.063 401.408 243.8C400.667 242.892 400.131 241.821 399.842 240.667C399.552 239.513 399.515 238.305 399.735 237.134C400.163 234.871 401.282 232.814 402.923 231.272C403.605 230.578 404.423 230.046 405.32 229.712C406.492 229.188 407.753 228.915 409.028 228.909C410.979 228.925 412.902 229.393 414.659 230.28C416.874 231.504 418.692 233.388 419.882 235.692C421.078 237.999 421.62 240.615 421.442 243.232C421.299 245.193 420.768 247.1 419.882 248.834C418.835 250.816 417.409 252.551 415.694 253.934C413.978 255.316 412.01 256.316 409.91 256.871C407.994 257.443 405.984 257.596 404.009 257.32C402.257 257.063 400.546 256.562 398.921 255.831C396.865 254.864 395.007 253.492 393.449 251.789C391.901 250.078 390.619 248.124 389.65 245.998C388.916 244.272 388.348 242.475 387.954 240.632C388.148 242.392 388.511 244.126 389.039 245.809Z" fill="white"/>
</g>
<g style="mix-blend-mode:overlay" opacity="0.2">
<path d="M358.181 301.261C358.175 301.426 358.129 301.586 358.049 301.728C357.969 301.87 357.856 301.988 357.721 302.072C357.586 302.156 357.433 302.203 357.276 302.208C357.12 302.214 356.964 302.178 356.824 302.103C356.462 301.919 356.173 301.605 356.011 301.218C355.387 299.79 356.553 298.575 357.692 298.047C358.329 297.744 359.028 297.614 359.724 297.669C360.421 297.724 361.093 297.962 361.68 298.361C362.629 299.15 363.29 300.26 363.552 301.504C363.819 302.631 363.786 303.814 363.456 304.923C363.125 306.032 362.511 307.024 361.68 307.788C360.75 308.646 359.633 309.249 358.43 309.546C357.226 309.842 355.971 309.822 354.776 309.488C353.687 309.155 352.671 308.599 351.787 307.851C350.902 307.103 350.167 306.179 349.622 305.132C348.989 303.802 348.659 302.334 348.659 300.847C348.659 299.359 348.989 297.891 349.622 296.561C350.684 294.163 352.548 292.261 354.858 291.219C356.797 290.389 358.929 290.195 360.975 290.662C363.364 291.265 365.514 292.64 367.124 294.594C368.734 296.549 369.724 298.985 369.953 301.561C369.482 298.641 368.04 295.993 365.884 294.09C364.791 293.091 363.513 292.341 362.132 291.886C360.75 291.432 359.294 291.282 357.855 291.448C355.478 291.787 353.318 293.084 351.831 295.066C350.343 297.048 349.644 299.561 349.88 302.075C350.055 303.322 350.518 304.505 351.227 305.521C351.936 306.537 352.871 307.354 353.949 307.903C355.053 308.477 356.29 308.706 357.514 308.562C358.738 308.418 359.897 307.906 360.853 307.088C361.416 306.573 361.897 305.965 362.277 305.289C362.744 304.355 362.924 303.292 362.792 302.246C362.719 301.511 362.512 300.798 362.182 300.147C362.008 299.774 361.774 299.436 361.49 299.147C361.042 298.73 360.501 298.44 359.917 298.305C359.333 298.17 358.726 298.194 358.153 298.375C357.028 298.704 355.617 299.804 356.228 301.232C356.26 301.313 356.301 301.39 356.35 301.461C356.528 301.723 356.766 301.934 357.041 302.075C357.166 302.119 357.298 302.132 357.429 302.114C357.559 302.095 357.683 302.045 357.792 301.968C357.901 301.891 357.991 301.788 358.056 301.668C358.121 301.547 358.159 301.413 358.167 301.275L358.181 301.261ZM346.611 305.117C347.053 306.381 347.675 307.566 348.456 308.631C350.117 310.867 352.493 312.391 355.143 312.916C357.241 313.306 359.403 313.014 361.34 312.081C363.278 311.147 364.901 309.615 365.993 307.688C367.066 305.707 367.431 303.387 367.024 301.146C366.78 299.761 366.237 298.454 365.438 297.325C364.638 296.195 363.603 295.275 362.412 294.633C361.214 293.988 359.875 293.689 358.531 293.767C357.187 293.845 355.887 294.296 354.763 295.076C353.844 295.771 353.112 296.705 352.636 297.786C352.161 298.867 351.959 300.059 352.05 301.246C352.186 302.599 352.801 303.849 353.773 304.746C354.619 305.583 355.745 306.035 356.906 306.003C357.548 305.954 358.164 305.711 358.679 305.303C359.193 304.895 359.586 304.34 359.808 303.703C359.938 303.382 359.977 303.028 359.922 302.684C359.867 302.34 359.719 302.019 359.496 301.761C359.112 301.432 358.635 301.246 358.14 301.232C358.646 301.267 359.124 301.484 359.496 301.846C359.674 302.09 359.783 302.381 359.812 302.686C359.841 302.991 359.788 303.299 359.659 303.575C359.394 304.221 358.93 304.755 358.342 305.089C357.754 305.423 357.076 305.539 356.417 305.417C355.487 305.198 354.65 304.666 354.03 303.903C353.586 303.355 353.264 302.708 353.091 302.01C352.917 301.313 352.895 300.583 353.027 299.875C353.283 298.508 353.954 297.265 354.939 296.333C355.348 295.913 355.839 295.592 356.377 295.39C357.08 295.073 357.836 294.908 358.601 294.905C359.771 294.915 360.924 295.198 361.978 295.733C363.307 296.473 364.397 297.611 365.111 299.004C365.829 300.398 366.153 301.979 366.047 303.56C365.961 304.745 365.643 305.898 365.111 306.946C364.483 308.143 363.628 309.192 362.599 310.027C361.57 310.862 360.389 311.466 359.13 311.802C357.98 312.148 356.775 312.24 355.59 312.073C354.539 311.918 353.513 311.616 352.538 311.173C351.305 310.589 350.191 309.76 349.256 308.731C348.328 307.697 347.559 306.516 346.978 305.232C346.538 304.189 346.197 303.103 345.96 301.989C346.076 303.052 346.295 304.1 346.611 305.117Z" fill="white"/>
</g>
<g style="mix-blend-mode:overlay" opacity="0.2">
<path d="M39.285 123.708C38.4473 115.217 30.9487 112.386 23.3689 112.287C11.4116 112.287 9.0201 120.424 8.73637 123.311C8.64179 124.175 8.20944 127.854 8.20944 127.854C8.10135 128.363 7.69601 130.684 8.47965 131.151C8.65231 131.245 8.79385 131.391 8.88553 131.57C8.97721 131.749 9.01472 131.954 8.99308 132.156L6.99344 138.68C6.9517 138.9 6.95691 139.128 7.0087 139.346C7.06049 139.564 7.1576 139.768 7.29308 139.942C7.42856 140.116 7.59909 140.257 7.79251 140.354C7.98594 140.452 8.19748 140.503 8.41209 140.505L10.1956 140.647C9.88482 140.647 10.6549 149.76 10.8846 150.793C11.0108 151.359 11.3347 151.854 11.7925 152.182C12.2502 152.509 12.8085 152.645 13.3572 152.562L19.4912 151.968L18.9643 157.629H36.4072L35.3533 143.35C38.8392 135.51 39.9606 130.444 39.285 123.708ZM27.5574 143.024H20.5721L21.6395 129.863C21.1206 129.47 20.6982 128.953 20.407 128.355C20.1158 127.757 19.964 127.096 19.9641 126.425C19.978 125.708 20.1651 125.006 20.5077 124.386C20.8504 123.765 21.3375 123.245 21.9237 122.875C22.5099 122.505 23.176 122.296 23.86 122.269C24.544 122.241 25.2236 122.395 25.8353 122.717C26.4471 123.039 26.971 123.517 27.3584 124.108C27.7458 124.699 27.984 125.384 28.0507 126.097C28.1174 126.811 28.0105 127.53 27.7399 128.189C27.4694 128.847 27.044 129.424 26.5035 129.863L27.5574 143.024Z" fill="white"/>
</g>
<g style="mix-blend-mode:overlay" opacity="0.2">
<path d="M309.332 204.586C309.262 203.978 309.141 203.377 308.97 202.79C308.834 202.246 308.676 201.774 308.541 201.301C308.269 200.379 307.975 199.575 307.749 198.937C307.319 197.614 307.003 196.881 307.003 196.881C307.003 196.881 307.003 197.685 307.003 199.079C307.003 199.788 307.003 200.639 307.003 201.608C307.003 202.081 307.003 202.625 307.003 203.145C307.036 203.664 307.036 204.185 307.003 204.705C306.906 205.84 306.678 206.959 306.325 208.037C305.958 209.144 305.399 210.17 304.674 211.063C304.327 211.461 303.931 211.811 303.498 212.103C303.296 212.225 303.084 212.327 302.865 212.41H302.548H302.3C302.3 212.41 301.486 212.41 301.508 212.41H299.88L299.518 193.737H296.737L296.375 212.41H294.747C294.514 212.434 294.279 212.434 294.046 212.41H293.73H293.39C293.171 212.327 292.959 212.225 292.757 212.103C292.319 211.818 291.923 211.468 291.582 211.063C290.85 210.175 290.29 209.148 289.931 208.037C289.57 206.969 289.342 205.857 289.252 204.728C289.252 204.468 289.252 204.232 289.252 203.948V203.097C289.252 202.648 289.252 202.081 289.252 201.608C289.252 200.639 289.252 199.788 289.252 199.079C289.252 197.685 289.252 196.881 289.252 196.881C289.252 196.881 288.959 197.614 288.506 198.937C288.28 199.599 288.009 200.403 287.737 201.301C287.602 201.797 287.444 202.223 287.285 202.814C287.125 203.395 287.004 203.987 286.923 204.586C286.721 205.997 286.721 207.431 286.923 208.841C287.159 210.537 287.762 212.154 288.687 213.568C289.208 214.373 289.858 215.077 290.609 215.648C291.423 216.275 292.356 216.71 293.345 216.925C293.841 217.055 294.349 217.126 294.86 217.138H296.217L295.9 232.785H300.219L299.903 217.138H301.893H302.164H302.435H302.865C303.83 216.929 304.747 216.523 305.562 215.943C306.377 215.363 307.074 214.62 307.613 213.757C308.545 212.344 309.156 210.727 309.4 209.03C309.601 207.554 309.578 206.055 309.332 204.586Z" fill="white"/>
</g>
<g style="mix-blend-mode:overlay" opacity="0.2">
<path d="M121.178 150.458C121.178 149.891 120.974 149.371 120.861 148.898C120.748 148.426 120.59 148.024 120.477 147.622C120.251 146.818 120.002 146.133 119.821 145.566C119.437 144.431 119.165 143.793 119.165 143.793C119.165 143.793 119.165 144.478 119.165 145.684C119.165 146.298 119.165 147.031 119.165 147.858C119.165 148.26 119.165 148.733 119.165 149.182C119.165 149.631 119.165 150.057 119.165 150.529C119.076 151.503 118.879 152.463 118.577 153.389C118.266 154.343 117.783 155.226 117.153 155.989C116.86 156.333 116.526 156.635 116.158 156.888C115.974 156.984 115.785 157.071 115.593 157.148H115.321H115.118C115.118 157.148 114.417 157.148 114.439 157.148H113.037L112.744 141.098H110.188L109.894 157.549H108.538C108.334 157.549 108.131 157.549 107.95 157.549H107.656H107.384C107.192 157.473 107.003 157.386 106.819 157.289C106.451 157.037 106.117 156.735 105.824 156.391C105.194 155.628 104.711 154.745 104.4 153.791C104.103 152.872 103.906 151.92 103.812 150.955C103.8 150.727 103.8 150.498 103.812 150.269V149.56C103.812 149.158 103.812 148.662 103.812 148.26C103.812 147.433 103.812 146.7 103.812 146.086C103.812 144.88 103.812 144.195 103.812 144.195C103.812 144.195 103.563 144.833 103.179 145.967C102.975 146.535 102.726 147.22 102.5 148.024C102.5 148.426 102.252 148.804 102.116 149.324C101.975 149.695 101.854 150.073 101.754 150.458C101.572 151.672 101.572 152.908 101.754 154.122C101.962 155.549 102.481 156.908 103.269 158.093C103.723 158.781 104.28 159.388 104.92 159.89C105.593 160.417 106.363 160.795 107.181 161C107.613 161.09 108.052 161.146 108.492 161.166H109.804L109.555 174.615H113.241L113.06 161.26H115.321H115.683C117.354 160.878 118.82 159.837 119.776 158.353C120.558 157.156 121.076 155.791 121.291 154.359C121.447 153.06 121.409 151.744 121.178 150.458Z" fill="white"/>
</g>
<g style="mix-blend-mode:overlay" opacity="0.2">
<path d="M69.1339 232.89C69.6884 233.194 70.1443 233.663 70.4439 234.238C70.7434 234.813 70.8733 235.467 70.8169 236.119C70.7606 236.771 70.5206 237.391 70.1273 237.9C69.734 238.409 69.2051 238.785 68.6074 238.98C68.0098 239.175 67.3702 239.18 66.7696 238.996C66.169 238.811 65.6344 238.444 65.2333 237.941C64.8322 237.439 64.5827 236.823 64.5163 236.172C64.4499 235.521 64.5695 234.865 64.8602 234.285C65.0532 233.9 65.3169 233.559 65.6361 233.28C65.9553 233.002 66.3239 232.792 66.7208 232.662C67.1176 232.533 67.535 232.486 67.949 232.526C68.3631 232.565 68.7657 232.689 69.1339 232.89ZM57.5113 235.774C58.5515 225.327 67.8224 221.592 77.1838 221.592C91.9946 221.592 94.9568 231.638 95.2734 235.207C95.2734 236.247 95.9291 240.809 95.9291 240.809C96.0422 241.423 96.5623 244.212 95.5899 244.874C95.3797 244.99 95.2071 245.169 95.0944 245.388C94.9817 245.607 94.9338 245.856 94.9568 246.103L97.4215 254.14C97.4908 254.42 97.4975 254.714 97.4411 254.997C97.3848 255.281 97.2668 255.547 97.0964 255.776C96.9259 256.004 96.7076 256.188 96.4581 256.315C96.2087 256.441 95.9349 256.505 95.6578 256.503L93.3966 256.669C93.4044 260.86 93.1248 265.047 92.5599 269.196C92.4028 269.897 91.9991 270.509 91.4292 270.912C90.8592 271.315 90.1649 271.479 89.4847 271.371L81.9097 270.662L82.5654 277.564H61.1745L62.4634 259.954C58.0766 250.311 56.6521 244.047 57.5113 235.774ZM74.4929 241.518H77.0029L78.2239 243.031L77.8847 245.654L80.0103 246.812L81.8645 245.016L83.7865 245.394L85.3015 247.498L87.5627 246.741V244.118L89.0098 242.841L91.4972 243.196L92.6278 240.974L90.9093 239.036L91.0675 237.074L93.08 235.49L92.3564 233.127H89.8465L88.6254 231.614L88.9872 229.014L86.8617 227.832L85.0075 229.629L83.1081 229.463L81.6157 227.359L79.3545 228.116V230.739L77.9074 232.016L75.3974 231.638L74.2894 233.859L76.0079 235.798L75.8271 237.76L73.8146 239.343L74.4929 241.518ZM63.5713 240.383L64.9959 239.84L66.0134 240.383L66.3978 241.943H67.8676L68.5008 240.501L69.6088 240.147L70.9202 240.951L72.0282 239.958L71.5082 238.469L72.0508 237.405L73.5206 237.003L73.6563 235.49L72.2544 234.805L71.9152 233.67L72.684 232.299L71.7569 231.118L70.3097 231.661L69.2922 231.118L68.9078 229.558H67.4606L66.8275 230.999L65.7195 231.354L64.408 230.55L63.2774 231.543L63.8201 233.032L63.2774 234.096L61.8076 234.498L61.6719 236.01L63.0513 236.696L63.4131 237.83L62.6216 239.225L63.5713 240.383ZM78.5857 234.592C78.0677 235.598 77.8472 236.742 77.952 237.879C78.0569 239.016 78.4825 240.095 79.1748 240.979C79.8671 241.863 80.7949 242.512 81.8406 242.844C82.8863 243.176 84.0028 243.176 85.0484 242.844C86.0941 242.512 87.0217 241.862 87.7138 240.978C88.4059 240.094 88.8313 239.015 88.9359 237.878C89.0405 236.741 88.8197 235.597 88.3015 234.591C87.7833 233.585 86.9909 232.763 86.0251 232.229C84.7365 231.523 83.234 231.375 81.8421 231.817C80.4501 232.259 79.2804 233.256 78.5857 234.592Z" fill="white"/>
</g>
<g style="mix-blend-mode:overlay" opacity="0.2">
<path d="M247.919 156.782C248.473 157.086 248.929 157.555 249.229 158.129C249.528 158.704 249.658 159.359 249.602 160.011C249.545 160.662 249.305 161.282 248.912 161.791C248.519 162.301 247.99 162.676 247.392 162.871C246.795 163.067 246.155 163.072 245.555 162.887C244.954 162.702 244.419 162.335 244.018 161.833C243.617 161.33 243.368 160.714 243.301 160.064C243.235 159.413 243.354 158.756 243.645 158.176C243.838 157.792 244.102 157.45 244.421 157.172C244.74 156.893 245.109 156.683 245.506 156.554C245.903 156.424 246.32 156.378 246.734 156.417C247.148 156.456 247.551 156.58 247.919 156.782ZM236.296 159.666C237.336 149.218 246.607 145.484 255.969 145.484C270.78 145.484 273.742 155.529 274.058 159.098C274.058 160.138 274.714 164.7 274.714 164.7C274.827 165.315 275.347 168.104 274.375 168.766C274.165 168.882 273.992 169.061 273.879 169.279C273.767 169.498 273.719 169.747 273.742 169.995L276.206 178.031C276.276 178.312 276.282 178.605 276.226 178.889C276.17 179.172 276.052 179.439 275.881 179.667C275.711 179.895 275.492 180.08 275.243 180.206C274.994 180.332 274.72 180.397 274.443 180.395L272.181 180.56C272.189 184.752 271.91 188.938 271.345 193.088C271.188 193.788 270.784 194.401 270.214 194.804C269.644 195.207 268.95 195.371 268.27 195.262L260.695 194.553L261.35 201.455H239.959L241.248 183.846C236.862 174.202 235.437 167.938 236.296 159.666ZM253.278 165.409H255.788L257.009 166.922L256.67 169.546L258.795 170.704L260.649 168.907L262.571 169.286L264.086 171.389L266.348 170.633V168.009L267.795 166.733L270.282 167.087L271.413 164.866L269.694 162.927L269.852 160.966L271.865 159.382L271.141 157.018H268.631L267.41 155.505L267.772 152.905L265.647 151.724L263.792 153.52L261.893 153.355L260.401 151.251L258.139 152.007V154.631L256.692 155.907L254.182 155.529L253.074 157.751L254.793 159.689L254.612 161.651L252.599 163.235L253.278 165.409ZM242.356 164.275L243.781 163.731L244.798 164.275L245.183 165.835H246.653L247.286 164.393L248.394 164.038L249.705 164.842L250.813 163.849L250.293 162.36L250.836 161.296L252.306 160.895L252.441 159.382L251.039 158.696L250.7 157.562L251.469 156.191L250.542 155.009L249.095 155.553L248.077 155.009L247.693 153.449H246.246L245.612 154.891L244.504 155.245L243.193 154.442L242.062 155.435L242.605 156.924L242.062 157.987L240.593 158.389L240.457 159.902L241.836 160.587L242.198 161.722L241.407 163.116L242.356 164.275ZM257.371 158.484C256.853 159.49 256.632 160.634 256.737 161.771C256.842 162.908 257.267 163.987 257.96 164.871C258.652 165.755 259.58 166.404 260.626 166.736C261.671 167.068 262.788 167.068 263.833 166.735C264.879 166.403 265.807 165.754 266.499 164.87C267.191 163.986 267.616 162.907 267.721 161.769C267.825 160.632 267.605 159.488 267.086 158.483C266.568 157.477 265.776 156.654 264.81 156.12C263.521 155.414 262.019 155.266 260.627 155.708C259.235 156.151 258.065 157.148 257.371 158.484Z" fill="white"/>
</g>
<g style="mix-blend-mode:overlay" opacity="0.2">
<path d="M280.293 273.058L291.283 276.958L295.805 263.201L284.77 259.23C283.903 258.92 282.986 258.791 282.072 258.851C281.157 258.911 280.262 259.159 279.439 259.58C278.616 260.002 277.881 260.588 277.274 261.307C276.668 262.026 276.203 262.862 275.906 263.768C275.61 264.675 275.486 265.633 275.544 266.589C275.601 267.546 275.838 268.481 276.241 269.341C277.056 271.079 278.497 272.407 280.248 273.034L280.293 273.058ZM291.215 273.483L290.74 274.948L280.836 271.379C279.511 270.882 278.428 269.858 277.823 268.53C277.217 267.202 277.138 265.677 277.602 264.288C277.653 264.15 277.714 264.016 277.783 263.887C280.474 268.307 285.517 271.048 291.215 273.412V273.483ZM304.375 281.614L293.566 277.761L298.089 264.005L308.807 267.81C310.558 268.437 311.999 269.765 312.813 271.503C313.628 273.241 313.748 275.245 313.148 277.076C312.549 278.906 311.278 280.413 309.616 281.264C307.953 282.115 306.036 282.241 304.285 281.614H304.375Z" fill="white"/>
</g>
<g style="mix-blend-mode:overlay" opacity="0.2">
<path d="M120.083 216.381L131.072 220.281L135.595 206.525L124.56 202.554C123.693 202.243 122.776 202.114 121.861 202.174C120.947 202.234 120.052 202.482 119.229 202.904C118.406 203.325 117.67 203.912 117.064 204.63C116.458 205.349 115.993 206.185 115.696 207.092C115.399 207.998 115.276 208.957 115.334 209.913C115.391 210.869 115.628 211.804 116.031 212.665C116.845 214.402 118.287 215.731 120.038 216.357L120.083 216.381ZM131.005 216.806L130.53 218.272L120.626 214.703C119.301 214.205 118.218 213.181 117.612 211.853C117.007 210.525 116.928 209.001 117.392 207.612C117.443 207.473 117.504 207.339 117.573 207.21C120.264 211.63 125.306 214.372 131.005 216.736V216.806ZM144.165 224.938L133.356 221.085L137.879 207.328L148.597 211.134C150.348 211.761 151.789 213.089 152.603 214.827C153.417 216.564 153.538 218.569 152.938 220.399C152.339 222.23 151.068 223.736 149.405 224.587C147.743 225.438 145.825 225.564 144.074 224.938H144.165Z" fill="white"/>
</g>
<path opacity="0.1" d="M254.802 348.822C254.886 347.757 255.362 346.768 256.131 346.065C256.9 345.361 257.901 344.998 258.921 345.053C259.944 345.068 260.921 345.5 261.645 346.256C262.369 347.013 262.781 348.035 262.795 349.105C262.795 359.25 262.795 369.422 262.66 379.566C262.583 380.165 262.394 380.742 262.103 381.264C261.811 381.786 261.424 382.242 260.962 382.605C260.501 382.969 259.975 383.233 259.416 383.383C258.856 383.533 258.273 383.564 257.702 383.476C257.126 383.523 256.548 383.449 256 383.26C255.452 383.071 254.945 382.77 254.509 382.375C254.074 381.979 253.717 381.497 253.46 380.957C253.204 380.417 253.052 379.828 253.014 379.226L254.802 348.822ZM260.357 300.142C256.302 299.998 252.298 301.116 248.851 303.352C245.404 305.589 242.668 308.844 240.99 312.707C239.312 316.57 238.767 320.866 239.424 325.053C240.081 329.239 241.91 333.128 244.681 336.227C247.451 339.327 251.038 341.497 254.988 342.464C258.938 343.432 263.073 343.152 266.871 341.662C270.669 340.171 273.959 337.536 276.325 334.089C278.691 330.643 280.026 326.54 280.163 322.3C280.338 316.617 278.352 311.093 274.639 306.94C270.926 302.786 265.79 300.341 260.357 300.142ZM243.342 321.025C243.466 317.673 244.535 314.434 246.416 311.717C248.296 308.999 250.903 306.924 253.909 305.752C256.914 304.581 260.184 304.365 263.306 305.133C266.429 305.901 269.264 307.617 271.456 310.067C273.648 312.516 275.097 315.588 275.623 318.898C276.148 322.207 275.726 325.605 274.409 328.663C273.092 331.722 270.94 334.305 268.222 336.087C265.505 337.869 262.344 338.771 259.138 338.678C256.988 338.616 254.872 338.109 252.912 337.185C250.951 336.262 249.185 334.942 247.716 333.3C246.247 331.658 245.104 329.728 244.353 327.621C243.602 325.514 243.258 323.272 243.342 321.025ZM260.357 300.142C256.302 299.998 252.298 301.116 248.851 303.352C245.404 305.589 242.668 308.844 240.99 312.707C239.312 316.57 238.767 320.866 239.424 325.053C240.081 329.239 241.91 333.128 244.681 336.227C247.451 339.327 251.038 341.497 254.988 342.464C258.938 343.432 263.073 343.152 266.871 341.662C270.669 340.171 273.959 337.536 276.325 334.089C278.691 330.643 280.026 326.54 280.163 322.3C280.338 316.617 278.352 311.093 274.639 306.94C270.926 302.786 265.79 300.341 260.357 300.142ZM243.342 321.025C243.466 317.673 244.535 314.434 246.416 311.717C248.296 308.999 250.903 306.924 253.909 305.752C256.914 304.581 260.184 304.365 263.306 305.133C266.429 305.901 269.264 307.617 271.456 310.067C273.648 312.516 275.097 315.588 275.623 318.898C276.148 322.207 275.726 325.605 274.409 328.663C273.092 331.722 270.94 334.305 268.222 336.087C265.505 337.869 262.344 338.771 259.138 338.678C256.988 338.616 254.872 338.109 252.912 337.185C250.951 336.262 249.185 334.942 247.716 333.3C246.247 331.658 245.104 329.728 244.353 327.621C243.602 325.514 243.258 323.272 243.342 321.025Z" fill="white"/>
<path opacity="0.1" d="M376.449 228.156C376.483 227.711 376.681 227.298 377 227.004C377.319 226.711 377.735 226.559 378.158 226.582C378.583 226.588 378.989 226.769 379.289 227.085C379.589 227.401 379.761 227.827 379.766 228.274C379.766 232.509 379.766 236.756 379.71 240.991C379.678 241.241 379.6 241.482 379.479 241.699C379.358 241.917 379.197 242.107 379.006 242.259C378.814 242.411 378.596 242.522 378.364 242.584C378.131 242.646 377.889 242.66 377.652 242.623C377.413 242.642 377.173 242.612 376.946 242.533C376.718 242.454 376.508 242.328 376.327 242.163C376.146 241.998 375.998 241.797 375.891 241.571C375.785 241.346 375.722 241.1 375.706 240.849L376.449 228.156ZM378.754 207.833C377.071 207.773 375.409 208.239 373.978 209.173C372.547 210.107 371.412 211.466 370.715 213.079C370.019 214.691 369.793 216.485 370.065 218.232C370.338 219.98 371.097 221.604 372.247 222.898C373.397 224.192 374.886 225.098 376.526 225.502C378.165 225.905 379.882 225.789 381.458 225.166C383.035 224.544 384.4 223.444 385.383 222.005C386.365 220.566 386.919 218.854 386.976 217.083C387.048 214.711 386.224 212.405 384.683 210.671C383.142 208.937 381.01 207.916 378.754 207.833ZM371.691 216.551C371.743 215.152 372.187 213.8 372.967 212.665C373.748 211.531 374.83 210.664 376.078 210.175C377.325 209.686 378.682 209.596 379.979 209.917C381.275 210.237 382.452 210.954 383.361 211.976C384.271 212.999 384.873 214.281 385.091 215.663C385.309 217.044 385.134 218.463 384.587 219.74C384.041 221.017 383.147 222.095 382.019 222.839C380.891 223.583 379.579 223.959 378.248 223.921C377.356 223.895 376.478 223.683 375.664 223.298C374.85 222.912 374.117 222.361 373.507 221.675C372.897 220.99 372.423 220.184 372.111 219.305C371.799 218.425 371.657 217.489 371.691 216.551ZM378.754 207.833C377.071 207.773 375.409 208.239 373.978 209.173C372.547 210.107 371.412 211.466 370.715 213.079C370.019 214.691 369.793 216.485 370.065 218.232C370.338 219.98 371.097 221.604 372.247 222.898C373.397 224.192 374.886 225.098 376.526 225.502C378.165 225.905 379.882 225.789 381.458 225.166C383.035 224.544 384.4 223.444 385.383 222.005C386.365 220.566 386.919 218.854 386.976 217.083C387.048 214.711 386.224 212.405 384.683 210.671C383.142 208.937 381.01 207.916 378.754 207.833ZM371.691 216.551C371.743 215.152 372.187 213.8 372.967 212.665C373.748 211.531 374.83 210.664 376.078 210.175C377.325 209.686 378.682 209.596 379.979 209.917C381.275 210.237 382.452 210.954 383.361 211.976C384.271 212.999 384.873 214.281 385.091 215.663C385.309 217.044 385.134 218.463 384.587 219.74C384.041 221.017 383.147 222.095 382.019 222.839C380.891 223.583 379.579 223.959 378.248 223.921C377.356 223.895 376.478 223.683 375.664 223.298C374.85 222.912 374.117 222.361 373.507 221.675C372.897 220.99 372.423 220.184 372.111 219.305C371.799 218.425 371.657 217.489 371.691 216.551Z" fill="white"/>
</g>
<rect width="147.62" height="160" transform="translate(140 60)" fill="white"/>
<path d="M201.535 178.617C201.101 178.697 200.682 178.846 200.297 179.06C199.003 179.753 197.77 180.415 196.525 180.831C194.648 181.462 192.713 181.559 190.649 180.446C186.429 178.181 184.868 172.574 187.301 168.489C190.304 163.452 195.762 164.072 200.176 166.791C200.605 167.055 201.092 167.213 201.595 167.255C202.099 167.296 202.605 167.218 203.073 167.028C203.54 166.838 203.955 166.541 204.283 166.161C204.611 165.782 204.843 165.33 204.959 164.845V145.874V145.347H204.87V145.772H185.413C184.696 145.579 184.071 145.145 183.643 144.545C183.215 143.946 183.011 143.218 183.067 142.487C183.063 141.933 183.208 141.389 183.489 140.91C184.626 138.942 185.669 136.993 185.772 134.932C185.78 133.784 185.484 132.653 184.913 131.653C182.621 127.484 176.945 125.938 172.803 128.332C170.181 129.853 169.074 132.016 168.991 134.35C168.991 136.484 169.802 138.747 171.09 140.784C171.466 141.371 171.632 142.066 171.561 142.757C171.546 143.447 171.302 144.114 170.867 144.655C170.432 145.196 169.83 145.581 169.152 145.752H152.23C152.173 145.837 152.115 145.918 152.061 146.005C150.601 148.389 150.902 150.134 153.082 151.618C154.479 152.567 155.952 153.389 157.174 154.616C159.04 156.498 159.161 157.607 157.737 159.929C156.132 162.549 156.141 162.655 158.605 164.515C159.278 165.015 159.966 165.401 159.038 166.335C157.67 167.725 158.159 169.083 159.336 170.099C160.989 171.52 161.238 173.345 160.929 175.386C160.657 177.158 160.256 178.929 159.919 180.7C159.022 185.472 160.278 187.686 164.644 188.939C169.201 190.248 173.736 189.114 178.282 188.682C181.327 188.392 184.337 187.354 187.443 188.107C189.461 188.6 190.582 189.822 190.844 192.059C191.223 195.322 192.206 198.44 192.769 201.65C193.217 204.27 194.381 205.087 196.769 204.972C198.772 204.883 201.634 204.841 204.955 204.83V181.015C204.773 180.275 204.327 179.625 203.699 179.185C203.07 178.744 202.302 178.542 201.535 178.617Z" fill="#454238"/>
<path d="M221.435 100.898C221.663 101.344 221.994 101.73 222.403 102.025C222.811 102.319 223.285 102.513 223.784 102.591C224.284 102.668 224.795 102.627 225.275 102.471C225.755 102.315 226.191 102.049 226.546 101.693C230.199 98.0378 235.364 96.1824 239.468 100.394C242.796 103.808 242.594 109.62 239.019 112.793C237.266 114.343 235.371 114.697 233.397 114.513C232.088 114.402 230.733 114.042 229.311 113.663C228.887 113.547 228.447 113.501 228.008 113.526C227.244 113.628 226.542 114 226.033 114.573C225.525 115.146 225.243 115.881 225.241 116.643L227.894 127.61L229.659 134.916L229.722 135.18L229.782 135.428L229.867 135.408L249.028 130.891C249.489 130.944 249.932 131.096 250.327 131.336C250.723 131.575 251.06 131.897 251.316 132.279C251.573 132.661 251.741 133.093 251.811 133.546C251.88 133.999 251.849 134.461 251.719 134.901C250.714 138.286 249.925 141.576 252.558 144.477C255.767 148.006 261.654 148.208 265.116 144.92C269.377 140.87 267.507 135.771 263.807 132.162C263.469 131.831 263.211 131.429 263.052 130.987C262.892 130.544 262.835 130.072 262.884 129.605C262.933 129.138 263.088 128.688 263.336 128.287C263.585 127.887 263.921 127.546 264.32 127.291L276.033 124.53C276.645 120.416 276.601 116.232 275.905 112.131C273.887 102.008 269.902 94.1786 263.614 88.4927C250.717 76.8198 235.837 73.6292 220.036 76.1091C218.563 76.3413 217.106 76.6608 215.672 77.0656L218.729 89.7149L221.435 100.898Z" fill="#419EAC"/>
<path d="M241.067 204.983C243.917 204.83 242.534 203.072 241.219 200.333C230.549 178.205 243.258 160.361 245.35 157.864C248.361 154.261 250.782 150.216 252.527 145.874H240.484C240.034 146.031 239.626 146.285 239.289 146.618C238.953 146.951 238.696 147.354 238.538 147.799C238.38 148.243 238.325 148.716 238.377 149.184C238.429 149.652 238.586 150.102 238.838 150.502C241.587 154.861 242.213 160.244 237.111 163.211C232.974 165.613 227.295 164.068 225.001 159.89C223.117 156.462 224.663 153.446 226.436 150.382C226.667 149.984 226.806 149.542 226.845 149.085C226.883 148.628 226.821 148.169 226.661 147.739C226.501 147.309 226.248 146.918 225.92 146.594C225.591 146.271 225.195 146.022 224.759 145.865H205.049V164.11C205.047 164.354 205.017 164.597 204.959 164.834V164.911C204.836 165.391 204.601 165.836 204.271 166.209C203.941 166.582 203.527 166.873 203.062 167.059C202.597 167.244 202.095 167.318 201.595 167.276C201.095 167.233 200.613 167.075 200.187 166.813C195.771 164.096 190.32 163.479 187.312 168.516C184.881 172.603 186.68 178.112 190.9 180.377C192.941 181.471 194.744 181.402 196.523 180.82C197.828 180.336 199.084 179.733 200.274 179.017C200.659 178.798 201.086 178.661 201.528 178.617C203.149 178.333 204.587 179.221 204.95 180.961V181.015C205.01 181.255 205.041 181.501 205.042 181.748V204.83C217.903 204.783 237.562 205.171 241.067 204.983Z" fill="#E1E1E1"/>
<path d="M204.957 181.015V180.961C204.594 179.221 203.163 178.333 201.535 178.617C202.302 178.542 203.071 178.743 203.7 179.184C204.329 179.625 204.775 180.275 204.957 181.015Z" fill="#454238"/>
<path d="M200.176 166.767C195.762 164.048 190.308 163.428 187.301 168.465C184.868 172.548 186.429 178.154 190.649 180.421C192.721 181.528 194.648 181.438 196.525 180.806C194.746 181.391 192.937 181.46 190.903 180.364C186.68 178.099 184.881 172.59 187.315 168.503C190.315 163.465 195.774 164.074 200.189 166.8C200.615 167.061 201.097 167.22 201.597 167.262C202.097 167.305 202.599 167.231 203.064 167.045C203.529 166.86 203.944 166.569 204.273 166.196C204.603 165.823 204.839 165.378 204.961 164.898V164.82C204.845 165.306 204.613 165.758 204.285 166.138C203.957 166.518 203.542 166.815 203.074 167.005C202.606 167.195 202.1 167.273 201.596 167.231C201.092 167.19 200.605 167.031 200.176 166.767Z" fill="#454238"/>
<path d="M222.619 114.028C219.617 108.991 214.16 109.611 209.747 112.33C209.318 112.594 208.831 112.753 208.327 112.795C207.823 112.836 207.316 112.759 206.849 112.568C206.381 112.378 205.966 112.081 205.638 111.701C205.31 111.321 205.078 110.87 204.961 110.384C204.904 110.147 204.874 109.904 204.872 109.66V85.8823C198.296 86.1723 191.898 88.1318 185.758 91.1032C184.108 91.9025 182.484 92.7771 180.874 93.676C169.585 99.9885 163.303 109.68 163.83 123.881C164.129 131.852 160.534 137.651 155.226 142.526C154.266 143.412 153.31 144.284 152.534 145.343C152.431 145.482 152.33 145.626 152.232 145.772H169.152C169.831 145.603 170.436 145.218 170.872 144.677C171.309 144.136 171.554 143.468 171.569 142.777C171.582 142.17 171.415 141.574 171.087 141.061C169.742 138.942 168.919 136.579 168.999 134.37C169.085 132.036 170.192 129.873 172.812 128.352C176.952 125.949 182.628 127.495 184.922 131.673C185.493 132.673 185.789 133.804 185.781 134.952C185.758 137.097 184.673 139.13 183.486 141.18C183.245 141.598 183.103 142.065 183.073 142.545C183.042 143.025 183.123 143.505 183.31 143.95C183.497 144.394 183.785 144.79 184.151 145.107C184.517 145.425 184.952 145.655 185.422 145.781H204.872V127.302C204.875 126.862 204.97 126.428 205.153 126.027C205.335 125.625 205.6 125.266 205.931 124.971C206.262 124.677 206.651 124.454 207.074 124.316C207.497 124.178 207.945 124.129 208.388 124.171C208.829 124.216 209.256 124.353 209.639 124.572C210.833 125.285 212.091 125.886 213.398 126.368C215.273 126.999 217.21 127.096 219.271 125.982C223.492 123.717 225.055 118.111 222.619 114.028Z" fill="#8AC0C8"/>
<path d="M82 66.29C82 69.71 83.0143 73.0533 84.9146 75.8968C86.8148 78.7403 89.5157 80.9564 92.6756 82.2648C95.8355 83.5731 99.3124 83.915 102.667 83.2471C106.021 82.5792 109.101 80.9315 111.519 78.5125C113.937 76.0936 115.583 73.0119 116.249 69.6573C116.915 66.3028 116.571 62.8261 115.261 59.6669C113.951 56.5077 111.733 53.808 108.889 51.9093C106.044 50.0106 102.701 48.9981 99.2806 49C97.0105 49 94.7626 49.4473 92.6654 50.3163C90.5682 51.1853 88.6628 52.4591 87.058 54.0647C85.4533 55.6703 84.1806 57.5765 83.3127 59.6741C82.4448 61.7718 81.9988 64.0199 82 66.29Z" stroke="#419EAC" stroke-width="3.56266" stroke-miterlimit="10"/>
<path d="M105.438 72.4671C104.216 73.6902 102.658 74.5233 100.962 74.8609C99.2654 75.1985 97.5072 75.0255 95.9093 74.3638C94.3114 73.7021 92.9457 72.5814 91.9848 71.1434C91.0239 69.7055 90.511 68.0149 90.511 66.2854C90.511 64.5559 91.0239 62.8653 91.9848 61.4274C92.9457 59.9894 94.3114 58.8687 95.9093 58.207C97.5072 57.5453 99.2654 57.3723 100.962 57.7099C102.658 58.0475 104.216 58.8806 105.438 60.1037C107.078 61.7434 107.998 63.9669 107.998 66.2854C107.998 68.6039 107.078 70.8274 105.438 72.4671Z" fill="#419EAC"/>
<path d="M105.439 60.1035C104.128 58.7894 102.432 57.9294 100.597 57.6497L100.305 57.9411C97.7105 60.536 97.2592 64.2874 99.2994 66.3276L99.3935 66.4216C101.434 68.4618 100.982 72.2131 98.3875 74.808L98.2276 74.9678C100.032 75.1812 101.858 74.8272 103.452 73.955C105.046 73.0828 106.328 71.7358 107.121 70.1011C107.914 68.4664 108.178 66.6253 107.877 64.8336C107.575 63.0419 106.723 61.3886 105.439 60.1035Z" fill="#454238"/>
<path d="M97.9174 70.5208C97.8882 70.881 97.7245 71.217 97.4589 71.462C97.1932 71.707 96.845 71.8431 96.4836 71.8431C96.1223 71.8431 95.7741 71.707 95.5084 71.462C95.2428 71.217 95.0791 70.881 95.0499 70.5208C95.0338 70.3227 95.059 70.1235 95.1237 69.9357C95.1885 69.7478 95.2915 69.5755 95.4262 69.4294C95.5609 69.2833 95.7244 69.1668 95.9064 69.087C96.0884 69.0073 96.2849 68.9661 96.4836 68.9661C96.6823 68.9661 96.8789 69.0073 97.0609 69.087C97.2429 69.1668 97.4064 69.2833 97.5411 69.4294C97.6758 69.5755 97.7788 69.7478 97.8435 69.9357C97.9083 70.1235 97.9335 70.3227 97.9174 70.5208Z" fill="#454238"/>
<path d="M103.558 62.0498C103.56 62.3351 103.477 62.6145 103.32 62.8525C103.162 63.0905 102.938 63.2764 102.675 63.3864C102.411 63.4964 102.121 63.5257 101.842 63.4705C101.562 63.4153 101.304 63.2781 101.103 63.0764C100.901 62.8746 100.764 62.6175 100.709 62.3376C100.653 62.0576 100.683 61.7676 100.793 61.5044C100.903 61.2412 101.089 61.0166 101.327 60.8593C101.565 60.7019 101.844 60.6189 102.129 60.6208C102.508 60.6232 102.87 60.7746 103.137 61.0421C103.405 61.3095 103.556 61.6716 103.558 62.0498Z" fill="#419EAC"/>
<path d="M77.4919 122.246C77.4919 125.064 76.6564 127.818 75.091 130.161C73.5256 132.503 71.3007 134.329 68.6976 135.407C66.0945 136.486 63.2301 136.768 60.4667 136.218C57.7033 135.668 55.1649 134.312 53.1725 132.319C51.1802 130.327 49.8234 127.789 49.2737 125.025C48.7241 122.262 49.0062 119.397 50.0844 116.794C51.1627 114.191 52.9886 111.966 55.3313 110.401C57.674 108.836 60.4284 108 63.2459 108C65.117 107.999 66.97 108.367 68.6988 109.082C70.4277 109.798 71.9985 110.847 73.3216 112.17C74.6447 113.493 75.694 115.064 76.4095 116.793C77.1251 118.522 77.4929 120.375 77.4919 122.246Z" stroke="#419EAC" stroke-width="3.56266" stroke-miterlimit="10"/>
<path d="M63.2462 111.362C61.0918 111.37 58.988 112.016 57.2006 113.218C55.4131 114.421 54.0221 116.126 53.2034 118.119C52.3846 120.112 52.1747 122.302 52.6002 124.414C53.0258 126.526 54.0677 128.465 55.5943 129.985C57.1209 131.505 59.0638 132.538 61.1775 132.955C63.2912 133.372 65.481 133.152 67.4702 132.325C69.4594 131.498 71.1589 130.1 72.3539 128.307C73.5489 126.514 74.1858 124.408 74.1843 122.254C74.1823 120.82 73.8976 119.401 73.3467 118.077C72.7957 116.754 71.9892 115.552 70.9733 114.54C69.9574 113.529 68.752 112.727 67.4261 112.182C66.1002 111.636 64.6798 111.358 63.2462 111.362Z" fill="#454238"/>
<path d="M65.043 115.32H61.4563V129.187H65.043V115.32Z" fill="white"/>
<path d="M70.1788 120.464H56.3125V124.051H70.1788V120.464Z" fill="white"/>
<path d="M144 23.3917C143.995 27.6287 145.264 31.7718 147.646 35.2968C150.028 38.8218 153.416 41.5702 157.382 43.1943C161.347 44.8184 165.711 45.2451 169.923 44.4205C174.134 43.5959 178.002 41.557 181.039 38.5618C184.076 35.5666 186.144 31.7498 186.982 27.5943C187.819 23.4388 187.389 19.1314 185.746 15.2172C184.102 11.3029 181.319 7.95778 177.749 5.60504C174.178 3.2523 169.981 1.9977 165.688 2C159.939 2.00308 154.426 4.25747 150.36 8.26819C146.294 12.2789 144.006 17.7182 144 23.3917Z" stroke="#419EAC" stroke-width="3.56266" stroke-miterlimit="10"/>
<path d="M173.912 18.6406C173.929 17.2186 173.568 15.8171 172.865 14.5754C172.163 13.3336 171.144 12.2947 169.909 11.562C168.674 10.8293 167.266 10.4281 165.825 10.3984C164.385 10.3688 162.961 10.7115 161.696 11.3928C160.432 12.074 159.369 13.0699 158.615 14.2817C157.861 15.4934 157.441 16.8788 157.397 18.3003C157.353 19.7217 157.687 21.1297 158.365 22.3845C159.043 23.6392 160.042 24.6971 161.263 25.4529C161.747 25.8821 162.132 26.4087 162.393 26.9973C162.654 27.5858 162.783 28.2227 162.773 28.8648V31.9042L168.614 31.9042V28.4107C168.707 27.3105 169.207 26.2826 170.018 25.5228C171.209 24.7999 172.193 23.7877 172.875 22.5828C173.556 21.3779 173.914 20.0206 173.912 18.6406Z" fill="#454238"/>
<path d="M162.478 29.8196V33.0919C162.478 33.9319 162.816 34.7376 163.418 35.3316C164.02 35.9256 164.836 36.2593 165.687 36.2593C166.538 36.2593 167.355 35.9256 167.957 35.3316C168.559 34.7376 168.897 33.9319 168.897 33.0919V29.8196H162.478Z" fill="#419EAC"/>
<path d="M167.021 30.332C167.245 29.4936 167.387 28.6202 167.576 27.7701C167.882 26.3727 168.118 24.9753 168.461 23.5896C168.543 23.2519 168.555 22.9026 168.638 22.5648C168.72 22.2271 169.003 21.4004 169.511 21.2606C169.614 21.2289 169.722 21.2203 169.829 21.2355C169.936 21.2507 170.037 21.2894 170.127 21.3486C170.216 21.4079 170.291 21.4862 170.346 21.5777C170.401 21.6693 170.434 21.7719 170.443 21.8778C170.502 22.1307 170.502 22.3935 170.443 22.6464C170.329 22.832 170.17 22.9867 169.981 23.0965C169.791 23.2063 169.577 23.2677 169.357 23.2752C168.843 23.3042 168.326 23.3042 167.812 23.2752H163.599C163.08 23.3042 162.56 23.3042 162.042 23.2752C161.824 23.2679 161.611 23.2065 161.423 23.0966C161.235 22.9867 161.079 22.8318 160.968 22.6464C160.903 22.3942 160.903 22.13 160.968 21.8778C160.979 21.7727 161.014 21.6714 161.069 21.5809C161.124 21.4905 161.199 21.4131 161.288 21.3542C161.377 21.2954 161.478 21.2565 161.583 21.2403C161.689 21.2241 161.797 21.2311 161.9 21.2606C162.419 21.4353 162.679 22.0874 162.785 22.5648C162.891 23.0423 162.868 23.2519 162.962 23.5896C163.292 24.9753 163.54 26.3727 163.847 27.7701C164.036 28.6202 164.166 29.4936 164.39 30.332" stroke="#419EAC" stroke-width="0.712533" stroke-miterlimit="10"/>
<path d="M340.22 66.2716C340.224 69.6921 339.213 73.0369 337.315 75.8828C335.418 78.7287 332.719 80.9477 329.56 82.2593C326.401 83.5709 322.923 83.9159 319.568 83.2509C316.213 82.5859 313.13 80.9406 310.71 78.5233C308.29 76.1059 306.642 73.0251 305.973 69.6705C305.304 66.316 305.646 62.8385 306.954 59.678C308.262 56.5175 310.478 53.816 313.322 51.9153C316.166 50.0145 319.509 49 322.93 49C327.512 49 331.907 50.8191 335.149 54.0576C338.391 57.2961 340.215 61.6892 340.22 66.2716Z" stroke="#419EAC" stroke-width="3.56266" stroke-miterlimit="10"/>
<path d="M327.142 57.5464C327.396 57.5464 327.669 57.5464 327.969 57.5464C329.765 57.7251 331.834 59.361 332.088 62.5107V63.5544C331.853 66.5724 329.577 70.2863 322.93 74.9497C316.283 70.2487 314.017 66.5724 313.782 63.5544V62.5578C314.026 59.4081 316.104 57.7721 317.9 57.5935C318.191 57.5935 318.464 57.5935 318.727 57.5935C320.796 57.5935 321.792 58.5337 322.93 59.85C324.068 58.4961 325.064 57.5935 327.142 57.5935" fill="#454238"/>
<path d="M351.084 122.237C351.083 125.055 351.917 127.81 353.482 130.154C355.047 132.498 357.271 134.325 359.875 135.404C362.478 136.483 365.343 136.766 368.107 136.217C370.871 135.667 373.41 134.31 375.402 132.318C377.395 130.325 378.752 127.786 379.301 125.022C379.851 122.258 379.568 119.393 378.489 116.79C377.41 114.187 375.582 111.962 373.239 110.397C370.895 108.833 368.14 107.998 365.322 108C361.546 108 357.924 109.5 355.254 112.17C352.584 114.84 351.084 118.461 351.084 122.237Z" stroke="#419EAC" stroke-width="3.56266" stroke-miterlimit="10"/>
<path d="M356.522 116.188L364.284 118.233V128.295L356.522 126.327V116.188Z" fill="#419EAC"/>
<path d="M374.121 116.188L366.36 118.233V128.295L374.121 126.327V116.188Z" fill="#419EAC"/>
<path d="M364.284 118.232V128.302C364.592 128.101 364.953 127.993 365.322 127.993C365.69 127.993 366.051 128.101 366.36 128.302V118.232C366.051 118.031 365.69 117.923 365.322 117.923C364.953 117.923 364.592 118.031 364.284 118.232Z" fill="#454238"/>
<path d="M365.322 118.93L357.258 117.086V125.8L365.322 127.69V118.93Z" fill="#454238"/>
<g opacity="0.9">
<path d="M364.501 119.96H364.462L358.041 118.496C358.016 118.49 357.992 118.48 357.971 118.465C357.95 118.451 357.932 118.432 357.919 118.41C357.905 118.389 357.896 118.365 357.891 118.34C357.887 118.314 357.888 118.289 357.894 118.264C357.906 118.214 357.938 118.171 357.981 118.144C358.024 118.117 358.076 118.107 358.126 118.116L364.547 119.58C364.572 119.586 364.596 119.596 364.616 119.611C364.637 119.626 364.654 119.645 364.667 119.666C364.68 119.688 364.689 119.712 364.692 119.738C364.696 119.763 364.694 119.788 364.687 119.813C364.678 119.855 364.654 119.893 364.62 119.92C364.586 119.947 364.544 119.961 364.501 119.96Z" fill="white"/>
</g>
<g opacity="0.9">
<path d="M364.501 121.114H364.462L358.041 119.65C357.99 119.639 357.946 119.608 357.919 119.564C357.891 119.521 357.882 119.468 357.893 119.418C357.905 119.367 357.936 119.324 357.979 119.296C358.023 119.269 358.075 119.259 358.126 119.271L364.547 120.735C364.572 120.74 364.596 120.75 364.616 120.765C364.637 120.78 364.654 120.799 364.667 120.821C364.68 120.842 364.689 120.867 364.692 120.892C364.695 120.917 364.694 120.943 364.687 120.967C364.678 121.009 364.654 121.047 364.62 121.074C364.586 121.101 364.544 121.115 364.501 121.114Z" fill="white"/>
</g>
<g opacity="0.9">
<path d="M364.501 122.261H364.462L358.041 120.797C357.99 120.785 357.946 120.754 357.919 120.711C357.891 120.667 357.882 120.614 357.893 120.564C357.905 120.514 357.936 120.47 357.979 120.442C358.023 120.415 358.075 120.406 358.126 120.417L364.547 121.881C364.572 121.886 364.596 121.897 364.616 121.912C364.637 121.926 364.654 121.945 364.667 121.967C364.68 121.989 364.689 122.013 364.692 122.038C364.695 122.063 364.694 122.089 364.687 122.113C364.679 122.156 364.656 122.195 364.622 122.222C364.587 122.249 364.544 122.263 364.501 122.261Z" fill="white"/>
</g>
<g opacity="0.9">
<path d="M364.501 123.415H364.462L358.041 121.951C358.016 121.945 357.992 121.935 357.971 121.92C357.95 121.905 357.933 121.886 357.919 121.865C357.905 121.843 357.896 121.819 357.892 121.794C357.887 121.769 357.888 121.743 357.893 121.718C357.899 121.693 357.909 121.67 357.924 121.649C357.939 121.628 357.958 121.61 357.979 121.596C358.001 121.583 358.025 121.574 358.05 121.569C358.075 121.565 358.101 121.565 358.126 121.571L364.547 123.035C364.591 123.048 364.63 123.076 364.655 123.114C364.68 123.153 364.691 123.199 364.686 123.245C364.68 123.29 364.658 123.332 364.625 123.364C364.591 123.395 364.547 123.413 364.501 123.415Z" fill="white"/>
</g>
<g opacity="0.9">
<path d="M364.501 124.569H364.462L358.041 123.097C358.016 123.093 357.992 123.083 357.972 123.069C357.951 123.055 357.933 123.037 357.919 123.016C357.905 122.995 357.896 122.972 357.892 122.947C357.887 122.922 357.888 122.897 357.893 122.872C357.899 122.847 357.909 122.824 357.924 122.803C357.939 122.782 357.957 122.764 357.979 122.75C358.001 122.737 358.025 122.727 358.05 122.723C358.075 122.719 358.101 122.72 358.126 122.725L364.547 124.189C364.592 124.202 364.63 124.23 364.655 124.269C364.681 124.307 364.691 124.353 364.686 124.399C364.68 124.445 364.658 124.487 364.625 124.518C364.591 124.549 364.547 124.567 364.501 124.569Z" fill="white"/>
</g>
<g opacity="0.9">
<path d="M364.501 125.692H364.462L358.041 124.22C358.016 124.215 357.992 124.204 357.971 124.19C357.95 124.175 357.932 124.156 357.919 124.135C357.905 124.113 357.896 124.089 357.891 124.064C357.887 124.039 357.888 124.013 357.894 123.988C357.906 123.939 357.938 123.897 357.981 123.871C358.025 123.845 358.077 123.837 358.126 123.848L364.547 125.312C364.592 125.325 364.63 125.353 364.655 125.392C364.681 125.43 364.691 125.476 364.686 125.522C364.68 125.568 364.659 125.61 364.625 125.641C364.591 125.672 364.547 125.69 364.501 125.692Z" fill="white"/>
</g>
<g opacity="0.9">
<path d="M364.501 126.877H364.462L358.041 125.413C358.016 125.408 357.992 125.397 357.971 125.382C357.95 125.368 357.932 125.349 357.919 125.327C357.905 125.306 357.896 125.282 357.891 125.257C357.887 125.231 357.888 125.206 357.894 125.181C357.906 125.132 357.938 125.09 357.981 125.063C358.025 125.037 358.077 125.029 358.126 125.041L364.547 126.466C364.592 126.479 364.63 126.507 364.655 126.546C364.681 126.584 364.691 126.63 364.686 126.676C364.68 126.722 364.659 126.764 364.625 126.795C364.591 126.826 364.547 126.844 364.501 126.846V126.877Z" fill="white"/>
</g>
<path d="M365.322 118.93L373.385 117.086V125.8L365.322 127.69V118.93Z" fill="#E1E1E1"/>
<g opacity="0.9">
<path d="M366.143 119.96C366.099 119.959 366.057 119.943 366.023 119.915C365.989 119.887 365.966 119.848 365.957 119.805C365.951 119.78 365.951 119.754 365.955 119.729C365.959 119.704 365.969 119.68 365.982 119.658C365.996 119.637 366.014 119.618 366.035 119.603C366.056 119.589 366.079 119.578 366.104 119.573L372.526 118.109C372.576 118.099 372.628 118.109 372.671 118.136C372.714 118.164 372.745 118.206 372.758 118.256C372.768 118.306 372.758 118.358 372.73 118.401C372.703 118.444 372.66 118.475 372.611 118.488L366.189 119.952L366.143 119.96Z" fill="white"/>
</g>
<g opacity="0.9">
<path d="M366.143 121.114C366.099 121.113 366.057 121.097 366.023 121.069C365.989 121.041 365.966 121.002 365.957 120.959C365.951 120.934 365.951 120.908 365.955 120.883C365.959 120.858 365.969 120.834 365.982 120.812C365.996 120.791 366.014 120.772 366.035 120.757C366.056 120.743 366.079 120.732 366.104 120.727L372.526 119.263C372.551 119.257 372.576 119.256 372.602 119.261C372.627 119.265 372.651 119.274 372.673 119.288C372.694 119.302 372.713 119.319 372.728 119.34C372.742 119.361 372.753 119.385 372.758 119.41C372.768 119.46 372.758 119.512 372.73 119.555C372.703 119.598 372.66 119.63 372.611 119.642L366.189 121.106L366.143 121.114Z" fill="white"/>
</g>
<g opacity="0.9">
<path d="M366.143 122.26C366.1 122.261 366.057 122.247 366.023 122.22C365.99 122.193 365.966 122.156 365.957 122.113C365.951 122.088 365.951 122.063 365.955 122.037C365.959 122.012 365.969 121.988 365.982 121.966C365.996 121.945 366.014 121.926 366.035 121.911C366.056 121.897 366.079 121.886 366.104 121.881L372.526 120.417C372.551 120.411 372.576 120.41 372.602 120.415C372.627 120.419 372.651 120.428 372.673 120.442C372.694 120.456 372.713 120.474 372.728 120.494C372.742 120.515 372.753 120.539 372.758 120.564C372.768 120.614 372.758 120.666 372.73 120.709C372.703 120.752 372.66 120.784 372.611 120.796L366.189 122.26H366.143Z" fill="white"/>
</g>
<g opacity="0.9">
<path d="M366.143 123.415C366.098 123.411 366.055 123.392 366.022 123.36C365.989 123.329 365.969 123.286 365.964 123.241C365.96 123.196 365.971 123.15 365.997 123.112C366.023 123.075 366.061 123.047 366.105 123.035L372.526 121.571C372.551 121.565 372.577 121.565 372.602 121.569C372.627 121.573 372.651 121.582 372.673 121.596C372.694 121.61 372.713 121.628 372.728 121.649C372.743 121.67 372.753 121.693 372.758 121.718C372.768 121.768 372.758 121.82 372.731 121.863C372.703 121.907 372.661 121.938 372.611 121.951L366.19 123.415H366.143Z" fill="white"/>
</g>
<g opacity="0.9">
<path d="M366.143 124.569C366.098 124.566 366.055 124.546 366.022 124.515C365.989 124.483 365.969 124.441 365.964 124.395C365.96 124.35 365.971 124.304 365.997 124.267C366.023 124.229 366.061 124.202 366.105 124.189L372.526 122.725C372.551 122.72 372.577 122.719 372.602 122.723C372.627 122.727 372.651 122.737 372.673 122.75C372.694 122.764 372.713 122.782 372.728 122.803C372.743 122.824 372.753 122.847 372.758 122.872C372.768 122.922 372.757 122.973 372.73 123.014C372.703 123.056 372.66 123.086 372.611 123.097L366.19 124.569H366.143Z" fill="white"/>
</g>
<g opacity="0.9">
<path d="M366.143 125.692C366.098 125.689 366.055 125.67 366.022 125.638C365.989 125.606 365.969 125.564 365.964 125.519C365.96 125.473 365.971 125.428 365.997 125.39C366.023 125.352 366.061 125.325 366.105 125.313L372.526 123.849C372.575 123.839 372.626 123.848 372.669 123.873C372.712 123.899 372.744 123.94 372.758 123.988C372.764 124.013 372.765 124.039 372.76 124.064C372.756 124.089 372.747 124.113 372.733 124.135C372.72 124.156 372.702 124.175 372.681 124.19C372.66 124.204 372.636 124.215 372.611 124.22L366.19 125.692H366.143Z" fill="white"/>
</g>
<g opacity="0.9">
<path d="M366.143 126.877C366.098 126.874 366.055 126.855 366.022 126.823C365.989 126.791 365.969 126.749 365.964 126.704C365.96 126.658 365.971 126.613 365.997 126.575C366.023 126.537 366.061 126.51 366.105 126.498L372.526 125.034C372.575 125.024 372.626 125.033 372.669 125.058C372.712 125.084 372.744 125.125 372.758 125.173C372.764 125.198 372.765 125.224 372.76 125.249C372.756 125.274 372.747 125.298 372.733 125.32C372.72 125.341 372.702 125.36 372.681 125.375C372.66 125.389 372.636 125.4 372.611 125.405L366.19 126.869L366.143 126.877Z" fill="white"/>
</g>
<path d="M284.951 23.4053C284.954 27.6421 283.699 31.7845 281.347 35.3083C278.994 38.832 275.65 41.5789 271.736 43.2014C267.822 44.8238 263.515 45.2489 259.359 44.4229C255.203 43.5969 251.386 41.5569 248.39 38.561C245.394 35.5651 243.354 31.7479 242.528 27.5923C241.702 23.4367 242.127 19.1296 243.75 15.2156C245.372 11.3017 248.119 7.95699 251.643 5.60455C255.167 3.25212 259.309 1.9977 263.546 2C266.357 2 269.14 2.55367 271.737 3.62938C274.334 4.7051 276.694 6.2818 278.682 8.26946C280.669 10.2571 282.246 12.6168 283.322 15.2138C284.398 17.8108 284.951 20.5943 284.951 23.4053Z" stroke="#419EAC" stroke-width="3.56266" stroke-miterlimit="10"/>
<path d="M274.598 30.5907V26.7359H272.839C272.674 26.151 272.439 25.588 272.14 25.0589L273.386 23.8128L270.661 21.0876L269.415 22.3803C268.888 22.0765 268.325 21.8416 267.738 21.6816V19.8764H263.883V21.635C263.286 21.8078 262.715 22.0584 262.183 22.3803L261.018 21.0876L258.293 23.8128L259.539 25.0589C259.244 25.5884 259.013 26.1514 258.852 26.7359H257.094V30.5907H258.852C259.013 31.1715 259.244 31.7306 259.539 32.2561L258.293 33.5022L261.018 36.2274L262.183 34.9812C262.71 35.2851 263.273 35.5199 263.86 35.68V37.4385H267.715V35.68C268.302 35.5199 268.865 35.2851 269.392 34.9812L270.638 36.2274L273.363 33.5022L272.117 32.2561C272.416 31.7311 272.651 31.1719 272.816 30.5907L274.598 30.5907ZM265.817 32.093C265.137 32.0954 264.471 31.8958 263.905 31.5197C263.338 31.1436 262.896 30.6079 262.634 29.9803C262.372 29.3527 262.303 28.6616 262.434 27.9944C262.565 27.3272 262.891 26.714 263.371 26.2323C263.851 25.7507 264.464 25.4223 265.13 25.2888C265.797 25.1553 266.488 25.2227 267.117 25.4823C267.745 25.742 268.283 26.1824 268.661 26.7476C269.039 27.3128 269.24 27.9775 269.24 28.6575C269.226 29.562 268.86 30.4255 268.222 31.0662C267.583 31.707 266.721 32.0751 265.817 32.093Z" fill="#454238"/>
<path d="M259.505 20.8665V19.7019C259.887 19.597 260.255 19.4444 260.599 19.2477L261.415 20.0629L263.196 18.2811L262.381 17.4659C262.575 17.1201 262.728 16.7527 262.835 16.3712H264V13.8673H262.835C262.73 13.4851 262.577 13.1174 262.381 12.7726L263.196 11.9574L261.415 10.1755L260.599 10.9907C260.255 10.794 259.887 10.6414 259.505 10.5365V9.37195L256.978 9.37195V10.5365C256.594 10.6393 256.226 10.7921 255.883 10.9907L255.068 10.1755L253.286 11.9574L254.101 12.7726C253.9 13.115 253.747 13.4833 253.647 13.8673H252.482V16.3828H253.647C253.75 16.766 253.902 17.1341 254.101 17.4775L253.286 18.2928L255.068 20.0513L255.883 19.2361C256.226 19.4348 256.594 19.5875 256.978 19.6903V20.8549L259.505 20.8665ZM256.011 15.1251C256.011 14.68 256.143 14.245 256.391 13.8751C256.638 13.5052 256.99 13.2172 257.401 13.0474C257.813 12.8776 258.265 12.8338 258.701 12.9215C259.138 13.0091 259.538 13.2244 259.852 13.5399C260.166 13.8554 260.379 14.257 260.464 14.6937C260.55 15.1305 260.504 15.5828 260.332 15.9933C260.16 16.4038 259.87 16.754 259.499 16.9996C259.128 17.2452 258.692 17.375 258.247 17.3727C257.651 17.3727 257.079 17.1359 256.658 16.7144C256.236 16.2929 255.999 15.7212 255.999 15.1251H256.011Z" fill="#454238"/>
<defs>
<clipPath id="clip0_1042_4724">
<rect width="428" height="175" fill="white" transform="translate(0 149)"/>
</clipPath>
</defs>
</svg>
