<svg width="27" height="27" viewBox="0 0 27 27" fill="none" xmlns="http://www.w3.org/2000/svg">
<path d="M10.2309 23.2501C9.33583 23.2458 8.4506 23.0635 7.62668 22.7139C6.80277 22.3642 6.05663 21.8542 5.43169 21.2134C4.81145 20.6256 4.31321 19.9212 3.96549 19.1405C3.61777 18.3599 3.42739 17.5184 3.40526 16.6641C3.38312 15.8098 3.52966 14.9595 3.83648 14.162C4.1433 13.3644 4.60439 12.6351 5.19336 12.0159L13.1667 3.96675C13.5925 3.54174 14.1 3.20742 14.6586 2.98398C15.2172 2.76055 15.8152 2.65264 16.4167 2.66675C17.061 2.66895 17.6983 2.7994 18.2917 3.05049C18.885 3.30159 19.4224 3.6683 19.8725 4.12925C20.7684 4.99185 21.288 6.17298 21.3184 7.41628C21.3488 8.65958 20.8877 9.86471 20.035 10.7701L12.0184 18.8193C11.7616 19.0778 11.456 19.2827 11.1194 19.4222C10.7828 19.5616 10.4219 19.6329 10.0575 19.6318C9.66392 19.6323 9.27421 19.5539 8.91138 19.4014C8.54855 19.2488 8.21997 19.0251 7.94503 18.7434C7.39548 18.2113 7.07811 17.4839 7.06189 16.7192C7.04566 15.9544 7.33188 15.2142 7.85836 14.6593L15.2575 7.22759C15.4681 7.08773 15.721 7.02592 15.9723 7.05286C16.2237 7.0798 16.4577 7.19379 16.6338 7.37509C16.81 7.5564 16.9172 7.7936 16.9369 8.04562C16.9566 8.29764 16.8875 8.54862 16.7417 8.75509L9.34253 16.1868C9.21914 16.3354 9.15909 16.5266 9.1753 16.7191C9.19151 16.9116 9.28269 17.09 9.42919 17.2159C9.58163 17.3694 9.78713 17.4586 10.0034 17.4651C10.0835 17.4662 10.163 17.4515 10.2374 17.4218C10.3117 17.392 10.3795 17.3478 10.4367 17.2918L18.4425 9.24259C18.8919 8.74337 19.1268 8.08736 19.0964 7.41636C19.066 6.74536 18.7727 6.11328 18.28 5.65675C17.8224 5.18165 17.2001 4.9 16.5411 4.86978C15.8822 4.83955 15.2367 5.06304 14.7375 5.49425L6.73169 13.5001C6.34239 13.9182 6.03962 14.4092 5.84079 14.9448C5.64196 15.4804 5.55101 16.05 5.57316 16.6209C5.59531 17.1918 5.73013 17.7527 5.96986 18.2712C6.20959 18.7898 6.5495 19.2559 6.97003 19.6426C7.39174 20.0798 7.89635 20.4285 8.45437 20.6684C9.01239 20.9084 9.61263 21.0347 10.22 21.0401C10.7437 21.0443 11.2631 20.9451 11.7483 20.748C12.2336 20.5509 12.6751 20.26 13.0475 19.8918L21.0534 11.8426C21.1537 11.7416 21.2729 11.6613 21.4042 11.6064C21.5355 11.5514 21.6763 11.5229 21.8187 11.5224C21.961 11.5219 22.1021 11.5494 22.2338 11.6034C22.3655 11.6575 22.4853 11.7369 22.5863 11.8372C22.6873 11.9375 22.7675 12.0567 22.8225 12.188C22.8774 12.3193 22.906 12.4602 22.9065 12.6025C22.907 12.7449 22.8794 12.8859 22.8254 13.0176C22.7714 13.1493 22.692 13.2691 22.5917 13.3701L14.5859 21.4193C14.0174 21.9977 13.3397 22.4575 12.5921 22.7718C11.8445 23.0861 11.0419 23.2486 10.2309 23.2501Z" fill="#419EAC"/>
</svg>
