<svg width="45" height="45" viewBox="0 0 45 45" fill="none" xmlns="http://www.w3.org/2000/svg">
<path d="M14.4166 25.25H25.4166V28H14.4166V25.25ZM14.4166 18.375H30.9166V21.125H14.4166V18.375ZM14.4166 32.125H21.2916V34.875H14.4166V32.125Z" fill="#419EAC"/>
<path d="M35.0416 7.375H30.9166V6C30.9166 5.27065 30.6269 4.57118 30.1112 4.05546C29.5954 3.53973 28.896 3.25 28.1666 3.25H17.1666C16.4373 3.25 15.7378 3.53973 15.2221 4.05546C14.7064 4.57118 14.4166 5.27065 14.4166 6V7.375H10.2916C9.56228 7.375 8.86281 7.66473 8.34708 8.18046C7.83136 8.69618 7.54163 9.39565 7.54163 10.125V39C7.54163 39.7293 7.83136 40.4288 8.34708 40.9445C8.86281 41.4603 9.56228 41.75 10.2916 41.75H35.0416C35.771 41.75 36.4704 41.4603 36.9862 40.9445C37.5019 40.4288 37.7916 39.7293 37.7916 39V10.125C37.7916 9.39565 37.5019 8.69618 36.9862 8.18046C36.4704 7.66473 35.771 7.375 35.0416 7.375ZM17.1666 6H28.1666V11.5H17.1666V6ZM35.0416 39H10.2916V10.125H14.4166V14.25H30.9166V10.125H35.0416V39Z" fill="#419EAC"/>
</svg>
