<svg width="26" height="26" viewBox="0 0 26 26" fill="none" xmlns="http://www.w3.org/2000/svg">
<path d="M16.2906 2.00367C15.2929 2.21492 14.0075 2.43755 13 2.43755C11.9925 2.43755 10.7071 2.21655 9.70937 2.00367M16.2906 2.00367L19.7763 8.60442C22.5664 9.04805 24.375 9.7598 24.375 10.5625C24.375 11.908 19.2822 13 13 13C6.71775 13 1.625 11.908 1.625 10.5625C1.625 9.7598 3.43362 9.04805 6.22375 8.60442L6.2465 8.51017M16.2906 2.00367C17.1697 1.8168 18.0667 2.3303 18.304 3.19642M16.2906 2.00367L18.304 3.19642M9.70937 2.00367C8.83025 1.8168 7.93325 2.32867 7.696 3.19805M9.70937 2.00367L9.60504 2.49267C9.6051 2.49268 9.60515 2.49269 9.60521 2.4927M9.70937 2.00367L9.60541 2.49275C9.60534 2.49273 9.60528 2.49272 9.60521 2.4927M7.696 3.19805L6.2465 8.51017M7.696 3.19805L8.17836 3.32968M7.696 3.19805L8.17836 3.32967L8.17836 3.32968M6.2465 8.51017L6.72886 8.64179L6.73081 8.63467M6.2465 8.51017L6.73254 8.62749L6.73081 8.63467M18.304 3.19642L17.8218 3.32852M18.304 3.19642L17.8216 3.32801L17.8218 3.32852M6.73081 8.63467L6.70979 8.72174L6.63156 9.04586L6.30226 9.09822C4.92446 9.31729 3.81887 9.59847 3.07039 9.91035C2.69411 10.0671 2.43616 10.2203 2.28048 10.3566C2.20429 10.4233 2.16372 10.4763 2.14346 10.5121C2.12499 10.5448 2.125 10.5598 2.125 10.5625V10.5625C2.125 10.5652 2.12512 10.5755 2.13552 10.5975C2.14682 10.6213 2.17045 10.6588 2.21765 10.7082C2.31518 10.8103 2.48406 10.9329 2.74485 11.065C3.26488 11.3284 4.04994 11.5802 5.06144 11.797C7.07626 12.2288 9.88322 12.5 13 12.5C16.1168 12.5 18.9237 12.2288 20.9386 11.797C21.9501 11.5802 22.7351 11.3284 23.2551 11.065C23.5159 10.9329 23.6848 10.8103 23.7823 10.7082C23.8296 10.6588 23.8532 10.6213 23.8645 10.5975C23.8749 10.5755 23.875 10.5652 23.875 10.5625V10.5625C23.875 10.5598 23.875 10.5448 23.8565 10.5121C23.8363 10.4763 23.7957 10.4233 23.7195 10.3566C23.5638 10.2203 23.3059 10.0671 22.9296 9.91035C22.1811 9.59847 21.0755 9.31729 19.6977 9.09822L19.358 9.04421L19.287 8.70765C19.2823 8.68546 19.277 8.66339 19.2711 8.64149L17.8218 3.32852M6.73081 8.63467L8.17836 3.32968M8.17836 3.32968C8.34169 2.73119 8.96987 2.35776 9.60521 2.4927M9.60521 2.4927C10.6087 2.7068 11.937 2.93755 13 2.93755C14.0632 2.93755 15.392 2.70503 16.3942 2.49283L16.3946 2.49275C17.0297 2.35773 17.6585 2.73254 17.8218 3.32852M7.86364 8.65425L7.86364 8.65424C7.97776 8.61993 8.09752 8.60845 8.21608 8.62048L8.21647 8.62052C9.66059 8.76814 11.2848 8.8503 13 8.8503H13.0012C14.5987 8.85403 16.1954 8.77728 17.7853 8.62034C18.0242 8.59657 18.2629 8.66858 18.4489 8.82061L18.1324 9.20771L18.4489 8.82061C18.635 8.9728 18.7531 9.19272 18.7771 9.43197C18.8011 9.67123 18.7291 9.91023 18.5769 10.0964C18.4248 10.2825 18.2051 10.4005 17.966 10.4246L7.86364 8.65425ZM7.86364 8.65425C7.74952 8.68856 7.6433 8.74505 7.55104 8.82047C7.45878 8.8959 7.38231 8.98877 7.32599 9.09379C7.26967 9.1988 7.23461 9.31389 7.22283 9.43248M7.86364 8.65425L7.22283 9.43248M7.22283 9.43248L7.72038 9.48192L7.22283 9.43248ZM3.85968 16.4163L4.09457 15.75H3.38813H3.25C3.16712 15.75 3.08763 15.7171 3.02903 15.6585C2.97042 15.5999 2.9375 15.5204 2.9375 15.4375C2.9375 15.3547 2.97042 15.2752 3.02903 15.2166C3.08763 15.158 3.16712 15.125 3.25 15.125H8.93744C8.93746 15.125 8.93748 15.125 8.9375 15.125C9.40924 15.1251 9.86475 15.2973 10.2186 15.6093C10.5725 15.9213 10.8003 16.3517 10.8594 16.8197L10.9336 17.4068L11.5001 17.2357C12.4782 16.9403 13.5218 16.9403 14.4999 17.2357L15.0664 17.4068L15.1406 16.8197C15.1997 16.3517 15.4275 15.9213 15.7814 15.6093C16.1352 15.2973 16.5908 15.1251 17.0625 15.125C17.0625 15.125 17.0625 15.125 17.0626 15.125H22.75C22.8329 15.125 22.9124 15.158 22.971 15.2166C23.0296 15.2752 23.0625 15.3547 23.0625 15.4375C23.0625 15.5204 23.0296 15.5999 22.971 15.6585C22.9124 15.7171 22.8329 15.75 22.75 15.75H22.6119H21.9054L22.1403 16.4163C22.211 16.6169 22.25 16.8353 22.25 17.0625V18.6875C22.25 19.6324 21.8747 20.5385 21.2066 21.2066C20.5385 21.8747 19.6323 22.25 18.6875 22.25C17.7427 22.25 16.8365 21.8747 16.1684 21.2066C15.5003 20.5385 15.125 19.6324 15.125 18.6875V18.46V18.0997L14.7831 17.9857L14.4419 17.872L14.4418 17.8719C13.5059 17.5602 12.4941 17.5602 11.5582 17.8719L11.5581 17.872L11.2169 17.9857L10.875 18.0997V18.46V18.6875C10.875 19.6324 10.4997 20.5385 9.83157 21.2066C9.16347 21.8747 8.25733 22.25 7.3125 22.25C6.36767 22.25 5.46153 21.8747 4.79343 21.2066C4.12533 20.5385 3.75 19.6324 3.75 18.6875V17.0625C3.75 16.8353 3.78896 16.6169 3.85968 16.4163ZM8.9375 15.75H5.6875C5.3394 15.75 5.00556 15.8883 4.75942 16.1345C4.51328 16.3806 4.375 16.7145 4.375 17.0625V18.6875C4.375 19.4666 4.68449 20.2138 5.23537 20.7647C5.78626 21.3156 6.53343 21.625 7.3125 21.625C8.09157 21.625 8.83874 21.3156 9.38963 20.7647C9.94051 20.2138 10.25 19.4666 10.25 18.6875V17.0625C10.25 16.7145 10.1117 16.3806 9.86558 16.1345C9.61944 15.8883 9.2856 15.75 8.9375 15.75ZM20.3125 15.75H17.0625C16.7144 15.75 16.3806 15.8883 16.1344 16.1345C15.8883 16.3806 15.75 16.7145 15.75 17.0625V18.6875C15.75 19.4666 16.0595 20.2138 16.6104 20.7647C17.1613 21.3156 17.9084 21.625 18.6875 21.625C19.4666 21.625 20.2137 21.3156 20.7646 20.7647C21.3155 20.2138 21.625 19.4666 21.625 18.6875V17.0625C21.625 16.7145 21.4867 16.3806 21.2406 16.1345C20.9944 15.8883 20.6606 15.75 20.3125 15.75Z" fill="#919B9B" stroke="#919B9B"/>
</svg>
