<svg width="26" height="26" viewBox="0 0 26 26" fill="none" xmlns="http://www.w3.org/2000/svg">
<path d="M10.919 19.5666C5.06599 19.5658 2.13985 12.493 6.27644 8.3564C10.4138 4.21904 17.4867 7.1557 17.4867 13V13.5H16.9867H15.5938L17.8927 15.7989L20.1342 13.5H18.72H18.22V13C18.22 11.0639 17.4509 9.20709 16.0819 7.83807C14.7129 6.46906 12.8561 5.69995 10.92 5.69995C8.98391 5.69995 7.12713 6.46906 5.75812 7.83807C4.3891 9.20709 3.62 11.0639 3.62 13C3.62 14.936 4.3891 16.7928 5.75812 18.1618C7.12713 19.5308 8.98391 20.3 10.92 20.3C12.6896 20.3 14.3936 19.6649 15.7412 18.5282L15.162 17.949M10.919 19.5666C10.9187 19.5666 10.9184 19.5666 10.9181 19.5666L10.92 19.0666V19.5666C10.9197 19.5666 10.9193 19.5666 10.919 19.5666ZM10.919 19.5666C11.7817 19.5698 12.6359 19.3962 13.4289 19.0563C14.0643 18.784 14.6496 18.4096 15.162 17.949M15.162 17.949C15.2858 17.8378 15.4054 17.7214 15.5203 17.6003L14.9344 17.4789L14.8131 17.6002L15.162 17.949Z" fill="#919B9B" stroke="#919B9B"/>
</svg>
