<svg width="960" height="1117" viewBox="0 0 960 1117" fill="none" xmlns="http://www.w3.org/2000/svg">
<g clip-path="url(#clip0_170_1736)">
<rect width="960" height="1117" fill="#419EAC"/>
<g opacity="0.3" clip-path="url(#clip1_170_1736)">
<g style="mix-blend-mode:overlay" opacity="0.2">
<path d="M721.808 894.202C725.519 901.233 731.702 906.647 739.168 909.402C746.634 912.157 754.857 912.06 762.256 909.129C769.655 906.198 775.708 900.64 779.251 893.523C782.795 886.407 783.579 878.233 781.453 870.574L821.897 847.484L837.225 874.333L848.627 867.782L833.353 840.932L836.472 839.107L851.747 865.956L874.604 852.907L859.276 826.058L867.774 821.225L858.738 805.491L772.686 854.787C767.16 849.036 759.696 845.534 751.735 844.958C743.775 844.381 735.882 846.77 729.583 851.665C723.284 856.559 719.024 863.61 717.628 871.456C716.232 879.303 717.797 887.387 722.023 894.148L721.808 894.202ZM735.576 886.362C733.944 883.524 733.192 880.267 733.414 877.002C733.637 873.737 734.825 870.612 736.828 868.021C738.83 865.43 741.557 863.491 744.664 862.449C747.771 861.406 751.117 861.307 754.28 862.164C757.444 863.022 760.281 864.796 762.433 867.264C764.586 869.732 765.957 872.782 766.372 876.028C766.788 879.274 766.23 882.57 764.769 885.499C763.308 888.429 761.01 890.859 758.165 892.484C754.355 894.659 749.837 895.236 745.602 894.088C741.367 892.94 737.761 890.162 735.576 886.362Z" fill="white"/>
</g>
<g style="mix-blend-mode:overlay" opacity="0.2">
<path d="M305.564 749.395C306.649 751.348 308.455 752.853 310.638 753.618C312.82 754.384 315.223 754.357 317.385 753.543C319.547 752.728 321.316 751.184 322.352 749.206C323.387 747.228 323.617 744.957 322.995 742.829L334.815 736.412L339.295 743.873L342.627 742.053L338.163 734.591L339.075 734.084L343.539 741.545L350.219 737.919L345.739 730.458L348.223 729.115L345.582 724.743L320.433 738.441C318.818 736.843 316.637 735.87 314.31 735.71C311.984 735.55 309.677 736.214 307.836 737.574C305.995 738.934 304.751 740.893 304.343 743.074C303.934 745.254 304.392 747.501 305.627 749.38L305.564 749.395ZM309.588 747.216C309.111 746.427 308.891 745.522 308.956 744.615C309.021 743.707 309.368 742.839 309.954 742.119C310.539 741.399 311.336 740.86 312.244 740.571C313.152 740.281 314.13 740.253 315.054 740.492C315.979 740.73 316.808 741.223 317.437 741.909C318.066 742.595 318.467 743.442 318.588 744.344C318.71 745.246 318.547 746.162 318.12 746.976C317.693 747.79 317.021 748.466 316.189 748.917C315.076 749.521 313.756 749.682 312.518 749.363C311.28 749.044 310.226 748.272 309.588 747.216Z" fill="white"/>
</g>
<g style="mix-blend-mode:overlay" opacity="0.2">
<path d="M262.313 466.513C264.135 469.81 267.17 472.348 270.836 473.64C274.502 474.933 278.539 474.887 282.172 473.513C285.805 472.138 288.777 469.532 290.516 466.194C292.256 462.857 292.641 459.024 291.597 455.433L311.455 444.605L318.98 457.195L324.579 454.123L317.079 441.532L318.611 440.676L326.11 453.267L337.333 447.148L329.807 434.557L333.979 432.291L329.543 424.912L287.293 448.029C284.58 445.333 280.915 443.69 277.007 443.42C273.098 443.15 269.223 444.27 266.13 446.565C263.037 448.86 260.946 452.167 260.261 455.846C259.575 459.526 260.344 463.317 262.418 466.487L262.313 466.513ZM269.073 462.836C268.271 461.505 267.902 459.978 268.011 458.447C268.121 456.916 268.704 455.45 269.687 454.235C270.67 453.02 272.009 452.111 273.535 451.622C275.06 451.133 276.703 451.087 278.256 451.489C279.809 451.891 281.202 452.723 282.259 453.88C283.316 455.038 283.989 456.468 284.193 457.99C284.397 459.512 284.123 461.058 283.406 462.432C282.689 463.805 281.56 464.945 280.163 465.707C278.293 466.727 276.075 466.997 273.995 466.459C271.916 465.921 270.146 464.618 269.073 462.836Z" fill="white"/>
</g>
<g style="mix-blend-mode:overlay" opacity="0.2">
<path d="M144.019 169.099H124.335V149.392H108.899V169.099H89.1607V184.511H108.899V204.219H124.335V184.511H144.019V169.099Z" fill="white"/>
</g>
<g style="mix-blend-mode:overlay" opacity="0.2">
<path d="M794.575 158.198H776.343V140.048H762.091V158.198H743.858V172.482H762.091V190.633H776.343V172.482H794.575V158.198Z" fill="white"/>
</g>
<g style="mix-blend-mode:overlay" opacity="0.2">
<path d="M343.445 14.3914H329.032V0H317.737V14.3914H303.377V25.6683H317.737V40.0597H329.032V25.6683H343.445V14.3914Z" fill="white"/>
</g>
<g style="mix-blend-mode:overlay" opacity="0.2">
<path d="M627.795 14.3914H613.381V0H602.141V14.3914H587.727V25.6683H602.141V40.0597H613.381V25.6683H627.795V14.3914Z" fill="white"/>
</g>
<g style="mix-blend-mode:overlay" opacity="0.2">
<path d="M25.9122 360.914H6.17392V341.206H-9.26173V360.914H-29V376.325H-9.26173V396.033H6.17392V376.325H25.9122V360.914Z" fill="white"/>
</g>
<g style="mix-blend-mode:overlay" opacity="0.2">
<path d="M495.705 403.927H467.146V375.412H444.772V403.927H416.214V426.266H444.772V454.78H467.146V426.266H495.705V403.927Z" fill="white"/>
</g>
<g style="mix-blend-mode:overlay" opacity="0.2">
<path d="M465.801 57.4583C454.558 53.5491 443.901 48.1294 434.123 41.3485L416.214 91.2889C409.813 108.956 417.182 133.013 435.253 139.618L436.221 139.941C454.184 146.223 475.052 132.53 481.398 114.863L499.469 64.4392C487.985 63.6219 476.662 61.2741 465.801 57.4583ZM472.686 83.4488C478.064 84.6839 481.345 88.8188 480.108 92.8999C473.273 91.8965 466.529 90.3523 459.939 88.2818C461.183 86.0945 463.157 84.4126 465.516 83.5294C467.875 82.6461 470.469 82.6176 472.847 83.4488H472.686ZM442.997 72.709C445.321 73.6155 447.257 75.3004 448.474 77.4751C449.69 79.6499 450.112 82.1793 449.667 84.6302C443.334 81.9589 437.221 78.799 431.38 75.1791C433.155 71.2591 438.211 70.2925 443.159 72.8164L442.997 72.709ZM440.685 126.731H440.093C427.024 122.059 420.893 105.627 423.958 91.0205C429.337 104.445 436.328 112.5 444.88 115.722C453.431 118.944 463.865 116.796 475.536 109.6C468.598 122.435 453.754 131.08 440.846 126.838L440.685 126.731Z" fill="white"/>
</g>
<g style="mix-blend-mode:overlay" opacity="0.2">
<path d="M199.197 737.301C190.432 734.254 182.124 730.029 174.501 724.743L160.539 763.675C155.55 777.448 161.294 796.203 175.382 801.352L176.137 801.603C190.14 806.501 206.409 795.826 211.356 782.053L225.444 742.744C216.491 742.106 207.664 740.276 199.197 737.301ZM204.564 757.563C208.757 758.526 211.314 761.749 210.35 764.931C205.022 764.149 199.764 762.945 194.627 761.331C195.597 759.626 197.135 758.315 198.974 757.626C200.813 756.937 202.836 756.915 204.689 757.563H204.564ZM181.419 749.191C183.231 749.897 184.74 751.211 185.689 752.906C186.637 754.602 186.966 756.573 186.619 758.484C181.682 756.402 176.916 753.938 172.363 751.116C173.747 748.06 177.688 747.307 181.545 749.274L181.419 749.191ZM179.617 791.305H179.155C168.967 787.663 164.187 774.853 166.577 763.466C170.77 773.932 176.22 780.211 182.887 782.723C189.553 785.235 197.688 783.56 206.786 777.95C201.377 787.956 189.805 794.696 179.742 791.389L179.617 791.305Z" fill="white"/>
</g>
<g style="mix-blend-mode:overlay" opacity="0.2">
<path d="M450.635 253.3C441.042 255.866 431.146 257.13 421.215 257.059L432.779 300.717C436.866 316.182 453.646 329.338 469.405 325.15H469.942C485.701 320.961 493.768 301.2 489.627 285.788L478.064 242.238C469.452 247.123 460.228 250.842 450.635 253.3ZM433.962 280.15C440.251 279.932 446.289 277.627 451.119 273.598C451.49 274.602 451.654 275.67 451.602 276.738C451.55 277.807 451.282 278.854 450.815 279.816C450.348 280.779 449.691 281.638 448.884 282.341C448.077 283.044 447.135 283.577 446.117 283.909C443.944 284.757 441.543 284.824 439.325 284.099C437.108 283.374 435.212 281.902 433.962 279.935V280.15ZM463.489 301.952C456.399 303.734 449.894 307.323 444.611 312.369C445.177 307.968 447.094 303.85 450.098 300.581C453.103 297.312 457.048 295.052 461.391 294.112C472.847 291.158 481.829 295.561 485.055 301.683C477.948 300.135 470.588 300.153 463.489 301.737V301.952ZM469.674 277.68C468.627 277.863 467.554 277.836 466.518 277.598C465.482 277.361 464.504 276.919 463.641 276.299C462.779 275.678 462.05 274.891 461.497 273.985C460.945 273.078 460.579 272.071 460.423 271.021C466.631 272.138 473.034 271.135 478.602 268.175C478.45 270.526 477.471 272.748 475.837 274.448C474.203 276.148 472.02 277.216 469.674 277.465V277.68Z" fill="white"/>
</g>
<g style="mix-blend-mode:overlay" opacity="0.2">
<path d="M88.0313 853.015L114.17 861.875L124.926 830.622L98.6803 821.6C96.6179 820.895 94.4367 820.603 92.261 820.739C90.0854 820.876 87.9579 821.439 86.0002 822.396C84.0425 823.353 82.2928 824.686 80.8511 826.319C79.4093 827.951 78.3037 829.852 77.5974 831.911C76.8912 833.97 76.598 836.148 76.7347 838.32C76.8714 840.492 77.4353 842.616 78.3942 844.571C80.3307 848.519 83.7586 851.537 87.9237 852.961L88.0313 853.015ZM114.008 853.981L112.879 857.311L89.3221 849.202C86.1714 848.072 83.5954 845.745 82.155 842.728C80.7145 839.711 80.5262 836.247 81.6311 833.092C81.7523 832.778 81.8961 832.473 82.0614 832.179C88.4616 842.221 100.455 848.45 114.008 853.82V853.981ZM145.31 872.454L119.602 863.701L130.358 832.448L155.851 841.093C160.016 842.518 163.444 845.535 165.381 849.483C167.317 853.431 167.604 857.985 166.178 862.144C164.751 866.302 161.729 869.725 157.775 871.658C153.821 873.592 149.26 873.878 145.095 872.454H145.31Z" fill="white"/>
</g>
<g style="mix-blend-mode:overlay" opacity="0.2">
<path d="M600.861 762.569L626.999 771.429L637.756 740.176L611.51 731.155C609.448 730.45 607.266 730.157 605.091 730.293C602.915 730.43 600.788 730.993 598.83 731.95C596.872 732.908 595.122 734.241 593.681 735.873C592.239 737.506 591.133 739.406 590.427 741.465C589.721 743.524 589.428 745.702 589.564 747.875C589.701 750.047 590.265 752.171 591.224 754.126C593.16 758.073 596.588 761.091 600.753 762.515L600.861 762.569ZM626.838 763.536L625.709 766.865L602.152 758.756C599.001 757.627 596.425 755.3 594.985 752.282C593.544 749.265 593.356 745.802 594.461 742.647C594.582 742.332 594.726 742.027 594.891 741.734C601.291 751.775 613.285 758.005 626.838 763.375V763.536ZM658.14 782.008L632.431 773.255L643.188 742.002L668.681 750.648C672.846 752.072 676.274 755.09 678.21 759.038C680.147 762.985 680.434 767.539 679.007 771.698C677.581 775.857 674.558 779.279 670.604 781.213C666.651 783.146 662.089 783.432 657.924 782.008H658.14Z" fill="white"/>
</g>
<g style="mix-blend-mode:overlay" opacity="0.2">
<path d="M254.005 549.828L227.597 530.496L204.094 561.91L230.717 581.457C232.784 583.144 235.174 584.394 237.74 585.13C240.306 585.866 242.996 586.074 245.645 585.739C248.294 585.405 250.847 584.536 253.149 583.185C255.451 581.834 257.454 580.03 259.035 577.882C260.617 575.734 261.744 573.287 262.349 570.69C262.953 568.093 263.022 565.401 262.552 562.777C262.081 560.152 261.081 557.651 259.611 555.425C258.142 553.199 256.234 551.295 254.005 549.828ZM224.962 539.41L227.436 536.081L251.477 553.748C254.602 556.144 256.662 559.668 257.215 563.563C257.768 567.458 256.77 571.414 254.435 574.583C254.435 574.906 253.897 575.174 253.628 575.496C249.648 561.803 238.408 550.311 224.962 539.41ZM196.134 507.191L222.112 526.254L198.555 557.668L172.9 538.82C170.733 537.332 168.886 535.425 167.471 533.212C166.056 530.998 165.1 528.524 164.662 525.934C164.223 523.345 164.31 520.694 164.917 518.139C165.525 515.584 166.64 513.177 168.198 511.06C169.755 508.944 171.722 507.162 173.983 505.819C176.243 504.477 178.751 503.602 181.357 503.246C183.963 502.89 186.614 503.06 189.152 503.747C191.691 504.434 194.065 505.623 196.134 507.244V507.191Z" fill="white"/>
</g>
<g style="mix-blend-mode:overlay" opacity="0.2">
<path d="M900.054 83.5519L873.646 64.2201L850.143 95.6342L876.766 115.181C878.833 116.868 881.223 118.118 883.789 118.854C886.355 119.59 889.045 119.798 891.694 119.463C894.343 119.129 896.896 118.26 899.198 116.909C901.5 115.558 903.503 113.754 905.084 111.606C906.666 109.458 907.793 107.011 908.398 104.414C909.002 101.817 909.071 99.1248 908.601 96.5005C908.13 93.8762 907.13 91.375 905.66 89.1489C904.191 86.9229 902.283 85.0186 900.054 83.5519ZM871.011 73.1342L873.485 69.8049L897.526 87.472C900.651 89.8681 902.711 93.3917 903.264 97.2868C903.817 101.182 902.819 105.138 900.484 108.307C900.484 108.629 899.946 108.898 899.677 109.22C895.697 95.5268 884.457 84.0352 871.011 73.1342ZM842.183 40.9146L868.16 59.9779L844.604 91.392L818.949 72.5435C816.782 71.0563 814.935 69.1493 813.52 66.9358C812.105 64.7224 811.149 62.2475 810.711 59.6582C810.272 57.0689 810.359 54.418 810.966 51.8629C811.574 49.3078 812.689 46.9007 814.246 44.7844C815.804 42.6681 817.771 40.8858 820.032 39.5434C822.292 38.2009 824.8 37.3258 827.406 36.9698C830.012 36.6139 832.662 36.7844 835.201 37.4713C837.74 38.1582 840.114 39.3473 842.183 40.9683V40.9146Z" fill="white"/>
</g>
<g style="mix-blend-mode:overlay" opacity="0.2">
<path d="M942.209 325.633C942.185 326.253 942.006 326.858 941.688 327.391C941.369 327.924 940.922 328.368 940.386 328.684C939.851 328.999 939.245 329.175 938.624 329.196C938.002 329.216 937.386 329.081 936.831 328.801C935.393 328.109 934.25 326.929 933.604 325.472C931.13 320.102 935.755 315.538 940.273 313.551C942.797 312.412 945.567 311.923 948.33 312.13C951.092 312.336 953.759 313.231 956.085 314.732C959.848 317.699 962.47 321.872 963.507 326.546C964.568 330.785 964.436 335.234 963.127 339.403C961.817 343.572 959.38 347.299 956.085 350.174C952.396 353.398 947.97 355.667 943.196 356.781C938.423 357.896 933.448 357.821 928.71 356.564C924.391 355.312 920.362 353.221 916.855 350.41C913.348 347.599 910.431 344.125 908.272 340.186C905.76 335.186 904.452 329.669 904.452 324.076C904.452 318.482 905.76 312.966 908.272 307.966C912.482 298.95 919.874 291.799 929.032 287.882C936.722 284.76 945.176 284.03 953.288 285.788C962.763 288.054 971.29 293.223 977.675 300.571C984.06 307.918 987.982 317.076 988.892 326.761C987.025 315.783 981.306 305.827 972.758 298.676C968.422 294.92 963.356 292.099 957.877 290.39C952.398 288.68 946.624 288.119 940.918 288.742C931.492 290.017 922.928 294.893 917.03 302.345C911.131 309.796 908.358 319.242 909.294 328.694C909.989 333.383 911.823 337.831 914.635 341.65C917.448 345.469 921.153 348.543 925.429 350.603C929.806 352.765 934.713 353.625 939.566 353.082C944.419 352.54 949.014 350.617 952.804 347.542C955.039 345.605 956.946 343.321 958.452 340.776C960.305 337.268 961.019 333.27 960.495 329.338C960.207 326.576 959.385 323.895 958.075 321.445C957.385 320.043 956.457 318.771 955.332 317.686C953.556 316.118 951.409 315.029 949.094 314.522C946.778 314.014 944.372 314.105 942.102 314.786C937.638 316.021 932.044 320.156 934.464 325.526C934.593 325.829 934.756 326.117 934.948 326.385C935.655 327.372 936.598 328.165 937.691 328.694C938.185 328.86 938.71 328.91 939.227 328.84C939.743 328.771 940.236 328.583 940.668 328.292C941.1 328.001 941.459 327.615 941.717 327.163C941.975 326.711 942.125 326.206 942.155 325.687L942.209 325.633ZM896.332 340.132C898.082 344.882 900.549 349.336 903.647 353.342C910.231 361.75 919.657 367.476 930.162 369.452C938.483 370.916 947.055 369.821 954.739 366.311C962.423 362.801 968.857 357.042 973.188 349.798C977.443 342.348 978.892 333.626 977.275 325.203C976.309 319.996 974.157 315.081 970.987 310.835C967.816 306.59 963.712 303.128 958.989 300.717C954.237 298.291 948.926 297.167 943.597 297.459C938.269 297.752 933.113 299.45 928.656 302.381C925.013 304.995 922.108 308.504 920.224 312.569C918.339 316.633 917.538 321.115 917.899 325.579C918.439 330.666 920.878 335.363 924.73 338.736C928.086 341.883 932.55 343.581 937.153 343.461C939.701 343.278 942.142 342.364 944.184 340.831C946.225 339.298 947.78 337.209 948.663 334.816C949.177 333.607 949.333 332.278 949.114 330.984C948.895 329.689 948.309 328.485 947.426 327.513C945.901 326.278 944.011 325.579 942.048 325.526C944.053 325.657 945.951 326.472 947.426 327.835C948.131 328.749 948.565 329.843 948.679 330.991C948.793 332.14 948.583 333.297 948.071 334.332C947.022 336.763 945.182 338.769 942.85 340.026C940.517 341.283 937.828 341.718 935.217 341.26C931.529 340.434 928.207 338.437 925.752 335.567C923.988 333.506 922.714 331.073 922.025 328.451C921.336 325.829 921.249 323.085 921.772 320.424C922.79 315.283 925.451 310.61 929.355 307.107C930.977 305.529 932.922 304.32 935.056 303.563C937.844 302.372 940.844 301.751 943.876 301.737C948.516 301.775 953.09 302.838 957.268 304.851C962.537 307.633 966.861 311.913 969.692 317.149C972.537 322.389 973.825 328.332 973.403 334.279C973.063 338.732 971.799 343.066 969.692 347.005C967.2 351.507 963.809 355.45 959.73 358.59C955.65 361.731 950.968 364.002 945.974 365.263C941.415 366.563 936.636 366.911 931.937 366.284C927.77 365.7 923.7 364.563 919.835 362.9C914.946 360.704 910.527 357.586 906.82 353.718C903.138 349.831 900.089 345.392 897.785 340.561C896.04 336.641 894.688 332.558 893.751 328.372C894.211 332.369 895.076 336.309 896.332 340.132Z" fill="white"/>
</g>
<g style="mix-blend-mode:overlay" opacity="0.2">
<path d="M822.934 466.111C822.92 466.486 822.812 466.851 822.621 467.173C822.43 467.495 822.162 467.764 821.84 467.954C821.519 468.145 821.156 468.251 820.783 468.264C820.411 468.276 820.041 468.194 819.708 468.025C818.846 467.607 818.16 466.894 817.772 466.014C816.288 462.769 819.063 460.01 821.772 458.81C823.287 458.121 824.948 457.826 826.605 457.951C828.262 458.076 829.861 458.616 831.257 459.523C833.514 461.316 835.086 463.838 835.708 466.663C836.345 469.224 836.266 471.913 835.48 474.432C834.695 476.951 833.233 479.203 831.257 480.941C829.044 482.889 826.389 484.26 823.526 484.933C820.663 485.607 817.679 485.562 814.837 484.802C812.246 484.046 809.83 482.782 807.726 481.083C805.622 479.385 803.873 477.285 802.578 474.905C801.071 471.884 800.286 468.55 800.286 465.17C800.286 461.79 801.071 458.456 802.578 455.435C805.103 449.986 809.537 445.665 815.03 443.298C819.642 441.412 824.713 440.971 829.579 442.033C835.262 443.402 840.377 446.526 844.206 450.966C848.036 455.406 850.389 460.94 850.935 466.792C849.815 460.159 846.384 454.142 841.257 449.821C838.656 447.551 835.618 445.847 832.331 444.814C829.045 443.781 825.582 443.442 822.159 443.818C816.505 444.588 811.369 447.535 807.831 452.038C804.293 456.541 802.63 462.249 803.191 467.961C803.608 470.794 804.708 473.482 806.395 475.79C808.082 478.097 810.304 479.955 812.869 481.2C815.494 482.506 818.438 483.026 821.349 482.698C824.259 482.37 827.015 481.208 829.289 479.35C830.629 478.18 831.773 476.799 832.676 475.262C833.788 473.142 834.216 470.726 833.902 468.35C833.729 466.68 833.236 465.06 832.45 463.58C832.036 462.733 831.48 461.964 830.805 461.308C829.74 460.361 828.452 459.703 827.063 459.396C825.674 459.09 824.231 459.145 822.869 459.556C820.192 460.302 816.837 462.801 818.288 466.046C818.366 466.229 818.463 466.403 818.579 466.565C819.002 467.161 819.568 467.641 820.224 467.961C820.52 468.061 820.835 468.091 821.145 468.049C821.454 468.007 821.75 467.894 822.009 467.718C822.268 467.542 822.484 467.308 822.638 467.035C822.793 466.762 822.883 466.457 822.901 466.143L822.934 466.111ZM795.416 474.872C796.466 477.743 797.946 480.435 799.804 482.855C803.753 487.936 809.407 491.396 815.708 492.59C820.699 493.475 825.84 492.813 830.449 490.692C835.058 488.571 838.917 485.091 841.515 480.713C844.067 476.212 844.937 470.941 843.967 465.851C843.387 462.705 842.097 459.734 840.195 457.169C838.293 454.603 835.831 452.511 832.999 451.054C830.148 449.588 826.963 448.909 823.766 449.086C820.57 449.262 817.478 450.289 814.804 452.06C812.619 453.639 810.877 455.76 809.747 458.216C808.616 460.672 808.136 463.381 808.352 466.078C808.676 469.152 810.139 471.991 812.449 474.029C814.462 475.931 817.14 476.957 819.901 476.884C821.43 476.773 822.894 476.221 824.118 475.295C825.342 474.368 826.275 473.106 826.805 471.66C827.113 470.93 827.207 470.126 827.075 469.344C826.944 468.562 826.593 467.834 826.063 467.247C825.148 466.5 824.014 466.078 822.837 466.046C824.039 466.125 825.178 466.618 826.063 467.441C826.486 467.994 826.746 468.655 826.815 469.349C826.883 470.043 826.757 470.742 826.45 471.368C825.821 472.836 824.717 474.049 823.318 474.808C821.919 475.568 820.306 475.831 818.74 475.554C816.527 475.055 814.535 473.848 813.062 472.114C812.005 470.868 811.241 469.398 810.827 467.814C810.414 466.229 810.362 464.571 810.675 462.963C811.286 459.856 812.882 457.032 815.224 454.916C816.197 453.962 817.363 453.231 818.643 452.774C820.316 452.054 822.115 451.679 823.934 451.671C826.717 451.693 829.46 452.336 831.966 453.553C835.127 455.234 837.72 457.82 839.418 460.984C841.125 464.151 841.897 467.742 841.644 471.335C841.44 474.026 840.682 476.645 839.418 479.026C837.924 481.746 835.89 484.129 833.443 486.027C830.996 487.924 828.187 489.297 825.192 490.059C822.457 490.845 819.591 491.055 816.772 490.676C814.273 490.323 811.832 489.636 809.514 488.631C806.581 487.304 803.93 485.42 801.707 483.082C799.498 480.733 797.67 478.051 796.287 475.132C795.241 472.763 794.43 470.296 793.868 467.766C794.144 470.181 794.663 472.562 795.416 474.872Z" fill="white"/>
</g>
<g style="mix-blend-mode:overlay" opacity="0.2">
<path d="M121.914 619.798C121.943 620.76 121.713 621.711 121.248 622.553C120.783 623.396 120.099 624.098 119.27 624.586C118.44 625.074 117.494 625.331 116.53 625.33C115.567 625.328 114.622 625.068 113.793 624.578C111.652 623.519 109.943 621.755 108.953 619.583C105.242 611.743 112.18 604.709 118.849 601.809C122.613 600.086 126.754 599.344 130.883 599.654C135.013 599.964 138.996 601.315 142.459 603.581C148.095 607.961 152.015 614.174 153.539 621.141C155.117 627.47 154.918 634.111 152.963 640.335C151.009 646.559 147.375 652.125 142.459 656.421C136.957 661.224 130.353 664.599 123.234 666.247C116.114 667.896 108.697 667.767 101.638 665.872C95.2034 664.017 89.2002 660.907 83.9754 656.723C78.7506 652.538 74.4077 647.362 71.1974 641.493C67.4146 633.998 65.4441 625.721 65.4441 617.328C65.4441 608.935 67.4146 600.659 71.1974 593.163C76.8547 580.747 86.6415 570.669 98.8962 564.639C111.151 558.609 125.118 557 138.426 560.085C152.543 563.498 165.246 571.216 174.768 582.167C184.291 593.119 190.161 606.759 191.563 621.194C188.732 604.792 180.154 589.927 167.361 579.255C160.902 573.657 153.355 569.451 145.192 566.901C137.029 564.351 128.427 563.511 119.925 564.434C105.908 566.479 93.2231 573.847 84.5154 585.002C75.8077 596.158 71.7496 610.239 73.1873 624.309C74.247 631.309 77 637.946 81.2078 643.645C85.4156 649.343 90.9515 653.931 97.3358 657.012C103.875 660.225 111.198 661.503 118.441 660.694C125.684 659.885 132.544 657.024 138.211 652.448C141.509 649.531 144.338 646.126 146.601 642.352C149.374 637.116 150.446 631.148 149.666 625.276C149.189 621.163 147.949 617.175 146.009 613.515C144.97 611.501 143.587 609.684 141.922 608.146C139.289 605.797 136.094 604.168 132.645 603.415C129.196 602.662 125.611 602.812 122.237 603.85C115.514 605.675 107.178 611.797 110.781 619.691C110.781 620.12 111.212 620.55 111.481 620.98C112.541 622.449 113.969 623.616 115.622 624.363C116.354 624.613 117.133 624.69 117.9 624.589C118.667 624.487 119.399 624.21 120.04 623.778C120.681 623.346 121.213 622.771 121.595 622.1C121.976 621.428 122.196 620.677 122.237 619.906C121.914 620.443 121.861 620.443 121.914 619.798ZM53.5028 641.278C56.0271 648.388 59.6571 655.057 64.2594 661.039C74.0873 673.625 88.15 682.229 103.843 685.258C116.317 687.508 129.181 685.9 140.715 680.651C152.249 675.402 161.902 666.761 168.383 655.884C174.705 644.786 176.859 631.802 174.46 619.261C173.038 611.475 169.831 604.124 165.092 597.78C160.352 591.436 154.208 586.272 147.139 582.692C140.063 579.066 132.147 577.389 124.207 577.832C116.266 578.276 108.587 580.825 101.961 585.216C96.5852 589.138 92.3081 594.373 89.5395 600.419C86.7708 606.465 85.6034 613.119 86.149 619.745C87.0288 627.325 90.6651 634.318 96.3677 639.399C98.8427 641.735 101.756 643.56 104.941 644.767C108.126 645.975 111.518 646.541 114.923 646.433C118.754 646.213 122.439 644.889 125.532 642.62C128.625 640.352 130.992 637.237 132.348 633.653C133.104 631.875 133.334 629.919 133.009 628.015C132.685 626.112 131.821 624.341 130.52 622.913C128.151 620.944 125.158 619.878 122.076 619.906C125.022 620.113 127.802 621.349 129.928 623.396C130.993 624.748 131.654 626.372 131.835 628.082C132.015 629.792 131.709 631.518 130.95 633.062C129.371 636.684 126.621 639.673 123.141 641.552C119.66 643.431 115.65 644.091 111.75 643.426C106.246 642.19 101.297 639.192 97.6585 634.888C94.9767 631.815 93.0309 628.172 91.9686 624.237C90.9063 620.301 90.7553 616.175 91.5272 612.173C93.0486 604.508 97.0102 597.538 102.822 592.304C105.26 589.957 108.151 588.13 111.319 586.934C115.499 585.2 119.97 584.27 124.496 584.196C131.426 584.283 138.253 585.878 144.503 588.867C152.343 593.017 158.78 599.388 163.005 607.179C167.202 615.032 169.068 623.918 168.383 632.794C167.93 639.417 166.098 645.873 163.005 651.749C159.363 658.343 154.423 664.133 148.483 668.772C142.231 673.661 135.035 677.208 127.347 679.19C120.529 681.106 113.393 681.617 106.371 680.693C100.15 679.821 94.0722 678.123 88.3003 675.646C80.905 672.291 74.2228 667.552 68.6158 661.684C63.0922 655.907 58.5505 649.268 55.1701 642.03C52.5285 636.203 50.492 630.121 49.0927 623.879C49.943 629.853 51.4212 635.721 53.5028 641.385V641.278Z" fill="white"/>
</g>
<g style="mix-blend-mode:overlay" opacity="0.2">
<path d="M564.743 843.614C564.761 844.21 564.619 844.799 564.33 845.321C564.042 845.842 563.618 846.277 563.103 846.58C562.588 846.882 562.002 847.041 561.404 847.041C560.807 847.04 560.22 846.879 559.707 846.575C558.379 845.919 557.318 844.826 556.705 843.481C554.403 838.625 558.706 834.267 562.842 832.471C565.177 831.404 567.745 830.944 570.306 831.136C572.867 831.328 575.337 832.165 577.486 833.569C580.981 836.282 583.412 840.131 584.357 844.446C585.336 848.366 585.212 852.48 584 856.335C582.788 860.19 580.534 863.638 577.486 866.299C574.073 869.274 569.977 871.365 565.562 872.386C561.146 873.407 556.546 873.327 552.168 872.154C548.177 871.004 544.454 869.078 541.213 866.486C537.973 863.894 535.279 860.688 533.288 857.052C530.942 852.41 529.72 847.283 529.72 842.084C529.72 836.885 530.942 831.759 533.288 827.116C536.797 819.425 542.867 813.182 550.467 809.447C558.068 805.712 566.73 804.715 574.984 806.626C583.74 808.74 591.618 813.521 597.524 820.305C603.43 827.088 607.071 835.537 607.94 844.479C606.184 834.319 600.864 825.111 592.93 818.501C588.924 815.033 584.243 812.428 579.18 810.848C574.118 809.269 568.783 808.748 563.509 809.32C554.816 810.587 546.949 815.151 541.548 822.061C536.148 828.97 533.631 837.693 534.522 846.408C535.18 850.744 536.887 854.855 539.497 858.385C542.107 861.915 545.54 864.757 549.499 866.665C553.555 868.656 558.097 869.447 562.589 868.946C567.081 868.445 571.336 866.672 574.851 863.838C576.896 862.031 578.651 859.922 580.054 857.585C581.774 854.341 582.439 850.644 581.955 847.007C581.659 844.459 580.89 841.989 579.687 839.722C579.043 838.475 578.185 837.349 577.152 836.396C575.519 834.941 573.537 833.932 571.399 833.466C569.26 833 567.036 833.092 564.944 833.735C560.774 834.866 555.604 838.658 557.839 843.548C557.839 843.814 558.105 844.08 558.272 844.346C558.93 845.256 559.816 845.979 560.841 846.441C561.295 846.596 561.778 846.644 562.254 846.582C562.729 846.519 563.184 846.347 563.581 846.079C563.979 845.812 564.309 845.456 564.545 845.04C564.781 844.623 564.918 844.158 564.944 843.681C564.743 844.013 564.71 844.013 564.743 843.614ZM522.314 856.919C523.879 861.323 526.131 865.454 528.985 869.16C535.081 876.956 543.802 882.285 553.536 884.161C561.272 885.555 569.25 884.559 576.404 881.308C583.557 878.056 589.544 872.704 593.564 865.967C597.484 859.092 598.821 851.05 597.333 843.282C596.451 838.459 594.462 833.905 591.522 829.975C588.583 826.046 584.772 822.847 580.388 820.63C575.999 818.384 571.09 817.345 566.165 817.619C561.24 817.894 556.478 819.473 552.368 822.193C549.034 824.622 546.381 827.865 544.664 831.61C542.947 835.355 542.223 839.477 542.561 843.581C543.107 848.276 545.362 852.608 548.899 855.755C550.434 857.203 552.241 858.333 554.216 859.081C556.191 859.829 558.295 860.179 560.407 860.112C562.783 859.976 565.069 859.156 566.987 857.751C568.905 856.346 570.374 854.416 571.215 852.196C571.683 851.095 571.826 849.883 571.625 848.704C571.424 847.525 570.888 846.428 570.081 845.543C568.611 844.324 566.755 843.664 564.844 843.681C566.671 843.809 568.395 844.574 569.714 845.843C570.374 846.68 570.784 847.686 570.896 848.745C571.008 849.805 570.818 850.874 570.347 851.83C569.368 854.074 567.663 855.925 565.504 857.089C563.345 858.253 560.858 858.661 558.439 858.25C555.026 857.484 551.957 855.627 549.7 852.961C548.036 851.057 546.83 848.801 546.171 846.363C545.512 843.925 545.418 841.37 545.897 838.891C546.841 834.143 549.298 829.826 552.902 826.584C554.414 825.13 556.207 823.998 558.172 823.257C560.765 822.183 563.538 821.607 566.345 821.561C570.642 821.615 574.877 822.603 578.753 824.455C583.616 827.025 587.608 830.971 590.228 835.797C592.831 840.662 593.988 846.166 593.564 851.664C593.283 855.766 592.146 859.765 590.228 863.405C587.969 867.49 584.906 871.076 581.222 873.95C577.344 876.978 572.881 879.175 568.112 880.403C563.884 881.59 559.458 881.907 555.103 881.334C551.245 880.794 547.475 879.742 543.896 878.207C539.309 876.13 535.165 873.194 531.687 869.559C528.261 865.981 525.444 861.869 523.348 857.385C521.71 853.776 520.447 850.008 519.579 846.142C520.106 849.842 521.023 853.477 522.314 856.986V856.919Z" fill="white"/>
</g>
<g style="mix-blend-mode:overlay" opacity="0.2">
<path d="M826.146 579.953C822.811 547.734 792.962 536.994 762.79 536.618C715.192 536.618 705.672 567.495 704.543 578.45C704.166 581.725 702.445 595.687 702.445 595.687C702.015 597.62 700.401 606.427 703.521 608.199C704.208 608.553 704.772 609.107 705.137 609.788C705.501 610.469 705.651 611.244 705.565 612.012L697.605 636.767C697.439 637.604 697.459 638.467 697.666 639.295C697.872 640.123 698.258 640.895 698.798 641.556C699.337 642.218 700.016 642.752 700.786 643.122C701.556 643.492 702.398 643.687 703.252 643.695L710.351 644.231C709.114 644.231 712.18 678.814 713.094 682.734C713.597 684.879 714.886 686.759 716.708 688.001C718.53 689.244 720.752 689.759 722.936 689.446L747.354 687.191L745.256 708.671H814.69L810.495 654.488C824.371 624.739 828.835 605.514 826.146 579.953ZM779.462 653.253H751.656L755.905 603.313C753.84 601.819 752.159 599.857 750.999 597.589C749.84 595.32 749.236 592.81 749.236 590.264C749.292 587.544 750.036 584.882 751.4 582.527C752.764 580.172 754.703 578.2 757.037 576.795C759.37 575.39 762.022 574.599 764.744 574.493C767.467 574.388 770.172 574.973 772.607 576.194C775.042 577.415 777.128 579.231 778.67 581.474C780.212 583.717 781.16 586.314 781.426 589.021C781.691 591.729 781.266 594.459 780.189 596.958C779.112 599.457 777.419 601.643 775.267 603.313L779.462 653.253Z" fill="white"/>
</g>
<g style="mix-blend-mode:overlay" opacity="0.2">
<path d="M425.25 846.339C423.257 827.049 405.422 820.619 387.393 820.394C358.953 820.394 353.265 838.88 352.59 845.439C352.365 847.4 351.336 855.759 351.336 855.759C351.079 856.916 350.115 862.189 351.979 863.25C352.39 863.462 352.726 863.794 352.945 864.201C353.163 864.609 353.252 865.073 353.2 865.533L348.444 880.354C348.345 880.855 348.357 881.371 348.48 881.867C348.604 882.363 348.835 882.825 349.157 883.221C349.479 883.617 349.885 883.937 350.345 884.158C350.805 884.38 351.308 884.497 351.818 884.501L356.06 884.823C355.321 884.823 357.153 905.527 357.699 907.874C358 909.159 358.77 910.284 359.859 911.028C360.947 911.772 362.275 912.081 363.58 911.893L378.17 910.543L376.917 923.403H418.405L415.898 890.963C424.189 873.152 426.857 861.642 425.25 846.339ZM397.356 890.224H380.741L383.28 860.324C382.046 859.43 381.041 858.255 380.348 856.897C379.656 855.539 379.295 854.036 379.295 852.512C379.328 850.883 379.773 849.29 380.588 847.88C381.403 846.47 382.562 845.289 383.956 844.448C385.35 843.607 386.935 843.133 388.561 843.07C390.188 843.007 391.805 843.357 393.26 844.088C394.715 844.819 395.961 845.907 396.882 847.25C397.804 848.592 398.37 850.147 398.529 851.768C398.688 853.389 398.433 855.024 397.79 856.52C397.146 858.016 396.135 859.325 394.849 860.324L397.356 890.224Z" fill="white"/>
</g>
<g style="mix-blend-mode:overlay" opacity="0.2">
<path d="M64.4398 62.7341C62.4473 43.444 44.6117 37.014 26.5833 36.7889C-1.85736 36.7889 -7.54549 55.2753 -8.22035 61.8339C-8.44531 63.7951 -9.47366 72.1541 -9.47366 72.1541C-9.73075 73.3115 -10.6949 78.5841 -8.83095 79.6451C-8.42029 79.8571 -8.08364 80.1889 -7.86558 80.5965C-7.64751 81.0041 -7.5583 81.4683 -7.60975 81.9278L-12.3659 96.749C-12.4652 97.2499 -12.4528 97.7666 -12.3296 98.2622C-12.2064 98.7578 -11.9755 99.2201 -11.6532 99.6162C-11.331 100.012 -10.9254 100.332 -10.4653 100.554C-10.0053 100.775 -9.50209 100.892 -8.99164 100.896L-4.74963 101.218C-5.48876 101.218 -3.65701 121.923 -3.11069 124.27C-2.81054 125.554 -2.04009 126.679 -0.951389 127.423C0.137313 128.167 1.46519 128.476 2.77025 128.288L17.3602 126.938L16.1068 139.798H57.5947L55.0881 107.359C63.3793 89.5473 66.0466 78.0376 64.4398 62.7341ZM36.5455 106.619H19.931L22.4698 76.7194C21.2357 75.825 20.231 74.6506 19.5383 73.2926C18.8457 71.9345 18.4846 70.4316 18.4849 68.9069C18.518 67.2785 18.9628 65.6849 19.7778 64.2749C20.5928 62.8649 21.7515 61.6843 23.1458 60.8433C24.54 60.0023 26.1245 59.5282 27.7513 59.4652C29.3782 59.4023 30.9946 59.7526 32.4496 60.4834C33.9046 61.2143 35.1509 62.3018 36.0723 63.6447C36.9937 64.9876 37.5601 66.542 37.7188 68.1631C37.8775 69.7841 37.6232 71.4189 36.9797 72.9151C36.3363 74.4113 35.3245 75.7201 34.0388 76.7194L36.5455 106.619Z" fill="white"/>
</g>
<g style="mix-blend-mode:overlay" opacity="0.2">
<path d="M706.748 246.48C706.581 245.097 706.293 243.732 705.887 242.399C705.565 241.164 705.188 240.09 704.866 239.016C704.22 236.922 703.521 235.096 702.983 233.646C701.961 230.639 701.208 228.974 701.208 228.974C701.208 228.974 701.208 230.8 701.208 233.968C701.208 235.579 701.208 237.512 701.208 239.714C701.208 240.788 701.208 242.023 701.208 243.205C701.287 244.385 701.287 245.569 701.208 246.749C700.977 249.328 700.436 251.87 699.595 254.32C698.724 256.834 697.393 259.165 695.669 261.194C694.843 262.099 693.903 262.893 692.872 263.557C692.392 263.833 691.888 264.067 691.366 264.255H690.613H690.022C690.022 264.255 688.085 264.255 688.139 264.255H684.267L683.406 221.832H676.791L675.931 264.255H672.058C671.504 264.308 670.945 264.308 670.391 264.255H669.638H668.831C668.31 264.067 667.806 263.833 667.325 263.557C666.283 262.909 665.34 262.113 664.529 261.194C662.789 259.176 661.456 256.842 660.602 254.32C659.743 251.894 659.201 249.367 658.989 246.802C658.989 246.212 658.989 245.675 658.989 245.03V243.097C658.989 242.077 658.989 240.788 658.989 239.714C658.989 237.512 658.989 235.579 658.989 233.968C658.989 230.8 658.989 228.974 658.989 228.974C658.989 228.974 658.29 230.639 657.214 233.646C656.676 235.15 656.031 236.975 655.385 239.016C655.063 240.144 654.686 241.11 654.31 242.453C653.928 243.773 653.64 245.119 653.449 246.48C652.967 249.684 652.967 252.942 653.449 256.146C654.008 259.999 655.443 263.673 657.644 266.886C658.882 268.714 660.429 270.313 662.216 271.611C664.15 273.035 666.37 274.024 668.724 274.511C669.903 274.807 671.111 274.969 672.327 274.995H675.554L674.801 310.544H685.074L684.321 274.995H689.053H689.699H690.344H691.366C693.662 274.52 695.842 273.598 697.781 272.28C699.719 270.962 701.377 269.275 702.66 267.316C704.877 264.105 706.33 260.432 706.909 256.576C707.387 253.223 707.333 249.816 706.748 246.48Z" fill="white"/>
</g>
<g style="mix-blend-mode:overlay" opacity="0.2">
<path d="M259.222 123.509C259.222 122.22 258.738 121.038 258.469 119.964C258.2 118.89 257.824 117.978 257.555 117.065C257.017 115.239 256.425 113.682 255.995 112.393C255.081 109.815 254.435 108.365 254.435 108.365C254.435 108.365 254.435 109.923 254.435 112.661C254.435 114.057 254.435 115.722 254.435 117.602C254.435 118.515 254.435 119.589 254.435 120.609C254.435 121.629 254.435 122.596 254.435 123.67C254.222 125.882 253.753 128.063 253.037 130.167C252.297 132.335 251.146 134.34 249.649 136.074C248.953 136.855 248.157 137.541 247.282 138.115C246.844 138.334 246.395 138.531 245.938 138.705H245.292H244.808C244.808 138.705 243.141 138.705 243.195 138.705H239.86L239.161 102.244H233.083L232.384 139.618H229.157C228.673 139.618 228.189 139.618 227.759 139.618H227.06H226.414C225.957 139.444 225.508 139.247 225.07 139.028C224.195 138.454 223.399 137.768 222.703 136.987C221.206 135.253 220.055 133.248 219.315 131.08C218.61 128.991 218.141 126.83 217.917 124.636C217.888 124.118 217.888 123.598 217.917 123.079V121.468C217.917 120.555 217.917 119.427 217.917 118.515C217.917 116.635 217.917 114.97 217.917 113.574C217.917 110.836 217.917 109.278 217.917 109.278C217.917 109.278 217.325 110.728 216.411 113.306C215.927 114.594 215.335 116.152 214.797 117.978C214.797 118.89 214.206 119.75 213.883 120.931C213.548 121.773 213.261 122.634 213.023 123.509C212.589 126.266 212.589 129.074 213.023 131.832C213.518 135.074 214.751 138.16 216.626 140.853C217.705 142.417 219.031 143.795 220.552 144.935C222.154 146.133 223.984 146.992 225.93 147.458C226.959 147.663 228.002 147.789 229.05 147.834H232.169L231.578 178.389H240.344L239.914 148.049H245.292H246.153C250.128 147.18 253.615 144.815 255.887 141.444C257.749 138.724 258.98 135.624 259.491 132.369C259.863 129.419 259.772 126.43 259.222 123.509Z" fill="white"/>
</g>
<g style="mix-blend-mode:overlay" opacity="0.2">
<path d="M406.043 570.145C407.362 570.835 408.446 571.901 409.158 573.206C409.871 574.512 410.18 575.999 410.046 577.48C409.912 578.961 409.341 580.369 408.405 581.526C407.47 582.683 406.212 583.537 404.79 583.98C403.369 584.423 401.848 584.435 400.419 584.015C398.991 583.595 397.719 582.761 396.765 581.619C395.811 580.478 395.217 579.079 395.06 577.601C394.902 576.122 395.186 574.63 395.878 573.313C396.337 572.439 396.964 571.663 397.723 571.031C398.482 570.398 399.359 569.921 400.303 569.627C401.247 569.333 402.24 569.227 403.224 569.316C404.209 569.405 405.167 569.686 406.043 570.145ZM378.398 576.696C380.872 552.961 402.923 544.477 425.189 544.477C460.417 544.477 467.463 567.299 468.215 575.407C468.215 577.77 469.775 588.134 469.775 588.134C470.044 589.53 471.281 595.867 468.968 597.37C468.468 597.634 468.058 598.041 467.79 598.538C467.522 599.035 467.408 599.601 467.463 600.163L473.325 618.421C473.49 619.058 473.506 619.724 473.372 620.369C473.237 621.013 472.957 621.618 472.551 622.137C472.146 622.656 471.627 623.075 471.033 623.361C470.44 623.648 469.789 623.795 469.13 623.791L463.751 624.166C463.77 633.689 463.105 643.2 461.762 652.627C461.388 654.218 460.428 655.61 459.072 656.526C457.716 657.441 456.065 657.813 454.447 657.567L436.43 655.956L437.99 671.637H387.111L390.177 631.631C379.743 609.721 376.354 595.491 378.398 576.696ZM418.789 589.745H424.759L427.663 593.182L426.857 599.143L431.912 601.774L436.322 597.693L440.894 598.552L444.497 603.331L449.876 601.613V595.652L453.318 592.752L459.234 593.558L461.923 588.51L457.835 584.107L458.212 579.65L462.999 576.052L461.277 570.682H455.308L452.403 567.245L453.264 561.338L448.208 558.653L443.798 562.734L439.28 562.358L435.731 557.579L430.352 559.298V565.258L426.91 568.158L420.94 567.299L418.305 572.347L422.393 576.75L421.962 581.207L417.176 584.805L418.789 589.745ZM392.812 587.168L396.2 585.932L398.621 587.168L399.535 590.712H403.031L404.537 587.436L407.172 586.631L410.291 588.456L412.927 586.201L411.69 582.818L412.981 580.401L416.476 579.489L416.799 576.052L413.465 574.494L412.658 571.917L414.486 568.802L412.281 566.117L408.839 567.353L406.419 566.117L405.505 562.573H402.063L400.557 565.849L397.921 566.654L394.802 564.829L392.113 567.084L393.404 570.467L392.113 572.884L388.617 573.796L388.294 577.233L391.575 578.79L392.436 581.368L390.553 584.536L392.812 587.168ZM428.524 574.011C427.292 576.297 426.767 578.896 427.017 581.479C427.266 584.062 428.278 586.514 429.925 588.522C431.572 590.53 433.778 592.005 436.266 592.759C438.753 593.513 441.408 593.513 443.895 592.758C446.382 592.003 448.589 590.528 450.235 588.519C451.881 586.511 452.893 584.059 453.142 581.476C453.391 578.893 452.865 576.294 451.633 574.009C450.4 571.724 448.516 569.855 446.218 568.641C443.153 567.037 439.58 566.701 436.269 567.706C432.958 568.711 430.176 570.976 428.524 574.011Z" fill="white"/>
</g>
<g style="mix-blend-mode:overlay" opacity="0.2">
<path d="M135.435 310.783C136.754 311.473 137.838 312.538 138.551 313.844C139.263 315.15 139.572 316.637 139.438 318.118C139.304 319.599 138.733 321.007 137.798 322.164C136.862 323.32 135.604 324.174 134.183 324.618C132.761 325.061 131.24 325.073 129.811 324.653C128.383 324.233 127.111 323.399 126.157 322.257C125.203 321.116 124.61 319.717 124.452 318.238C124.294 316.76 124.579 315.268 125.27 313.951C125.729 313.077 126.356 312.301 127.115 311.668C127.875 311.036 128.751 310.559 129.695 310.265C130.639 309.971 131.632 309.865 132.617 309.954C133.602 310.043 134.559 310.324 135.435 310.783ZM107.791 317.334C110.265 293.599 132.316 285.114 154.582 285.114C189.809 285.114 196.855 307.937 197.608 316.045C197.608 318.408 199.168 328.772 199.168 328.772C199.436 330.168 200.673 336.505 198.361 338.008C197.861 338.272 197.45 338.678 197.182 339.176C196.914 339.673 196.8 340.239 196.855 340.801L202.717 359.058C202.882 359.696 202.898 360.362 202.764 361.007C202.63 361.651 202.349 362.256 201.944 362.775C201.538 363.294 201.019 363.713 200.426 363.999C199.833 364.286 199.181 364.433 198.522 364.428L193.144 364.804C193.163 374.326 192.498 383.838 191.154 393.265C190.78 394.856 189.82 396.248 188.464 397.163C187.109 398.079 185.457 398.451 183.839 398.205L165.822 396.594L167.382 412.275H116.503L119.569 372.269C109.135 350.359 105.747 336.129 107.791 317.334ZM148.181 330.383H154.151L157.056 333.82L156.249 339.78L161.304 342.412L165.715 338.33L170.286 339.19L173.89 343.969L179.268 342.251V336.29L182.71 333.39L188.626 334.196L191.315 329.148L187.228 324.745L187.604 320.288L192.391 316.69L190.67 311.32H184.7L181.796 307.883L182.656 301.976L177.601 299.291L173.19 303.372L168.673 302.996L165.123 298.217L159.745 299.935V305.896L156.303 308.796L150.333 307.937L147.697 312.984L151.785 317.388L151.355 321.845L146.568 325.443L148.181 330.383ZM122.204 327.805L125.593 326.57L128.013 327.805L128.927 331.35H132.423L133.929 328.074L136.564 327.268L139.684 329.094L142.319 326.839L141.082 323.456L142.373 321.039L145.869 320.126L146.192 316.69L142.857 315.132L142.05 312.555L143.879 309.44L141.674 306.755L138.232 307.99L135.811 306.755L134.897 303.211H131.455L129.949 306.487L127.314 307.292L124.194 305.466L121.505 307.722L122.796 311.105L121.505 313.521L118.009 314.434L117.687 317.871L120.967 319.428L121.828 322.006L119.946 325.174L122.204 327.805ZM157.916 314.649C156.684 316.934 156.16 319.534 156.409 322.117C156.658 324.7 157.671 327.151 159.317 329.16C160.964 331.168 163.171 332.643 165.658 333.397C168.145 334.151 170.801 334.151 173.288 333.396C175.775 332.641 177.981 331.166 179.627 329.157C181.274 327.149 182.285 324.697 182.534 322.114C182.783 319.53 182.258 316.931 181.025 314.646C179.793 312.361 177.908 310.493 175.611 309.279C172.546 307.675 168.972 307.339 165.661 308.344C162.351 309.349 159.569 311.614 157.916 314.649Z" fill="white"/>
</g>
<g style="mix-blend-mode:overlay" opacity="0.2">
<path d="M560.675 137.875C561.994 138.565 563.079 139.63 563.791 140.936C564.504 142.242 564.813 143.729 564.679 145.21C564.544 146.691 563.974 148.099 563.038 149.255C562.103 150.412 560.845 151.266 559.423 151.709C558.002 152.153 556.48 152.165 555.052 151.745C553.623 151.325 552.352 150.491 551.398 149.349C550.444 148.207 549.85 146.809 549.692 145.33C549.534 143.852 549.819 142.36 550.511 141.043C550.97 140.168 551.597 139.393 552.356 138.76C553.115 138.128 553.992 137.651 554.936 137.357C555.88 137.063 556.872 136.957 557.857 137.046C558.842 137.135 559.8 137.416 560.675 137.875ZM533.031 144.426C535.505 120.691 557.556 112.206 579.822 112.206C615.05 112.206 622.095 135.029 622.848 143.137C622.848 145.5 624.408 155.864 624.408 155.864C624.677 157.26 625.914 163.597 623.601 165.1C623.101 165.364 622.691 165.77 622.423 166.268C622.154 166.765 622.041 167.331 622.095 167.893L627.958 186.15C628.122 186.788 628.138 187.454 628.004 188.098C627.87 188.743 627.59 189.348 627.184 189.867C626.779 190.386 626.26 190.805 625.666 191.091C625.073 191.378 624.422 191.525 623.763 191.52L618.384 191.896C618.403 201.418 617.738 210.93 616.394 220.357C616.021 221.948 615.06 223.34 613.705 224.255C612.349 225.171 610.698 225.543 609.08 225.297L591.063 223.686L592.622 239.366H541.744L544.81 199.36C534.376 177.451 530.987 163.221 533.031 144.426ZM573.422 157.475H579.392L582.296 160.912L581.489 166.872L586.545 169.504L590.955 165.422L595.527 166.282L599.13 171.061L604.508 169.342V163.382L607.95 160.482L613.867 161.288L616.556 156.24L612.468 151.836L612.845 147.379L617.631 143.782L615.91 138.412H609.94L607.036 134.975L607.897 129.068L602.841 126.383L598.431 130.464L593.913 130.088L590.364 125.309L584.985 127.027V132.988L581.543 135.888L575.573 135.029L572.938 140.076L577.025 144.48L576.595 148.937L571.808 152.535L573.422 157.475ZM547.445 154.897L550.833 153.662L553.253 154.897L554.168 158.442H557.664L559.17 155.166L561.805 154.36L564.924 156.186L567.56 153.931L566.323 150.548L567.613 148.131L571.109 147.218L571.432 143.782L568.097 142.224L567.291 139.647L569.119 136.532L566.914 133.847L563.472 135.082L561.052 133.847L560.138 130.303H556.696L555.19 133.579L552.554 134.384L549.435 132.558L546.746 134.814L548.037 138.197L546.746 140.613L543.25 141.526L542.927 144.963L546.208 146.52L547.068 149.098L545.186 152.266L547.445 154.897ZM583.157 141.741C581.925 144.026 581.4 146.625 581.649 149.209C581.899 151.792 582.911 154.243 584.558 156.252C586.204 158.26 588.411 159.734 590.898 160.489C593.386 161.243 596.041 161.243 598.528 160.488C601.015 159.733 603.222 158.258 604.868 156.249C606.514 154.241 607.526 151.789 607.775 149.206C608.023 146.622 607.498 144.023 606.266 141.738C605.033 139.453 603.149 137.585 600.851 136.371C597.786 134.767 594.213 134.431 590.902 135.436C587.591 136.441 584.809 138.705 583.157 141.741Z" fill="white"/>
</g>
<g style="mix-blend-mode:overlay" opacity="0.2">
<path d="M637.678 402.037L663.817 410.898L674.573 379.645L648.327 370.623C646.265 369.918 644.084 369.625 641.908 369.762C639.732 369.898 637.605 370.461 635.647 371.419C633.689 372.376 631.94 373.709 630.498 375.342C629.056 376.974 627.951 378.874 627.244 380.933C626.538 382.993 626.245 385.17 626.382 387.343C626.518 389.515 627.082 391.639 628.041 393.594C629.978 397.541 633.406 400.559 637.571 401.984L637.678 402.037ZM663.655 403.004L662.526 406.333L638.969 398.225C635.818 397.095 633.242 394.768 631.802 391.75C630.361 388.733 630.173 385.27 631.278 382.115C631.399 381.8 631.543 381.495 631.708 381.202C638.109 391.244 650.102 397.473 663.655 402.843V403.004ZM694.957 421.476L669.249 412.723L680.005 381.47L705.498 390.116C709.663 391.54 713.091 394.558 715.028 398.506C716.964 402.453 717.251 407.007 715.825 411.166C714.398 415.325 711.376 418.747 707.422 420.681C703.468 422.614 698.907 422.901 694.742 421.476H694.957Z" fill="white"/>
</g>
<g style="mix-blend-mode:overlay" opacity="0.2">
<path d="M256.619 273.276L282.757 282.136L293.514 250.883L267.268 241.862C265.205 241.157 263.024 240.864 260.848 241C258.673 241.137 256.545 241.7 254.587 242.657C252.63 243.615 250.88 244.948 249.438 246.58C247.997 248.213 246.891 250.113 246.185 252.172C245.478 254.231 245.185 256.409 245.322 258.581C245.459 260.754 246.023 262.878 246.981 264.832C248.918 268.78 252.346 271.798 256.511 273.222L256.619 273.276ZM282.596 274.242L281.466 277.572L257.909 269.463C254.759 268.333 252.183 266.006 250.742 262.989C249.302 259.972 249.114 256.509 250.218 253.353C250.34 253.039 250.483 252.734 250.649 252.44C257.049 262.482 269.042 268.711 282.596 274.081V274.242ZM313.897 292.715L288.189 283.962L298.946 252.709L324.439 261.355C328.604 262.779 332.032 265.797 333.968 269.744C335.905 273.692 336.191 278.246 334.765 282.405C333.339 286.563 330.316 289.986 326.362 291.919C322.408 293.853 317.847 294.139 313.682 292.715H313.897Z" fill="white"/>
</g>
<path opacity="0.1" d="M577.049 574.164C577.247 571.745 578.381 569.498 580.209 567.899C582.038 566.301 584.418 565.477 586.845 565.602C589.278 565.635 591.603 566.616 593.324 568.335C595.045 570.054 596.027 572.377 596.06 574.808C596.06 597.854 596.06 620.964 595.738 644.01C595.556 645.371 595.106 646.682 594.413 647.867C593.72 649.052 592.798 650.088 591.701 650.915C590.603 651.741 589.353 652.342 588.021 652.682C586.69 653.021 585.304 653.093 583.945 652.894C582.576 652.999 581.201 652.832 579.897 652.402C578.594 651.973 577.389 651.289 576.352 650.391C575.315 649.493 574.467 648.398 573.857 647.17C573.246 645.942 572.886 644.606 572.796 643.238L577.049 574.164ZM590.26 463.569C580.617 463.243 571.093 465.781 562.894 470.863C554.695 475.944 548.188 483.34 544.197 492.115C540.206 500.891 538.91 510.651 540.472 520.163C542.034 529.674 546.385 538.509 552.974 545.55C559.563 552.591 568.095 557.523 577.49 559.72C586.884 561.918 596.721 561.283 605.754 557.896C614.788 554.509 622.613 548.523 628.241 540.693C633.868 532.863 637.045 523.543 637.369 513.909C637.786 500.999 633.062 488.449 624.231 479.013C615.4 469.576 603.184 464.022 590.26 463.569ZM549.789 511.013C550.085 503.397 552.629 496.04 557.101 489.866C561.573 483.691 567.774 478.977 574.923 476.315C582.072 473.654 589.849 473.164 597.276 474.908C604.702 476.652 611.447 480.552 616.659 486.117C621.872 491.681 625.321 498.662 626.571 506.18C627.821 513.697 626.816 521.417 623.684 528.366C620.552 535.315 615.432 541.183 608.968 545.231C602.505 549.28 594.986 551.328 587.36 551.118C582.248 550.977 577.215 549.824 572.552 547.727C567.889 545.63 563.689 542.629 560.194 538.899C556.7 535.169 553.981 530.784 552.195 525.997C550.409 521.21 549.591 516.117 549.789 511.013ZM590.26 463.569C580.617 463.243 571.093 465.781 562.894 470.863C554.695 475.944 548.188 483.34 544.197 492.115C540.206 500.891 538.91 510.651 540.472 520.163C542.034 529.674 546.385 538.509 552.974 545.55C559.563 552.591 568.095 557.523 577.49 559.72C586.884 561.918 596.721 561.283 605.754 557.896C614.788 554.509 622.613 548.523 628.241 540.693C633.868 532.863 637.045 523.543 637.369 513.909C637.786 500.999 633.062 488.449 624.231 479.013C615.4 469.576 603.184 464.022 590.26 463.569ZM549.789 511.013C550.085 503.397 552.629 496.04 557.101 489.866C561.573 483.691 567.774 478.977 574.923 476.315C582.072 473.654 589.849 473.164 597.276 474.908C604.702 476.652 611.447 480.552 616.659 486.117C621.872 491.681 625.321 498.662 626.571 506.18C627.821 513.697 626.816 521.417 623.684 528.366C620.552 535.315 615.432 541.183 608.968 545.231C602.505 549.28 594.986 551.328 587.36 551.118C582.248 550.977 577.215 549.824 572.552 547.727C567.889 545.63 563.689 542.629 560.194 538.899C556.7 535.169 553.981 530.784 552.195 525.997C550.409 521.21 549.591 516.117 549.789 511.013Z" fill="white"/>
<path opacity="0.1" d="M866.385 300.026C866.467 299.016 866.938 298.078 867.697 297.411C868.456 296.744 869.444 296.4 870.451 296.452C871.461 296.466 872.426 296.875 873.141 297.593C873.855 298.311 874.263 299.28 874.276 300.295C874.276 309.916 874.276 319.564 874.143 329.185C874.067 329.753 873.88 330.301 873.593 330.796C873.305 331.29 872.922 331.723 872.467 332.068C872.011 332.413 871.492 332.664 870.94 332.805C870.387 332.947 869.812 332.977 869.247 332.894C868.679 332.938 868.108 332.868 867.567 332.689C867.026 332.509 866.526 332.224 866.096 331.849C865.665 331.474 865.313 331.017 865.06 330.505C864.807 329.992 864.657 329.434 864.62 328.863L866.385 300.026ZM871.869 253.855C867.866 253.719 863.913 254.779 860.509 256.901C857.106 259.022 854.405 262.109 852.748 265.773C851.092 269.436 850.554 273.511 851.202 277.482C851.851 281.453 853.657 285.141 856.392 288.081C859.127 291.02 862.668 293.079 866.568 293.996C870.468 294.914 874.551 294.649 878.3 293.235C882.05 291.821 885.298 289.322 887.634 286.053C889.97 282.784 891.289 278.893 891.423 274.871C891.597 269.482 889.636 264.242 885.97 260.303C882.304 256.363 877.233 254.045 871.869 253.855ZM855.07 273.662C855.192 270.483 856.248 267.411 858.105 264.834C859.961 262.256 862.535 260.288 865.503 259.177C868.47 258.066 871.698 257.861 874.781 258.589C877.864 259.318 880.663 260.946 882.827 263.269C884.991 265.592 886.422 268.506 886.941 271.644C887.46 274.783 887.043 278.006 885.743 280.907C884.443 283.808 882.317 286.257 879.634 287.948C876.951 289.638 873.831 290.493 870.665 290.405C868.543 290.346 866.454 289.865 864.518 288.99C862.583 288.114 860.839 286.861 859.389 285.304C857.938 283.747 856.81 281.916 856.068 279.918C855.327 277.919 854.988 275.793 855.07 273.662ZM871.869 253.855C867.866 253.719 863.913 254.779 860.509 256.901C857.106 259.022 854.405 262.109 852.748 265.773C851.092 269.436 850.554 273.511 851.202 277.482C851.851 281.453 853.657 285.141 856.392 288.081C859.127 291.02 862.668 293.079 866.568 293.996C870.468 294.914 874.551 294.649 878.3 293.235C882.05 291.821 885.298 289.322 887.634 286.053C889.97 282.784 891.289 278.893 891.423 274.871C891.597 269.482 889.636 264.242 885.97 260.303C882.304 256.363 877.233 254.045 871.869 253.855ZM855.07 273.662C855.192 270.483 856.248 267.411 858.105 264.834C859.961 262.256 862.535 260.288 865.503 259.177C868.47 258.066 871.698 257.861 874.781 258.589C877.864 259.318 880.663 260.946 882.827 263.269C884.991 265.592 886.422 268.506 886.941 271.644C887.46 274.783 887.043 278.006 885.743 280.907C884.443 283.808 882.317 286.257 879.634 287.948C876.951 289.638 873.831 290.493 870.665 290.405C868.543 290.346 866.454 289.865 864.518 288.99C862.583 288.114 860.839 286.861 859.389 285.304C857.938 283.747 856.81 281.916 856.068 279.918C855.327 277.919 854.988 275.793 855.07 273.662Z" fill="white"/>
<path opacity="0.1" d="M695.184 55.3797C695.267 54.3697 695.737 53.4316 696.496 52.7643C697.255 52.0971 698.243 51.7531 699.25 51.8054C700.261 51.8193 701.226 52.2286 701.94 52.9464C702.654 53.6641 703.062 54.6335 703.076 55.6484C703.076 65.2696 703.076 74.9176 702.942 84.5388C702.867 85.1068 702.68 85.6542 702.392 86.149C702.104 86.6438 701.722 87.0763 701.266 87.4213C700.811 87.7664 700.292 88.0171 699.739 88.1589C699.186 88.3007 698.611 88.3309 698.047 88.2475C697.479 88.2914 696.908 88.2216 696.367 88.0423C695.826 87.8629 695.326 87.5775 694.895 87.2025C694.465 86.8276 694.113 86.3706 693.859 85.858C693.606 85.3454 693.456 84.7874 693.419 84.2163L695.184 55.3797ZM700.668 9.20888C696.665 9.07295 692.712 10.1326 689.309 12.254C685.905 14.3753 683.204 17.4629 681.548 21.1264C679.891 24.7899 679.353 28.8647 680.001 32.8355C680.65 36.8063 682.456 40.4946 685.191 43.4342C687.926 46.3737 691.467 48.4324 695.367 49.3498C699.267 50.2672 703.35 50.0022 707.1 48.5883C710.85 47.1744 714.098 44.675 716.434 41.4064C718.77 38.1377 720.088 34.2465 720.223 30.2249C720.396 24.835 718.435 19.5959 714.769 15.6563C711.104 11.7167 706.033 9.39816 700.668 9.20888ZM683.869 29.0156C683.992 25.8364 685.048 22.7647 686.904 20.1872C688.761 17.6096 691.334 15.6414 694.302 14.5303C697.269 13.4192 700.498 13.2148 703.58 13.9429C706.663 14.671 709.463 16.299 711.626 18.6221C713.79 20.9451 715.222 23.8593 715.74 26.9979C716.259 30.1364 715.842 33.359 714.542 36.2601C713.242 39.1611 711.117 41.6109 708.434 43.3011C705.751 44.9913 702.63 45.8463 699.464 45.7585C697.343 45.6997 695.253 45.2186 693.318 44.343C691.382 43.4674 689.638 42.2148 688.188 40.6576C686.738 39.1004 685.609 37.2696 684.868 35.2713C684.126 33.2729 683.787 31.1466 683.869 29.0156ZM700.668 9.20888C696.665 9.07295 692.712 10.1326 689.309 12.254C685.905 14.3753 683.204 17.4629 681.548 21.1264C679.891 24.7899 679.353 28.8647 680.001 32.8355C680.65 36.8063 682.456 40.4946 685.191 43.4342C687.926 46.3737 691.467 48.4324 695.367 49.3498C699.267 50.2672 703.35 50.0022 707.1 48.5883C710.85 47.1744 714.098 44.675 716.434 41.4064C718.77 38.1377 720.088 34.2465 720.223 30.2249C720.396 24.835 718.435 19.5959 714.769 15.6563C711.104 11.7167 706.033 9.39816 700.668 9.20888ZM683.869 29.0156C683.992 25.8364 685.048 22.7647 686.904 20.1872C688.761 17.6096 691.334 15.6414 694.302 14.5303C697.269 13.4192 700.498 13.2148 703.58 13.9429C706.663 14.671 709.463 16.299 711.626 18.6221C713.79 20.9451 715.222 23.8593 715.74 26.9979C716.259 30.1364 715.842 33.359 714.542 36.2601C713.242 39.1611 711.117 41.6109 708.434 43.3011C705.751 44.9913 702.63 45.8463 699.464 45.7585C697.343 45.6997 695.253 45.2186 693.318 44.343C691.382 43.4674 689.638 42.2148 688.188 40.6576C686.738 39.1004 685.609 37.2696 684.868 35.2713C684.126 33.2729 683.787 31.1466 683.869 29.0156Z" fill="white"/>
<g style="mix-blend-mode:overlay" opacity="0.2">
<path d="M144.019 1122.27H124.335V1102.56H108.899V1122.27H89.1606V1137.68H108.899V1157.39H124.335V1137.68H144.019V1122.27Z" fill="white"/>
</g>
<g style="mix-blend-mode:overlay" opacity="0.2">
<path d="M794.575 1111.37H776.343V1093.22H762.091V1111.37H743.858V1125.66H762.091V1143.81H776.343V1125.66H794.575V1111.37Z" fill="white"/>
</g>
<g style="mix-blend-mode:overlay" opacity="0.2">
<path d="M343.446 967.565H329.032V953.173H317.737V967.565H303.377V978.842H317.737V993.233H329.032V978.842H343.446V967.565Z" fill="white"/>
</g>
<g style="mix-blend-mode:overlay" opacity="0.2">
<path d="M627.795 967.565H613.381V953.173H602.141V967.565H587.727V978.842H602.141V993.233H613.381V978.842H627.795V967.565Z" fill="white"/>
</g>
<g style="mix-blend-mode:overlay" opacity="0.2">
<path d="M465.801 1010.63C454.558 1006.72 443.901 1001.3 434.123 994.522L416.214 1044.46C409.813 1062.13 417.182 1086.19 435.253 1092.79L436.221 1093.11C454.184 1099.4 475.052 1085.7 481.398 1068.04L499.469 1017.61C487.985 1016.8 476.662 1014.45 465.801 1010.63ZM472.686 1036.62C478.064 1037.86 481.345 1041.99 480.108 1046.07C473.273 1045.07 466.529 1043.53 459.939 1041.46C461.183 1039.27 463.157 1037.59 465.516 1036.7C467.875 1035.82 470.469 1035.79 472.847 1036.62H472.686ZM442.997 1025.88C445.321 1026.79 447.257 1028.47 448.474 1030.65C449.69 1032.82 450.112 1035.35 449.667 1037.8C443.334 1035.13 437.221 1031.97 431.38 1028.35C433.155 1024.43 438.211 1023.47 443.159 1025.99L442.997 1025.88ZM440.685 1079.9H440.093C427.024 1075.23 420.893 1058.8 423.958 1044.19C429.337 1057.62 436.328 1065.67 444.88 1068.9C453.431 1072.12 463.865 1069.97 475.536 1062.77C468.598 1075.61 453.754 1084.25 440.846 1080.01L440.685 1079.9Z" fill="white"/>
</g>
<g style="mix-blend-mode:overlay" opacity="0.2">
<path d="M900.054 1036.73L873.646 1017.39L850.143 1048.81L876.766 1068.35C878.833 1070.04 881.223 1071.29 883.789 1072.03C886.355 1072.76 889.045 1072.97 891.694 1072.64C894.343 1072.3 896.896 1071.43 899.198 1070.08C901.5 1068.73 903.503 1066.93 905.084 1064.78C906.666 1062.63 907.793 1060.18 908.398 1057.59C909.002 1054.99 909.071 1052.3 908.601 1049.67C908.13 1047.05 907.13 1044.55 905.66 1042.32C904.191 1040.1 902.284 1038.19 900.054 1036.73ZM871.011 1026.31L873.485 1022.98L897.526 1040.65C900.651 1043.04 902.711 1046.57 903.264 1050.46C903.817 1054.36 902.819 1058.31 900.484 1061.48C900.484 1061.8 899.946 1062.07 899.677 1062.39C895.697 1048.7 884.457 1037.21 871.011 1026.31ZM842.183 994.088L868.161 1013.15L844.604 1044.57L818.949 1025.72C816.782 1024.23 814.935 1022.32 813.52 1020.11C812.105 1017.9 811.149 1015.42 810.711 1012.83C810.272 1010.24 810.359 1007.59 810.966 1005.04C811.574 1002.48 812.689 1000.07 814.247 997.958C815.804 995.841 817.771 994.059 820.032 992.717C822.292 991.374 824.8 990.499 827.406 990.143C830.012 989.787 832.663 989.958 835.201 990.645C837.74 991.332 840.114 992.521 842.183 994.142V994.088Z" fill="white"/>
</g>
<g style="mix-blend-mode:overlay" opacity="0.2">
<path d="M64.4398 1015.91C62.4473 996.617 44.6117 990.187 26.5833 989.962C-1.85736 989.962 -7.54549 1008.45 -8.22035 1015.01C-8.44531 1016.97 -9.47366 1025.33 -9.47366 1025.33C-9.73075 1026.48 -10.6949 1031.76 -8.83095 1032.82C-8.42029 1033.03 -8.08364 1033.36 -7.86558 1033.77C-7.64751 1034.18 -7.5583 1034.64 -7.60975 1035.1L-12.3659 1049.92C-12.4652 1050.42 -12.4528 1050.94 -12.3296 1051.44C-12.2064 1051.93 -11.9755 1052.39 -11.6532 1052.79C-11.331 1053.19 -10.9254 1053.51 -10.4653 1053.73C-10.0053 1053.95 -9.50209 1054.07 -8.99164 1054.07L-4.74963 1054.39C-5.48876 1054.39 -3.65701 1075.1 -3.11069 1077.44C-2.81054 1078.73 -2.04009 1079.85 -0.951389 1080.6C0.137313 1081.34 1.46519 1081.65 2.77025 1081.46L17.3602 1080.11L16.1068 1092.97H57.5947L55.0881 1060.53C63.3793 1042.72 66.0466 1031.21 64.4398 1015.91ZM36.5455 1059.79H19.931L22.4698 1029.89C21.2357 1029 20.231 1027.82 19.5383 1026.47C18.8457 1025.11 18.4846 1023.6 18.4849 1022.08C18.518 1020.45 18.9628 1018.86 19.7778 1017.45C20.5928 1016.04 21.7515 1014.86 23.1458 1014.02C24.54 1013.18 26.1245 1012.7 27.7513 1012.64C29.3782 1012.58 30.9946 1012.93 32.4496 1013.66C33.9046 1014.39 35.1509 1015.48 36.0723 1016.82C36.9937 1018.16 37.5601 1019.72 37.7188 1021.34C37.8775 1022.96 37.6232 1024.59 36.9797 1026.09C36.3363 1027.58 35.3245 1028.89 34.0388 1029.89L36.5455 1059.79Z" fill="white"/>
</g>
<g style="mix-blend-mode:overlay" opacity="0.2">
<path d="M259.222 1076.68C259.222 1075.39 258.738 1074.21 258.469 1073.14C258.2 1072.06 257.824 1071.15 257.555 1070.24C257.017 1068.41 256.425 1066.85 255.995 1065.57C255.081 1062.99 254.435 1061.54 254.435 1061.54C254.435 1061.54 254.435 1063.1 254.435 1065.83C254.435 1067.23 254.435 1068.9 254.435 1070.77C254.435 1071.69 254.435 1072.76 254.435 1073.78C254.435 1074.8 254.435 1075.77 254.435 1076.84C254.222 1079.06 253.753 1081.24 253.037 1083.34C252.297 1085.51 251.146 1087.51 249.649 1089.25C248.953 1090.03 248.157 1090.71 247.282 1091.29C246.844 1091.51 246.395 1091.7 245.938 1091.88H245.292H244.808C244.808 1091.88 243.141 1091.88 243.195 1091.88H239.86L239.161 1055.42H233.083L232.384 1092.79H229.157C228.673 1092.79 228.189 1092.79 227.759 1092.79H227.06H226.414C225.957 1092.62 225.508 1092.42 225.07 1092.2C224.195 1091.63 223.399 1090.94 222.703 1090.16C221.206 1088.43 220.055 1086.42 219.315 1084.25C218.61 1082.16 218.141 1080 217.917 1077.81C217.888 1077.29 217.888 1076.77 217.917 1076.25V1074.64C217.917 1073.73 217.917 1072.6 217.917 1071.69C217.917 1069.81 217.917 1068.14 217.917 1066.75C217.917 1064.01 217.917 1062.45 217.917 1062.45C217.917 1062.45 217.325 1063.9 216.411 1066.48C215.927 1067.77 215.335 1069.32 214.797 1071.15C214.797 1072.06 214.206 1072.92 213.883 1074.1C213.548 1074.95 213.261 1075.81 213.023 1076.68C212.589 1079.44 212.589 1082.25 213.023 1085C213.518 1088.25 214.751 1091.33 216.626 1094.03C217.705 1095.59 219.031 1096.97 220.552 1098.11C222.154 1099.31 223.984 1100.17 225.93 1100.63C226.959 1100.84 228.002 1100.96 229.05 1101.01H232.169L231.578 1131.56H240.344L239.914 1101.22H245.292H246.153C250.128 1100.35 253.615 1097.99 255.887 1094.62C257.749 1091.9 258.98 1088.8 259.491 1085.54C259.863 1082.59 259.772 1079.6 259.222 1076.68Z" fill="white"/>
</g>
<g style="mix-blend-mode:overlay" opacity="0.2">
<path d="M560.675 1091.05C561.994 1091.74 563.079 1092.8 563.791 1094.11C564.504 1095.41 564.813 1096.9 564.679 1098.38C564.544 1099.86 563.974 1101.27 563.038 1102.43C562.103 1103.59 560.845 1104.44 559.423 1104.88C558.002 1105.33 556.48 1105.34 555.052 1104.92C553.623 1104.5 552.352 1103.66 551.398 1102.52C550.444 1101.38 549.85 1099.98 549.692 1098.5C549.534 1097.03 549.819 1095.53 550.511 1094.22C550.97 1093.34 551.597 1092.57 552.356 1091.93C553.115 1091.3 553.992 1090.82 554.936 1090.53C555.88 1090.24 556.872 1090.13 557.857 1090.22C558.842 1090.31 559.8 1090.59 560.675 1091.05ZM533.031 1097.6C535.505 1073.86 557.556 1065.38 579.822 1065.38C615.05 1065.38 622.095 1088.2 622.848 1096.31C622.848 1098.67 624.408 1109.04 624.408 1109.04C624.677 1110.43 625.914 1116.77 623.601 1118.27C623.101 1118.54 622.691 1118.94 622.423 1119.44C622.154 1119.94 622.041 1120.5 622.095 1121.07L627.958 1139.32C628.122 1139.96 628.138 1140.63 628.004 1141.27C627.87 1141.92 627.59 1142.52 627.184 1143.04C626.779 1143.56 626.26 1143.98 625.666 1144.26C625.073 1144.55 624.422 1144.7 623.763 1144.69L618.384 1145.07C618.403 1154.59 617.738 1164.1 616.394 1173.53C616.021 1175.12 615.06 1176.51 613.705 1177.43C612.349 1178.34 610.698 1178.72 609.08 1178.47L591.063 1176.86L592.622 1192.54H541.744L544.81 1152.53C534.376 1130.62 530.987 1116.39 533.031 1097.6ZM573.422 1110.65H579.392L582.296 1114.08L581.489 1120.05L586.545 1122.68L590.955 1118.6L595.527 1119.45L599.13 1124.23L604.508 1122.52V1116.56L607.95 1113.66L613.867 1114.46L616.556 1109.41L612.468 1105.01L612.845 1100.55L617.631 1096.95L615.91 1091.58H609.94L607.036 1088.15L607.897 1082.24L602.841 1079.56L598.431 1083.64L593.913 1083.26L590.364 1078.48L584.985 1080.2V1086.16L581.543 1089.06L575.573 1088.2L572.938 1093.25L577.025 1097.65L576.595 1102.11L571.808 1105.71L573.422 1110.65ZM547.445 1108.07L550.833 1106.84L553.253 1108.07L554.168 1111.61H557.664L559.17 1108.34L561.805 1107.53L564.924 1109.36L567.56 1107.1L566.323 1103.72L567.613 1101.3L571.109 1100.39L571.432 1096.95L568.097 1095.4L567.291 1092.82L569.119 1089.71L566.914 1087.02L563.472 1088.26L561.052 1087.02L560.138 1083.48H556.696L555.19 1086.75L552.554 1087.56L549.435 1085.73L546.746 1087.99L548.037 1091.37L546.746 1093.79L543.25 1094.7L542.927 1098.14L546.208 1099.69L547.068 1102.27L545.186 1105.44L547.445 1108.07ZM583.157 1094.91C581.925 1097.2 581.4 1099.8 581.649 1102.38C581.899 1104.97 582.911 1107.42 584.558 1109.42C586.204 1111.43 588.411 1112.91 590.898 1113.66C593.386 1114.42 596.041 1114.42 598.528 1113.66C601.015 1112.91 603.222 1111.43 604.868 1109.42C606.514 1107.41 607.526 1104.96 607.775 1102.38C608.023 1099.8 607.498 1097.2 606.266 1094.91C605.033 1092.63 603.149 1090.76 600.851 1089.54C597.786 1087.94 594.213 1087.6 590.902 1088.61C587.591 1089.61 584.809 1091.88 583.157 1094.91Z" fill="white"/>
</g>
<path opacity="0.1" d="M695.184 1008.55C695.267 1007.54 695.737 1006.6 696.496 1005.94C697.255 1005.27 698.243 1004.93 699.25 1004.98C700.261 1004.99 701.226 1005.4 701.94 1006.12C702.654 1006.84 703.062 1007.81 703.076 1008.82C703.076 1018.44 703.076 1028.09 702.942 1037.71C702.867 1038.28 702.68 1038.83 702.392 1039.32C702.104 1039.82 701.722 1040.25 701.266 1040.59C700.811 1040.94 700.292 1041.19 699.739 1041.33C699.186 1041.47 698.611 1041.5 698.047 1041.42C697.479 1041.46 696.908 1041.39 696.367 1041.22C695.826 1041.04 695.326 1040.75 694.895 1040.38C694.465 1040 694.113 1039.54 693.859 1039.03C693.606 1038.52 693.456 1037.96 693.419 1037.39L695.184 1008.55ZM700.668 962.382C696.665 962.246 692.712 963.306 689.309 965.427C685.905 967.549 683.204 970.636 681.548 974.3C679.891 977.963 679.353 982.038 680.001 986.009C680.65 989.98 682.456 993.668 685.191 996.608C687.926 999.547 691.467 1001.61 695.367 1002.52C699.267 1003.44 703.35 1003.18 707.1 1001.76C710.85 1000.35 714.098 997.848 716.434 994.58C718.77 991.311 720.088 987.42 720.223 983.398C720.396 978.008 718.435 972.769 714.769 968.83C711.104 964.89 706.033 962.572 700.668 962.382ZM683.869 982.189C683.992 979.01 685.048 975.938 686.904 973.361C688.761 970.783 691.334 968.815 694.302 967.704C697.269 966.593 700.498 966.388 703.58 967.116C706.663 967.844 709.463 969.472 711.626 971.795C713.79 974.118 715.222 977.033 715.74 980.171C716.259 983.31 715.842 986.532 714.542 989.433C713.242 992.334 711.117 994.784 708.434 996.474C705.751 998.165 702.63 999.02 699.464 998.932C697.343 998.873 695.253 998.392 693.318 997.516C691.382 996.641 689.638 995.388 688.188 993.831C686.738 992.274 685.609 990.443 684.868 988.445C684.126 986.446 683.787 984.32 683.869 982.189ZM700.668 962.382C696.665 962.246 692.712 963.306 689.309 965.427C685.905 967.549 683.204 970.636 681.548 974.3C679.891 977.963 679.353 982.038 680.001 986.009C680.65 989.98 682.456 993.668 685.191 996.608C687.926 999.547 691.467 1001.61 695.367 1002.52C699.267 1003.44 703.35 1003.18 707.1 1001.76C710.85 1000.35 714.098 997.848 716.434 994.58C718.77 991.311 720.088 987.42 720.223 983.398C720.396 978.008 718.435 972.769 714.769 968.83C711.104 964.89 706.033 962.572 700.668 962.382ZM683.869 982.189C683.992 979.01 685.048 975.938 686.904 973.361C688.761 970.783 691.334 968.815 694.302 967.704C697.269 966.593 700.498 966.388 703.58 967.116C706.663 967.844 709.463 969.472 711.626 971.795C713.79 974.118 715.222 977.033 715.74 980.171C716.259 983.31 715.842 986.532 714.542 989.433C713.242 992.334 711.117 994.784 708.434 996.474C705.751 998.165 702.63 999.02 699.464 998.932C697.343 998.873 695.253 998.392 693.318 997.516C691.382 996.641 689.638 995.388 688.188 993.831C686.738 992.274 685.609 990.443 684.868 988.445C684.126 986.446 683.787 984.32 683.869 982.189Z" fill="white"/>
</g>
<g opacity="0.9">
<path d="M922.732 69.5884L749.67 179.528L1050.23 270.284L1095.79 -40.3513L922.732 69.5884Z" fill="#454238"/>
<path d="M856.545 53.2552L699.416 153.073L713.937 -181.854L1013.67 -46.5629L856.545 53.2552Z" fill="white"/>
</g>
</g>
<defs>
<clipPath id="clip0_170_1736">
<rect width="960" height="1117" fill="white"/>
</clipPath>
<clipPath id="clip1_170_1736">
<rect width="960" height="1117" fill="white"/>
</clipPath>
</defs>
</svg>
