<svg width="24" height="17" viewBox="0 0 24 17" fill="none" xmlns="http://www.w3.org/2000/svg">
<path d="M12 0.375C6.58337 0.375 1.95754 3.74417 0.083374 8.5C1.95754 13.2558 6.58337 16.625 12 16.625C17.4167 16.625 22.0425 13.2558 23.9167 8.5C22.0425 3.74417 17.4167 0.375 12 0.375ZM12 13.9167C9.01004 13.9167 6.58337 11.49 6.58337 8.5C6.58337 5.51 9.01004 3.08333 12 3.08333C14.99 3.08333 17.4167 5.51 17.4167 8.5C17.4167 11.49 14.99 13.9167 12 13.9167ZM12 5.25C10.2017 5.25 8.75004 6.70167 8.75004 8.5C8.75004 10.2983 10.2017 11.75 12 11.75C13.7984 11.75 15.25 10.2983 15.25 8.5C15.25 6.70167 13.7984 5.25 12 5.25Z" fill="#006B6A"/>
</svg>
