<svg width="609" height="609" viewBox="0 0 609 609" fill="none" xmlns="http://www.w3.org/2000/svg">
<path d="M304.5 520.768C434.927 520.768 540.658 514.595 540.658 506.98C540.658 499.366 434.927 493.193 304.5 493.193C174.074 493.193 68.342 499.366 68.342 506.98C68.342 514.595 174.074 520.768 304.5 520.768Z" fill="#F5F5F5" fill-opacity="0.2"/>
<path d="M424.047 140.508C421.452 137.914 416.458 128.085 421.245 123.456C426.032 118.828 430.295 123.03 430.624 125.283C430.953 127.537 430.076 146.525 424.047 140.508Z" fill="#263238"/>
<path d="M422.95 494.082L412.074 494.179L409.114 469.04L419.979 468.942L422.95 494.082Z" fill="#FF8B7B"/>
<path d="M412.061 492.925L423.925 492.815C424.144 492.818 424.356 492.891 424.531 493.022C424.706 493.153 424.835 493.337 424.899 493.546L427.774 503.18C427.85 503.404 427.871 503.644 427.836 503.878C427.8 504.112 427.708 504.334 427.568 504.525C427.428 504.717 427.245 504.871 427.032 504.976C426.82 505.081 426.585 505.134 426.349 505.129C422.073 505.129 415.862 504.898 410.515 504.946C404.23 504.946 401.428 505.385 394.047 505.458C389.589 505.458 387.957 501 389.845 500.586C398.213 498.649 402.537 498.393 409.54 493.802C410.277 493.27 411.154 492.965 412.061 492.925Z" fill="#263238"/>
<path opacity="0.2" d="M409.114 469.052L410.649 482.011L421.513 481.914L419.991 468.954L409.114 469.052Z" fill="black"/>
<path d="M407.567 494.861C408.74 494.84 409.907 494.697 411.051 494.435C411.105 494.427 411.155 494.401 411.192 494.361C411.23 494.321 411.253 494.27 411.258 494.216C411.263 494.163 411.251 494.11 411.225 494.065C411.199 494.019 411.159 493.982 411.112 493.96C410.6 493.704 406.032 491.524 404.778 492.291C404.662 492.365 404.567 492.468 404.503 492.59C404.439 492.712 404.408 492.848 404.413 492.985C404.41 493.22 404.461 493.452 404.562 493.663C404.664 493.874 404.813 494.059 404.997 494.203C405.759 494.698 406.662 494.929 407.567 494.861ZM410.174 494.082C407.823 494.496 406.033 494.411 405.302 493.826C405.175 493.727 405.075 493.599 405.009 493.453C404.943 493.306 404.914 493.146 404.924 492.985C404.917 492.936 404.925 492.885 404.946 492.839C404.968 492.794 405.003 492.756 405.046 492.73C405.728 492.316 408.31 493.29 410.174 494.082Z" fill="white"/>
<path d="M411.002 494.508C411.06 494.504 411.115 494.483 411.16 494.447C411.197 494.42 411.225 494.382 411.24 494.338C411.255 494.295 411.257 494.248 411.245 494.203C411.245 494.009 410.393 489.331 407.811 489.624C407.129 489.697 406.934 490.05 406.897 490.318C406.715 491.536 409.504 493.899 410.892 494.484L411.002 494.508ZM408.03 490.123C409.589 490.123 410.369 492.669 410.636 493.777C409.199 492.973 407.299 491.122 407.409 490.391C407.409 490.391 407.409 490.184 407.872 490.135L408.03 490.123Z" fill="white"/>
<path d="M415.265 195.404L414.144 196.622L413.097 197.657C412.403 198.339 411.684 198.985 410.965 199.618C409.536 200.901 408.075 202.119 406.581 203.272C403.565 205.668 400.391 207.858 397.08 209.825C395.411 210.811 393.694 211.749 391.952 212.638C390.211 213.528 388.371 214.295 386.52 215.074C382.723 216.589 378.768 217.672 374.73 218.302L373.829 218.436C373.243 218.512 372.653 218.548 372.062 218.546C370.706 218.533 369.364 218.269 368.104 217.766C366.855 217.265 365.71 216.533 364.73 215.61C363.949 214.866 363.27 214.022 362.708 213.101C361.93 211.765 361.344 210.326 360.966 208.826C360.671 207.665 360.455 206.485 360.321 205.294C360.099 203.235 360.038 201.162 360.138 199.094C360.223 197.121 360.382 195.221 360.601 193.358C361.064 189.618 361.722 186.05 362.525 182.396C363.329 178.742 364.243 175.368 365.424 171.835L373.427 173.419C373.134 180.264 372.805 187.28 373.025 193.906C373.065 196.982 373.391 200.049 373.999 203.065C374.119 203.622 374.286 204.168 374.498 204.697C374.669 205.111 374.876 205.367 374.864 205.257C374.793 205.072 374.681 204.905 374.535 204.77C374.203 204.45 373.815 204.193 373.39 204.015C372.952 203.831 372.487 203.72 372.014 203.686C371.794 203.686 371.697 203.686 371.563 203.686H371.697L371.953 203.613C374.838 202.872 377.645 201.852 380.333 200.568C383.145 199.211 385.867 197.673 388.481 195.964C391.124 194.21 393.731 192.31 396.24 190.3C397.458 189.302 398.737 188.254 399.894 187.194L401.672 185.587L402.525 184.795L403.268 184.089L415.265 195.404Z" fill="#FF8B7B"/>
<path d="M421.708 191.104C421.294 179.618 411.867 175.623 400.052 183.455C394.844 186.757 389.829 190.356 385.034 194.234L392.671 218.765C392.671 218.765 407.287 214.124 415.74 205.014C421.428 198.826 421.854 195.014 421.708 191.104Z" fill="#263238"/>
<path opacity="0.2" d="M407.324 196.001C407.324 196.001 400.271 206.086 397.774 216.804C401.242 215.326 404.582 213.566 407.762 211.542L407.324 196.001Z" fill="black"/>
<path d="M373.025 177.061L377.117 167.816L365.534 164.43C365.534 164.43 363.549 168.851 364.681 176.44L373.025 177.061Z" fill="#FF8B7B"/>
<path d="M378.347 156.976L368.274 158.182L365.534 164.43L377.117 167.816L378.347 156.976Z" fill="#FF8B7B"/>
<path d="M407.397 274.367C407.397 274.367 399.918 337.045 399.09 370.589C398.237 405.436 405.07 475.726 405.07 475.726L424.692 475.312C424.692 475.312 427.055 400.064 429.905 365.583C432.999 327.995 440.794 273.685 440.794 273.685L407.397 274.367Z" fill="white"/>
<path opacity="0.6" d="M407.397 274.367C407.397 274.367 399.918 337.045 399.09 370.589C398.237 405.436 405.07 475.726 405.07 475.726L424.692 475.312C424.692 475.312 427.055 400.064 429.905 365.583C432.999 327.995 440.794 273.685 440.794 273.685L407.397 274.367Z" fill="white"/>
<path opacity="0.2" d="M430.77 292.113C422 311.443 424.351 354.621 429.333 373.134C429.515 370.443 429.71 367.897 429.905 365.546C431.939 340.772 435.995 308.751 438.565 289.787C436.178 286.328 433.51 286.06 430.77 292.113Z" fill="black"/>
<path d="M427.104 476.153L404.035 476.616L402.33 468.954L426.824 468.893L427.104 476.153Z" fill="white"/>
<path d="M471.415 494.082L460.55 494.179L457.59 469.04L468.455 468.942L471.415 494.082Z" fill="#FF8B7B"/>
<path d="M460.526 492.925L472.401 492.815C472.62 492.82 472.831 492.893 473.006 493.024C473.18 493.155 473.31 493.338 473.376 493.546L476.25 503.18C476.324 503.404 476.343 503.643 476.306 503.876C476.269 504.109 476.177 504.33 476.038 504.52C475.898 504.711 475.716 504.865 475.505 504.971C475.294 505.077 475.061 505.131 474.825 505.129C470.538 505.129 464.338 504.898 458.991 504.946C452.706 504.946 449.893 505.385 442.524 505.458C438.066 505.458 436.434 501 438.322 500.586C446.677 498.649 451.001 498.393 458.017 493.802C458.749 493.27 459.622 492.965 460.526 492.925Z" fill="#263238"/>
<path opacity="0.2" d="M457.59 469.052L459.113 482.011L469.99 481.914L468.467 468.954L457.59 469.052Z" fill="black"/>
<path d="M456.044 494.861C457.216 494.839 458.384 494.696 459.527 494.435C459.58 494.427 459.628 494.4 459.664 494.36C459.699 494.32 459.72 494.269 459.722 494.216C459.73 494.164 459.721 494.112 459.697 494.066C459.673 494.02 459.635 493.983 459.588 493.96C459.064 493.704 454.497 491.524 453.254 492.291C453.137 492.363 453.041 492.466 452.976 492.588C452.912 492.71 452.882 492.848 452.889 492.985C452.886 493.219 452.937 493.449 453.036 493.66C453.135 493.871 453.28 494.057 453.461 494.203C454.228 494.696 455.134 494.927 456.044 494.861ZM458.65 494.082C456.299 494.496 454.509 494.411 453.778 493.826C453.652 493.726 453.552 493.598 453.484 493.452C453.416 493.306 453.384 493.146 453.388 492.985C453.381 492.936 453.389 492.885 453.411 492.839C453.432 492.794 453.467 492.756 453.51 492.73C454.192 492.316 456.75 493.29 458.65 494.082Z" fill="white"/>
<path d="M459.466 494.508C459.504 494.507 459.54 494.497 459.574 494.481C459.608 494.465 459.638 494.441 459.662 494.412C459.686 494.384 459.704 494.35 459.714 494.314C459.724 494.278 459.727 494.241 459.722 494.203C459.722 494.009 458.869 489.331 456.287 489.624C455.605 489.697 455.41 490.05 455.361 490.318C455.191 491.536 457.98 493.899 459.369 494.484L459.466 494.508ZM456.506 490.123C458.053 490.123 458.845 492.669 459.113 493.777C457.676 492.973 455.763 491.122 455.873 490.391C455.873 490.391 455.873 490.184 456.336 490.135L456.506 490.123Z" fill="white"/>
<path d="M426.543 273.952C426.543 273.952 431.964 341.393 435.922 374.669C440.027 409.284 453.546 475.69 453.546 475.69L473.168 475.276C473.168 475.276 467.785 399.882 465.702 365.339C463.424 327.642 462.84 273.124 462.84 273.124L426.543 273.952Z" fill="white"/>
<path opacity="0.6" d="M426.543 273.952C426.543 273.952 431.964 341.393 435.922 374.669C440.027 409.284 453.546 475.69 453.546 475.69L473.168 475.276C473.168 475.276 467.785 399.882 465.702 365.339C463.424 327.642 462.84 273.124 462.84 273.124L426.543 273.952Z" fill="white"/>
<path d="M475.58 476.153L452.499 476.616L450.806 468.954L475.3 468.893L475.58 476.153Z" fill="white"/>
<path d="M406.045 180.447C406.045 180.447 398.018 210.239 407.397 274.367C424.911 273.989 454.326 273.307 462.84 273.149C463.059 264.221 456.47 220.446 464.18 178.242C458.633 177.284 453.023 176.739 447.396 176.61C439.159 176.309 430.911 176.488 422.695 177.146C417.067 177.812 411.5 178.915 406.045 180.447Z" fill="#263238"/>
<path opacity="0.2" d="M460.818 208.278L451.744 200.763C452.341 206.634 457.651 221.018 460.453 228.302C460.404 221.92 460.465 215.184 460.818 208.278Z" fill="black"/>
<path d="M428.358 197.718L418.456 217.316C418.247 217.727 418.174 218.194 418.247 218.65C418.32 219.106 418.536 219.526 418.864 219.852C419.192 220.177 419.614 220.389 420.071 220.459C420.527 220.528 420.994 220.451 421.403 220.239L427.871 216.682C428.223 216.493 428.62 216.407 429.019 216.432C429.417 216.458 429.8 216.595 430.124 216.828L436.494 221.42C436.86 221.686 437.302 221.828 437.755 221.823C438.207 221.819 438.646 221.669 439.007 221.396C439.367 221.123 439.63 220.741 439.757 220.306C439.884 219.872 439.867 219.408 439.71 218.984L432.268 198.059C432.139 197.661 431.895 197.31 431.568 197.049C431.24 196.789 430.843 196.63 430.426 196.594C430.009 196.558 429.591 196.645 429.223 196.845C428.855 197.045 428.555 197.348 428.358 197.718Z" fill="white"/>
<path d="M444.351 148.791C442.962 156.781 441.72 171.373 447.396 176.549C447.396 176.549 445.739 183.784 430.624 186.293C420.466 183.029 422.695 177.134 422.695 177.134C431.513 174.82 431.135 168.255 429.467 162.116L444.351 148.791Z" fill="#FF8B7B"/>
<path opacity="0.2" d="M438.285 154.211L429.467 162.055C429.877 163.485 430.163 164.948 430.319 166.427C433.705 165.867 438.273 162.043 438.553 158.498C438.726 157.065 438.635 155.612 438.285 154.211Z" fill="black"/>
<path d="M449.186 138.962C446.251 149.339 445.069 155.563 438.59 159.814C428.846 166.196 416.897 158.596 416.666 147.524C416.446 137.585 421.27 122.275 432.5 120.326C434.966 119.889 437.504 120.088 439.872 120.906C442.24 121.723 444.36 123.132 446.031 124.998C447.702 126.865 448.869 129.127 449.421 131.57C449.973 134.014 449.892 136.558 449.186 138.962Z" fill="#FF8B7B"/>
<path d="M442.938 145.32C441.574 142.007 440.587 131.093 446.275 128.414C451.963 125.734 457.87 132.275 456.372 135.369C454.07 140.167 446.105 152.993 442.938 145.32Z" fill="#263238"/>
<path d="M446.336 132.263C444.935 128.609 428.237 126.538 425.898 122.604C423.121 117.927 434.509 117.366 442.341 119.742C449.223 121.837 453.814 123.858 453.011 128.974C452.56 131.873 446.336 132.263 446.336 132.263Z" fill="#263238"/>
<path d="M449.966 128.499C449.966 128.499 453.62 129.498 455.617 126.818C454.984 129.473 451.878 132.153 449.966 128.499Z" fill="#263238"/>
<path d="M433.243 117.232C428.224 113.335 421.391 117.915 422.037 122.994C422.682 128.073 439.601 131.934 439.601 131.934C439.601 131.934 439.905 122.409 433.243 117.232Z" fill="#263238"/>
<path d="M422.049 123.018C422.816 126.575 425.411 129.364 430.66 131.434C427.622 129.188 425.32 126.089 424.047 122.531L422.049 123.018Z" fill="#263238"/>
<path d="M432.585 138.438C432.402 139.303 431.805 139.899 431.245 139.778C430.685 139.656 430.38 138.852 430.563 137.999C430.746 137.147 431.355 136.55 431.915 136.672C432.475 136.794 432.78 137.634 432.585 138.438Z" fill="#263238"/>
<path d="M422.914 136.343C422.719 137.195 422.122 137.792 421.562 137.671C421.002 137.549 420.697 136.757 420.88 135.904C421.063 135.052 421.672 134.455 422.232 134.565C422.792 134.674 423.097 135.49 422.914 136.343Z" fill="#263238"/>
<path d="M425.898 137.439C424.308 139.835 422.394 141.999 420.21 143.87C421.428 145.612 424.144 145.527 424.144 145.527L425.898 137.439Z" fill="#FF5652"/>
<path d="M426.117 148.438C427.261 148.722 428.456 148.725 429.602 148.447C430.747 148.169 431.808 147.619 432.694 146.842C432.719 146.818 432.738 146.79 432.751 146.759C432.764 146.727 432.771 146.693 432.771 146.659C432.771 146.625 432.764 146.592 432.751 146.56C432.738 146.529 432.719 146.501 432.694 146.477C432.645 146.43 432.58 146.405 432.512 146.405C432.444 146.405 432.379 146.43 432.329 146.477C431.497 147.177 430.513 147.672 429.456 147.924C428.398 148.176 427.297 148.176 426.239 147.926C426.171 147.912 426.1 147.925 426.042 147.962C425.984 148 425.943 148.059 425.928 148.127C425.914 148.195 425.927 148.266 425.965 148.324C426.002 148.382 426.062 148.423 426.129 148.438H426.117Z" fill="#263238"/>
<path d="M436.178 135.953C436.271 135.972 436.368 135.965 436.458 135.932C436.548 135.9 436.627 135.844 436.687 135.77C436.747 135.696 436.786 135.607 436.799 135.513C436.813 135.418 436.8 135.322 436.763 135.235C436.434 134.484 435.931 133.823 435.295 133.307C434.66 132.79 433.91 132.432 433.109 132.263C432.973 132.245 432.836 132.281 432.727 132.363C432.618 132.445 432.545 132.566 432.524 132.701C432.514 132.767 432.516 132.835 432.532 132.901C432.548 132.966 432.576 133.027 432.616 133.082C432.656 133.136 432.706 133.182 432.763 133.217C432.82 133.252 432.884 133.275 432.95 133.286C433.582 133.425 434.172 133.713 434.67 134.126C435.168 134.539 435.56 135.065 435.813 135.661C435.847 135.735 435.897 135.799 435.961 135.85C436.024 135.901 436.099 135.936 436.178 135.953Z" fill="#263238"/>
<path d="M419.382 132.092C419.477 132.119 419.579 132.115 419.672 132.083C419.766 132.05 419.847 131.989 419.905 131.909C420.291 131.392 420.793 130.972 421.371 130.685C421.948 130.397 422.585 130.249 423.231 130.253C423.366 130.266 423.501 130.224 423.607 130.138C423.712 130.051 423.778 129.926 423.791 129.79C423.804 129.654 423.762 129.519 423.675 129.414C423.589 129.309 423.464 129.243 423.328 129.23C422.511 129.206 421.7 129.379 420.964 129.735C420.228 130.091 419.589 130.62 419.102 131.276C419.058 131.328 419.026 131.388 419.007 131.453C418.988 131.518 418.982 131.586 418.99 131.654C418.998 131.721 419.02 131.786 419.053 131.844C419.087 131.903 419.133 131.954 419.187 131.995C419.242 132.043 419.309 132.077 419.382 132.092Z" fill="#263238"/>
<path d="M466.835 186.549C469.052 190.422 470.903 194.173 472.827 198.035C474.752 201.896 476.481 205.781 478.126 209.752C479.77 213.722 481.366 217.754 482.754 221.932C484.198 226.098 485.418 230.339 486.408 234.635L487.151 237.961C487.476 239.522 487.615 241.117 487.565 242.711C487.462 245.673 486.805 248.589 485.629 251.31C483.561 255.894 480.619 260.031 476.969 263.49C473.713 266.634 470.164 269.46 466.372 271.931C464.533 273.149 462.633 274.269 460.721 275.341C458.808 276.413 456.908 277.399 454.777 278.337L450.733 271.261C452.207 270.043 453.827 268.825 455.337 267.509C456.847 266.194 458.321 264.854 459.783 263.514C462.605 260.896 465.223 258.066 467.614 255.049C469.741 252.462 471.391 249.517 472.486 246.353C472.863 245.174 473.012 243.933 472.925 242.699C472.889 242.202 472.795 241.712 472.645 241.237L471.816 238.509C469.355 230.941 466.427 223.533 463.047 216.329C461.378 212.675 459.6 209.021 457.822 205.367C456.043 201.713 454.168 198.059 452.353 194.588L466.835 186.549Z" fill="#FF8B7B"/>
<path d="M464.594 178.303C474.752 180.495 481.816 206.999 481.816 206.999L463.656 223.479C457.882 217.055 453.34 209.623 450.258 201.555C445.447 188.291 453.729 175.94 464.594 178.303Z" fill="#263238"/>
<path d="M452.938 270.006L441.257 270.128L448.565 281.906C448.565 281.906 456.884 279.848 457.627 275.67L452.938 270.006Z" fill="#FF8B7B"/>
<path d="M433.986 277.083L440.429 286.535L448.504 281.906L441.257 270.128L433.986 277.083Z" fill="#FF8B7B"/>
<path d="M452.377 148.462C451.08 150.85 448.891 152.627 446.287 153.407C442.828 154.418 441.062 151.336 441.988 148.06C442.828 145.112 445.642 141.032 449.101 141.458C452.56 141.885 453.924 145.527 452.377 148.462Z" fill="#FF8B7B"/>
<path d="M348.852 349.988L335.865 350.93L335.954 352.145L348.94 351.203L348.852 349.988Z" fill="white"/>
<path d="M360.521 349.146L354.143 349.609L354.231 350.824L360.609 350.361L360.521 349.146Z" fill="white"/>
<path d="M416.556 206.171L201.506 221.676C197.03 222.025 192.873 224.125 189.936 227.521C186.999 230.916 185.519 235.333 185.818 239.812L193.126 341.174C193.472 345.656 195.574 349.821 198.976 352.761C202.377 355.701 206.801 357.18 211.287 356.874L223.467 355.997C224.351 355.933 225.225 356.223 225.897 356.803C226.568 357.383 226.982 358.206 227.047 359.091L228.412 377.872C228.434 378.236 228.564 378.585 228.786 378.874C229.008 379.163 229.312 379.379 229.657 379.494C230.003 379.609 230.375 379.618 230.726 379.521C231.077 379.423 231.391 379.222 231.627 378.944L252.016 355.376C252.874 354.389 254.086 353.78 255.39 353.683L426.3 341.369C430.778 341.023 434.939 338.924 437.878 335.528C440.818 332.133 442.299 327.714 442 323.233L434.692 221.871C434.346 217.393 432.247 213.232 428.851 210.293C425.456 207.353 421.037 205.872 416.556 206.171Z" fill="white"/>
<path d="M232.918 268.204L244.538 267.363L245.488 280.518L258.18 279.604L257.23 266.45L268.898 265.597L271.614 303.185L259.946 304.025L258.849 288.824L246.158 289.75L247.254 304.951L235.647 305.791L232.918 268.204Z" fill="#419EAC"/>
<path opacity="0.2" d="M201.506 221.676C197.03 222.025 192.873 224.125 189.936 227.521C186.999 230.916 185.519 235.333 185.818 239.812L193.126 341.174C193.472 345.656 195.574 349.821 198.976 352.761C202.377 355.701 206.801 357.18 211.287 356.874L213.077 356.74C216.052 356.525 218.873 355.334 221.101 353.352C223.33 351.37 224.842 348.707 225.403 345.778L249.897 218.18L201.506 221.676Z" fill="#419EAC"/>
<path d="M308.069 289.47L287.144 290.98C287.304 292.336 287.873 293.61 288.776 294.634C289.293 295.179 289.93 295.596 290.636 295.854C291.341 296.112 292.097 296.203 292.844 296.12C293.87 296.047 294.859 295.711 295.718 295.146C296.391 294.637 296.964 294.009 297.411 293.294L307.764 293.501C306.638 296.054 304.809 298.234 302.49 299.786C300.363 301.134 297.22 301.946 293.063 302.222C290.156 302.561 287.211 302.249 284.44 301.309C282.218 300.376 280.311 298.825 278.946 296.839C277.382 294.578 276.483 291.924 276.352 289.178C276.135 287.27 276.319 285.339 276.894 283.507C277.469 281.676 278.421 279.985 279.689 278.544C282.223 275.719 285.877 274.131 290.651 273.782C293.812 273.406 297.017 273.782 300.006 274.878C302.294 275.856 304.222 277.52 305.523 279.641C307.013 282.275 307.849 285.228 307.959 288.252L308.069 289.47ZM297.107 285.231C296.959 283.647 296.276 282.161 295.17 281.017C294.613 280.588 293.974 280.279 293.293 280.108C292.612 279.936 291.902 279.907 291.209 280.021C290.516 280.135 289.853 280.391 289.263 280.772C288.673 281.152 288.167 281.651 287.777 282.235C287.127 283.381 286.798 284.681 286.827 285.999L297.107 285.231Z" fill="#419EAC"/>
<path d="M311.297 262.54L321.759 261.785L324.475 299.36L314.013 300.115L311.297 262.54Z" fill="#419EAC"/>
<path d="M328.775 261.273L339.238 260.518L341.954 298.093L331.503 298.849L328.775 261.273Z" fill="#419EAC"/>
<path d="M346.363 284.172C346.165 282.265 346.371 280.339 346.967 278.517C347.563 276.696 348.535 275.02 349.822 273.599C352.428 270.7 356.119 269.076 360.893 268.727C366.334 268.338 370.564 269.62 373.585 272.576C376.094 275.222 377.543 278.698 377.658 282.342C377.772 285.987 376.544 289.546 374.206 292.344C371.624 295.219 367.881 296.843 362.976 297.216C359.166 297.673 355.317 296.767 352.112 294.659C350.407 293.475 349 291.912 348.002 290.092C347.004 288.272 346.443 286.245 346.363 284.172ZM356.825 283.392C356.806 285.315 357.466 287.182 358.689 288.666C359.182 289.171 359.779 289.563 360.439 289.814C361.099 290.066 361.805 290.171 362.51 290.122C363.214 290.073 363.899 289.872 364.518 289.532C365.137 289.193 365.675 288.722 366.094 288.154C367.079 286.459 367.449 284.476 367.142 282.539C367.154 280.655 366.503 278.827 365.303 277.375C364.833 276.861 364.252 276.461 363.604 276.208C362.955 275.954 362.257 275.853 361.563 275.913C360.84 275.947 360.134 276.147 359.5 276.498C358.866 276.848 358.322 277.34 357.909 277.935C356.928 279.574 356.561 281.508 356.874 283.392H356.825Z" fill="#419EAC"/>
<path d="M380.954 257.497L392.099 256.693L392.72 265.219L391.806 282.576L384.912 283.075L381.563 266.023L380.954 257.497ZM383.39 285.852L393.792 285.097L394.461 294.305L384.048 295.048L383.39 285.852Z" fill="#419EAC"/>
<path d="M198.534 188.303C198.48 190.086 198.573 191.87 198.814 193.638C187.777 197.323 176.007 198.256 164.528 196.354C165.079 194.27 165.413 192.136 165.526 189.984C165.142 192.151 164.388 194.235 163.297 196.147C161.129 195.733 159.911 195.379 159.911 195.379C159.911 195.379 162.128 183.394 158.133 174.673C154.138 165.953 156.136 161.08 159.156 159.704C164.759 142.482 185.818 145.198 192.944 152.189C201.981 161.056 202.03 186.037 203.638 191.75C202.31 192.322 201.007 192.846 199.703 193.309C199.051 191.713 198.656 190.023 198.534 188.303Z" fill="#263238"/>
<path d="M207.243 215.111L208.339 218.582C208.741 219.8 209.143 221.018 209.557 222.175C210.373 224.611 211.226 227.047 212.139 229.386C213.053 231.724 213.93 234.185 214.88 236.572L216.292 240.226L216.646 241.127L216.731 241.335C216.58 241.203 216.407 241.1 216.219 241.03C215.951 240.933 215.842 241.03 216.012 241.03C216.306 241.029 216.597 240.984 216.877 240.896C217.83 240.594 218.745 240.186 219.605 239.678C221.683 238.468 223.669 237.108 225.549 235.61C227.522 234.075 229.459 232.431 231.359 230.738C233.259 229.045 235.171 227.279 237.011 225.549L240.75 228.716C239.191 230.957 237.547 233.003 235.878 235.086C234.209 237.169 232.334 239.118 230.409 241.054C228.428 243.076 226.272 244.918 223.966 246.56C222.646 247.484 221.229 248.26 219.739 248.874C218.794 249.253 217.803 249.507 216.792 249.629C215.419 249.8 214.026 249.611 212.748 249.081C211.355 248.488 210.169 247.496 209.338 246.231C209.155 245.951 208.984 245.671 208.85 245.415L208.522 244.757L208.083 243.868C207.511 242.65 206.865 241.432 206.366 240.287C205.257 237.851 204.149 235.415 203.138 232.979C202.127 230.543 201.141 228.034 200.203 225.525C199.764 224.307 199.326 222.979 198.912 221.7C198.497 220.421 198.096 219.167 197.694 217.669L207.243 215.111Z" fill="#FFC3BD"/>
<path d="M204.356 204.295C208.558 205.367 211.494 222.638 211.494 222.638L199.923 230.506C199.923 230.506 188.839 213.077 192.067 208.461C195.428 203.662 198.23 202.736 204.356 204.295Z" fill="white"/>
<path d="M204.356 204.295C208.558 205.367 211.494 222.638 211.494 222.638L199.923 230.506C199.923 230.506 188.839 213.077 192.067 208.461C195.428 203.662 198.23 202.736 204.356 204.295Z" fill="white"/>
<path opacity="0.4" d="M204.356 204.295C208.558 205.367 211.494 222.638 211.494 222.638L199.923 230.506C199.923 230.506 188.839 213.077 192.067 208.461C195.428 203.662 198.23 202.736 204.356 204.295Z" fill="white"/>
<path opacity="0.3" d="M203.979 208.156L207.206 225.561L200.702 229.971L203.979 208.156Z" fill="black"/>
<path d="M236.816 225.963L240.677 216.658L245.439 225.963C245.439 225.963 242.346 230.592 238.265 229.459L236.816 225.963Z" fill="#FFC3BD"/>
<path d="M244.928 215.696L251.042 218.156L245.439 225.963L240.665 216.658L244.928 215.696Z" fill="#FFC3BD"/>
<path d="M181.64 495.056H191.835L192.517 471.463H182.322L181.64 495.056Z" fill="#FFC3BD"/>
<path d="M113.286 464.667L122.653 468.662L134.918 448.248L125.539 444.253L113.286 464.667Z" fill="#FFC3BD"/>
<path d="M124.455 467.273L114.711 461.281C114.545 461.174 114.344 461.132 114.149 461.163C113.953 461.195 113.776 461.297 113.652 461.451L107.793 468.479C107.647 468.663 107.543 468.876 107.486 469.104C107.429 469.332 107.422 469.569 107.465 469.8C107.508 470.03 107.599 470.249 107.734 470.442C107.868 470.634 108.042 470.796 108.244 470.915C111.679 472.949 113.432 473.753 117.72 476.384C120.363 478.016 124.041 480.647 127.683 482.888C131.325 485.129 133.773 481.67 132.421 480.391C126.514 474.752 126.684 472.072 125.576 468.735C125.392 468.128 124.994 467.609 124.455 467.273Z" fill="#263238"/>
<path d="M192.176 493.875H180.739C180.542 493.872 180.351 493.942 180.201 494.069C180.051 494.197 179.952 494.374 179.923 494.569L178.62 503.631C178.588 503.863 178.607 504.1 178.676 504.324C178.744 504.549 178.861 504.755 179.017 504.93C179.173 505.105 179.366 505.244 179.581 505.337C179.796 505.43 180.029 505.476 180.264 505.47C184.259 505.409 186.183 505.166 191.226 505.166C194.32 505.166 200.726 505.494 205.002 505.494C209.277 505.494 209.496 501.268 207.718 500.878C199.74 499.161 196.597 496.798 193.906 494.545C193.429 494.12 192.815 493.882 192.176 493.875Z" fill="#263238"/>
<path opacity="0.2" d="M192.505 471.476L192.164 483.631H181.969L182.322 471.476H192.505Z" fill="black"/>
<path opacity="0.2" d="M125.539 444.266L134.906 448.248L128.584 458.772L119.218 454.777L125.539 444.266Z" fill="black"/>
<path d="M204.356 204.295C204.356 204.295 209.228 206 199.484 265.768H158.072C158.766 248.935 158.791 238.557 150.764 204.003C156.555 202.806 162.425 202.033 168.328 201.689C174.584 201.237 180.865 201.237 187.121 201.689C195.209 202.419 204.356 204.295 204.356 204.295Z" fill="white"/>
<path opacity="0.4" d="M204.356 204.295C204.356 204.295 209.228 206 199.484 265.768H158.072C158.766 248.935 158.791 238.557 150.764 204.003C156.555 202.806 162.425 202.033 168.328 201.689C174.584 201.237 180.865 201.237 187.121 201.689C195.209 202.419 204.356 204.295 204.356 204.295Z" fill="white"/>
<path d="M168.352 201.676C174.609 201.237 180.889 201.237 187.146 201.676C188.157 201.774 189.192 201.884 190.215 202.005C190.641 202.645 190.914 203.375 191.013 204.137C191.113 204.9 191.035 205.675 190.788 206.402C189.46 209.679 184.698 210.056 181.239 210.056C168.437 210.056 166.269 202.578 166.184 202.261L166.062 201.81L168.352 201.676Z" fill="white"/>
<path d="M170.216 180.532C171.434 186.622 172.591 197.657 168.352 201.689C168.352 201.689 170.009 207.779 181.238 207.779C193.589 207.779 187.146 201.689 187.146 201.689C180.398 200.081 180.581 195.075 181.75 190.386L170.216 180.532Z" fill="#FFC3BD"/>
<path d="M171.446 176.232C169.996 181.019 172.006 192.347 174.99 196.731C169.107 193.358 167.122 183.078 167.122 183.078L171.446 176.232Z" fill="#263238"/>
<path opacity="0.2" d="M174.917 184.551L181.75 190.373C181.45 191.465 181.255 192.582 181.166 193.711C178.596 193.333 175.076 190.507 174.783 187.816C174.632 186.728 174.677 185.623 174.917 184.551Z" fill="black"/>
<path d="M164.637 169.74C167 179.57 167.78 183.784 173.699 188.01C182.603 194.356 194.161 189.314 194.783 178.973C195.343 169.667 191.397 155.161 180.983 152.92C178.688 152.413 176.302 152.501 174.051 153.176C171.801 153.851 169.759 155.089 168.122 156.775C166.484 158.46 165.305 160.535 164.695 162.805C164.085 165.074 164.065 167.461 164.637 169.74Z" fill="#FFC3BD"/>
<path d="M199.496 265.768C199.496 265.768 207.523 344.231 206.804 375.29C206.11 407.592 194.271 481.256 194.271 481.256H180.508C180.508 481.256 182.688 409.455 181.47 377.726C180.142 343.135 169.156 265.743 169.156 265.743L199.496 265.768Z" fill="white"/>
<path opacity="0.4" d="M199.496 265.768C199.496 265.768 207.523 344.231 206.804 375.29C206.11 407.592 194.271 481.256 194.271 481.256H180.508C180.508 481.256 182.688 409.455 181.47 377.726C180.142 343.135 169.156 265.743 169.156 265.743L199.496 265.768Z" fill="black"/>
<path d="M179.363 481.768H195.514L196.707 476.616L178.608 475.982L179.363 481.768Z" fill="white"/>
<path opacity="0.2" d="M181.653 285.292C191.811 305.73 183.687 343.013 180.094 356.886C178.254 336.058 175.148 310.602 172.725 291.882C174.259 281.358 176.963 275.865 181.653 285.292Z" fill="black"/>
<path d="M188.571 265.768C188.571 265.768 179.192 347.374 172.116 373.524C163.724 404.62 131.776 457.566 131.776 457.566L118.999 452.134C118.999 452.134 138.767 392.013 145.198 375.631C158.9 340.675 147.171 288.581 158.121 265.768H188.571Z" fill="white"/>
<path opacity="0.4" d="M188.571 265.768C188.571 265.768 179.192 347.374 172.116 373.524C163.724 404.62 131.776 457.566 131.776 457.566L118.999 452.134C118.999 452.134 138.767 392.013 145.198 375.631C158.9 340.675 147.171 288.581 158.121 265.768H188.571Z" fill="black"/>
<path d="M117.233 452.17L133.091 458.918L136.903 454.655L118.609 445.873L117.233 452.17Z" fill="white"/>
<path d="M180.264 169.874C180.41 170.678 180.946 171.263 181.482 171.166C182.018 171.068 182.323 170.337 182.176 169.533C182.03 168.73 181.494 168.145 180.958 168.23C180.422 168.315 180.057 169.058 180.264 169.874Z" fill="#263238"/>
<path d="M189.35 168.267C189.484 169.071 190.032 169.655 190.568 169.558C191.104 169.46 191.421 168.73 191.275 167.926C191.129 167.122 190.593 166.537 190.057 166.622C189.521 166.708 189.204 167.451 189.35 168.267Z" fill="#263238"/>
<path d="M189.825 166.72L191.665 165.806C191.665 165.806 190.934 167.499 189.825 166.72Z" fill="#263238"/>
<path d="M187.17 170.082C188.216 171.801 189.495 173.366 190.97 174.734C190.609 175.1 190.172 175.383 189.691 175.564C189.209 175.745 188.694 175.819 188.181 175.782L187.17 170.082Z" fill="#ED847E"/>
<path d="M184.515 179.594C184.976 179.593 185.437 179.552 185.891 179.472C185.926 179.471 185.96 179.462 185.991 179.446C186.022 179.431 186.05 179.409 186.071 179.381C186.093 179.354 186.109 179.323 186.118 179.289C186.126 179.255 186.127 179.22 186.121 179.186C186.115 179.152 186.102 179.119 186.082 179.09C186.062 179.062 186.036 179.038 186.007 179.02C185.977 179.002 185.943 178.991 185.909 178.987C185.874 178.983 185.839 178.986 185.806 178.997C184.803 179.197 183.767 179.157 182.783 178.879C181.798 178.602 180.893 178.096 180.142 177.402C180.097 177.357 180.036 177.332 179.972 177.332C179.908 177.332 179.847 177.357 179.801 177.402C179.778 177.423 179.759 177.45 179.746 177.479C179.733 177.508 179.726 177.54 179.726 177.572C179.726 177.604 179.733 177.636 179.746 177.665C179.759 177.695 179.778 177.721 179.801 177.743C181.073 178.948 182.763 179.612 184.515 179.594Z" fill="#263238"/>
<path d="M168.084 163.979C168.351 166.569 168.757 169.143 169.302 171.689C169.302 171.689 175.392 163.979 176.403 159.85C176.161 161.476 175.69 163.059 175.002 164.552C175.002 164.552 183.2 162.761 184.003 157.353C183.99 159.774 183.72 162.187 183.2 164.552C183.2 164.552 191.019 161.482 190.3 156.294C189.582 151.105 177.572 149.095 172.03 150.849C166.489 152.603 161.068 158.291 162.701 166.111C164.333 173.93 167.463 176.866 167.463 176.866C167.463 176.866 165.21 168.985 168.084 163.979Z" fill="#263238"/>
<path d="M164.211 177.146C164.963 178.95 166.399 180.383 168.206 181.129C170.642 182.103 172.091 180.02 171.665 177.609C171.287 175.429 169.57 172.31 167.049 172.359C166.497 172.384 165.96 172.545 165.487 172.829C165.013 173.113 164.617 173.51 164.336 173.985C164.054 174.46 163.895 174.998 163.873 175.55C163.852 176.102 163.968 176.65 164.211 177.146Z" fill="#FFC3BD"/>
<path d="M169.558 160.228C168.34 165.1 170.873 176.306 174.065 180.532C167.975 177.45 165.539 167.268 165.539 167.268L169.558 160.228Z" fill="#263238"/>
<path d="M176.927 167.097C176.989 167.079 177.048 167.047 177.098 167.005C177.148 166.964 177.189 166.912 177.219 166.854C177.476 166.304 177.859 165.824 178.338 165.451C178.816 165.078 179.376 164.825 179.972 164.71C180.098 164.692 180.212 164.626 180.291 164.527C180.371 164.427 180.409 164.301 180.398 164.174C180.392 164.111 180.373 164.049 180.343 163.993C180.312 163.936 180.271 163.887 180.221 163.847C180.171 163.807 180.113 163.778 180.052 163.761C179.99 163.744 179.926 163.739 179.862 163.748C179.107 163.879 178.394 164.19 177.783 164.654C177.173 165.118 176.683 165.722 176.354 166.415C176.313 166.5 176.297 166.595 176.309 166.689C176.32 166.782 176.358 166.87 176.419 166.942C176.48 167.015 176.56 167.068 176.65 167.095C176.74 167.123 176.836 167.124 176.927 167.097Z" fill="#263238"/>
<path d="M192.676 163.322C192.737 163.324 192.798 163.314 192.855 163.291C192.911 163.267 192.962 163.232 193.004 163.188C193.094 163.097 193.144 162.974 193.144 162.847C193.144 162.719 193.094 162.597 193.004 162.506C192.485 161.943 191.841 161.512 191.123 161.245C190.406 160.978 189.636 160.884 188.875 160.971C188.812 160.983 188.752 161.007 188.698 161.042C188.644 161.077 188.597 161.123 188.561 161.176C188.525 161.229 188.499 161.289 188.487 161.352C188.474 161.415 188.473 161.48 188.486 161.543C188.512 161.667 188.585 161.775 188.69 161.845C188.794 161.915 188.922 161.943 189.046 161.921C189.646 161.854 190.253 161.929 190.818 162.141C191.383 162.353 191.89 162.694 192.298 163.139C192.343 163.196 192.401 163.241 192.466 163.273C192.531 163.305 192.603 163.321 192.676 163.322Z" fill="#263238"/>
<path d="M155.819 218.46C154.126 223.807 152.506 229.422 151.13 234.952C149.744 240.411 148.731 245.957 148.097 251.553L147.999 252.577C147.999 252.905 147.999 252.979 147.999 253.271C148.013 253.845 148.057 254.419 148.133 254.988C148.288 256.322 148.512 257.648 148.803 258.959C149.376 261.675 150.021 264.476 150.849 267.254C151.678 270.031 152.384 272.856 153.212 275.658L155.648 284.062L151.13 285.925C148.352 280.615 145.941 275.207 143.688 269.629C142.604 266.827 141.544 264.001 140.667 261.017C140.228 259.531 139.814 258.009 139.449 256.352C139.275 255.475 139.153 254.589 139.083 253.697C139.083 253.247 139.083 252.577 139.083 252.175V250.957C139.187 247.853 139.471 244.758 139.936 241.688C140.338 238.643 140.935 235.671 141.58 232.711C142.848 226.783 144.475 220.938 146.452 215.208L155.819 218.46Z" fill="#FFC3BD"/>
<path d="M150.789 204.003C146.647 205.221 141.666 219.532 141.666 219.532L157.743 231.03C157.743 231.03 163.614 219.118 161.872 213.759C160.058 208.181 155.527 202.566 150.789 204.003Z" fill="white"/>
<path opacity="0.4" d="M150.789 204.003C146.647 205.221 141.666 219.532 141.666 219.532L157.743 231.03C157.743 231.03 163.614 219.118 161.872 213.759C160.058 208.181 155.527 202.566 150.789 204.003Z" fill="white"/>
<path d="M128.572 471.147C128.77 471.077 128.951 470.965 129.1 470.817C129.25 470.67 129.365 470.491 129.437 470.294C129.507 470.167 129.544 470.025 129.544 469.88C129.544 469.735 129.507 469.593 129.437 469.466C128.706 468.394 125.016 468.479 124.565 468.492C124.518 468.492 124.473 468.506 124.434 468.532C124.395 468.558 124.365 468.595 124.346 468.638C124.322 468.676 124.31 468.72 124.31 468.766C124.31 468.811 124.322 468.855 124.346 468.893C125.308 469.856 127.111 471.427 128.377 471.183L128.572 471.147ZM125.15 468.93C126.624 468.93 128.597 469.137 128.986 469.71C129.02 469.765 129.037 469.828 129.037 469.892C129.037 469.957 129.02 470.02 128.986 470.075C128.933 470.222 128.843 470.353 128.726 470.457C128.609 470.561 128.469 470.635 128.317 470.672C127.647 470.842 126.477 470.148 125.15 468.93Z" fill="white"/>
<path d="M126.234 468.674C127.354 468.321 128.548 467.7 128.804 467.006C128.867 466.825 128.868 466.628 128.806 466.447C128.744 466.266 128.623 466.111 128.462 466.007C128.321 465.889 128.154 465.804 127.974 465.76C127.795 465.715 127.608 465.712 127.427 465.751C125.978 466.007 124.419 468.492 124.358 468.601C124.336 468.638 124.325 468.68 124.325 468.723C124.325 468.766 124.336 468.808 124.358 468.845C124.38 468.881 124.41 468.91 124.446 468.932C124.482 468.953 124.523 468.965 124.565 468.967C125.132 468.951 125.694 468.852 126.234 468.674ZM127.354 466.238H127.512C127.627 466.214 127.745 466.216 127.859 466.244C127.973 466.271 128.079 466.323 128.17 466.397C128.414 466.592 128.389 466.738 128.353 466.847C128.109 467.517 126.258 468.321 125.028 468.479C125.587 467.543 126.392 466.777 127.354 466.263V466.238Z" fill="white"/>
<path d="M196.001 495.653C196.859 495.723 197.717 495.505 198.437 495.032C198.604 494.88 198.732 494.69 198.808 494.477C198.884 494.265 198.908 494.037 198.875 493.814C198.866 493.682 198.823 493.554 198.75 493.443C198.678 493.333 198.578 493.242 198.461 493.18C197.243 492.498 193.163 494.569 192.7 494.8C192.655 494.819 192.617 494.85 192.59 494.89C192.563 494.93 192.549 494.977 192.549 495.026C192.549 495.074 192.563 495.121 192.59 495.161C192.617 495.201 192.655 495.233 192.7 495.251C193.784 495.496 194.89 495.631 196.001 495.653ZM197.815 493.546C197.97 493.536 198.125 493.565 198.266 493.631C198.314 493.657 198.354 493.696 198.382 493.743C198.41 493.79 198.425 493.844 198.424 493.899C198.447 494.039 198.435 494.183 198.388 494.317C198.341 494.451 198.262 494.571 198.157 494.666C197.535 495.227 195.854 495.324 193.601 494.946C194.916 494.244 196.342 493.771 197.815 493.546Z" fill="white"/>
<path d="M192.846 495.3H192.943C194.161 494.752 196.597 492.559 196.378 491.402C196.378 491.122 196.135 490.793 195.465 490.72C195.225 490.693 194.982 490.716 194.752 490.787C194.521 490.859 194.308 490.977 194.125 491.134C192.907 492.206 192.615 494.946 192.602 495.056C192.601 495.099 192.61 495.141 192.629 495.18C192.648 495.218 192.677 495.251 192.712 495.275C192.752 495.3 192.8 495.309 192.846 495.3ZM195.282 491.171H195.428C195.867 491.171 195.903 491.402 195.903 491.451C196.025 492.145 194.393 493.887 193.151 494.63C193.248 493.472 193.703 492.374 194.454 491.487C194.677 491.284 194.968 491.171 195.27 491.171H195.282Z" fill="white"/>
<path d="M157.5 263.344L156.452 266.998C156.306 267.278 156.647 267.57 157.122 267.57H199.752C200.13 267.57 200.434 267.388 200.458 267.156L200.836 263.502C200.836 263.246 200.532 263.027 200.13 263.027H158.182C158.05 263.017 157.919 263.041 157.799 263.096C157.68 263.152 157.577 263.237 157.5 263.344Z" fill="#263238"/>
<path d="M163.127 268.021H161.994C161.775 268.021 161.604 267.911 161.617 267.765L162.14 262.893C162.14 262.759 162.36 262.637 162.579 262.637H163.699C163.931 262.637 164.089 262.759 164.077 262.893L163.553 267.765C163.553 267.96 163.358 268.021 163.127 268.021Z" fill="white"/>
<path opacity="0.4" d="M163.127 268.021H161.994C161.775 268.021 161.604 267.911 161.617 267.765L162.14 262.893C162.14 262.759 162.36 262.637 162.579 262.637H163.699C163.931 262.637 164.089 262.759 164.077 262.893L163.553 267.765C163.553 267.96 163.358 268.021 163.127 268.021Z" fill="black"/>
<path d="M196.537 268.021H195.416C195.197 268.021 195.026 267.911 195.038 267.765L195.574 262.893C195.574 262.759 195.781 262.637 196.001 262.637H197.121C197.353 262.637 197.523 262.759 197.499 262.893L196.975 267.765C196.963 267.96 196.768 268.021 196.537 268.021Z" fill="white"/>
<path opacity="0.4" d="M196.537 268.021H195.416C195.197 268.021 195.026 267.911 195.038 267.765L195.574 262.893C195.574 262.759 195.781 262.637 196.001 262.637H197.121C197.353 262.637 197.523 262.759 197.499 262.893L196.975 267.765C196.963 267.96 196.768 268.021 196.537 268.021Z" fill="black"/>
<path d="M179.838 268.021H178.717C178.486 268.021 178.315 267.911 178.34 267.765L178.863 262.893C178.863 262.759 179.071 262.637 179.302 262.637H180.423C180.642 262.637 180.812 262.759 180.8 262.893L180.276 267.765C180.264 267.96 180.057 268.021 179.838 268.021Z" fill="white"/>
<path opacity="0.4" d="M179.838 268.021H178.717C178.486 268.021 178.315 267.911 178.34 267.765L178.863 262.893C178.863 262.759 179.071 262.637 179.302 262.637H180.423C180.642 262.637 180.812 262.759 180.8 262.893L180.276 267.765C180.264 267.96 180.057 268.021 179.838 268.021Z" fill="black"/>
<path d="M180.678 168.315L182.517 167.414C182.517 167.414 181.787 169.107 180.678 168.315Z" fill="#263238"/>
<path d="M155.307 282.686L164.04 289.385L153.919 291.613C153.919 291.613 149.619 286.741 151.105 282.722L155.307 282.686Z" fill="#FFC3BD"/>
<path d="M166.184 297.679L157.609 299.08L152.932 290.286L164.04 289.385L166.184 297.679Z" fill="#FFC3BD"/>
</svg>
