<svg width="609" height="609" viewBox="0 0 609 609" fill="none" xmlns="http://www.w3.org/2000/svg">
<path d="M304.5 520.768C434.926 520.768 540.658 514.595 540.658 506.98C540.658 499.366 434.926 493.193 304.5 493.193C174.074 493.193 68.342 499.366 68.342 506.98C68.342 514.595 174.074 520.768 304.5 520.768Z" fill="#F5F5F5" fill-opacity="0.2"/>
<path d="M459.513 483.366L450.332 483.228L450.297 461.913L459.467 462.051L459.513 483.366Z" fill="#FFB573"/>
<path d="M506.126 483.4H496.934L494.21 462.119H503.402L506.126 483.4Z" fill="#FFB573"/>
<path d="M495.973 482.335H507.18C507.359 482.335 507.534 482.398 507.672 482.513C507.81 482.628 507.903 482.788 507.935 482.965L509.4 491.139C509.432 491.341 509.419 491.548 509.363 491.744C509.306 491.941 509.208 492.123 509.074 492.278C508.94 492.433 508.773 492.556 508.587 492.64C508.4 492.724 508.197 492.767 507.992 492.764C504.387 492.707 501.765 492.489 497.22 492.489C494.427 492.489 486.002 492.787 482.144 492.787C478.286 492.787 477.943 488.975 479.534 488.62C486.677 487.075 492.126 484.946 494.416 482.896C494.847 482.522 495.402 482.322 495.973 482.335Z" fill="#263238"/>
<path d="M449.885 482.21L459.913 482.37C460.093 482.368 460.266 482.433 460.401 482.551C460.536 482.669 460.623 482.833 460.646 483.011L461.905 491.196C461.933 491.399 461.917 491.606 461.858 491.802C461.798 491.998 461.697 492.179 461.561 492.332C461.425 492.486 461.258 492.608 461.07 492.69C460.882 492.773 460.679 492.813 460.474 492.81C456.857 492.695 451.648 492.398 447.103 492.329C441.792 492.249 441.197 492.466 434.969 492.329C431.203 492.272 430.39 488.448 432.016 488.128C439.308 486.663 441.174 486.583 447.63 482.851C448.311 482.44 449.09 482.219 449.885 482.21Z" fill="#263238"/>
<path d="M453.961 209.91C451.494 216.538 448.686 223.034 445.547 229.371C443.979 232.53 442.33 235.678 440.522 238.769C438.728 241.926 436.763 244.983 434.638 247.927L432.909 250.217C431.845 251.572 430.517 252.698 429.005 253.525C427.428 254.377 425.67 254.84 423.877 254.876C422.409 254.921 420.944 254.728 419.538 254.303C417.348 253.639 415.274 252.639 413.391 251.338C411.785 250.23 410.255 249.013 408.812 247.698C403.514 242.738 398.895 237.099 395.075 230.928L400.524 226.681C402.871 228.97 405.344 231.26 407.839 233.412C410.248 235.546 412.782 237.533 415.429 239.364C416.636 240.216 417.902 240.981 419.218 241.654C420.24 242.193 421.335 242.579 422.469 242.799C422.712 242.869 422.97 242.869 423.213 242.799C423.293 242.741 423.133 242.73 422.996 242.799C422.858 242.867 422.824 242.799 422.904 242.707L424.106 240.795C427.444 235.179 430.445 229.369 433.092 223.395C435.851 217.362 438.507 211.078 440.968 205.011L453.961 209.91Z" fill="#FFB573"/>
<path d="M457.395 203.912C460.429 212.154 444.517 236.228 444.517 236.228L426.201 226.085C429.023 218.579 432.646 211.398 437.007 204.667C443.635 195.04 454.087 194.88 457.395 203.912Z" fill="white"/>
<path opacity="0.5" d="M457.395 203.912C460.429 212.154 444.517 236.228 444.517 236.228L426.201 226.085C429.023 218.579 432.646 211.398 437.007 204.667C443.635 195.04 454.087 194.88 457.395 203.912Z" fill="white"/>
<path opacity="0.2" d="M447.241 212.944C443.738 214.718 435.794 223.441 433.401 230.058L444.516 236.228C448.313 230.378 451.673 224.257 454.567 217.912C452.072 215.485 449.095 212.051 447.241 212.944Z" fill="white"/>
<path d="M401.119 226.83L395.533 221.77L390.256 230.802C390.256 230.802 395.625 237.098 401.566 234.041L402.367 231.752C402.668 230.9 402.71 229.978 402.488 229.102C402.266 228.226 401.79 227.435 401.119 226.83Z" fill="#FFB573"/>
<path d="M386.512 217.969L384.967 226.749L390.256 230.802L395.533 221.77L386.512 217.969Z" fill="#FFB573"/>
<path opacity="0.2" d="M450.297 461.913L450.32 472.903L459.49 473.052L459.478 462.062L450.297 461.913Z" fill="black"/>
<path opacity="0.2" d="M503.402 462.131H494.21L495.629 473.097H504.81L503.402 462.131Z" fill="black"/>
<path d="M498.033 197.513C490.432 233 494.839 269.826 494.439 277.37L445.295 276.935C435.462 225.17 446.554 197.513 446.554 197.513C446.554 197.513 449.656 196.7 453.903 195.979C455.231 195.75 456.674 195.532 458.173 195.36C458.998 195.257 459.845 195.177 460.703 195.097C467.665 194.765 474.64 194.829 481.595 195.292C482.911 195.36 484.25 195.475 485.544 195.601C486.838 195.727 487.937 195.864 489.047 196.013C494.107 196.677 498.033 197.513 498.033 197.513Z" fill="white"/>
<path opacity="0.5" d="M498.033 197.513C490.432 233 494.839 269.826 494.439 277.37L445.295 276.935C435.462 225.17 446.554 197.513 446.554 197.513C446.554 197.513 449.656 196.7 453.903 195.979C455.231 195.75 456.674 195.532 458.173 195.36C458.998 195.257 459.845 195.177 460.703 195.097C467.665 194.765 474.64 194.829 481.595 195.292C482.911 195.36 484.25 195.475 485.544 195.601C486.838 195.727 487.937 195.864 489.047 196.013C494.107 196.677 498.033 197.513 498.033 197.513Z" fill="white"/>
<path opacity="0.2" d="M488.577 213.196C487.914 216.63 489.928 231.935 493.694 235.495C493.843 230.538 494.152 225.364 494.656 220.053L488.577 213.196Z" fill="black"/>
<path d="M479.729 171.745C478.355 178.453 476.924 190.759 481.595 195.292C477.909 198.886 473.089 203.042 465.111 203.248C457.132 203.454 458.563 197.982 460.703 195.097C468.213 193.38 468.075 187.817 466.816 182.585L479.729 171.745Z" fill="#FFB573"/>
<path d="M480.232 192.716C480.232 192.716 477.806 199.081 464.79 203.248C466.89 204.234 468.596 205.899 469.632 207.976C469.632 207.976 484.846 204.106 483.69 194.479C482.622 193.739 481.459 193.146 480.232 192.716Z" fill="white"/>
<path d="M459.822 207.472C460.966 205.562 462.714 204.088 464.79 203.282C463.325 201.943 460.955 197.764 461.997 194.513C460.965 194.486 459.936 194.609 458.94 194.88C458.94 194.88 453.503 200.077 459.822 207.472Z" fill="white"/>
<path d="M464.424 210.654C464.321 211.57 463.851 212.257 463.359 212.2C462.867 212.142 462.558 211.376 462.649 210.46C462.741 209.544 463.233 208.869 463.714 208.914C464.195 208.96 464.527 209.761 464.424 210.654Z" fill="white"/>
<path d="M463.519 220.064C463.519 220.98 463.084 221.712 462.592 221.701C462.1 221.69 461.71 220.945 461.733 220.03C461.756 219.114 462.168 218.381 462.66 218.393C463.153 218.404 463.519 219.16 463.519 220.064Z" fill="white"/>
<path opacity="0.2" d="M474.463 176.163L466.816 182.574C467.129 183.793 467.332 185.038 467.423 186.294C470.296 185.905 474.291 182.791 474.589 179.792C474.767 178.585 474.724 177.355 474.463 176.163Z" fill="black"/>
<path d="M466.152 156.439C464.638 158.004 463.514 159.904 462.874 161.985C462.233 164.065 462.094 166.268 462.466 168.413C460.348 170.245 456.513 169.913 456.513 169.913L455.3 168.7C454.722 168.115 454.276 167.413 453.993 166.64C453.711 165.868 453.598 165.044 453.663 164.224C453.88 161.545 454.487 157.481 456.181 154.905C458.94 150.796 466.152 156.439 466.152 156.439Z" fill="#263238"/>
<path d="M480.621 161.682C479.98 170.84 480.072 176.14 475.436 180.765C468.453 187.737 457.257 183.467 455.162 174.355C453.285 166.158 454.647 152.604 463.588 149.17C465.551 148.38 467.684 148.105 469.784 148.37C471.884 148.634 473.882 149.431 475.588 150.684C477.294 151.937 478.651 153.605 479.532 155.53C480.413 157.454 480.788 159.572 480.621 161.682Z" fill="#FFB573"/>
<path d="M473.021 156.119C474.54 159.522 474.692 163.379 473.444 166.891C473.309 167.246 473.248 167.624 473.263 168.004C473.279 168.383 473.372 168.755 473.535 169.098C473.699 169.44 473.931 169.746 474.216 169.996C474.501 170.246 474.835 170.436 475.196 170.554C475.986 170.79 476.809 170.902 477.634 170.886L482.018 170.05C482.018 170.05 483.861 163.525 482.659 158.752C481.457 153.978 473.021 156.119 473.021 156.119Z" fill="#263238"/>
<path d="M472.986 157.321C466.262 157.929 459.486 157.578 452.862 156.279C452.862 156.279 455.014 149.411 459.844 147.121C464.675 144.832 474.886 144.98 478.034 146.308C481.182 147.636 485.292 151.689 483.758 161.579C480.496 165.116 472.986 157.321 472.986 157.321Z" fill="#263238"/>
<path d="M485.12 160.114C485.12 160.114 459.49 156.394 448.866 154.528C448.706 154.498 448.561 154.413 448.456 154.288C448.351 154.162 448.294 154.004 448.294 153.841C448.294 153.677 448.351 153.519 448.456 153.394C448.561 153.268 448.706 153.183 448.866 153.154C453.31 152.731 457.791 152.931 462.18 153.749L485.12 160.114Z" fill="white"/>
<path d="M453.045 153.165C453.503 150.876 457.463 139.051 474.085 142.645C489.482 145.965 485.12 160.114 485.12 160.114L453.045 153.165Z" fill="white"/>
<path d="M463.462 143L469.025 141.352L475.734 141.901V143.057L471.475 144.042L463.462 143Z" fill="white"/>
<path opacity="0.2" d="M464.298 154.356C464.241 154.357 464.185 154.348 464.132 154.327C464.079 154.306 464.031 154.275 463.991 154.236C463.95 154.196 463.918 154.149 463.896 154.097C463.874 154.045 463.863 153.989 463.863 153.932C463.863 153.841 463.988 144.637 474.886 142.187C474.944 142.169 475.005 142.164 475.065 142.171C475.125 142.178 475.182 142.197 475.235 142.227C475.287 142.258 475.332 142.299 475.367 142.347C475.403 142.396 475.428 142.452 475.44 142.511C475.453 142.57 475.453 142.631 475.441 142.69C475.429 142.749 475.405 142.805 475.37 142.854C475.335 142.903 475.291 142.945 475.239 142.976C475.187 143.007 475.129 143.027 475.07 143.034C464.87 145.324 464.767 153.577 464.767 153.932C464.767 153.992 464.755 154.051 464.731 154.106C464.707 154.16 464.671 154.209 464.627 154.249C464.583 154.289 464.531 154.319 464.474 154.338C464.417 154.356 464.357 154.362 464.298 154.356Z" fill="black"/>
<path d="M484.513 170.909C483.345 172.885 481.445 174.32 479.225 174.904C476.283 175.648 474.886 172.992 475.791 170.256C476.58 167.784 479.076 164.418 482.006 164.899C484.937 165.38 485.91 168.471 484.513 170.909Z" fill="#FFB573"/>
<path d="M447.493 470.762L463.05 471.003C463.05 471.003 467.263 409.45 466.793 380.82C466.656 372.109 467.606 359.848 469.083 346.684C470.903 330.097 471.865 323.468 474.257 302.497C475.963 287.547 477.691 277.313 477.691 277.313L445.387 277.026C445.387 277.026 441.254 352.007 442.101 380.053C442.914 409.095 447.493 470.762 447.493 470.762Z" fill="#263238"/>
<path opacity="0.2" d="M467.572 297.552C462.741 312.319 464.824 346.043 468.11 355.361C468.385 352.522 468.694 349.637 469.014 346.661C470.834 330.062 471.807 323.434 474.2 302.474C474.2 302.05 474.291 301.65 474.337 301.249C472.317 299.629 470.027 298.377 467.572 297.552Z" fill="black"/>
<path d="M462.729 277.095C462.729 277.095 473.696 354.262 477.611 380.9C481.892 410.068 491.348 470.968 491.348 470.968H508.164C508.164 470.968 505.004 413.571 501.376 385.055C497.254 352.568 494.404 277.381 494.404 277.381L462.729 277.095Z" fill="#263238"/>
<path d="M489.356 471.335H509.171V465.416L487.021 465.039L489.356 471.335Z" fill="white"/>
<path d="M445.123 471.06L463.622 471.346L464.469 465.359L443.83 464.718L445.123 471.06Z" fill="white"/>
<path d="M466.793 164.052C466.793 164.796 466.392 165.391 465.9 165.391C465.408 165.391 465.03 164.785 465.042 164.04C465.053 163.296 465.442 162.701 465.934 162.713C466.427 162.724 466.804 163.319 466.793 164.052Z" fill="#263238"/>
<path d="M458.414 163.972C458.414 164.716 458.013 165.311 457.532 165.3C457.051 165.288 456.662 164.693 456.662 163.96C456.662 163.228 457.063 162.621 457.555 162.621C458.047 162.621 458.425 163.239 458.414 163.972Z" fill="#263238"/>
<path d="M460.829 164.762C459.923 167.017 458.71 169.135 457.223 171.058C457.726 171.424 458.304 171.677 458.915 171.797C459.526 171.918 460.155 171.904 460.76 171.756L460.829 164.762Z" fill="#ED893E"/>
<path d="M464.126 173.965C464.952 173.874 465.752 173.615 466.474 173.204C467.197 172.792 467.827 172.237 468.327 171.573C468.348 171.526 468.352 171.473 468.338 171.424C468.324 171.375 468.293 171.332 468.251 171.303C468.208 171.275 468.157 171.262 468.106 171.267C468.055 171.272 468.008 171.296 467.972 171.332C467.405 172.062 466.675 172.65 465.84 173.047C465.005 173.445 464.089 173.642 463.164 173.622C463.107 173.622 463.051 173.645 463.011 173.686C462.97 173.726 462.947 173.782 462.947 173.839C462.947 173.897 462.97 173.952 463.011 173.993C463.051 174.034 463.107 174.057 463.164 174.057C463.486 174.044 463.807 174.014 464.126 173.965Z" fill="#263238"/>
<path d="M469.403 161.373C469.477 161.362 469.547 161.334 469.609 161.293C469.701 161.225 469.763 161.122 469.78 161.009C469.797 160.895 469.769 160.779 469.701 160.686C469.3 160.121 468.769 159.66 468.154 159.342C467.539 159.023 466.856 158.856 466.163 158.855C466.107 158.858 466.051 158.872 466 158.897C465.949 158.921 465.903 158.956 465.866 158.999C465.829 159.042 465.8 159.091 465.783 159.145C465.765 159.199 465.758 159.256 465.763 159.313C465.766 159.37 465.78 159.426 465.804 159.477C465.829 159.529 465.864 159.575 465.906 159.614C465.949 159.652 465.998 159.682 466.052 159.701C466.106 159.72 466.163 159.728 466.221 159.725C466.768 159.731 467.307 159.869 467.791 160.125C468.275 160.382 468.69 160.751 469.002 161.201C469.045 161.266 469.106 161.316 469.177 161.347C469.248 161.377 469.327 161.386 469.403 161.373Z" fill="#263238"/>
<path d="M454.831 161.064C454.902 161.056 454.971 161.032 455.03 160.992C455.09 160.952 455.139 160.898 455.174 160.835C455.401 160.337 455.744 159.901 456.174 159.562C456.604 159.224 457.109 158.993 457.647 158.889C457.762 158.875 457.867 158.817 457.939 158.725C458.011 158.634 458.044 158.518 458.03 158.403C458.016 158.287 457.958 158.182 457.866 158.11C457.775 158.038 457.659 158.005 457.544 158.019C456.862 158.14 456.22 158.424 455.672 158.846C455.124 159.269 454.686 159.818 454.396 160.446C454.368 160.497 454.352 160.553 454.347 160.61C454.342 160.667 454.349 160.725 454.367 160.78C454.385 160.834 454.415 160.885 454.453 160.928C454.491 160.971 454.538 161.005 454.59 161.03C454.666 161.063 454.749 161.075 454.831 161.064Z" fill="#263238"/>
<path d="M492.87 483.95C493.685 483.927 494.495 483.815 495.286 483.618C495.328 483.605 495.366 483.581 495.396 483.549C495.426 483.517 495.447 483.477 495.457 483.435C495.463 483.393 495.458 483.351 495.442 483.313C495.426 483.275 495.399 483.242 495.366 483.217C495.045 483.011 492.149 481.191 491.119 481.706C491.004 481.765 490.907 481.854 490.837 481.962C490.766 482.07 490.726 482.195 490.718 482.324C490.683 482.533 490.702 482.748 490.772 482.948C490.842 483.148 490.961 483.327 491.119 483.469C491.631 483.824 492.249 483.993 492.87 483.95ZM494.668 483.309C493.088 483.618 491.897 483.56 491.405 483.137C491.299 483.04 491.22 482.918 491.176 482.781C491.132 482.645 491.124 482.499 491.153 482.358C491.15 482.305 491.162 482.251 491.188 482.204C491.215 482.158 491.254 482.12 491.302 482.095C491.84 481.82 493.489 482.61 494.668 483.354V483.309Z" fill="white"/>
<path d="M495.228 483.618C495.27 483.629 495.313 483.629 495.354 483.618C495.386 483.596 495.413 483.568 495.431 483.534C495.449 483.5 495.458 483.462 495.457 483.423C495.457 483.309 495.343 480.653 494.313 479.783C494.189 479.674 494.043 479.593 493.885 479.545C493.727 479.498 493.56 479.485 493.397 479.508C493.233 479.511 493.075 479.567 492.947 479.668C492.819 479.77 492.727 479.91 492.687 480.069C492.447 481.099 494.198 483.114 495.125 483.629L495.228 483.618ZM493.534 479.92C493.625 479.918 493.715 479.935 493.8 479.968C493.884 480.002 493.961 480.051 494.026 480.115C494.641 480.948 494.977 481.953 494.988 482.988C494.072 482.267 492.973 480.699 493.111 480.149C493.111 480.092 493.111 479.954 493.443 479.92H493.534Z" fill="white"/>
<path d="M448.901 483.423C448.939 483.408 448.973 483.383 448.999 483.351C449.025 483.319 449.042 483.281 449.049 483.24C449.059 483.197 449.054 483.153 449.036 483.113C449.017 483.074 448.985 483.042 448.946 483.022C448.546 482.793 444.986 480.87 443.829 481.466C443.721 481.524 443.629 481.608 443.559 481.709C443.489 481.811 443.445 481.927 443.429 482.049C443.395 482.24 443.407 482.437 443.465 482.622C443.523 482.807 443.624 482.976 443.761 483.114C444.711 484.018 447.367 483.698 448.866 483.423H448.901ZM444.093 481.82C444.802 481.592 446.749 482.381 448.168 483.103C446.107 483.412 444.608 483.297 444.081 482.793C443.986 482.705 443.916 482.592 443.878 482.468C443.84 482.343 443.835 482.211 443.864 482.084C443.864 482.035 443.878 481.988 443.904 481.947C443.931 481.907 443.968 481.875 444.013 481.855L444.093 481.82Z" fill="white"/>
<path d="M448.901 483.423C448.932 483.4 448.957 483.371 448.975 483.338C448.992 483.304 449.002 483.267 449.004 483.228C449.004 483.125 448.924 480.641 447.859 479.668C447.706 479.527 447.525 479.419 447.328 479.352C447.131 479.285 446.922 479.26 446.714 479.279C446.119 479.279 445.924 479.622 445.867 479.874C445.627 480.905 447.687 482.931 448.763 483.446C448.81 483.451 448.858 483.443 448.901 483.423ZM446.485 479.714H446.703C446.861 479.701 447.019 479.72 447.169 479.772C447.319 479.823 447.456 479.905 447.573 480.012C448.206 480.83 448.563 481.828 448.592 482.862C447.504 482.164 446.119 480.573 446.302 479.954C446.279 479.92 446.348 479.771 446.485 479.714Z" fill="white"/>
<path d="M485.029 192.922C484.451 192.847 483.863 192.912 483.315 193.111C482.768 193.31 482.276 193.638 481.881 194.067C478.721 197.501 471.189 207.998 469.632 232.496C468.39 250.998 470.094 269.579 474.68 287.547L494.255 281.983C494.883 281.807 495.428 281.413 495.791 280.872C496.154 280.33 496.312 279.677 496.236 279.03C495.709 274.451 494.576 263.427 494.255 251.098C494.038 242.421 494.69 234.602 494.656 231.054C492.504 226.841 488.635 219.961 490.077 212.463C491.634 204.095 496.236 202.95 499.372 201.416C499.779 201.204 500.118 200.883 500.353 200.489C500.588 200.095 500.708 199.644 500.701 199.186C500.694 198.727 500.559 198.28 500.313 197.894C500.066 197.507 499.717 197.197 499.304 196.998C494.772 194.945 489.962 193.572 485.029 192.922Z" fill="white"/>
<path d="M457.475 287.512L444.059 283.299C443.555 283.141 443.109 282.84 442.772 282.434C442.435 282.028 442.222 281.534 442.158 281.01C441.014 272.15 436.229 231.477 442.41 201.279C442.615 200.259 443.082 199.311 443.764 198.526C444.447 197.741 445.321 197.148 446.302 196.803C450.164 195.492 454.162 194.62 458.219 194.204C458.338 194.192 458.457 194.208 458.568 194.253C458.678 194.298 458.776 194.37 458.852 194.462C458.928 194.554 458.98 194.663 459.003 194.78C459.027 194.897 459.021 195.018 458.986 195.132C456.445 204.461 452.209 255.551 457.475 287.512Z" fill="white"/>
<path d="M439.88 256.375C440.121 260.657 440.43 264.606 440.739 268.074C445.604 268.624 450.584 269.002 455.529 269.219C455.3 265.43 455.14 261.549 455.06 257.646C449.931 257.394 444.826 256.982 439.88 256.375Z" fill="white"/>
<path d="M455.185 236.182C449.748 235.953 444.402 235.529 439.319 234.877C439.319 238.838 439.319 242.73 439.445 246.473C444.494 247.091 449.748 247.492 454.979 247.709C454.991 243.806 455.071 239.937 455.185 236.182Z" fill="white"/>
<path d="M494.427 256.902C487.273 257.6 478.767 258.046 469.815 258.046C470.136 262.248 470.571 266.117 471.063 269.563C479.82 269.563 488.097 269.047 495.194 268.349C494.931 264.858 494.656 260.966 494.427 256.902Z" fill="white"/>
<path d="M494.553 234.946C486.94 235.736 478.286 236.274 469.426 236.388C469.266 240.383 469.243 244.241 469.323 247.916C478.08 247.801 486.597 247.286 494.221 246.519C494.232 242.055 494.427 238.014 494.553 234.946Z" fill="white"/>
<path d="M530.487 294.472L478.481 303.149C478.147 303.212 477.803 303.202 477.473 303.122C477.143 303.041 476.833 302.892 476.565 302.683C476.296 302.474 476.075 302.211 475.916 301.91C475.757 301.61 475.664 301.279 475.642 300.94L473.158 268.704C473.115 267.981 473.339 267.268 473.786 266.699C474.233 266.129 474.873 265.743 475.585 265.613L527.625 256.936C527.959 256.872 528.303 256.88 528.635 256.96C528.966 257.039 529.276 257.189 529.545 257.398C529.813 257.607 530.034 257.871 530.193 258.172C530.351 258.474 530.444 258.806 530.464 259.145L532.948 291.381C532.989 292.109 532.761 292.826 532.307 293.396C531.853 293.967 531.205 294.35 530.487 294.472Z" fill="white"/>
<path opacity="0.4" d="M530.486 294.472L479.683 302.943C479.348 303.007 479.004 302.999 478.673 302.92C478.342 302.84 478.032 302.691 477.763 302.482C477.494 302.273 477.273 302.008 477.115 301.707C476.956 301.406 476.864 301.074 476.844 300.734L474.36 268.498C474.317 267.775 474.54 267.062 474.987 266.493C475.435 265.923 476.074 265.537 476.787 265.407L527.59 256.936C527.925 256.872 528.269 256.88 528.6 256.96C528.931 257.039 529.241 257.189 529.51 257.398C529.779 257.607 530 257.871 530.158 258.172C530.317 258.474 530.409 258.806 530.429 259.145L532.913 291.381C532.956 292.104 532.732 292.817 532.285 293.387C531.838 293.956 531.198 294.342 530.486 294.472Z" fill="black"/>
<path d="M500.151 203.351C503.047 209.945 505.611 216.504 507.935 223.281C509.08 226.646 510.225 230.058 511.243 233.492C511.759 235.22 512.251 236.926 512.72 238.712L513.075 240.017L513.441 241.528C513.705 242.558 513.853 243.588 514.037 244.607C514.925 252.354 514.235 260.2 512.01 267.674C511.022 271.233 509.813 274.727 508.393 278.137C507.672 279.831 506.916 281.491 506.103 283.139C505.291 284.788 504.489 286.367 503.505 288.05L497.266 285.085C498.262 281.983 499.269 278.64 500.013 275.378C500.758 272.115 501.479 268.796 501.971 265.533C502.454 262.323 502.714 259.083 502.749 255.837C502.815 252.792 502.526 249.75 501.891 246.771C501.696 246.084 501.57 245.363 501.33 244.71L500.998 243.68L500.574 242.535C500.013 240.933 499.43 239.341 498.8 237.739C497.655 234.522 496.316 231.317 495.057 228.1L487.318 208.868L500.151 203.351Z" fill="#FFB573"/>
<path d="M498.021 197.513C506.275 200.603 511.598 224.288 511.598 224.288L493.339 236.88C493.339 236.88 487.73 222.857 484.639 211.925C481.308 200.031 488.039 193.849 498.021 197.513Z" fill="white"/>
<path opacity="0.5" d="M498.021 197.513C506.275 200.603 511.598 224.288 511.598 224.288L493.339 236.88C493.339 236.88 487.73 222.857 484.639 211.925C481.308 200.031 488.039 193.849 498.021 197.513Z" fill="white"/>
<path d="M496.522 286.528L494.931 293.568L505.932 293.247C505.932 293.247 506.813 284.742 502.498 283.403L499.063 284.055C498.446 284.177 497.877 284.476 497.426 284.914C496.975 285.353 496.661 285.914 496.522 286.528Z" fill="#FFB573"/>
<path d="M498.377 302.359L504.993 301.009C505.382 300.929 505.728 300.711 505.968 300.395C506.208 300.08 506.326 299.687 506.298 299.292L505.932 293.247L494.931 293.568L496.442 301.066C496.528 301.494 496.779 301.87 497.142 302.112C497.505 302.355 497.949 302.444 498.377 302.359Z" fill="#FFB573"/>
<path d="M402.253 147.945H204.636C204.079 147.947 203.527 148.06 203.014 148.277C202.501 148.495 202.036 148.813 201.648 149.214C201.26 149.614 200.955 150.087 200.753 150.607C200.551 151.126 200.454 151.681 200.47 152.238L208.483 424.4C208.515 425.486 208.97 426.517 209.75 427.274C210.53 428.03 211.574 428.453 212.661 428.453H410.22C410.78 428.453 411.334 428.341 411.849 428.123C412.364 427.905 412.831 427.586 413.22 427.185C413.61 426.783 413.915 426.308 414.117 425.786C414.32 425.265 414.415 424.708 414.399 424.148L406.385 151.998C406.356 150.919 405.908 149.893 405.138 149.137C404.367 148.381 403.333 147.954 402.253 147.945Z" fill="white"/>
<path d="M248.033 143.973H229.489V145.118H248.033V143.973Z" fill="white"/>
<path d="M222.872 143.973H218.167V145.118H222.872V143.973Z" fill="white"/>
<path d="M404.153 147.945H206.548C205.99 147.945 205.437 148.057 204.922 148.274C204.408 148.491 203.942 148.809 203.552 149.209C203.163 149.61 202.857 150.084 202.654 150.604C202.451 151.124 202.354 151.68 202.37 152.238L210.383 424.4C210.418 425.485 210.874 426.514 211.653 427.27C212.433 428.026 213.475 428.45 214.561 428.453H412.132C412.69 428.451 413.243 428.338 413.757 428.12C414.271 427.901 414.736 427.582 415.124 427.181C415.513 426.779 415.817 426.304 416.019 425.783C416.22 425.263 416.316 424.707 416.299 424.148L408.286 151.998C408.253 150.92 407.805 149.896 407.035 149.14C406.264 148.385 405.232 147.957 404.153 147.945Z" fill="#53BECE"/>
<path opacity="0.4" d="M210.841 162.724L218.259 416.204C218.297 417.295 218.755 418.33 219.538 419.091C220.321 419.853 221.368 420.282 222.46 420.291H401.406C401.936 420.293 402.462 420.187 402.951 419.981C403.44 419.774 403.883 419.471 404.252 419.089C404.62 418.708 404.908 418.255 405.098 417.759C405.288 417.263 405.375 416.734 405.355 416.204L397.937 162.724C397.899 161.634 397.44 160.6 396.657 159.841C395.874 159.081 394.827 158.654 393.736 158.649H214.79C214.26 158.645 213.734 158.749 213.245 158.954C212.756 159.16 212.314 159.462 211.945 159.843C211.576 160.223 211.287 160.675 211.098 161.17C210.908 161.666 210.821 162.194 210.841 162.724Z" fill="#E1E1E1"/>
<path d="M267.094 243.131H232.706L231.698 208.731H266.086L267.094 243.131Z" fill="#419EAC"/>
<path d="M379.049 222.388H281.815L281.632 215.977H378.866L379.049 222.388Z" fill="#419EAC"/>
<path d="M358.295 235.884H282.216L282.021 229.474H358.112L358.295 235.884Z" fill="#419EAC"/>
<path d="M268.902 304.821H234.514L233.507 270.433H267.895L268.902 304.821Z" fill="#F5F5F5"/>
<path d="M319.351 284.089H283.624L283.44 277.667H319.156L319.351 284.089Z" fill="#F5F5F5"/>
<path d="M353.178 284.089H326.906L326.712 277.667H352.995L353.178 284.089Z" fill="#F5F5F5"/>
<path d="M369.101 297.586H284.013L283.83 291.164H368.918L369.101 297.586Z" fill="#F5F5F5"/>
<path d="M270.711 366.522H236.323L235.315 332.123H269.704L270.711 366.522Z" fill="#F5F5F5"/>
<path d="M382.873 352.854H285.638L285.821 359.276H383.056L382.873 352.854Z" fill="#F5F5F5"/>
<path d="M361.328 339.369H285.237L285.432 345.78H361.511L361.328 339.369Z" fill="#F5F5F5"/>
<path d="M251.605 234.19C251.46 234.395 251.265 234.559 251.04 234.669C250.815 234.779 250.565 234.831 250.315 234.819C250.064 234.808 249.82 234.734 249.606 234.604C249.391 234.474 249.213 234.292 249.087 234.076C246.797 230.413 242.584 227.07 240.135 225.41C239.816 225.199 239.589 224.876 239.498 224.504C239.406 224.133 239.458 223.741 239.642 223.407C239.745 223.23 239.883 223.077 240.048 222.957C240.213 222.837 240.401 222.753 240.6 222.71C240.8 222.667 241.006 222.666 241.205 222.707C241.405 222.748 241.594 222.83 241.76 222.949C244.473 224.769 246.959 226.906 249.167 229.314C249.305 229.484 249.48 229.62 249.678 229.715C249.876 229.809 250.092 229.857 250.311 229.857C250.531 229.857 250.747 229.809 250.945 229.715C251.143 229.62 251.318 229.484 251.456 229.314C256.594 223.217 262.457 217.77 268.913 213.093C269.236 212.857 269.638 212.758 270.033 212.818C270.427 212.879 270.782 213.092 271.02 213.413C271.141 213.568 271.23 213.745 271.282 213.934C271.334 214.123 271.348 214.321 271.324 214.515C271.3 214.71 271.237 214.898 271.139 215.068C271.042 215.239 270.912 215.388 270.757 215.508C261.965 222.159 255.715 228.283 251.662 234.19H251.605Z" fill="white"/>
<path d="M351.667 155.821H351.449C348.805 147.43 342.463 141.867 335.537 141.867H321.434C320.342 141.826 319.29 141.447 318.423 140.783C317.556 140.118 316.916 139.201 316.592 138.158C314.703 132.812 310.067 129 304.744 129C299.421 129 294.991 132.812 293.377 138.158C293.107 139.196 292.509 140.118 291.671 140.787C290.833 141.455 289.801 141.834 288.729 141.867H274.637C267.711 141.867 261.656 147.43 259.458 155.821H259.252C258.849 155.849 258.456 155.956 258.096 156.138C257.736 156.319 257.416 156.571 257.154 156.878C256.893 157.186 256.696 157.542 256.574 157.927C256.453 158.311 256.41 158.716 256.447 159.118C256.427 159.943 256.725 160.744 257.279 161.355C257.833 161.967 258.601 162.342 259.424 162.404H351.861C352.264 162.378 352.657 162.271 353.018 162.091C353.378 161.911 353.699 161.661 353.962 161.354C354.224 161.048 354.423 160.693 354.546 160.309C354.669 159.925 354.713 159.52 354.677 159.118C354.7 158.286 354.399 157.477 353.837 156.862C353.276 156.247 352.498 155.874 351.667 155.821Z" fill="#263238"/>
<path d="M335.341 399.48C331.322 399.516 327.415 398.162 324.281 395.645C321.789 393.92 319.488 392.302 314.779 392.302C311.371 392.239 308.059 393.429 305.469 395.645C302.449 398.172 298.623 399.532 294.685 399.48C290.663 399.518 286.751 398.163 283.613 395.645C281.121 393.92 278.82 392.302 274.111 392.302C270.707 392.237 267.397 393.427 264.813 395.645C261.791 398.169 257.966 399.529 254.029 399.48C250.01 399.516 246.103 398.162 242.969 395.645C240.477 393.92 238.176 392.302 233.467 392.302L233.384 389.606C237.406 389.568 241.318 390.923 244.455 393.441C247.128 395.643 250.494 396.827 253.957 396.784C257.362 396.849 260.672 395.659 263.255 393.441C266.292 390.901 270.142 389.54 274.099 389.606C278.118 389.57 282.026 390.924 285.159 393.441C287.651 395.166 289.952 396.784 294.661 396.784C298.066 396.849 301.376 395.659 303.959 393.441C306.998 390.905 310.846 389.545 314.803 389.606C318.826 389.568 322.738 390.923 325.875 393.441C328.367 395.166 330.668 396.784 335.377 396.784L335.341 399.48Z" fill="#F5F5F5"/>
<path d="M167.89 276.42C167.89 276.42 164.639 347.657 164.021 376.504C163.368 406.519 163.082 476.6 163.082 476.6H155.515C155.515 476.6 143.427 418.356 147.01 376.504C141.595 344.371 137.944 276.42 137.944 276.42H167.89Z" fill="#FF8B7B"/>
<path d="M157.874 276.42C157.874 276.42 139.832 351.022 132.46 378.92C124.676 408.214 114.213 474.425 114.144 476.6H107.597C107.597 476.6 105.536 400.109 115.907 374.1C115.907 341.51 129.461 276.42 129.461 276.42H157.874Z" fill="#FF8B7B"/>
<path d="M107.436 472.628C106.189 474.048 105.147 481.397 107.07 484.671C108.993 487.945 107.07 492.787 113.366 492.787C119.662 492.787 120.235 491.413 118.689 488.483C117.144 485.552 115.255 480.046 115.324 476.601C115.392 472.159 117.098 469.869 107.436 472.628Z" fill="#263238"/>
<path d="M106.658 480.286C106.52 484.064 106.601 490.234 106.601 490.234H107.597C107.597 490.234 108.341 483.48 108.97 480.973L106.658 480.286Z" fill="#263238"/>
<path d="M174.335 230.848C175.148 236.663 175.869 242.478 176.533 248.305C177.197 254.132 177.85 259.97 178.479 265.854C178.628 267.308 178.742 268.841 178.994 270.055C179.097 270.684 179.223 271.337 179.372 272.035C179.521 272.734 179.635 273.398 179.807 274.073C180.425 276.797 181.215 279.533 182.097 282.269C182.978 285.005 183.825 287.741 184.832 290.454C185.84 293.167 186.847 295.915 187.9 298.559L183.676 300.848C180.375 295.746 177.489 290.386 175.045 284.822C173.813 282.018 172.728 279.153 171.794 276.236C171.542 275.515 171.336 274.748 171.118 274.004C170.901 273.26 170.683 272.505 170.5 271.715C170.142 270.223 169.859 268.714 169.653 267.193C168.737 261.355 167.875 255.509 167.066 249.656C166.219 243.806 165.441 237.956 164.777 232.084L174.335 230.848Z" fill="#FF8B7B"/>
<path d="M172.675 222.354C175.079 226.852 176.327 244.607 178.342 256.799C178.407 257.229 178.32 257.669 178.097 258.043C177.873 258.417 177.527 258.702 177.117 258.848C174.43 259.917 171.945 261.434 169.767 263.335C169.522 263.545 169.226 263.687 168.909 263.747C168.591 263.808 168.264 263.784 167.959 263.679C167.653 263.573 167.381 263.39 167.168 263.147C166.955 262.904 166.81 262.61 166.745 262.294L161.022 235.839L163.506 230.825C164.119 228.714 165.295 226.81 166.909 225.318C168.522 223.826 170.512 222.801 172.664 222.354H172.675Z" fill="#263238"/>
<path d="M187.717 297.597L196.051 302.279L187.042 305.714C187.042 305.714 182.463 301.764 183.275 297.918L187.717 297.597Z" fill="#FF8B7B"/>
<path d="M199.107 309.629L191.414 312.044L187.042 305.656L196.051 302.279L199.107 309.629Z" fill="#FF8B7B"/>
<path d="M184.042 307.591L272.256 297.185L272.359 298.021L184.294 309.594L184.042 307.591Z" fill="#263238"/>
<path d="M173.522 225.65C173.671 232.519 173.247 251.888 168.428 281.537H128.259C128.912 265.854 130.869 250.972 123.394 218.919C128.527 217.874 133.731 217.208 138.962 216.927C144.774 216.515 150.608 216.515 156.42 216.927C160.174 217.271 164.181 217.878 167.249 218.404C168.971 218.7 170.538 219.584 171.682 220.905C172.825 222.227 173.476 223.903 173.522 225.65Z" fill="#263238"/>
<path opacity="0.2" d="M152.917 281.674C152.881 281.666 152.848 281.646 152.825 281.617C152.802 281.587 152.79 281.551 152.791 281.514C156.454 247.435 153.237 233.847 153.203 233.709C153.196 233.673 153.202 233.635 153.221 233.604C153.24 233.572 153.271 233.548 153.306 233.538C153.324 233.531 153.343 233.528 153.363 233.529C153.382 233.531 153.401 233.537 153.417 233.547C153.434 233.557 153.448 233.57 153.459 233.587C153.469 233.603 153.476 233.622 153.478 233.641C153.478 233.778 156.74 247.378 153.077 281.548C153.076 281.567 153.07 281.586 153.061 281.603C153.053 281.62 153.04 281.635 153.025 281.647C153.01 281.659 152.992 281.667 152.974 281.672C152.955 281.677 152.936 281.677 152.917 281.674Z" fill="white"/>
<path d="M156.42 216.893H138.963C138.963 216.893 144.961 226.967 152.917 232.279C155.879 227.731 157.121 222.275 156.42 216.893Z" fill="#E0E0E0"/>
<path d="M146.518 192.087C150.444 198.715 148.876 206.9 143.015 210.403C137.154 213.905 129.278 211.295 125.306 204.679C121.334 198.062 122.948 189.797 128.809 186.363C134.67 182.929 142.591 185.447 146.518 192.087Z" fill="#263238"/>
<path d="M121.86 199.333C121.646 195.666 122.778 192.047 125.043 189.156C126.068 187.795 127.38 186.677 128.886 185.879C130.392 185.082 132.054 184.626 133.756 184.543C135.458 184.46 137.157 184.752 138.734 185.399C140.31 186.046 141.725 187.032 142.878 188.286C145.421 190.954 146.903 194.459 147.045 198.142H146.472C146.338 194.597 144.913 191.222 142.466 188.652C141.37 187.455 140.023 186.514 138.522 185.896C137.021 185.278 135.402 184.999 133.781 185.079C132.16 185.159 130.576 185.595 129.143 186.358C127.709 187.12 126.462 188.189 125.489 189.488C123.292 192.27 122.188 195.759 122.387 199.299L121.86 199.333Z" fill="#263238"/>
<path d="M166.869 202.612C169.983 196.182 167.553 188.571 161.442 185.611C155.331 182.652 147.853 185.465 144.739 191.895C141.625 198.325 144.055 205.936 150.166 208.896C156.277 211.855 163.755 209.042 166.869 202.612Z" fill="#263238"/>
<path d="M140.703 197.249C141.847 202.859 142.901 213.15 138.974 216.893C138.974 216.893 142.008 222.834 150.982 224.906C156.557 221.472 156.431 216.893 156.431 216.893C150.17 215.394 150.33 210.757 151.417 206.396L140.703 197.249Z" fill="#FF8B7B"/>
<path d="M147.307 223.75L139.489 214.535L136.787 215.966L136.341 229.291L142.133 221.69L147.307 223.75Z" fill="white"/>
<path d="M152.608 223.75L155.149 215.462L158.343 216.893L161.846 228.112L156.626 221.69L152.608 223.75Z" fill="white"/>
<path opacity="0.2" d="M145.064 200.981L151.406 206.384C151.133 207.4 150.953 208.439 150.868 209.487C148.475 209.143 145.144 206.51 144.938 204.003C144.788 202.997 144.83 201.972 145.064 200.981Z" fill="black"/>
<path d="M134.773 186.947C136.971 196.105 137.715 199.985 143.21 203.9C151.486 209.784 162.212 205.045 162.785 195.475C163.3 186.832 159.614 173.359 149.929 171.287C147.796 170.82 145.579 170.906 143.489 171.537C141.398 172.168 139.504 173.323 137.985 174.892C136.467 176.461 135.375 178.392 134.812 180.502C134.25 182.612 134.237 184.83 134.773 186.947Z" fill="#FF8B7B"/>
<path d="M136.856 191.159C142.58 187.725 141.824 177.423 141.824 177.423C151.726 177.297 155.561 177.423 158.572 177.846C161.583 178.27 159.717 174.24 155.309 170.978C150.902 167.715 138.951 168.688 135.231 174.927C130.652 176.759 126.279 187.153 136.856 191.159Z" fill="#263238"/>
<path d="M129.083 182.288C129.083 182.288 161.308 175.419 168.085 173.462C168.085 169.421 151.509 174.423 151.509 174.423L129.083 182.288Z" fill="white"/>
<path d="M160.621 173.221C160.003 170.932 155.252 159.427 138.871 164.143C123.783 168.551 129.083 182.288 129.083 182.288L160.621 173.221Z" fill="white"/>
<path d="M149.54 163.777L143.805 162.346L137.223 163.514L137.303 164.67L141.619 165.368L149.54 163.777Z" fill="white"/>
<path opacity="0.4" d="M149.448 175.316C149.304 175.317 149.165 175.263 149.059 175.165C148.953 175.067 148.887 174.933 148.876 174.79C148.876 174.435 148.155 166.307 137.932 164.739C137.783 164.713 137.65 164.631 137.56 164.51C137.47 164.388 137.431 164.236 137.451 164.086C137.479 163.939 137.562 163.807 137.683 163.718C137.804 163.629 137.954 163.588 138.104 163.606C149.254 165.323 150.009 174.618 150.021 174.71C150.025 174.785 150.015 174.86 149.99 174.931C149.966 175.003 149.928 175.068 149.878 175.125C149.828 175.181 149.767 175.227 149.699 175.26C149.631 175.293 149.558 175.312 149.483 175.316H149.448Z" fill="black"/>
<path opacity="0.2" d="M164.238 367.896L145.098 363.225C144.571 359.162 144.091 354.834 143.621 350.381L164.685 354.067C164.513 359.013 164.364 363.695 164.238 367.896Z" fill="black"/>
<path opacity="0.2" d="M117.945 345.905L139.855 349.729C138.859 353.724 137.886 357.582 136.971 361.245L116.846 356.288C117.155 352.957 117.522 349.42 117.945 345.905Z" fill="black"/>
<path d="M150.925 187.05C151.051 187.805 151.566 188.343 152.07 188.252C152.573 188.16 152.859 187.485 152.722 186.729C152.585 185.974 152.081 185.447 151.577 185.585C151.074 185.722 150.787 186.294 150.925 187.05Z" fill="#263238"/>
<path d="M159.419 185.55C159.545 186.294 160.06 186.832 160.564 186.752C161.067 186.672 161.353 185.985 161.216 185.23C161.079 184.474 160.575 183.936 160.071 184.085C159.568 184.234 159.282 184.795 159.419 185.55Z" fill="#263238"/>
<path d="M159.854 184.108L161.571 183.272C161.571 183.272 160.896 184.841 159.854 184.108Z" fill="#263238"/>
<path d="M157.404 187.233C158.375 188.83 159.561 190.287 160.93 191.56C160.595 191.9 160.19 192.164 159.744 192.332C159.297 192.5 158.819 192.569 158.343 192.533L157.404 187.233Z" fill="#FF5652"/>
<path d="M153.844 196.025C154.274 196.025 154.703 195.986 155.126 195.91C155.155 195.906 155.183 195.896 155.207 195.881C155.232 195.866 155.254 195.846 155.271 195.823C155.288 195.799 155.3 195.773 155.307 195.744C155.313 195.716 155.314 195.687 155.309 195.658C155.298 195.599 155.264 195.547 155.215 195.513C155.166 195.479 155.105 195.465 155.046 195.475C154.115 195.659 153.154 195.622 152.239 195.368C151.325 195.113 150.483 194.648 149.78 194.01C149.741 193.967 149.686 193.942 149.628 193.94C149.57 193.938 149.514 193.959 149.471 193.998C149.429 194.038 149.404 194.093 149.402 194.151C149.399 194.209 149.42 194.265 149.46 194.307C150.64 195.433 152.214 196.049 153.844 196.025Z" fill="#263238"/>
<path d="M133.502 192.155C133.855 192.989 134.37 193.746 135.016 194.38C135.662 195.015 136.428 195.515 137.268 195.853C139.558 196.746 140.886 194.811 140.485 192.567C140.119 190.553 138.528 187.645 136.181 187.702C135.663 187.715 135.156 187.859 134.709 188.119C134.261 188.38 133.886 188.749 133.619 189.193C133.352 189.637 133.201 190.142 133.181 190.659C133.16 191.177 133.271 191.692 133.502 192.155Z" fill="#FF8B7B"/>
<path d="M147.182 183.627C147.242 183.621 147.301 183.603 147.354 183.573C147.407 183.544 147.454 183.503 147.491 183.455C147.831 183.007 148.27 182.644 148.775 182.396C149.28 182.148 149.836 182.02 150.398 182.024C150.457 182.031 150.516 182.025 150.573 182.009C150.629 181.992 150.682 181.964 150.728 181.927C150.774 181.89 150.812 181.844 150.84 181.792C150.867 181.739 150.885 181.682 150.891 181.624C150.9 181.504 150.862 181.385 150.785 181.293C150.708 181.201 150.598 181.143 150.478 181.131C149.767 181.114 149.062 181.266 148.421 181.574C147.781 181.883 147.222 182.339 146.792 182.906C146.72 182.999 146.687 183.117 146.7 183.234C146.713 183.352 146.771 183.46 146.861 183.535C146.954 183.603 147.067 183.636 147.182 183.627Z" fill="#263238"/>
<path d="M160.999 180.845C161.109 180.809 161.199 180.731 161.251 180.628C161.278 180.575 161.294 180.516 161.299 180.457C161.303 180.397 161.295 180.337 161.276 180.281C161.257 180.224 161.227 180.172 161.187 180.127C161.147 180.083 161.099 180.047 161.045 180.021C160.413 179.695 159.713 179.525 159.002 179.525C158.291 179.525 157.59 179.695 156.958 180.021C156.856 180.083 156.782 180.182 156.753 180.298C156.723 180.413 156.739 180.536 156.798 180.639C156.827 180.691 156.867 180.736 156.914 180.772C156.962 180.808 157.016 180.835 157.073 180.849C157.131 180.864 157.191 180.868 157.25 180.859C157.309 180.85 157.365 180.83 157.416 180.799C157.917 180.54 158.472 180.405 159.036 180.405C159.6 180.405 160.155 180.54 160.656 180.799C160.706 180.832 160.763 180.853 160.822 180.861C160.882 180.869 160.942 180.864 160.999 180.845Z" fill="#263238"/>
<path d="M151.36 185.607L153.077 184.772C153.077 184.772 152.402 186.34 151.36 185.607Z" fill="#263238"/>
<path d="M168.428 281.537L166.78 361.245L115.392 353.919C113.332 312.239 120.544 290.363 128.259 281.537H168.428Z" fill="#263238"/>
<path opacity="0.2" d="M154.943 328.173L142.706 313.452V301.833L154.943 328.173Z" fill="black"/>
<path d="M128.431 229.222C126.897 233.801 125.42 238.586 124.024 243.268C122.627 247.95 121.391 252.724 120.395 257.428C119.925 259.718 119.467 262.122 119.25 264.4V264.835V265.041C119.225 265.202 119.253 265.367 119.33 265.51C119.666 266.224 120.132 266.868 120.704 267.411C122.252 268.952 123.969 270.315 125.821 271.474C127.79 272.734 129.953 273.947 132.037 275.035L130.571 279.614C127.954 279.113 125.384 278.389 122.89 277.45C120.225 276.482 117.709 275.144 115.415 273.478C114.03 272.445 112.84 271.174 111.901 269.723C111.314 268.787 110.892 267.757 110.653 266.678C110.524 266.08 110.459 265.47 110.458 264.858V264.171V263.656C110.539 262.305 110.653 260.954 110.813 259.649C110.974 258.344 111.168 257.039 111.363 255.746C112.227 250.666 113.351 245.634 114.728 240.669C115.377 238.197 116.09 235.743 116.869 233.309C117.636 230.871 118.403 228.478 119.307 226.005L128.431 229.222Z" fill="#FF8B7B"/>
<path d="M158.171 260.897L151.99 256.329L137.829 277.519L121.7 297.254L127.893 301.833L142.042 280.632L158.171 260.897Z" fill="#FAFAFA"/>
<path d="M151.978 256.329C153.373 258.599 155.593 260.24 158.171 260.908C156.777 258.639 154.557 256.998 151.978 256.329Z" fill="#E6E6E6"/>
<path d="M121.7 297.254C123.095 299.523 125.314 301.165 127.893 301.833C126.498 299.563 124.279 297.922 121.7 297.254Z" fill="#E6E6E6"/>
<path d="M130.984 274.691L141.183 275.367L134.51 282.292C134.51 282.292 128.648 280.712 127.756 276.889L130.984 274.691Z" fill="#FF8B7B"/>
<path d="M144.491 280.735L141.618 284.788C141.366 285.14 140.994 285.387 140.572 285.482C140.149 285.577 139.707 285.513 139.329 285.303L133.078 281.8L141.206 275.378L144.308 278.446C144.605 278.744 144.787 279.138 144.82 279.557C144.854 279.976 144.737 280.394 144.491 280.735Z" fill="#FF8B7B"/>
<path d="M131.671 227.368C130.949 222.937 127.641 220.327 123.394 218.885C117.144 223.407 114.087 238.346 110.63 255.769C110.54 256.273 110.622 256.793 110.863 257.246C111.104 257.698 111.49 258.057 111.958 258.264C114.694 259.409 117.029 260.554 118.598 261.286C118.871 261.424 119.169 261.504 119.475 261.52C119.78 261.537 120.085 261.49 120.372 261.382C120.658 261.275 120.919 261.109 121.137 260.895C121.356 260.682 121.528 260.425 121.643 260.141L132.815 232.416L131.671 227.368Z" fill="#263238"/>
<path d="M177.472 490.921C176.311 490.076 175.019 489.426 173.648 488.998C173.648 488.998 166.871 485.163 163.346 473.658L155.516 471.701C155.321 471.652 155.118 471.646 154.92 471.682C154.723 471.717 154.535 471.794 154.37 471.908C154.204 472.022 154.064 472.169 153.96 472.341C153.856 472.512 153.789 472.704 153.764 472.903C153.684 473.521 153.638 474.231 153.558 474.803C153.484 476.05 153.484 477.3 153.558 478.546C153.627 482.427 154.062 491.139 154.062 491.139H154.978C154.977 488.487 155.138 485.838 155.458 483.206C155.905 480.641 157.748 483.675 158.732 486.571C159.717 489.467 163.826 492.57 169.745 492.707C176.67 492.913 179.486 492.604 177.472 490.921Z" fill="#263238"/>
</svg>
