<svg width="609" height="609" viewBox="0 0 609 609" fill="none" xmlns="http://www.w3.org/2000/svg">
<path d="M304.5 520.768C434.927 520.768 540.658 514.595 540.658 506.98C540.658 499.366 434.927 493.193 304.5 493.193C174.074 493.193 68.342 499.366 68.342 506.98C68.342 514.595 174.074 520.768 304.5 520.768Z" fill="#F5F5F5" fill-opacity="0.2"/>
<path d="M336.507 203.106L337.273 203.754C337.555 204.002 337.874 204.237 338.18 204.473C338.793 204.956 339.359 205.44 340.066 205.899C341.339 206.83 342.694 207.679 344.049 208.527C346.783 210.213 349.649 211.675 352.618 212.9C355.574 214.16 358.619 215.199 361.728 216.011C362.506 216.223 363.307 216.365 364.085 216.542L365.264 216.801C365.511 216.801 365.264 216.801 365.264 216.86C365.103 216.897 364.951 216.965 364.816 217.06C364.71 217.166 364.71 217.166 364.757 217.143C364.99 216.797 365.172 216.42 365.299 216.023C365.717 214.663 365.974 213.259 366.065 211.839C366.206 210.295 366.254 208.669 366.242 207.031C366.242 203.742 365.983 200.383 365.723 197.013C365.464 193.642 365.051 190.26 364.615 186.865C364.179 183.471 363.696 180.077 363.189 176.73L367.621 175.716C369.572 182.443 371.146 189.273 372.335 196.176C372.952 199.686 373.381 203.227 373.62 206.783C373.758 208.618 373.801 210.459 373.749 212.299C373.733 214.329 373.476 216.351 372.983 218.321C372.65 219.581 372.108 220.776 371.38 221.857C370.871 222.594 370.237 223.236 369.506 223.754C368.668 224.354 367.705 224.756 366.69 224.933C365.816 225.08 364.923 225.08 364.05 224.933L362.694 224.709C361.787 224.556 360.868 224.438 359.972 224.238C356.358 223.52 352.81 222.503 349.365 221.197C345.92 219.875 342.59 218.275 339.406 216.412C337.815 215.457 336.259 214.456 334.751 213.359C333.996 212.817 333.254 212.181 332.511 211.662C332.146 211.356 331.78 211.061 331.415 210.731C331.05 210.401 330.708 210.13 330.237 209.682L336.507 203.106Z" fill="#E4897B"/>
<path d="M323.695 197.743C336.66 195.987 347.078 206.441 347.078 206.441L335.222 224.733C335.222 224.733 322.517 216.6 320.278 211.061C317.968 205.298 317.06 198.604 323.695 197.743Z" fill="white"/>
<path opacity="0.6" d="M323.695 197.743C336.66 195.987 347.078 206.441 347.078 206.441L335.222 224.733C335.222 224.733 322.517 216.6 320.278 211.061C317.968 205.298 317.06 198.604 323.695 197.743Z" fill="#FAFAFA"/>
<path d="M363.295 178.321L358.994 169.694L370.272 169.599C370.272 169.599 370.496 175.622 367.644 179.028L363.295 178.321Z" fill="#E4897B"/>
<path d="M360.997 160.418L369.388 161.915L370.272 169.599L358.994 169.694L360.997 160.418Z" fill="#E4897B"/>
<path d="M277.849 482.485L288.409 483.499L295.716 458.701L285.156 457.676L277.849 482.485Z" fill="#E4897B"/>
<path d="M210.706 445.808L218.532 453.162L235.433 434.588L227.607 427.234L210.706 445.808Z" fill="#E4897B"/>
<path d="M222.15 449.638L216.257 439.031C216.157 438.849 215.995 438.71 215.8 438.638C215.605 438.567 215.391 438.568 215.197 438.642L206.133 442.084C205.909 442.18 205.707 442.322 205.541 442.501C205.375 442.68 205.249 442.892 205.17 443.123C205.091 443.354 205.062 443.6 205.084 443.843C205.105 444.086 205.178 444.322 205.297 444.535C207.406 448.189 208.62 449.85 211.19 454.506C212.781 457.382 215.904 463.934 218.084 467.918C220.264 471.901 224.307 469.91 223.753 468.071C221.231 459.821 221.714 455.189 222.421 451.571C222.563 450.915 222.467 450.23 222.15 449.638Z" fill="#263238"/>
<path d="M289.647 480.281H276.847C276.618 480.284 276.397 480.361 276.216 480.501C276.035 480.642 275.905 480.838 275.846 481.059L273.052 491.183C272.987 491.422 272.977 491.674 273.026 491.918C273.074 492.162 273.178 492.391 273.33 492.588C273.482 492.784 273.678 492.943 273.902 493.051C274.126 493.159 274.371 493.213 274.62 493.21C279.134 493.21 281.267 493.21 286.901 493.21H304.096C308.81 493.21 309.753 488.496 307.82 488.048C299.146 486.139 294.137 483.487 291.462 480.976C290.966 480.524 290.318 480.276 289.647 480.281Z" fill="#263238"/>
<path d="M295.716 458.702L291.945 471.489H281.078L285.145 457.688L295.716 458.702Z" fill="#CE6F64"/>
<path d="M227.595 427.246L235.433 434.588L226.711 444.158L218.885 436.816L227.595 427.246Z" fill="#CE6F64"/>
<path d="M336.471 190.424C336.389 181.856 328.634 178.863 328.634 178.863C328.634 178.863 338.333 160.501 333.348 148.314C328.363 136.128 311.933 133.983 306.724 139.675C297.567 139.286 294.656 152.439 294.656 152.439C294.656 152.439 286.995 153.724 284.932 159.299C282.87 164.873 289.152 171.155 289.152 171.155C289.152 171.155 280.407 172.333 277.189 179.063C273.972 185.793 275.952 194.726 285.616 202.434C299.664 213.63 325.487 199.582 325.487 199.582C325.487 199.582 336.565 200.277 336.471 190.424Z" fill="#263238"/>
<path d="M334.809 198.945C334.809 198.945 339.524 201.008 323.778 263.201L280.171 259.418C282.434 241.739 283.412 230.755 278.073 193.559C284.295 192.824 290.562 192.544 296.824 192.723C303.464 192.823 310.088 193.394 316.648 194.432C322.773 195.632 328.835 197.138 334.809 198.945Z" fill="white"/>
<path opacity="0.6" d="M334.809 198.945C334.809 198.945 339.524 201.008 323.778 263.201L280.171 259.418C282.434 241.739 283.412 230.755 278.073 193.559C284.295 192.824 290.562 192.544 296.824 192.723C303.464 192.823 310.088 193.394 316.648 194.432C322.773 195.632 328.835 197.138 334.809 198.945Z" fill="#FAFAFA"/>
<path d="M323.507 195.905C321.244 195.363 318.793 194.844 316.553 194.432C309.995 193.39 303.37 192.815 296.73 192.711C294.455 192.628 292.181 192.628 290.047 192.711L291.509 195.492C291.768 195.987 297.991 207.596 309.812 214.184L313.065 215.999L316.094 213.843C323.731 208.386 324.862 201.291 323.507 195.905Z" fill="#FAFAFA"/>
<path d="M300.631 170.566C301.326 177.06 301.562 188.857 296.742 192.723C296.742 192.723 302.257 203.2 312.699 209.011C321.939 202.434 316.565 194.432 316.565 194.432C309.6 192.075 310.236 186.865 311.851 182.01L300.631 170.566Z" fill="#E4897B"/>
<path d="M305.215 175.233L311.886 182.01C311.48 183.136 311.172 184.295 310.967 185.475C308.292 184.85 304.402 182.057 304.355 179.181C304.409 177.825 304.7 176.488 305.215 175.233Z" fill="#CE6F64"/>
<path d="M300.348 155.834C299.063 166.441 298.297 170.931 302.623 177.307C309.128 186.877 322.47 186.123 326.889 176.129C330.873 167.101 332.299 151.237 322.764 145.168C320.674 143.822 318.275 143.033 315.794 142.874C313.313 142.715 310.832 143.192 308.587 144.261C306.342 145.329 304.407 146.952 302.965 148.978C301.524 151.003 300.623 153.363 300.348 155.834Z" fill="#E4897B"/>
<path d="M308.574 142.763C316.765 144.885 308.669 169.8 295.61 162.575C295.61 162.575 296.2 152.05 299.829 147.584C302.025 144.922 305.152 143.199 308.574 142.763Z" fill="#263238"/>
<path d="M307.702 144.142C311.238 149.894 337.461 160.795 328.645 148.42C319.83 136.045 307.702 144.142 307.702 144.142Z" fill="#263238"/>
<path d="M296.977 165.015C296.83 167.081 297.504 169.122 298.851 170.695C300.666 172.758 303.059 171.509 303.813 169.01C304.485 166.771 304.355 162.999 301.939 161.844C301.406 161.609 300.823 161.509 300.242 161.554C299.661 161.599 299.1 161.786 298.609 162.1C298.118 162.414 297.712 162.844 297.427 163.353C297.143 163.861 296.988 164.432 296.977 165.015Z" fill="#E4897B"/>
<path d="M323.731 263.201C323.731 263.201 338.498 328.541 328.645 374.599C322.045 405.454 298.227 467.777 298.227 467.777L279.605 467.305C279.605 467.305 297.626 401.895 301.362 376.178C307.738 332.171 291.768 260.431 291.768 260.431L323.731 263.201Z" fill="#263238"/>
<path d="M306.701 276.389L297.39 291.074C300.196 308.488 301.975 326.051 302.717 343.674C315.811 320.232 309.612 288.799 306.701 276.389Z" fill="#263238"/>
<path d="M299.759 468.743L276.753 468.154L278.085 461.094L303.2 462.284L299.759 468.743Z" fill="white"/>
<path opacity="0.6" d="M299.759 468.743L276.753 468.154L278.085 461.094L303.2 462.284L299.759 468.743Z" fill="#FAFAFA"/>
<path d="M314.185 262.494C314.185 262.494 305.522 331.794 286.736 369.625C271.568 400.139 231.096 443.746 231.096 443.746L220.748 433.08C220.748 433.08 248.091 385.807 259.369 365.501C287.019 315.73 264.414 277.756 280.089 259.43L314.185 262.494Z" fill="#263238"/>
<path d="M232.133 445.113L218.768 432.09L223.211 426.055L237.766 441.106L232.133 445.113Z" fill="white"/>
<path opacity="0.6" d="M232.133 445.113L218.768 432.09L223.211 426.055L237.766 441.106L232.133 445.113Z" fill="#FAFAFA"/>
<path d="M279.641 256.801L277.342 260.537C277.154 260.832 277.496 261.174 277.991 261.209L323.778 265.169C324.179 265.169 324.52 265.04 324.568 264.792L325.298 260.926C325.298 260.655 325.027 260.396 324.591 260.361L280.383 256.53C280.246 256.507 280.106 256.52 279.976 256.568C279.846 256.615 279.73 256.696 279.641 256.801Z" fill="white"/>
<path opacity="0.3" d="M279.641 256.801L277.342 260.537C277.154 260.832 277.496 261.174 277.991 261.209L323.778 265.169C324.179 265.169 324.52 265.04 324.568 264.792L325.298 260.926C325.298 260.655 325.027 260.396 324.591 260.361L280.383 256.53C280.246 256.507 280.106 256.52 279.976 256.568C279.846 256.615 279.73 256.696 279.641 256.801Z" fill="black"/>
<path d="M285.156 262.246L283.978 262.14C283.742 262.14 283.577 261.987 283.601 261.834L284.603 256.813C284.603 256.66 284.85 256.554 285.086 256.577L286.264 256.684C286.5 256.684 286.665 256.837 286.641 256.99L285.651 262.011C285.604 262.176 285.392 262.246 285.156 262.246Z" fill="#263238"/>
<path d="M320.419 265.311L319.24 265.205C319.005 265.205 318.84 265.051 318.863 264.898L319.865 259.866C319.865 259.724 320.113 259.618 320.348 259.642L321.527 259.748C321.763 259.748 321.928 259.901 321.904 260.042L320.914 265.075C320.867 265.228 320.667 265.322 320.419 265.311Z" fill="#263238"/>
<path d="M302.788 263.778L301.609 263.684C301.373 263.684 301.208 263.519 301.232 263.378L302.234 258.345C302.234 258.204 302.481 258.098 302.717 258.121L303.896 258.216C304.131 258.216 304.296 258.381 304.273 258.522L303.283 263.555C303.236 263.696 302.988 263.802 302.788 263.778Z" fill="#263238"/>
<path d="M315.752 161.691C315.599 162.54 315.929 163.317 316.483 163.424C317.037 163.53 317.661 162.917 317.779 162.056C317.897 161.196 317.614 160.418 317.048 160.324C316.483 160.23 315.952 160.89 315.752 161.691Z" fill="#263238"/>
<path d="M325.381 163.459C325.228 164.307 325.558 165.085 326.112 165.191C326.665 165.297 327.29 164.685 327.408 163.824C327.526 162.964 327.243 162.186 326.677 162.092C326.112 161.997 325.593 162.599 325.381 163.459Z" fill="#263238"/>
<path d="M326.477 162.068L328.634 161.856C328.634 161.856 327.29 163.247 326.477 162.068Z" fill="#263238"/>
<path d="M322.599 164.425C323.011 166.517 323.705 168.543 324.662 170.448C324.167 170.678 323.628 170.798 323.083 170.798C322.537 170.798 321.998 170.678 321.503 170.448L322.599 164.425Z" fill="#DE5753"/>
<path d="M317.921 173.276C316.771 173.098 315.68 172.647 314.741 171.96C313.802 171.273 313.041 170.37 312.523 169.328C312.503 169.277 312.505 169.219 312.527 169.169C312.549 169.118 312.589 169.078 312.641 169.057C312.665 169.046 312.692 169.039 312.719 169.038C312.746 169.037 312.774 169.042 312.799 169.052C312.824 169.062 312.847 169.077 312.867 169.096C312.886 169.115 312.901 169.138 312.912 169.163C313.408 170.135 314.127 170.975 315.01 171.616C315.892 172.257 316.914 172.68 317.991 172.852C318.048 172.852 318.101 172.875 318.141 172.914C318.181 172.954 318.203 173.008 318.203 173.064C318.203 173.121 318.181 173.175 318.141 173.214C318.101 173.254 318.048 173.276 317.991 173.276H317.921Z" fill="#263238"/>
<path d="M313.454 154.997C313.364 154.998 313.275 154.971 313.202 154.92C313.128 154.868 313.073 154.794 313.044 154.709C313.015 154.623 313.014 154.531 313.041 154.445C313.068 154.359 313.122 154.284 313.194 154.231C313.815 153.731 314.547 153.387 315.329 153.229C316.11 153.071 316.918 153.103 317.685 153.323C317.737 153.342 317.786 153.37 317.828 153.408C317.869 153.445 317.903 153.49 317.927 153.54C317.951 153.591 317.965 153.645 317.968 153.701C317.971 153.757 317.963 153.813 317.944 153.865C317.926 153.918 317.897 153.967 317.86 154.008C317.822 154.05 317.777 154.083 317.727 154.108C317.676 154.132 317.622 154.146 317.566 154.148C317.51 154.151 317.455 154.143 317.402 154.125C316.77 153.951 316.105 153.931 315.463 154.066C314.821 154.201 314.221 154.488 313.713 154.902C313.638 154.959 313.548 154.992 313.454 154.997Z" fill="#263238"/>
<path d="M330.897 160.206C330.834 160.206 330.772 160.192 330.715 160.165C330.658 160.139 330.607 160.101 330.567 160.053C330.164 159.534 329.645 159.117 329.051 158.836C328.457 158.556 327.805 158.419 327.149 158.438C327.037 158.448 326.925 158.415 326.837 158.344C326.749 158.274 326.692 158.173 326.677 158.061C326.671 158.006 326.675 157.95 326.691 157.897C326.707 157.843 326.733 157.794 326.768 157.751C326.803 157.708 326.847 157.673 326.896 157.647C326.945 157.621 326.999 157.606 327.054 157.601C327.852 157.56 328.648 157.712 329.374 158.045C330.101 158.377 330.736 158.88 331.227 159.511C331.304 159.592 331.347 159.699 331.347 159.811C331.347 159.923 331.304 160.031 331.227 160.112C331.132 160.184 331.014 160.217 330.897 160.206Z" fill="#263238"/>
<path d="M281.291 209.211C279.518 212.728 277.551 216.143 275.398 219.441C273.277 222.694 271.037 225.876 268.621 228.94C266.18 232.015 263.563 234.947 260.784 237.72C259.346 239.076 257.943 240.455 256.399 241.728L255.221 242.694L254.938 242.93L254.561 243.224C254.312 243.427 254.053 243.616 253.783 243.79C252.711 244.524 251.546 245.111 250.318 245.534C248.005 246.289 245.562 246.557 243.141 246.324C240.972 246.107 238.836 245.636 236.776 244.921C232.962 243.59 229.324 241.798 225.945 239.583C219.444 235.365 213.456 230.406 208.102 224.803L211.237 221.515C214.054 223.778 217.024 226.029 220.064 228.068C223.043 230.154 226.144 232.059 229.351 233.772C232.405 235.45 235.629 236.797 238.968 237.791C242.151 238.675 245.345 238.828 247.548 237.909C248.794 237.368 249.907 236.563 250.813 235.552C252.121 234.373 253.335 233.065 254.573 231.792C256.989 229.164 259.228 226.347 261.432 223.542C263.636 220.737 265.628 217.649 267.56 214.585C268.539 213.053 269.47 211.497 270.389 209.942C271.308 208.386 272.192 206.748 272.958 205.286L281.291 209.211Z" fill="#E4897B"/>
<path d="M214.218 222.918L210.023 214.243L203.046 223.106C203.046 223.106 207.666 226.96 212.156 226.819L214.218 222.918Z" fill="#E4897B"/>
<path d="M205.438 211.709L201.49 219.264L203.046 223.106L210.023 214.243L205.438 211.709Z" fill="#E4897B"/>
<path d="M277.979 193.56C272.628 194.502 265.121 209.859 265.121 209.859L279.818 223.142C279.818 223.142 289.34 210.354 288.775 203.377C288.291 197.425 284.791 192.357 277.979 193.56Z" fill="white"/>
<path opacity="0.6" d="M277.979 193.56C272.628 194.502 265.121 209.859 265.121 209.859L279.818 223.142C279.818 223.142 289.34 210.354 288.775 203.377C288.291 197.425 284.791 192.357 277.979 193.56Z" fill="#FAFAFA"/>
<path d="M224.213 455.331C224.072 455.332 223.932 455.308 223.8 455.26C222.516 454.836 221.679 452.467 221.29 451.088C221.278 451.048 221.279 451.005 221.291 450.965C221.304 450.926 221.328 450.89 221.361 450.864C221.396 450.843 221.437 450.833 221.478 450.833C221.52 450.833 221.56 450.843 221.596 450.864C221.985 451.064 225.403 452.903 225.509 454.247C225.525 454.394 225.499 454.543 225.435 454.676C225.37 454.81 225.269 454.922 225.144 455.001C224.878 455.211 224.551 455.327 224.213 455.331ZM221.856 451.465C222.445 453.363 223.211 454.612 223.942 454.859C224.108 454.909 224.285 454.915 224.454 454.875C224.624 454.836 224.78 454.754 224.908 454.635C224.972 454.597 225.024 454.542 225.058 454.475C225.091 454.408 225.105 454.333 225.097 454.258C225.026 453.433 223.022 452.125 221.844 451.465H221.856Z" fill="white"/>
<path d="M224.743 451.995C223.578 451.991 222.429 451.721 221.384 451.206C221.351 451.19 221.324 451.165 221.305 451.133C221.286 451.102 221.277 451.066 221.278 451.029C221.278 450.99 221.289 450.951 221.31 450.918C221.331 450.885 221.361 450.858 221.396 450.84C221.502 450.84 224.213 449.297 225.674 449.815C225.854 449.874 226.018 449.972 226.155 450.102C226.291 450.233 226.397 450.393 226.464 450.569C226.557 450.739 226.589 450.936 226.555 451.127C226.52 451.318 226.422 451.491 226.275 451.618C225.819 451.908 225.281 452.04 224.743 451.995ZM221.962 451.029C223.14 451.524 225.368 451.83 226.004 451.288C226.11 451.206 226.204 451.053 226.075 450.723C226.028 450.603 225.955 450.495 225.861 450.408C225.767 450.32 225.655 450.254 225.533 450.216C224.531 449.862 222.728 450.652 221.962 451.029Z" fill="white"/>
<path d="M295.327 482.355C294.137 482.328 292.952 482.178 291.792 481.907C291.748 481.898 291.708 481.874 291.678 481.84C291.649 481.806 291.631 481.764 291.627 481.719C291.62 481.676 291.629 481.631 291.65 481.593C291.671 481.555 291.704 481.524 291.745 481.507C292.275 481.259 296.907 479.15 298.085 479.904C298.19 479.977 298.274 480.076 298.328 480.192C298.382 480.308 298.404 480.437 298.392 480.564C298.378 480.795 298.313 481.02 298.204 481.223C298.094 481.427 297.941 481.604 297.755 481.742C297.026 482.186 296.18 482.4 295.327 482.355ZM292.57 481.625C293.948 481.884 296.494 482.214 297.543 481.424C297.682 481.321 297.796 481.188 297.877 481.035C297.959 480.882 298.006 480.713 298.015 480.54C298.021 480.487 298.014 480.433 297.993 480.383C297.973 480.333 297.939 480.29 297.897 480.257C297.237 479.81 294.491 480.776 292.57 481.625Z" fill="white"/>
<path d="M291.886 481.908C291.841 481.926 291.79 481.926 291.745 481.908C291.715 481.882 291.693 481.848 291.681 481.811C291.668 481.774 291.666 481.734 291.674 481.695C291.674 481.507 292.782 476.922 295.292 477.217C295.928 477.288 296.093 477.606 296.129 477.853C296.294 479.032 293.359 481.389 291.968 481.943L291.886 481.908ZM295.068 477.582C293.453 477.582 292.522 480.246 292.204 481.318C293.725 480.517 295.811 478.608 295.74 477.865C295.74 477.806 295.74 477.641 295.28 477.594L295.068 477.582Z" fill="white"/>
<path d="M316.801 160.324L318.958 160.1C318.958 160.1 317.614 161.514 316.801 160.324Z" fill="#263238"/>
<path opacity="0.6" d="M228.137 93.1575L193.594 316.46L387.963 346.49L422.506 123.176L228.137 93.1575ZM307.997 220.172C299.075 218.791 290.764 214.795 284.114 208.689C277.464 202.584 272.774 194.643 270.638 185.872C268.502 177.1 269.016 167.892 272.114 159.413C275.212 150.934 280.756 143.564 288.044 138.236C295.332 132.908 304.036 129.861 313.056 129.481C322.075 129.101 331.005 131.405 338.715 136.101C346.425 140.797 352.569 147.674 356.37 155.863C360.17 164.052 361.457 173.184 360.066 182.104C358.203 194.054 351.673 204.775 341.909 211.913C332.146 219.051 319.949 222.021 307.997 220.172Z" fill="white"/>
<g style="mix-blend-mode:multiply" opacity="0.3">
<path d="M382.093 338.016H381.799L187.135 307.857V307.562L221.773 84H222.056L416.72 114.16V114.454L382.093 338.016ZM187.807 307.374L381.598 337.345L416.048 114.596L222.256 84.6718L187.807 307.374Z" fill="white"/>
</g>
<path d="M314.998 222.481C312.563 222.479 310.132 222.29 307.726 221.916C295.635 220.029 284.745 213.534 277.34 203.791C269.935 194.049 266.591 181.817 268.01 169.663C269.429 157.508 275.5 146.375 284.949 138.6C294.399 130.825 306.493 127.013 318.693 127.962C330.893 128.911 342.252 134.548 350.385 143.691C358.519 152.834 362.795 164.772 362.317 176.999C361.839 189.227 356.644 200.794 347.821 209.274C338.999 217.754 327.235 222.488 314.998 222.481ZM308.268 218.427C316.839 219.751 325.61 218.504 333.473 214.844C341.336 211.184 347.936 205.274 352.44 197.863C356.945 190.451 359.15 181.87 358.778 173.206C358.406 164.541 355.473 156.181 350.35 149.183C345.227 142.185 338.144 136.863 329.997 133.89C321.85 130.917 313.004 130.426 304.577 132.48C296.151 134.534 288.524 139.041 282.658 145.43C276.793 151.818 272.954 159.803 271.626 168.374C269.862 179.868 272.728 191.593 279.597 200.977C286.467 210.36 296.778 216.636 308.268 218.427Z" fill="#FAFAFA"/>
<path d="M270.452 233.987L227.636 227.366L226.149 236.987L268.964 243.608L270.452 233.987Z" fill="#419EAC"/>
<path d="M305.058 239.34L276.091 234.861L274.604 244.481L303.57 248.96L305.058 239.34Z" fill="white"/>
<path opacity="0.6" d="M305.058 239.34L276.091 234.861L274.604 244.481L303.57 248.96L305.058 239.34Z" fill="#419EAC"/>
<path d="M379.441 270.802L224.615 246.861L223.127 256.482L377.954 280.423L379.441 270.802Z" fill="#419EAC"/>
<path d="M299.704 278.886L222.579 267.201L221.119 276.838L298.243 288.524L299.704 278.886Z" fill="#419EAC"/>
<path d="M363.123 289.224L311.619 281.26L310.132 290.881L361.636 298.845L363.123 289.224Z" fill="#419EAC"/>
<path d="M342.07 306.92L218.294 287.781L216.807 297.402L340.582 316.541L342.07 306.92Z" fill="#419EAC"/>
<path d="M424.581 346.49H423.402C423.407 343.566 423.046 340.652 422.33 337.816L423.508 337.533C424.237 340.463 424.597 343.472 424.581 346.49ZM419.961 331.263C417.367 325.836 413.448 321.15 408.564 317.639L409.248 316.684C414.291 320.306 418.344 325.136 421.033 330.733L419.961 331.263Z" fill="white"/>
<path opacity="0.6" d="M424.581 346.49H423.402C423.407 343.566 423.046 340.652 422.33 337.816L423.508 337.533C424.237 340.463 424.597 343.472 424.581 346.49ZM419.961 331.263C417.367 325.836 413.448 321.15 408.564 317.639L409.248 316.684C414.291 320.306 418.344 325.136 421.033 330.733L419.961 331.263Z" fill="#FAFAFA"/>
<path d="M387.963 313.997C381.536 313.997 375.254 315.903 369.911 319.473C364.567 323.044 360.402 328.118 357.943 334.056C355.484 339.993 354.84 346.526 356.094 352.829C357.348 359.132 360.442 364.922 364.987 369.466C369.531 374.011 375.321 377.105 381.624 378.359C387.927 379.613 394.46 378.969 400.397 376.51C406.335 374.051 411.409 369.886 414.98 364.542C418.55 359.199 420.456 352.917 420.456 346.49C420.456 337.873 417.032 329.608 410.939 323.514C404.845 317.421 396.58 313.997 387.963 313.997ZM387.963 374.776C382.368 374.776 376.9 373.117 372.248 370.009C367.597 366.901 363.971 362.483 361.83 357.315C359.689 352.146 359.129 346.459 360.221 340.972C361.312 335.485 364.006 330.445 367.962 326.489C371.918 322.534 376.958 319.84 382.444 318.748C387.931 317.657 393.619 318.217 398.787 320.358C403.956 322.499 408.373 326.124 411.481 330.776C414.589 335.427 416.248 340.896 416.248 346.49C416.248 353.992 413.268 361.187 407.964 366.491C402.659 371.796 395.465 374.776 387.963 374.776Z" fill="white"/>
<path opacity="0.6" d="M387.963 313.997C381.536 313.997 375.254 315.903 369.911 319.473C364.567 323.044 360.402 328.118 357.943 334.056C355.484 339.993 354.84 346.526 356.094 352.829C357.348 359.132 360.442 364.922 364.987 369.466C369.531 374.011 375.321 377.105 381.624 378.359C387.927 379.613 394.46 378.969 400.397 376.51C406.335 374.051 411.409 369.886 414.98 364.542C418.55 359.199 420.456 352.917 420.456 346.49C420.456 337.873 417.032 329.608 410.939 323.514C404.845 317.421 396.58 313.997 387.963 313.997ZM387.963 374.776C382.368 374.776 376.9 373.117 372.248 370.009C367.597 366.901 363.971 362.483 361.83 357.315C359.689 352.146 359.129 346.459 360.221 340.972C361.312 335.485 364.006 330.445 367.962 326.489C371.918 322.534 376.958 319.84 382.444 318.748C387.931 317.657 393.619 318.217 398.787 320.358C403.956 322.499 408.373 326.124 411.481 330.776C414.589 335.427 416.248 340.896 416.248 346.49C416.248 353.992 413.268 361.187 407.964 366.491C402.659 371.796 395.465 374.776 387.963 374.776Z" fill="#FAFAFA"/>
<path d="M387.963 374.764C403.578 374.764 416.237 362.105 416.237 346.49C416.237 330.875 403.578 318.216 387.963 318.216C372.348 318.216 359.689 330.875 359.689 346.49C359.689 362.105 372.348 374.764 387.963 374.764Z" fill="white"/>
<path d="M387.963 374.764C403.578 374.764 416.237 362.105 416.237 346.49C416.237 330.875 403.578 318.216 387.963 318.216C372.348 318.216 359.689 330.875 359.689 346.49C359.689 362.105 372.348 374.764 387.963 374.764Z" fill="#419EAC"/>
<path d="M384.409 357.821L372.308 345.886L375.351 342.894L384.409 351.828L399.888 336.562L402.922 339.563L384.409 357.821Z" fill="#FAFAFA"/>
</svg>
