<svg width="16" height="16" viewBox="0 0 16 16" fill="none" xmlns="http://www.w3.org/2000/svg">
<path d="M9.28255 1.38882C9.28255 0.876664 8.86878 0.462891 8.35663 0.462891C7.84447 0.462891 7.4307 0.876664 7.4307 1.38882L7.4307 8.41139L5.30686 6.28754C4.94517 5.92585 4.35778 5.92585 3.99609 6.28754C3.6344 6.64923 3.6344 7.23662 3.99609 7.59831L7.6998 11.302C8.06149 11.6637 8.64887 11.6637 9.01056 11.302L12.7143 7.59831C13.076 7.23662 13.076 6.64923 12.7143 6.28754C12.3526 5.92585 11.7652 5.92585 11.4035 6.28754L9.28255 8.41139L9.28255 1.38882ZM2.80107 10.6481C1.77966 10.6481 0.949219 11.4785 0.949219 12.4999L0.949219 13.4259C0.949219 14.4473 1.77966 15.2777 2.80107 15.2777L13.9122 15.2777C14.9336 15.2777 15.764 14.4473 15.764 13.4259V12.4999C15.764 11.4785 14.9336 10.6481 13.9122 10.6481H10.9753L9.6645 11.9588C8.94112 12.6822 7.76924 12.6822 7.04586 11.9588L5.73799 10.6481H2.80107ZM13.4492 13.6573C13.0644 13.6573 12.7548 13.3477 12.7548 12.9629C12.7548 12.5781 13.0644 12.2684 13.4492 12.2684C13.8341 12.2684 14.1437 12.5781 14.1437 12.9629C14.1437 13.3477 13.8341 13.6573 13.4492 13.6573Z" fill="#419EAC"/>
</svg>
